<svg xmlns="http://www.w3.org/2000/svg" width="90" height="100" viewBox="0 0 90 100">
  <defs>
    <style>
      .cls-1 {
        isolation: isolate;
      }

      .cls-2 {
        fill: #8fe9ff;
      }

      .cls-3 {
        fill: #5057b8;
      }

      .cls-4, .cls-5 {
        fill: #f0d907;
      }

      .cls-4 {
        mix-blend-mode: multiply;
      }

      .cls-6 {
        fill: #fff;
      }

      .cls-7 {
        fill: #e8e8e8;
      }

      .cls-8 {
        fill: #ff3599;
      }

      .cls-9 {
        fill: #439eff;
      }

      .cls-10 {
        fill: #ff61af;
      }

      .cls-11 {
        opacity: 0.4;
        mix-blend-mode: screen;
      }
    </style>
  </defs>
  <g class="cls-1">
    <g id="Ñëîé_1" data-name="Ñëîé 1">
      <g>
        <path class="cls-2" d="M48.11,36.12c1.66,1.17,3.27,2.48,5.43,2.85a9.63,9.63,0,0,1-3.83,2.92c1.62.44,3.59,1.32,5.21,1.36-.48,1.23-1.18,2.69-2.43,3.26,2.48,0,4.76.41,7.26-.26-.38,1-.86,2-1.25,3.06,2.11,0,6.63-.41,7.25-2.9.53-2.19-2.17-4.91-3.69-6.12a17.93,17.93,0,0,0-6.74-3.09C53.61,36.76,49.44,37.06,48.11,36.12Z"/>
        <path class="cls-2" d="M88.78,36.37c-1.26,1.13-2.47,2.38-4.27,2.73a10.18,10.18,0,0,0,3.66,2.83c-1.33.42-2.9,1.27-4.27,1.29a6.45,6.45,0,0,0,2.5,3.16c-2.13,0-4,.38-6.25-.28.46,1,1,2,1.47,2.95-1.8,0-5.73-.42-6.58-2.83-.75-2.12,1.21-4.73,2.35-5.89a12.51,12.51,0,0,1,5.37-2.95C84.16,37,87.77,37.28,88.78,36.37Z"/>
        <path class="cls-2" d="M40.59,19.56c.12-4.69.25-9.43,0-14.12,0-.79-1.38-.84-1.41,0-.21,4.74,0,9.52,0,14.27,0,2-.3,6,.77,7.63a.28.28,0,0,0,.43,0C41.6,25.6,40.55,21.51,40.59,19.56Z"/>
        <g>
          <g>
            <path class="cls-3" d="M76.15,41.24a11.52,11.52,0,0,0-.37-4.64c0-.2-.08-.38-.13-.57a5.75,5.75,0,0,0-3.55-3.72,9.13,9.13,0,0,0-5.58-.68,8.55,8.55,0,0,0-2.77.87,9.06,9.06,0,0,0-2.52,1.72c-2.76,2.72-1,5.7.13,8.69s1.42,8.1.57,11c-1.36,4.64-5.64,7.08-10.19,9.54-1.83,1-4.21,2.1-4.6,4.23s2,3.94,4,4.59c5.12,1.68,10.22-1.27,13.3-4.85C75.77,54.23,76.11,42.49,76.15,41.24Z"/>
            <path d="M68.21,29.05a1.29,1.29,0,0,1,.24-.08l.38,0a3.22,3.22,0,0,1,.43,0,4.86,4.86,0,0,1,1,.26,6.63,6.63,0,0,1,1,.49,5,5,0,0,1,.92.7,4.27,4.27,0,0,1,.36.38,4.61,4.61,0,0,1,.28.38c.08.11.13.24.19.34a1.62,1.62,0,0,1,.13.27l.08.24a.06.06,0,0,1,0,.08.06.06,0,0,1-.07,0h0L73,31.86a1.7,1.7,0,0,0-.19-.2,1.51,1.51,0,0,0-.26-.24,5.44,5.44,0,0,0-.73-.49,5.59,5.59,0,0,0-.91-.37,5.47,5.47,0,0,0-1.76-.26l-.31,0h-.19a1.61,1.61,0,0,1-.25,0h0a.64.64,0,0,1-.2-1.22Z"/>
            <path class="cls-3" d="M1.49,93c-2.64-7.29,14.35-6.89,17.5-11.9s.74-12.58,2.45-18.56-1.59-11.45,2.87-17.28,1.39-10.65,2.4-13.33,2.49-6.35,9.11-6.52,15-2.05,17.62,5.18.41,15.83,2.2,24.38S54.07,75.6,58.77,79.27s17.5,9,15.31,12.26-4.87,3.25-11.83,4.92C57.62,97.56,3.94,99.7,1.49,93Z"/>
            <g>
              <path class="cls-4" d="M41.51,50.87a9.47,9.47,0,0,1-9.46-9.46,8.45,8.45,0,0,1,.15-1.5,9.45,9.45,0,1,1,9.31,11Z"/>
              <path class="cls-5" d="M41.51,50.87a9.47,9.47,0,0,1-9.46-9.46,8.45,8.45,0,0,1,.15-1.5,9.45,9.45,0,1,1,9.31,11Z"/>
              <g>
                <g>
                  <circle class="cls-6" cx="41.51" cy="41.41" r="7.82"/>
                  <path class="cls-7" d="M34,39.41a7.78,7.78,0,0,0,15.3,1.53c0,.16,0,.31,0,.47a7.82,7.82,0,1,1-15.63,0A7.73,7.73,0,0,1,34,39.41Z"/>
                </g>
                <g>
                  <path d="M41.18,37.44A3.9,3.9,0,1,0,46.67,37,3.89,3.89,0,0,0,41.18,37.44Z"/>
                  <path class="cls-6" d="M44.82,39.15A1.56,1.56,0,1,0,47,39,1.57,1.57,0,0,0,44.82,39.15Z"/>
                </g>
              </g>
            </g>
            <g>
              <path class="cls-4" d="M65.17,45a6.49,6.49,0,0,1-2.38-8.84,5.88,5.88,0,0,1,.61-.84,6.42,6.42,0,0,1,8.24-1.53A6.47,6.47,0,1,1,65.17,45Z"/>
              <path class="cls-5" d="M65.17,45a6.49,6.49,0,0,1-2.38-8.84,5.88,5.88,0,0,1,.61-.84,6.42,6.42,0,0,1,8.24-1.53A6.47,6.47,0,1,1,65.17,45Z"/>
              <g>
                <g>
                  <path class="cls-6" d="M63.77,36.74a5.35,5.35,0,1,0,7.31-2A5.35,5.35,0,0,0,63.77,36.74Z"/>
                  <path class="cls-7" d="M64.63,35.66a5.32,5.32,0,0,0,8.54,6.13c0,.1-.08.2-.14.3a5.35,5.35,0,1,1-8.4-6.43Z"/>
                </g>
                <g>
                  <path d="M68.69,40.19a2.67,2.67,0,1,0-3.76.25A2.67,2.67,0,0,0,68.69,40.19Z"/>
                  <path class="cls-6" d="M66.22,39a1.06,1.06,0,1,0-1.5.1A1.06,1.06,0,0,0,66.22,39Z"/>
                </g>
              </g>
            </g>
            <path class="cls-8" d="M53.9,63.3c-7.48,3.48-17-1.13-21.28-10.3a21.29,21.29,0,0,1-2-10.29A20.09,20.09,0,0,0,25,57C25,67.11,31.71,75.32,40,75.32c6.46,0,12-5,14-12.07Z"/>
            <g>
              <path class="cls-6" d="M30.91,47.49a26.94,26.94,0,0,1-3.27.57c-.73,0-.46,1.26.32,3.19,1,2.87,2.14,2,2.14,2l1.81-2A22.09,22.09,0,0,1,30.91,47.49Z"/>
              <path class="cls-6" d="M42.38,67.17c2.63,1.54,2.9.12,2.9.12l.11-3.24a15.77,15.77,0,0,1-3.47-1.27,25.79,25.79,0,0,1-1.83,2.15C39.55,65.43,40.54,66.18,42.38,67.17Z"/>
              <path class="cls-6" d="M32.86,60.31c2.39,1.9,2.86.54,2.86.54l.44-2.51a22.71,22.71,0,0,1-2.36-3.21,27.56,27.56,0,0,1-2.89,2.64C30.31,58.19,31.19,59.08,32.86,60.31Z"/>
            </g>
            <path class="cls-6" d="M40,75.32A13.07,13.07,0,0,0,48.58,72a2.26,2.26,0,0,0-1.13-1.55c-1.53-.94-3.28.22-4.88-.28S40.2,68,38.8,67.18c-1.64-.9-3.17-1.21-4.49-2.69-1.5-1.69-2.37-3.85-4-5.41s-3.87-2-5.16,0C26,68.21,32.28,75.32,40,75.32Z"/>
            <path class="cls-9" d="M52.89,63.71c-2.59,5.48-7.4,9.17-12.93,9.17-7.92,0-14.39-7.56-14.9-17.12,0,.41,0,.82,0,1.23C25,67.11,31.71,75.32,40,75.32c6.46,0,12-5,14-12.07l-.1,0C53.57,63.45,53.23,63.59,52.89,63.71Z"/>
            <path class="cls-8" d="M73.13,45.89c-.84,2.72-4,4.42-7.34,3.86a6.23,6.23,0,0,1-1-.23,4.92,4.92,0,0,0,2.24,2.1,4.58,4.58,0,0,0,6.16-2A4.29,4.29,0,0,0,73.13,45.89Z"/>
            <path class="cls-10" d="M73.22,48.89a4.59,4.59,0,0,1-6.16,2,5,5,0,0,1-1.56-1.18c-.23,0-.46-.1-.68-.17a4.92,4.92,0,0,0,2.24,2.1,4.58,4.58,0,0,0,6.16-2,4.14,4.14,0,0,0,.37-2.12A4.43,4.43,0,0,1,73.22,48.89Z"/>
            <path class="cls-6" d="M72.32,47.43a6.53,6.53,0,0,1-5,2.42l.47.62a9.27,9.27,0,0,0,3.31-.66,2.57,2.57,0,0,0,1.37-1.94A1.28,1.28,0,0,0,72.32,47.43Z"/>
            <path d="M41.29,28.28a3.17,3.17,0,0,1-.46.17,3.19,3.19,0,0,1-.41.16c-.17.07-.38.14-.6.21-.45.17-1,.33-1.57.58-.28.12-.57.27-.87.41s-.59.31-.87.49a12.93,12.93,0,0,0-1.62,1.13,8.13,8.13,0,0,0-.67.63l-.3.3-.25.31a3.71,3.71,0,0,0-.42.56,3.81,3.81,0,0,0-.28.47l-.23.43v0a.12.12,0,0,1-.15.05.12.12,0,0,1-.06-.12s0-.18.07-.51a3.33,3.33,0,0,1,.14-.57,4.64,4.64,0,0,1,.26-.73l.17-.41c.07-.14.15-.28.23-.42a9.57,9.57,0,0,1,.55-.87c.21-.29.44-.58.68-.87s.51-.56.79-.82a13.68,13.68,0,0,1,1.76-1.42c.29-.21.59-.39.88-.56a7.67,7.67,0,0,1,.85-.44c.28-.11.53-.2.77-.27s.51-.12.69-.15a4.54,4.54,0,0,1,.49,0,1.18,1.18,0,0,1,.45,2.24Z"/>
            <path d="M65.39,32.79l-.24-.11-.66-.3c-.29-.14-.65-.32-1-.55a12.16,12.16,0,0,1-1.37-.92,6.34,6.34,0,0,1-.75-.73A3.4,3.4,0,0,1,60.6,29a2.43,2.43,0,0,1,.08-1.81,3.09,3.09,0,0,1,1-1.17,6.79,6.79,0,0,1,1.08-.64,11.05,11.05,0,0,1,1.1-.42,2.79,2.79,0,0,0,1.36-.69.94.94,0,0,0,.17-.59,1.27,1.27,0,0,0-.16-.62,9.74,9.74,0,0,0-1.17-1.56,5.8,5.8,0,0,1-.65-1c-.07-.15-.14-.3-.2-.45s-.13-.37-.18-.55a2.36,2.36,0,0,1,.43-2,3,3,0,0,1,1.41-.89,5.33,5.33,0,0,1,2-.17l.26,0a.12.12,0,0,1,.11.12.13.13,0,0,1-.11.11h0l-.25,0a5.29,5.29,0,0,0-1.74.43,2.26,2.26,0,0,0-1,.81A1.52,1.52,0,0,0,64,19.28l.15.33.25.41a5.15,5.15,0,0,0,.58.63,10.22,10.22,0,0,1,1.54,1.63,2.87,2.87,0,0,1,.52,1.4,2.8,2.8,0,0,1-.31,1.5,3,3,0,0,1-1.08,1.1,7.63,7.63,0,0,1-1.1.56,6.56,6.56,0,0,0-.84.42,4,4,0,0,0-.66.48,1,1,0,0,0-.27.37c0,.05,0,0,.06.05a3.11,3.11,0,0,0,.78.75c.37.27.75.52,1.1.74l.94.58.62.41.22.15a1.16,1.16,0,0,1-1.13,2Z"/>
            <path class="cls-5" d="M42.86,54a.61.61,0,0,0,0-.3h0a.47.47,0,0,0-.35-.32h0a.61.61,0,0,0-.73.65.56.56,0,0,0,.69.45s0,0,0,0a.68.68,0,0,0,.26-.12l0,0A.58.58,0,0,0,42.86,54Z"/>
            <path class="cls-5" d="M47.87,51.33v.17c0,.47.73.44.73,0V51.3C48.6,50.83,47.87,50.86,47.87,51.33Z"/>
            <path class="cls-5" d="M48.38,57.42a.89.89,0,0,0-.7-.81.88.88,0,0,0-1,.68,1.67,1.67,0,0,0,0,.63.89.89,0,0,0,1.33.45A.82.82,0,0,0,48.3,58a.34.34,0,0,0,.07-.2A1.24,1.24,0,0,0,48.38,57.42Z"/>
            <path class="cls-5" d="M51.12,54.41a.08.08,0,0,0,0,0,.78.78,0,0,1,0-.14.47.47,0,0,0-.6-.26l-.14.05a.43.43,0,0,0-.22.59.52.52,0,0,0,.6.5A.53.53,0,0,0,51.12,54.41Z"/>
            <path class="cls-5" d="M47,53.3h-.09a.81.81,0,0,0,0,1.61,1,1,0,0,0,.77-.27A.8.8,0,0,0,47,53.3Z"/>
            <path class="cls-5" d="M51.84,49.29c-.7,0-.84,1.08-.14,1.08S52.54,49.29,51.84,49.29Z"/>
            <path class="cls-5" d="M53.22,53.44a.86.86,0,0,0-.82.89.86.86,0,1,0,1.71-.08A.86.86,0,0,0,53.22,53.44Z"/>
            <path class="cls-5" d="M52.38,57.86a.8.8,0,0,0-.8-.78.87.87,0,0,0-.28.05.69.69,0,0,0-.57.48.86.86,0,0,0,.65,1.17.8.8,0,0,0,1-.78A.66.66,0,0,1,52.38,57.86Z"/>
            <path class="cls-5" d="M39.74,52.75c-.79,0-.9,1.22-.1,1.22S40.53,52.75,39.74,52.75Z"/>
            <path class="cls-5" d="M42.4,56.93s0-.07,0-.11a.66.66,0,0,0-.61-.52.67.67,0,0,0-.7.62.5.5,0,0,1,0,.12.68.68,0,1,0,1.35-.11Z"/>
            <path class="cls-5" d="M44.74,57c-.86,0-.94,1.35-.07,1.35S45.61,57,44.74,57Z"/>
            <g>
              <path class="cls-5" d="M66.38,63a.72.72,0,0,0,.57-.08.51.51,0,0,0,.17-.62.52.52,0,0,0-.54-.32l-.19,0A.51.51,0,0,0,66.38,63Z"/>
              <path class="cls-5" d="M67.84,58.39a.71.71,0,0,0-.46.58.62.62,0,0,0,.51.7c.5,0,.72-.5.57-.92C68.39,58.55,68.08,58.27,67.84,58.39Z"/>
              <path class="cls-5" d="M66.57,62h0C66.66,61.94,66.7,61.94,66.57,62Z"/>
              <path class="cls-5" d="M69.59,55H69.4c-.5,0-.46.81.06.79h0a.34.34,0,0,0,.26,0l0,0s0,0,.06,0l0,0,.07,0,.05-.07h0a1.11,1.11,0,0,0,.07-.16A.4.4,0,0,0,69.59,55Z"/>
              <path class="cls-5" d="M64.58,64.13h-.16a.76.76,0,0,0,0,1.51h.17A.76.76,0,0,0,64.58,64.13Z"/>
              <path class="cls-5" d="M68.25,57.05c.68,0,.82-1.06.13-1.06S67.56,57.05,68.25,57.05Z"/>
              <path class="cls-5" d="M60.43,69.38a.82.82,0,0,0,.46-1.2.81.81,0,1,0-.46,1.2Z"/>
              <path class="cls-5" d="M68.94,60.05a.59.59,0,0,0-.63.5.57.57,0,0,0,.5.62.75.75,0,0,0,.36-.1l.26-.41A.56.56,0,0,0,68.94,60.05Z"/>
              <path class="cls-5" d="M70.48,56.72a.91.91,0,0,0-.84,1,.93.93,0,0,0,1,.84l.11,0c.23-.41.45-.81.66-1.21A.94.94,0,0,0,70.48,56.72Z"/>
              <path class="cls-5" d="M66.49,58.92h0a1,1,0,0,0-.31-.19,1.08,1.08,0,0,0-1.48.81,1,1,0,0,0,.87,1.15,1.64,1.64,0,0,0,.66-.11,1,1,0,0,0,.43-1.47L66.58,59a.76.76,0,0,0-.09-.09Z"/>
              <path class="cls-5" d="M63.61,63.16c.68,0,.82-1.07.14-1.07S62.92,63.16,63.61,63.16Z"/>
              <path class="cls-5" d="M63.33,66.74a.42.42,0,0,0,0,.84A.42.42,0,0,0,63.33,66.74Z"/>
            </g>
            <g class="cls-11">
              <path class="cls-3" d="M15.5,91.48c9.62,2.31,21.42,1.93,26.94,1.94,1.81,0,4.41-.16,6.14.36A190.18,190.18,0,0,1,26,95.3c-5.87-.32-12.42-.4-17.83-3C7.36,92,4.76,91.07,5,89.85,5.34,87.22,13.89,91.09,15.5,91.48Z"/>
            </g>
            <g class="cls-11">
              <path class="cls-3" d="M25.83,77.78c-.4,1.6-2.42,2.37-1.4,4.06.88,1.46,3.85,2,4.33-.07.38-1.65-1.36-3.52-1.66-5.13C26.75,74.76,26.27,76,25.83,77.78Z"/>
            </g>
            <g class="cls-11">
              <path class="cls-3" d="M35.77,84.9c-.25,1-1.48,1.45-.86,2.48s2.35,1.21,2.64,0c.24-1-.82-2.16-1-3.14C36.33,83.05,36,83.82,35.77,84.9Z"/>
            </g>
            <g class="cls-11">
              <path class="cls-3" d="M29.17,36.2c-.25,1-1.48,1.44-.86,2.48s2.35,1.21,2.64,0c.24-1-.82-2.16-1-3.14C29.73,34.35,29.44,35.11,29.17,36.2Z"/>
            </g>
            <g class="cls-11">
              <path class="cls-3" d="M49.59,30.16c0,.76-.78,1.35-.13,2s2,.41,1.92-.56c0-.78-1-1.4-1.36-2.08S49.58,29.32,49.59,30.16Z"/>
            </g>
            <g class="cls-11">
              <path class="cls-3" d="M57.93,63.9c-.24,1-1.47,1.44-.85,2.47s2.35,1.21,2.64,0c.23-1-.83-2.15-1-3.13C58.5,62.05,58.2,62.81,57.93,63.9Z"/>
            </g>
            <g class="cls-11">
              <path class="cls-3" d="M63.62,54.77c-.24,1-1.47,1.44-.85,2.47s2.35,1.21,2.64,0c.23-1-.83-2.15-1-3.13C64.19,52.92,63.89,53.68,63.62,54.77Z"/>
            </g>
            <g class="cls-11">
              <path class="cls-3" d="M54,77.43c-.43,1.71-2.59,2.53-1.5,4.34.94,1.57,4.13,2.12,4.63-.07.41-1.77-1.45-3.78-1.77-5.5C55,74.19,54.46,75.52,54,77.43Z"/>
            </g>
            <g class="cls-11">
              <path class="cls-3" d="M42.26,79.57c-.25,1-1.5,1.47-.87,2.52s2.4,1.23,2.69,0c.24-1-.84-2.19-1-3.19C42.84,77.69,42.54,78.47,42.26,79.57Z"/>
            </g>
          </g>
          <path d="M31.44,29.25s0-.14-.1-.39-.06-.35-.1-.57-.06-.45-.08-.7c-.06-.51-.08-1.11-.13-1.75A8.48,8.48,0,0,0,30.72,24a3,3,0,0,0-.39-.81,1.24,1.24,0,0,0-.14-.18l-.12-.13a2.67,2.67,0,0,0-.42-.36.82.82,0,0,0-.28-.14.71.71,0,0,0-.3,0,2.11,2.11,0,0,0-.91.39c-.75.46-1.54,1.28-2.66,1.9a9.18,9.18,0,0,1-1.74.7,5.19,5.19,0,0,1-2,.22,2.43,2.43,0,0,1-1.22-.5,2,2,0,0,1-.66-1.2l0-.15v-.14c0-.21,0-.06,0-.11l0-.21a2.42,2.42,0,0,1,.11-.59,4,4,0,0,1,.46-.93,16.34,16.34,0,0,1,1-1.35,5.85,5.85,0,0,0,.77-1.17,1,1,0,0,0,0-.93L22,18,22,18s-.05-.05,0,0h0l0,0-.14-.12-.14-.11-.12-.06c-.07,0-.13-.08-.23-.12a6.67,6.67,0,0,0-2.45-.4,9.42,9.42,0,0,0-3.8.75,4.4,4.4,0,0,0-.54.29l-.37.28-.25.27,0,0a.11.11,0,0,1-.16,0,.11.11,0,0,1,0-.15s.08-.12.25-.34.22-.21.36-.35.34-.25.56-.39a9.79,9.79,0,0,1,4-1.18,7.13,7.13,0,0,1,2.85.22c.13,0,.28.12.42.18l.21.11.15.1.16.11,0,0,0,0h0c.1.08,0,0,.06,0l.08.08c.11.12.21.23.31.36s.17.3.25.45a4.54,4.54,0,0,1,.12.53,4.87,4.87,0,0,1,0,.54c0,.16-.07.32-.12.48a7,7,0,0,1-.83,1.56,14.81,14.81,0,0,0-.84,1.3,1.32,1.32,0,0,0-.23,1c0,.16.1.17.13.22a.94.94,0,0,0,.31.07,5.37,5.37,0,0,0,2.54-.87c.77-.47,1.45-1.28,2.42-2A4.42,4.42,0,0,1,28.74,20a2.88,2.88,0,0,1,1.17,0,2.13,2.13,0,0,1,.54.16,2.23,2.23,0,0,1,.51.26,5.17,5.17,0,0,1,.69.49l0,0h0l.08.07.08.08.16.17a3.17,3.17,0,0,1,.3.34,5.12,5.12,0,0,1,.8,1.48,9.14,9.14,0,0,1,.45,2.57c0,.72,0,1.3,0,1.75,0,.24,0,.42,0,.59s0,.28,0,.39,0,.39,0,.39h0a1.13,1.13,0,0,1-1,1.27A1.15,1.15,0,0,1,31.44,29.25Z"/>
          <path d="M34.82,26.94l-.14-.2a1.37,1.37,0,0,1-.16-.25c-.07-.12-.14-.27-.23-.43a7.29,7.29,0,0,1-.42-1.14,5.92,5.92,0,0,1-.24-1.67,3.64,3.64,0,0,1,.24-1.16l.06-.16,0-.08,0,0v0c0-.05-.05.08,0-.1h0l.11-.17.06-.09,0,0,.06-.08c.09-.11.19-.21.29-.32a2.7,2.7,0,0,1,.63-.45,3.68,3.68,0,0,1,.35-.15l.34-.1a4.28,4.28,0,0,1,1.21-.06,7.54,7.54,0,0,0,1.57.06,1.13,1.13,0,0,0,.22-.08l0,0h0l-.05,0h0l.05,0,.1-.07.06-.06s0,0,0,0l.08-.11a2.09,2.09,0,0,0,.14-.3c.18-.48.26-1.14.48-1.86a3.14,3.14,0,0,1,.56-1.11v0l0,0h0l0,0,0,0,.09-.08.17-.17a4.14,4.14,0,0,1,.46-.37,4.65,4.65,0,0,1,1.86-.75,6.71,6.71,0,0,1,1.7-.1,9.66,9.66,0,0,1,2.42.52l.63.26.21.11a.11.11,0,0,1,.06.15.11.11,0,0,1-.13.06h0l-.23-.06c-.14,0-.36-.09-.64-.14s-.62-.1-1-.12a9.34,9.34,0,0,0-1.29,0,7,7,0,0,0-1.45.31,3.64,3.64,0,0,0-1.33.75l-.24.25-.14.19-.08.09,0,.05,0,0h0l0,0h0a2,2,0,0,0-.2.64,17.77,17.77,0,0,1-.26,2,3.24,3.24,0,0,1-.21.62l-.17.31a2.53,2.53,0,0,1-.25.35l-.11.12-.09.09,0,0h0l-.06.05,0,0,0,0-.15.11a2.68,2.68,0,0,1-.67.35,7.44,7.44,0,0,1-2.2.24,1.88,1.88,0,0,0-.6.1.27.27,0,0,0-.17.13h0l0,0-.05.09-.1.18h0c.1-.18,0-.05,0-.09h0V23a2.09,2.09,0,0,0,0,.34,7.75,7.75,0,0,0,.38,1.82,2.13,2.13,0,0,1,.09.27c0,.08.08.18.1.25l.09.22h0a1.15,1.15,0,0,1-2,1.08Z"/>
          <path d="M28.26,32.57,28,32.48a3.71,3.71,0,0,1-1-.64c-.32-.27-.61-.59-.87-.83a1.53,1.53,0,0,0-.36-.27.61.61,0,0,0-.31-.13.66.66,0,0,0-.21,0h-.32a1.8,1.8,0,0,0-.39.11,2.28,2.28,0,0,0-.89,1,19.91,19.91,0,0,1-1.16,2,3.64,3.64,0,0,1-1.15,1.07,2.1,2.1,0,0,1-1,.23,2.17,2.17,0,0,1-.91-.28,5.06,5.06,0,0,1-1.05-.83c-.28-.28-.53-.54-.79-.77a3.3,3.3,0,0,0-1.52-.9,1.87,1.87,0,0,0-.4,0h-.21l-.26,0-.43.08c-.14,0-.29.07-.43.12a5.25,5.25,0,0,0-1.47.77,3.93,3.93,0,0,0-1,1.05,3.6,3.6,0,0,0-.43,1,2.92,2.92,0,0,0-.11.72c0,.18,0,.27,0,.27h0a.11.11,0,0,1-.12.11.1.1,0,0,1-.1-.1A2.81,2.81,0,0,1,11,36a3.36,3.36,0,0,1,0-.8A3.57,3.57,0,0,1,11.35,34a4.56,4.56,0,0,1,.93-1.37,5.54,5.54,0,0,1,1.63-1.15l.5-.21.54-.17.25-.06.13,0,.18,0a2.81,2.81,0,0,1,.65,0,4.51,4.51,0,0,1,2.35,1c.33.24.63.48.92.71a3.74,3.74,0,0,0,.76.5c.09,0,.16,0,.17,0l0,0a2.06,2.06,0,0,0,.41-.53,17.08,17.08,0,0,0,.84-1.88,7.13,7.13,0,0,1,.6-1.1,3.77,3.77,0,0,1,1-1,3.6,3.6,0,0,1,1.39-.52l.22,0h.35a2.45,2.45,0,0,1,.66.05,3.56,3.56,0,0,1,2,1.07c.41.4.64.7.8.88s.27.24.24.26l.22.13a1.15,1.15,0,0,1-.87,2.12Z"/>
        </g>
        <path class="cls-2" d="M19.12,4.65c2,.41,4,1,6.12.45a9.75,9.75,0,0,1-2.35,4.2c1.65-.24,3.82-.22,5.31-.82.05,1.31,0,2.93-.93,3.95,2.28-1,4.54-1.52,6.56-3.13.06,1.09,0,2.21.07,3.3,1.93-.83,5.92-3,5.49-5.54C39,4.83,35.45,3.41,33.57,2.91a18,18,0,0,0-7.41-.14C24.42,3,20.72,5,19.12,4.65Z"/>
        <path class="cls-2" d="M58.34,4.58c-1.76.42-3.54,1-5.43.46A10.52,10.52,0,0,0,55,9.34c-1.47-.25-3.39-.22-4.72-.84,0,1.34,0,3,.83,4-2-1-4-1.55-5.82-3.19,0,1.11,0,2.26-.06,3.37C43.51,11.87,40,9.64,40.35,7c.34-2.27,3.5-3.72,5.17-4.24a13.9,13.9,0,0,1,6.57-.15C53.64,2.94,56.92,4.92,58.34,4.58Z"/>
      </g>
    </g>
  </g>
</svg>
