<svg xmlns="http://www.w3.org/2000/svg" width="100" height="75" viewBox="0 0 100 75">
  <defs>
    <style>
      .cls-1 {
        isolation: isolate;
      }

      .cls-2 {
        fill: #8fe9ff;
      }

      .cls-3, .cls-4 {
        fill: #d9400b;
      }

      .cls-4 {
        opacity: 0.3;
      }

      .cls-4, .cls-7 {
        mix-blend-mode: multiply;
      }

      .cls-5, .cls-6 {
        fill: #ff5c23;
      }

      .cls-6 {
        opacity: 0.4;
        mix-blend-mode: screen;
      }

      .cls-7 {
        fill: #f0d907;
      }

      .cls-8 {
        fill: #a83209;
      }

      .cls-9 {
        fill: #fff;
      }

      .cls-10 {
        fill: #e8e8e8;
      }

      .cls-11 {
        fill: #c93b0b;
      }

      .cls-12 {
        fill: #e40028;
      }

      .cls-13 {
        fill: #ff8787;
      }
    </style>
  </defs>
  <g class="cls-1">
    <g id="Ñëîé_1" data-name="Ñëîé 1">
      <g>
        <path class="cls-2" d="M16.31,17.77c1.31,1.36,2.81,3.17,4.61,5.07a68.93,68.93,0,0,0,5.88,5.57c2,1.71,4,3.19,5.46,4.2.74.53,1.35.89,1.77,1.18l.67.44-.77.17c-.5.1-1.24.28-2.16.4a36.7,36.7,0,0,1-7.49.35,32.91,32.91,0,0,1-9.71-2A23.41,23.41,0,0,1,6,27.79a22.23,22.23,0,0,1-2.67-3.3,17.21,17.21,0,0,1-1.46-2.92,10.5,10.5,0,0,1-.53-2.35,4.66,4.66,0,0,1,.17-1.77c.59-2,2.32-2.5,4.18-3.18s3.59-1.2,5.17-.81a5.6,5.6,0,0,1,1.16.46,5,5,0,0,1,1.21.83A10.88,10.88,0,0,1,14.57,16C15.12,16.49,15.6,17.11,16.31,17.77Z"/>
        <path class="cls-2" d="M12.55,41a17.94,17.94,0,0,1,7.33-4.3,22.4,22.4,0,0,1,8.43-1,18.26,18.26,0,0,1,6.29,1.51,10.26,10.26,0,0,1,1.63.88l.55.35-.61.26a13.65,13.65,0,0,0-1.55.75,22.51,22.51,0,0,0-4.33,3.16,39.84,39.84,0,0,0-4.22,4.51c-1.26,1.53-2.3,3-3.26,3.94-1.92,2-2.87,2.53-4.34,2.66a14,14,0,0,1-5.1-.89c-1.89-.6-3.65-1-4.37-2.81a5.56,5.56,0,0,1,.09-3.71,13.64,13.64,0,0,1,1.21-2.54A17.09,17.09,0,0,1,12.55,41Z"/>
        <g>
          <path class="cls-3" d="M83,4.55c2.89-1.27,6.86-.92,9.93-.75,1.92.11,3.87.27,5.78.45-4,3.14-5.3,5-6.54,9.92-1.08,4.27-3.12,8.17-7.65,9.5-2.36.7-4.77.06-7.1-.41-.07-2.1.7-4.16.83-6.25.14-2.36-.75-3.1-1.44-5.09C75.58,8.48,80,5.89,83,4.55Z"/>
          <path class="cls-4" d="M82.4,9.2c1.84-.86,4.4-.6,6.37-.46,1.24.09,2.49.21,3.73.35a10.21,10.21,0,0,0-4.15,6.81c-.66,2.94-1.95,5.61-4.85,6.5-1.51.47-3.07,0-4.58-.32,0-1.46.43-2.87.5-4.31.07-1.63-.5-2.15-1-3.53C77.66,11.86,80.46,10.1,82.4,9.2Z"/>
          <path class="cls-3" d="M35.48,2.94c-3.58-1.83-9-1.49-12.67-.27-2,.67-4,1.48-6,2.23C21.88,8,22,14.21,24.34,19.15s9,8.47,12.5,2.7c1.54-2.57,4.75-7.22,4.38-10.23S38.09,4.27,35.48,2.94Z"/>
          <path class="cls-4" d="M36.67,10.72c-2.36-1.67-6.37-2.23-9.27-2-1.58.13-3.15.35-4.72.53,3.25,2.65,2.41,6.57,3.37,10s5.38,6.6,8.78,3.49c1.52-1.39,4.57-3.83,4.75-5.78A8.37,8.37,0,0,0,36.67,10.72Z"/>
          <path class="cls-5" d="M78.59,29.3c6.38-5.81.61-18.67-5-22.88C65.77.6,54.05.88,45.63,5.09A27.2,27.2,0,0,0,30.24,28.55a41.66,41.66,0,0,0,2.35,15.69c1.58,4.53,4.48,8.68,5.78,13.28,2.26,8-11,6.76-10,12.85,1,6.56,18.48.31,21.89-.39,8.4-1.73,15.91,0,24.25.81,8.16.86,18.82-2.09,15.36-12.56-2.67-8.06-11.08-13-18.84-15.1-3.07-.83-6.67-.48-7-4.48-.17-2.11.74-3.17,2.49-4.23C70.26,32.16,75.25,32.35,78.59,29.3Z"/>
          <path class="cls-6" d="M85.1,54.05a13.88,13.88,0,0,0-5.46-3.88c-1.26-.51-3.85-1.24-5.06-.46a.24.24,0,0,0,0,.4,26,26,0,0,0,3.9,1.33,12.93,12.93,0,0,1,5,3.81A1,1,0,0,0,85.1,54.05Z"/>
          <path class="cls-6" d="M86.33,58.53a.2.2,0,0,0-.36.09c-.26,1,.33,2.12.47,3.11a3,3,0,0,1-.56,2.46,3.62,3.62,0,0,0-.8,1.51.42.42,0,0,0,.46.47c1.46-.11,2.35-1.83,2.58-3.1C88.43,61.43,87.38,59.61,86.33,58.53Z"/>
          <path class="cls-6" d="M21.47,4.84a.13.13,0,0,0,0,.21c1.77.85,4.16-.07,6,0C30.39,5,32,7.12,34.23,8.4a.68.68,0,0,0,.93-.71C33.94,2.68,24.86,1.91,21.47,4.84Z"/>
          <path class="cls-6" d="M92,7C89.12,4.87,80.12,5.37,79.34,9.78a.15.15,0,0,0,.27.11c1.19-1.69,4.09-2.33,6-2.5,2.12-.2,4.11.34,6.2.33C92.13,7.72,92.21,7.22,92,7Z"/>
          <path class="cls-6" d="M79.23,22.3a.16.16,0,0,0-.31,0,6.61,6.61,0,0,1-2.17,4.33c-1.23,1.13-3,1.67-4.19,2.84-.13.12-.12.43.12.43a8,8,0,0,0,5.4-2.58A5.55,5.55,0,0,0,79.23,22.3Z"/>
          <path class="cls-6" d="M35.41,34.18a.43.43,0,0,0-.71,0c-2.3,3.78,1.44,10,2.79,10.55.1,0,.21,0,.15-.09C33.74,39.12,36.45,35.32,35.41,34.18Z"/>
          <path class="cls-6" d="M46,8.46C42.9,7.23,34.18,16.29,37.71,24c.49,1.06.7,1,1.11,1.27a.74.74,0,0,0,.88-.35,1.87,1.87,0,0,0,.15-.78c-.41-7.85,3.8-10.13,5-11.14C45.68,12.33,48.51,9.46,46,8.46Z"/>
          <g>
            <path class="cls-7" d="M61.15,29.51A12.4,12.4,0,0,1,47.24,18.88a10.39,10.39,0,0,1-.06-2,12.36,12.36,0,1,1,14,12.6Z"/>
            <path class="cls-8" d="M61.15,29.51A12.4,12.4,0,0,1,47.24,18.88a10.39,10.39,0,0,1-.06-2,12.36,12.36,0,1,1,14,12.6Z"/>
            <g>
              <g>
                <path class="cls-9" d="M49.38,18.6A10.23,10.23,0,1,0,58.16,7.11,10.22,10.22,0,0,0,49.38,18.6Z"/>
                <path class="cls-10" d="M49.41,16a10.18,10.18,0,0,0,20.1-.66c0,.2.11.39.14.6A10.23,10.23,0,1,1,49.41,16Z"/>
              </g>
              <g>
                <path d="M51.29,15.7A5.09,5.09,0,1,0,55.66,10,5.09,5.09,0,0,0,51.29,15.7Z"/>
                <path class="cls-9" d="M56.16,13.69a2,2,0,1,0,1.75-2.29A2,2,0,0,0,56.16,13.69Z"/>
              </g>
            </g>
          </g>
          <path class="cls-6" d="M58.43,62.6c-2.59-.32-7.45.5-8.94,3.19-.25.46,0,1.27.58,1.14,2.58-.57,4.94-1.67,7.64-1.92,1.62-.15,4.84.14,6.2,1.44.48.46,1,.47,1-.14C64.62,64.75,61.89,63,58.43,62.6Z"/>
          <path class="cls-11" d="M64.65,44.29C62.8,41,62,38.6,62.45,34.78c-7.63,2.49-16.77-1.43-19.38-8.14-.63,4.05-.8,8.13.9,12,2.64,6,10.65,12.56,18.5,11.73C67.5,49.82,66.43,47.5,64.65,44.29Z"/>
          <g>
            <path class="cls-9" d="M46.89,31.76l0,.09c-.64,1.61-.67,3.11-.07,3.35s1.44-.68,2.08-2.06A15.41,15.41,0,0,1,46.89,31.76Z"/>
            <path class="cls-9" d="M44.33,32.53c.47.19,1.18-.44,1.77-1.47a12.38,12.38,0,0,1-1.68-1.94l0,.06C43.75,30.79,43.72,32.29,44.33,32.53Z"/>
            <path class="cls-9" d="M50.68,37.17c.59.15,1.38-.91,1.82-2.42a18.87,18.87,0,0,1-2.2-.85C49.89,35.56,50.06,37,50.68,37.17Z"/>
            <path class="cls-9" d="M55.22,38.17c.6,0,1.14-1.15,1.28-2.67a18.29,18.29,0,0,1-2.34-.32C54.14,36.82,54.59,38.14,55.22,38.17Z"/>
            <path class="cls-9" d="M58.18,35.52c.21,1.6.85,2.82,1.46,2.75s1-1.39.87-3A15.23,15.23,0,0,1,58.18,35.52Z"/>
          </g>
          <path class="cls-12" d="M46.54,42.71c3.7,4.52,9.86,8.28,15.93,7.64,2.67-.28,3.61-1.07,3.65-2.23-.24-2.48-3-4.53-4.79-5.85-1-.73-1.63-1.23-2.88-.82s-2,1.36-3.42,1.17-2.22-1.19-3.44-1.52a5.3,5.3,0,0,0-4.86,1.38Z"/>
          <path class="cls-13" d="M65.05,45c.3,1.51-.46,2.54-3.6,2.87-7.46.78-15.06-5.09-18.07-10.84A15.55,15.55,0,0,0,44,38.62c2.64,6,10.65,12.56,18.5,11.73C67.1,49.86,66.55,47.85,65.05,45Z"/>
        </g>
      </g>
    </g>
  </g>
</svg>
