<svg xmlns="http://www.w3.org/2000/svg" width="105" height="90" viewBox="0 0 105 90">
  <defs>
    <style>
      .cls-1 {
        isolation: isolate;
      }

      .cls-2 {
        fill: #d0d2f5;
      }

      .cls-3 {
        fill: #5a62cf;
      }

      .cls-4 {
        fill: #5057b8;
      }

      .cls-4, .cls-9 {
        opacity: 0.4;
      }

      .cls-5 {
        fill: #7077db;
      }

      .cls-6 {
        fill: #437e39;
      }

      .cls-7 {
        opacity: 0.3;
      }

      .cls-10, .cls-7 {
        mix-blend-mode: multiply;
      }

      .cls-8 {
        fill: #64bd55;
      }

      .cls-9 {
        mix-blend-mode: screen;
      }

      .cls-10, .cls-11 {
        fill: #f0d907;
      }

      .cls-12 {
        fill: #fff;
      }

      .cls-13 {
        fill: #e8e8e8;
      }

      .cls-14 {
        fill: #f2df2c;
      }
    </style>
  </defs>
  <g class="cls-1">
    <g id="Ñëîé_1" data-name="Ñëîé 1">
      <g>
        <path class="cls-2" d="M79.24,9C85,3.09,94.09-4.15,96.42,8.38a37.83,37.83,0,0,1-.18,13.75c9.67,3.28,8.18,16.66,3.08,23.17-9.44,12-18.8,4.23-28.48-3.18-5.23-4-12.47-7.74-7.92-14.55C67.25,21.07,73.81,14.66,79.24,9Z"/>
        <path class="cls-2" d="M25.76,9.37C20,3.44,10.91-3.81,8.58,8.72a37.89,37.89,0,0,0,.18,13.76C-.91,25.75.58,39.14,5.68,45.64c9.44,12,18.8,4.23,28.48-3.17,5.23-4,12.47-7.75,7.92-14.55C37.75,21.42,31.19,15,25.76,9.37Z"/>
        <g>
          <g>
            <g>
              <path class="cls-3" d="M42.74,62.47a69,69,0,0,0,3,14c2.29,6.7,2,4.83,2.2,7.13L48.08,86a1.47,1.47,0,0,1,1.19,0c.59.29.93-.58.68-2.23s.38-3.67.87-6.79a28.09,28.09,0,0,0,0-11.87C49.84,60.51,42.74,62.47,42.74,62.47Z"/>
              <path class="cls-4" d="M48.11,70.41a4.45,4.45,0,0,0,.18,1l1-.2a35.09,35.09,0,0,1,.22,7c-.07,1-.23,1.9-.34,2.86a15.58,15.58,0,0,0,.13,3c0,.4-.06,1.12,0,1.77l.05,0c.59.29.93-.58.68-2.23s.38-3.67.87-6.79a28.23,28.23,0,0,0,.33-9.9A3.76,3.76,0,0,0,48.11,70.41Z"/>
              <path class="cls-5" d="M43.18,85.71c-1.43.13-2.26-.7-3.58-.61-1.69.1-1.36,1.45-.13,1.85s2.78,0,4-.08c1.6-.14,3.2-.34,4.82-.45-.36.92-1.87,1.14-2.54,1.91s-.41,1.43.9,1.28.87-.71,1.08-1.36,1.13-1.1,1.52-1.64c.59-.82,1.34-1.74-.68-1.6C46.76,85.13,45,85.55,43.18,85.71Z"/>
            </g>
            <g>
              <path class="cls-3" d="M60.72,62.47a69.77,69.77,0,0,1-2.95,14c-2.28,6.7-2,4.83-2.2,7.13L55.4,86a1.45,1.45,0,0,0-1.18,0c-.59.29-.93-.58-.67-2.23s-.39-3.67-.87-6.79a28.09,28.09,0,0,1,0-11.87C53.66,60.51,60.72,62.47,60.72,62.47Z"/>
              <path class="cls-4" d="M55.37,70.41a4,4,0,0,1-.18,1l-.94-.2a35.85,35.85,0,0,0-.22,7c.07,1,.23,1.9.34,2.86a15.58,15.58,0,0,1-.13,3c0,.4.06,1.12,0,1.77l-.05,0c-.59.29-.93-.58-.67-2.23s-.39-3.67-.87-6.79a28.47,28.47,0,0,1-.33-9.9A3.74,3.74,0,0,1,55.37,70.41Z"/>
              <path class="cls-5" d="M60.28,85.71c1.42.13,2.25-.7,3.57-.61,1.68.1,1.35,1.45.12,1.85s-2.76,0-4-.08c-1.6-.14-3.19-.34-4.8-.45.36.92,1.86,1.14,2.52,1.91s.41,1.43-.89,1.28-.87-.71-1.08-1.36-1.12-1.1-1.51-1.64c-.59-.82-1.33-1.74.68-1.6C56.72,85.13,58.48,85.55,60.28,85.71Z"/>
            </g>
            <path class="cls-6" d="M62.71,31.82c0,8.22-4.85,14.89-10.84,14.89S41,40,41,31.82s4.85-14.89,10.83-14.89S62.71,23.59,62.71,31.82Z"/>
            <path class="cls-6" d="M88.52,50.06c-1-9.87-4.7-13.72-14.21-16.61A31.65,31.65,0,0,1,80.56,33C75.71,29,69.41,29.76,63.4,29.48c.89-3.84,9.21-4.73,12.61-5.86-2-1.63-4.85-1.47-7.35-1.81,1.31-1.71,3.78-2.32,5.21-3.7a13.07,13.07,0,0,0-7.37,1,18.3,18.3,0,0,1,4.35-7.31C65.42,13.11,58.37,19,59.21,24.67L51,41.26,43.47,24.67c.77-5.72-5.74-11.56-10.76-12.84a18.76,18.76,0,0,1,4,7.31,11.28,11.28,0,0,0-6.82-1c1.33,1.38,3.61,2,4.82,3.7-2.31.34-5,.18-6.79,1.81,3.14,1.13,10.83,2,11.66,5.86C34,29.76,28.21,29,23.73,33a27.14,27.14,0,0,1,5.78.49c-8.8,2.89-12.21,6.74-13.14,16.61,1.76-3.55,4.77-7,9.29-7.22-.8,1.83-3,2.61-4.28,4.31-1.81,2.47-1.7,4.87-1.52,7.8.2-.39.73-1.06,1-1.61-1.7,4.63.63,9.18,1.69,12.12.15-3.13.08-7.33,2.08-8a16.63,16.63,0,0,0,2.06,13.78c.16-2.68-.31-5.48,1-8-1.16,4.38,3,9,6.28,11.51-1.37-1-.55-4.28.15-5.41a16.26,16.26,0,0,0,3.86,6.37A3.3,3.3,0,0,1,40.2,71c-1,3.23,2.25,8.84,4.25,11.07-.16-2.27.2-4.71,2-6.06A10.45,10.45,0,0,1,48,78.61l.12-.11c.08.24.16.48.22.73.14-.43.27-.89.4-1.36a9,9,0,0,0,1.78-4.7c.16-.24.33-.46.51-.68a4.89,4.89,0,0,1,.46.56,11.4,11.4,0,0,0,2.45,6.18c-.24-1,1.67-2.55,1.57-3.47,2.36,1.26,2.82,3.9,2.64,6.35,2.16-2.23,5.68-7.84,4.6-11.07a3.27,3.27,0,0,1,2.46,4.71,16.22,16.22,0,0,0,4.17-6.37c.75,1.13,1.64,4.39.16,5.41,3.58-2.47,8-7.13,6.79-11.51,1.38,2.47.86,5.27,1,8A15.55,15.55,0,0,0,79.6,57.45,32.14,32.14,0,0,1,83,65.13c2.5-5.37,1.72-8.11.73-11.79.27.55,1.42,1.73,1.64,2.11.18-2.92,0-6.81-2-9.27-1.34-1.71-4-1.51-4.89-3.34C83.36,43.11,86.61,46.51,88.52,50.06Z"/>
            <path class="cls-6" d="M88.52,50.06c-1-9.87-4.7-13.72-14.21-16.61A31.65,31.65,0,0,1,80.56,33C75.71,29,69.41,29.76,63.4,29.48c.89-3.84,9.21-4.73,12.61-5.86-2-1.63-4.85-1.47-7.35-1.81,1.31-1.71,3.78-2.32,5.21-3.7a13.07,13.07,0,0,0-7.37,1,18.3,18.3,0,0,1,4.35-7.31C65.42,13.11,58.37,19,59.21,24.67L51,41.26,43.47,24.67c.77-5.72-5.74-11.56-10.76-12.84a18.76,18.76,0,0,1,4,7.31,11.28,11.28,0,0,0-6.82-1c1.33,1.38,3.61,2,4.82,3.7-2.31.34-5,.18-6.79,1.81,3.14,1.13,10.83,2,11.66,5.86C34,29.76,28.21,29,23.73,33a27.14,27.14,0,0,1,5.78.49c-8.8,2.89-12.21,6.74-13.14,16.61,1.76-3.55,4.77-7,9.29-7.22-.8,1.83-3,2.61-4.28,4.31-1.81,2.47-1.7,4.87-1.52,7.8.2-.39.73-1.06,1-1.61-1.7,4.63.63,9.18,1.69,12.12.15-3.13.08-7.33,2.08-8a16.63,16.63,0,0,0,2.06,13.78c.16-2.68-.31-5.48,1-8-1.16,4.38,3,9,6.28,11.51-1.37-1-.55-4.28.15-5.41a16.26,16.26,0,0,0,3.86,6.37A3.3,3.3,0,0,1,40.2,71c-1,3.23,2.25,8.84,4.25,11.07-.16-2.27.2-4.71,2-6.06A10.45,10.45,0,0,1,48,78.61l.12-.11c.08.24.16.48.22.73.14-.43.27-.89.4-1.36a9,9,0,0,0,1.78-4.7c.16-.24.49,1.46.67,1.25.16.17.16-1.57.3-1.37a11.4,11.4,0,0,0,2.45,6.18c-.24-1,1.67-2.55,1.57-3.47,2.36,1.26,2.82,3.9,2.64,6.35,2.16-2.23,5.68-7.84,4.6-11.07a3.27,3.27,0,0,1,2.46,4.71,16.22,16.22,0,0,0,4.17-6.37c.75,1.13,1.64,4.39.16,5.41,3.58-2.47,8-7.13,6.79-11.51,1.38,2.47.86,5.27,1,8A15.55,15.55,0,0,0,79.6,57.45,32.14,32.14,0,0,1,83,65.13c2.5-5.37,1.72-8.11.73-11.79.27.55,1.42,1.73,1.64,2.11.18-2.92,0-6.81-2-9.27-1.34-1.71-4-1.51-4.89-3.34C83.36,43.11,86.61,46.51,88.52,50.06Z"/>
            <g class="cls-7">
              <path class="cls-6" d="M34.35,12.39a11.36,11.36,0,0,0-1.64-.56c.46.53.91,1.12,1.35,1.74q.66-.06,1.29-.15A5.14,5.14,0,0,0,34.35,12.39Z"/>
              <path class="cls-6" d="M64,21.1c1.72.07,3.46.07,5.19.11,1.36-1.27,3.41-1.89,4.66-3.1a13.07,13.07,0,0,0-7.37,1c.08-.32.18-.64.29-.95A4.77,4.77,0,0,0,64,21.1Z"/>
              <path class="cls-6" d="M69.28,13.42l.2,0c.27-.36.55-.7.84-1A5.8,5.8,0,0,0,69.28,13.42Z"/>
              <path class="cls-6" d="M84.31,45l0,0a.21.21,0,0,0,0-.06S84.3,45,84.31,45Z"/>
              <path class="cls-6" d="M36.2,17.5a13.57,13.57,0,0,1,.53,1.64,11.28,11.28,0,0,0-6.82-1C31.08,19.33,33,20,34.26,21.26c2-.1,4-.07,6-.16C39.86,19.43,38.21,18.32,36.2,17.5Z"/>
              <path class="cls-6" d="M22,38.76c1.18-1.61,3.25-2.4,4.15-4-6.32,2.8-9,6.83-9.77,15.33a15.14,15.14,0,0,1,4-5.18A9.12,9.12,0,0,1,22,38.76Z"/>
              <path class="cls-6" d="M84.5,54.43c.35.43.71.83.82,1a22.18,22.18,0,0,0-.12-4.35A13.43,13.43,0,0,1,84.5,54.43Z"/>
              <path class="cls-6" d="M86,46.48a17.22,17.22,0,0,1,2.55,3.58c-.47-4.58-1.52-7.87-3.46-10.36A16.85,16.85,0,0,1,86,46.48Z"/>
              <path class="cls-6" d="M78,62.84c-.17-2.67.35-5.48-1-7.94,1.26,4.37-3.21,9-6.79,11.51,1.48-1,.59-4.28-.16-5.42a16.22,16.22,0,0,1-4.17,6.37,3.27,3.27,0,0,0-2.46-4.71c1.08,3.23-2.44,8.85-4.6,11.07.18-2.45-.28-5.09-2.64-6.35.1.92-1.81,2.43-1.57,3.48a11.43,11.43,0,0,1-2.45-6.19c-.14-.2-.14,1.55-.3,1.37-.19.21-.51-1.49-.67-1.25a9,9,0,0,1-1.78,4.71c-.13.46-.26.92-.4,1.36-.06-.25-.14-.5-.22-.74l-.12.11a10.51,10.51,0,0,0-1.56-2.55c-1.8,1.35-2.15,3.78-2,6-2-2.22-5.25-7.84-4.25-11.07a3.3,3.3,0,0,0-2.27,4.71A16.26,16.26,0,0,1,34.69,61c-.7,1.14-1.52,4.39-.15,5.42-3.31-2.48-7.44-7.14-6.28-11.51-1.27,2.46-.8,5.27-1,7.94a16.59,16.59,0,0,1-2.06-13.78c-2,.68-1.93,4.88-2.08,8-.83-2.31-2.44-5.61-2.28-9.16-1.28,2.2-1.18,4.41-1,7,.2-.39.73-1.06,1-1.61-1.7,4.63.63,9.18,1.69,12.12.15-3.13.08-7.33,2.08-8a16.63,16.63,0,0,0,2.06,13.78c.16-2.68-.31-5.48,1-8-1.16,4.38,3,9,6.28,11.51-1.37-1-.55-4.28.15-5.41a16.26,16.26,0,0,0,3.86,6.37A3.3,3.3,0,0,1,40.2,71c-1,3.23,2.25,8.84,4.25,11.07-.16-2.27.2-4.71,2-6.06A10.45,10.45,0,0,1,48,78.61l.12-.11c.08.24.16.48.22.73.14-.43.27-.89.4-1.36a9,9,0,0,0,1.78-4.7c.16-.24.49,1.46.67,1.25.16.17.16-1.57.3-1.37a11.4,11.4,0,0,0,2.45,6.18c-.24-1,1.67-2.55,1.57-3.47,2.36,1.26,2.82,3.9,2.64,6.35,2.16-2.23,5.68-7.84,4.6-11.07a3.27,3.27,0,0,1,2.46,4.71,16.22,16.22,0,0,0,4.17-6.37c.75,1.13,1.64,4.39.16,5.41,3.58-2.47,8-7.13,6.79-11.51,1.38,2.47.86,5.27,1,8A15.45,15.45,0,0,0,80,59,15.62,15.62,0,0,1,78,62.84Z"/>
              <path class="cls-6" d="M83.57,56.74a32.14,32.14,0,0,0-3.35-7.68,15.82,15.82,0,0,1,0,9.39A33.72,33.72,0,0,1,83,65.13c2-4.38,1.89-7,1.23-9.83C84,55.76,83.8,56.23,83.57,56.74Z"/>
            </g>
            <path class="cls-8" d="M77.17,49.09c-.69-6.77-3.22-9.4-9.74-11.38a21,21,0,0,1,4.28-.34,9.91,9.91,0,0,0-4.82-2c-4.7,2.84-8.73,6.63-14.69,6.25l-.72,1.48-.75-1.64-.32-.05a.43.43,0,0,1-.48.36,22.5,22.5,0,0,1-8.23-2.51,15.94,15.94,0,0,1-3.63-2,20.05,20.05,0,0,0-3.92-.8,8.38,8.38,0,0,0-1.39,1,18.16,18.16,0,0,1,4,.34c-6,2-8.37,4.61-9,11.38,1.21-2.44,3.27-4.77,6.37-5-.55,1.25-2.09,1.79-2.94,3-1.24,1.69-1.16,3.34-1,5.35.14-.27.51-.73.68-1.11-1.17,3.18.43,6.3,1.16,8.31.1-2.15.05-5,1.42-5.49a11.41,11.41,0,0,0,1.42,9.45c.11-1.84-.22-3.76.66-5.45-.8,3,2,6.19,4.3,7.89-.94-.7-.38-2.93.1-3.71a11.14,11.14,0,0,0,2.64,4.37,2.27,2.27,0,0,1,1.56-3.23c-.68,2.21,1.54,6.06,2.91,7.58-.1-1.55.14-3.22,1.37-4.15a7.27,7.27,0,0,1,1.07,1.75l.08-.07a4.13,4.13,0,0,1,.15.5c.1-.29.19-.61.28-.93a6.17,6.17,0,0,0,1.22-3.22c.11-.17.33,1,.45.85.12.12.11-1.07.21-.94a7.8,7.8,0,0,0,1.68,4.24c-.16-.71,1.14-1.75,1.08-2.38,1.62.87,1.93,2.67,1.81,4.35,1.48-1.52,3.88-5.37,3.15-7.58a2.24,2.24,0,0,1,1.68,3.23,11.11,11.11,0,0,0,2.86-4.37c.52.78,1.13,3,.11,3.71,2.45-1.7,5.52-4.89,4.65-7.89,1,1.69.6,3.61.72,5.45a10.67,10.67,0,0,0,1.52-9.45,21.63,21.63,0,0,1,2.3,5.26c1.72-3.67,1.18-5.55.5-8.08.19.38,1,1.19,1.13,1.45.12-2,0-4.66-1.35-6.35-.92-1.17-2.75-1-3.35-2.29C73.63,44.32,75.86,46.65,77.17,49.09Z"/>
            <g class="cls-9">
              <path class="cls-8" d="M33.37,47.93c-1.37.46-1.32,3.34-1.42,5.49a21.51,21.51,0,0,1-1.52-5,9.5,9.5,0,0,0-.32,4c.14-.27.51-.73.68-1.11-1.17,3.18.43,6.3,1.16,8.31.1-2.13.05-5,1.38-5.47A11.6,11.6,0,0,1,33.37,47.93Z"/>
              <path class="cls-8" d="M31.15,40.87a6.61,6.61,0,0,1,1.36-1.28c-3,1.89-4.33,4.62-4.79,9.5a10.54,10.54,0,0,1,2.37-3.22C30,44,30,42.46,31.15,40.87Z"/>
              <path class="cls-8" d="M73.85,45.11c0,.08,0,.16.07.25l.18.12A2.41,2.41,0,0,1,73.85,45.11Z"/>
              <path class="cls-8" d="M30.61,45.44l.1-.07a2.58,2.58,0,0,1,.08-.26Z"/>
              <path class="cls-8" d="M69.53,57.37c-.12-1.83.23-3.75-.72-5.45.87,3-2.2,6.2-4.65,7.89,1-.7.41-2.93-.11-3.71a11.11,11.11,0,0,1-2.86,4.37,2.24,2.24,0,0,0-1.68-3.23c.73,2.22-1.67,6.06-3.15,7.59.12-1.68-.19-3.49-1.81-4.36.06.64-1.24,1.67-1.08,2.39a7.83,7.83,0,0,1-1.68-4.24c-.1-.14-.09,1.06-.21.94-.12.14-.34-1-.45-.86a6.24,6.24,0,0,1-1.22,3.23c-.09.32-.18.63-.28.93a4.91,4.91,0,0,0-.15-.51l-.08.08a7.08,7.08,0,0,0-1.07-1.75c-1.23.92-1.47,2.59-1.37,4.15-1.37-1.53-3.59-5.37-2.91-7.59a2.27,2.27,0,0,0-1.56,3.23,11.14,11.14,0,0,1-2.64-4.37c-.48.78-1,3-.1,3.71-2.27-1.69-5.1-4.89-4.3-7.89-.88,1.7-.55,3.62-.66,5.45a11.35,11.35,0,0,1-1.44-3.13,11.41,11.41,0,0,0,1.44,9.36c.11-1.84-.22-3.76.66-5.45-.8,3,2,6.19,4.3,7.89-.94-.7-.38-2.93.1-3.71a11.14,11.14,0,0,0,2.64,4.37,2.27,2.27,0,0,1,1.56-3.23c-.68,2.21,1.54,6.06,2.91,7.58-.1-1.55.14-3.22,1.37-4.15a7.27,7.27,0,0,1,1.07,1.75l.08-.07a4.13,4.13,0,0,1,.15.5c.1-.29.19-.61.28-.93a6.17,6.17,0,0,0,1.22-3.22c.11-.17.33,1,.45.85.12.12.11-1.07.21-.94a7.8,7.8,0,0,0,1.68,4.24c-.16-.71,1.14-1.75,1.08-2.38,1.62.87,1.93,2.67,1.81,4.35,1.48-1.52,3.88-5.37,3.15-7.58a2.24,2.24,0,0,1,1.68,3.23,11.11,11.11,0,0,0,2.86-4.37c.52.78,1.13,3,.11,3.71,2.45-1.7,5.52-4.89,4.65-7.89,1,1.69.6,3.61.72,5.45a10.69,10.69,0,0,0,1.55-9.36A11.15,11.15,0,0,1,69.53,57.37Z"/>
              <path class="cls-8" d="M74,51.57c.3.41.85,1,1,1.21A12.43,12.43,0,0,0,74.46,48,8.53,8.53,0,0,1,74,51.57Z"/>
              <path class="cls-8" d="M73.35,53.19a21.46,21.46,0,0,0-2.3-5.26,10.8,10.8,0,0,1,0,6.27,22.26,22.26,0,0,1,2.26,5.21,9.43,9.43,0,0,0,.6-7.69A15.8,15.8,0,0,1,73.35,53.19Z"/>
              <path class="cls-8" d="M75,46.2a11.22,11.22,0,0,1,2.18,2.89c-.36-3.48-1.2-5.86-2.82-7.63A11.4,11.4,0,0,1,75,46.2Z"/>
            </g>
            <g>
              <path class="cls-10" d="M58.1,27.28a7.85,7.85,0,0,1-7.84-7.84,7.19,7.19,0,0,1,.12-1.24,7.83,7.83,0,1,1,7.72,9.08Z"/>
              <path class="cls-11" d="M58.1,27.28a7.85,7.85,0,0,1-7.84-7.84,7.19,7.19,0,0,1,.12-1.24,7.83,7.83,0,1,1,7.72,9.08Z"/>
              <g>
                <g>
                  <path class="cls-12" d="M51.62,19.44A6.48,6.48,0,1,0,58.1,13,6.48,6.48,0,0,0,51.62,19.44Z"/>
                  <path class="cls-13" d="M51.87,17.78a6.44,6.44,0,0,0,12.66,1.27c0,.13,0,.26,0,.39a6.48,6.48,0,0,1-12.95,0A6.06,6.06,0,0,1,51.87,17.78Z"/>
                </g>
                <g>
                  <path d="M53.06,17.78a3.23,3.23,0,1,0,3.23-3.23A3.23,3.23,0,0,0,53.06,17.78Z"/>
                  <path class="cls-12" d="M56.29,16.93a1.29,1.29,0,1,0,1.29-1.29A1.29,1.29,0,0,0,56.29,16.93Z"/>
                </g>
              </g>
            </g>
            <g>
              <path class="cls-10" d="M43,27.28a7.84,7.84,0,0,0,7.83-7.84,7.19,7.19,0,0,0-.12-1.24A7.83,7.83,0,1,0,43,27.28Z"/>
              <path class="cls-11" d="M43,27.28a7.84,7.84,0,0,0,7.83-7.84,7.19,7.19,0,0,0-.12-1.24A7.83,7.83,0,1,0,43,27.28Z"/>
              <g>
                <g>
                  <path class="cls-12" d="M49.42,19.44A6.48,6.48,0,1,1,43,13,6.47,6.47,0,0,1,49.42,19.44Z"/>
                  <path class="cls-13" d="M49.18,17.78a6.44,6.44,0,0,1-12.67,1.27c0,.13,0,.26,0,.39a6.48,6.48,0,1,0,12.71-1.66Z"/>
                </g>
                <g>
                  <path d="M48,17.78a3.23,3.23,0,1,1-3.23-3.23A3.22,3.22,0,0,1,48,17.78Z"/>
                  <path class="cls-12" d="M44.75,16.93a1.29,1.29,0,1,1-1.29-1.29A1.29,1.29,0,0,1,44.75,16.93Z"/>
                </g>
              </g>
            </g>
            <path class="cls-11" d="M49.77,17.42a22.76,22.76,0,0,1-.62-4.92c0-.54,0-1.1,0-1.67,0-2.56,0-5.45-1.31-7.44A2.57,2.57,0,0,0,45.53,2C44.2,2,42.61,3.41,41.74,5.22l-1.41-.67c.94-2,2.88-4,5.09-4.17a4,4,0,0,1,3.7,2.16c1.54,2.37,1.56,5.51,1.57,8.28,0,.56,0,1.11,0,1.63A21.49,21.49,0,0,0,51.29,17Z"/>
            <path class="cls-11" d="M37.81,5c-.27,1.23.38.21.74,0a5.88,5.88,0,0,1,2.12-.81,7.63,7.63,0,0,0-1.53,2.46A3.76,3.76,0,0,0,39.87,6c-.27,1.48-1.31,3.87-.84,5.22.64-1.29.81-3.41,1.88-4.24-.17,1.24-.6,2.65-.18,3.73.47-1.22.58-2.84,1.37-3.91a16.69,16.69,0,0,0,.42,2.13c.25-.65.52-3,1.11-3.07.41,0,.83,1.83,1.19,2.18C47.41,3.07,38.92,0,37.81,5Z"/>
            <path class="cls-12" d="M40,38.67c.09-.46.22-4.66,1.25-6.42s.63-1.1.63-1.1,1.43,1.31,1.92,5.1l.5,3.8Z"/>
            <path class="cls-5" d="M66.55,35.32s-.35.46-1,1.23a7.26,7.26,0,0,1-.55.63l-.71.69c-.26.24-.53.52-.84.78l-1,.76a18.18,18.18,0,0,1-2.41,1.53c-.44.24-.93.43-1.42.66l-.74.32c-.26.1-.53.17-.79.26-.54.15-1.07.34-1.64.47L53.75,43a5,5,0,0,1-.88.1l-.89,0-.44,0-.23,0h-.25l-.85,0c-.28,0-.59,0-.89-.06s-.62,0-.91-.1a17.39,17.39,0,0,1-1.75-.33,18,18,0,0,1-3.26-1.07l-.76-.33-.72-.37c-.48-.24-.92-.53-1.35-.79a18.75,18.75,0,0,1-2.28-1.69,18.46,18.46,0,0,1-1.72-1.65c-.24-.27-.46-.51-.65-.75l-.52-.66c-.32-.38-.51-.74-.67-.95L34.5,34l0,0,.31.27c.21.17.5.43.89.74.19.16.4.33.64.51l.76.58c.55.4,1.19.82,1.9,1.27s1.49.85,2.33,1.28a24.26,24.26,0,0,0,2.73,1.09,20.76,20.76,0,0,0,3,.79c.52.11,1,.17,1.58.24l.78.07c.25,0,.51,0,.8,0l.85,0,.77,0,.8,0a5.06,5.06,0,0,0,.79-.06L55,40.55c.51-.08,1-.23,1.5-.33l.73-.17.71-.24c.46-.16.93-.28,1.36-.46l1.26-.54a9.55,9.55,0,0,0,1.16-.55l1.05-.55c.34-.18.63-.38.92-.55.57-.36,1.1-.66,1.49-1,.82-.59,1.3-.9,1.3-.9Z"/>
            <path class="cls-14" d="M41.76,45.31h.05c.2,0,.51.05.41.53a.17.17,0,0,1,0,.05,2.35,2.35,0,0,0-.41.36,2.31,2.31,0,0,0-.34.42,2,2,0,0,0-.26.39,3.43,3.43,0,0,0-.25.55,1.15,1.15,0,0,0-.07.15,2.35,2.35,0,0,0-.16.4c0,.17-.12.36-.16.56s-.08.37-.13.58c-.12,1.27-.29.8-.39,0a5.45,5.45,0,0,1,0-1,4.05,4.05,0,0,1,.14-.71c.06-.19.09-.32.09-.32a4.68,4.68,0,0,1,.27-.55,2.27,2.27,0,0,1,.3-.46,2.8,2.8,0,0,1,.41-.5A4,4,0,0,1,41.76,45.31Z"/>
            <path class="cls-14" d="M44.46,48.64l0,0c.15-.12.46-.24.64.21v.06A11.5,11.5,0,0,0,44.83,50a13.24,13.24,0,0,0-.23,1.38c0,.21,0,.43,0,.64,0,0,0,.06,0,.18a4.34,4.34,0,0,0,0,.44,11.61,11.61,0,0,0,0,1.18c.19,1.25-.09.86-.39.06a5.75,5.75,0,0,1-.2-1,8.68,8.68,0,0,1-.07-1,5.85,5.85,0,0,1,0-.59,12.5,12.5,0,0,1,.24-1.47A10.4,10.4,0,0,1,44.46,48.64Z"/>
            <path class="cls-14" d="M47.81,50.91a.09.09,0,0,1,0,0c.1-.17.35-.39.67,0l0,.06c0,.38,0,.77,0,1.16l.08.7c0,.22,0,.44.07.65l.05.64c0,.31,0,.74.07,1.21.07,1.31-.17.83-.4.05,0,0-.12-.43-.23-.91s-.21-1-.21-1l-.07-.58-.08-.72C47.84,51.72,47.83,51.31,47.81,50.91Z"/>
            <path class="cls-14" d="M53.56,48.05s0,0,0,0a2,2,0,0,1,.1-.28c.06-.1.17-.22.46-.1l.06,0a4.2,4.2,0,0,1,.41,1.24c.06.29.1.58.14.86s.05.46.06.68c0,0,0,.28,0,.66a9,9,0,0,1-.18,1.24c-.15.65-.29.82-.34.74a3.14,3.14,0,0,1-.06-.8s0-.44,0-.92-.09-1-.09-1c0-.18,0-.37,0-.55a7.19,7.19,0,0,0-.13-.81A3.53,3.53,0,0,0,53.56,48.05Z"/>
            <path class="cls-14" d="M56,47l0,0c0-.16-.06-.55.43-.52l.07,0a2.32,2.32,0,0,1,.45.49l.2.26.15.29v0a3.29,3.29,0,0,1,.26.68,1.9,1.9,0,0,1,0,.19c0,.11,0,.28.06.48a7.44,7.44,0,0,1,0,1.25c-.14,1.31-.3.78-.4,0,0,0-.05-.43-.14-.9a5.15,5.15,0,0,0-.15-.62,2.34,2.34,0,0,0-.1-.28,2.43,2.43,0,0,0-.19-.47h0l-.12-.24-.16-.21A1.44,1.44,0,0,0,56,47Z"/>
            <path class="cls-14" d="M62.55,48.42s0,0,0-.05.13-.51.59-.33a.14.14,0,0,1,0,0c.19.35.38.69.57,1.05l.35.73a4.22,4.22,0,0,1,.28.61s.08.24.2.63c0,.16.11.36.17.59s.06.4.09.62c.19,1.31-.11.81-.39.08a2.16,2.16,0,0,1-.09-.24,3.09,3.09,0,0,0-.25-.6l-.41-.88c-.07-.17-.17-.34-.25-.51l-.34-.7C62.93,49.11,62.73,48.77,62.55,48.42Z"/>
            <path class="cls-14" d="M60.29,51.6a.13.13,0,0,1,0-.05c.08-.18.31-.42.67-.09,0,0,0,0,0,0a11.13,11.13,0,0,0,.23,1.12l.11.43.17.64s0,.25.11.65a7.24,7.24,0,0,1,.1,1.24c-.07,1.34-.26.78-.4,0,0,0-.08-.41-.23-.88s-.29-.93-.29-.93l-.15-.55-.12-.44A11.26,11.26,0,0,1,60.29,51.6Z"/>
            <path class="cls-14" d="M62.29,42.08l0,0c-.08-.16-.18-.52.31-.59a.06.06,0,0,1,.06,0c.18.11.37.21.54.33l.5.39a5.86,5.86,0,0,1,1,1.09,3.7,3.7,0,0,1,.35.61l.08.18a2.06,2.06,0,0,1,.15.46,5.76,5.76,0,0,1,.22,1.24c0,1.34-.21.8-.4,0,0,0-.12-.41-.3-.85a5.37,5.37,0,0,0-.27-.58l-.15-.25a2.69,2.69,0,0,0-.28-.46,4.72,4.72,0,0,0-.83-.95l-.44-.35C62.62,42.26,62.45,42.17,62.29,42.08Z"/>
            <path class="cls-14" d="M66.61,43.85s0,0,0,0,0-.54.46-.49l.06,0c.3.29.56.6.83.91a8.14,8.14,0,0,1,.64.9,5.11,5.11,0,0,1,.34.6l.07.18a2.42,2.42,0,0,1,.16.46,5,5,0,0,1,.15.61c0,.22.06.44.08.63,0,1.34-.22.79-.4,0,0,0-.11-.41-.3-.84a5.43,5.43,0,0,0-.29-.59c-.09-.15-.14-.25-.14-.25-.07-.17-.19-.31-.27-.47a8.35,8.35,0,0,0-.6-.83A10.19,10.19,0,0,0,66.61,43.85Z"/>
            <path class="cls-14" d="M38.08,42.61h.05c.2,0,.52.11.36.57a.07.07,0,0,1,0,0c-.33.2-.64.43-1,.66a10,10,0,0,0-.78.68,4.57,4.57,0,0,0-.43.45l-.12.13a1.91,1.91,0,0,0-.3.32c-.24.26-.49.63-.72.94-.61,1.11-.59.62-.34-.19a4.72,4.72,0,0,1,.42-.88,7,7,0,0,1,.58-.86c.13-.15.27-.29.41-.43s.56-.49.84-.73S37.74,42.82,38.08,42.61Z"/>
            <path class="cls-14" d="M37.4,48.55l0,0c.17-.09.49-.13.57.36,0,0,0,0,0,.06-.18.33-.39.65-.55,1l-.11.27-.23.6a1,1,0,0,0-.07.16c0,.1-.08.24-.14.42a6.71,6.71,0,0,0-.32,1.13c-.25,1.27-.38.78-.4-.06a8.46,8.46,0,0,1,.29-2l.21-.55.12-.3C37,49.26,37.21,48.91,37.4,48.55Z"/>
            <path class="cls-14" d="M40.9,54.14l0,0a.59.59,0,0,1,.66.13l0,0s0,.21-.09.51a7.94,7.94,0,0,0-.09,1.07,6.67,6.67,0,0,0,.06,1.06l.08.47a2.85,2.85,0,0,0,0,.3c0,.17,0,.4.05.58.07.63-.15.48-.38.13a5.31,5.31,0,0,1-.4-.9,7.71,7.71,0,0,1-.15-1.67,9.3,9.3,0,0,1,.1-1.16C40.85,54.36,40.9,54.15,40.9,54.14Z"/>
            <path class="cls-14" d="M34.86,39.74s0,0,0,0c.19,0,.47.22.22.63l0,.05a6.86,6.86,0,0,0-1.05.44c-.17.1-.36.19-.53.3s-.36.23-.53.36l-.51.34-.47.36c-.13.12-.29.24-.45.39-.89.91-.74.44-.29-.28a6,6,0,0,1,.62-.74,5.65,5.65,0,0,1,.51-.49l.25-.22.49-.33c.19-.12.39-.21.58-.32A7.79,7.79,0,0,1,34.86,39.74Z"/>
            <path class="cls-14" d="M55.24,55.33v0a.63.63,0,0,1,.62-.27h0s.09.21.2.5.12.32.19.5.11.38.16.58.11.39.16.58.07.36.09.51l.08.51a1.83,1.83,0,0,1,0,.31c0,.19-.06.41-.1.6-.12.62-.29.37-.4,0,0,0-.17-.87-.2-.87L56,57.8c0-.14,0-.3-.08-.48l-.15-.53c-.06-.18-.1-.37-.16-.54l-.17-.46C55.32,55.52,55.25,55.34,55.24,55.33Z"/>
            <path class="cls-14" d="M45.79,58.33s0,0,0,0,.44-.26.65.18c0,0,0,.05,0,.07l-.13.55a2.54,2.54,0,0,0-.1.55v.07l-.06.63,0,.17c0,.11,0,.26,0,.45a11.63,11.63,0,0,0,0,1.19c0,1.29-.19.83-.39,0a8.67,8.67,0,0,1-.22-2l.05-.59v-.07a2.52,2.52,0,0,1,.11-.61Z"/>
            <path class="cls-14" d="M50.93,54.4v0a.8.8,0,0,1,.67-.1l0,0s.08.62.16,1.22a6.78,6.78,0,0,1,.07.83c0,.23,0,.39,0,.39a4.57,4.57,0,0,1-.14.68c-.13.47-.3.28-.4,0a6.55,6.55,0,0,1-.18-.67s0-.15,0-.36a5,5,0,0,0-.08-.8C51,55,50.93,54.41,50.93,54.4Z"/>
            <path class="cls-14" d="M58.86,44.62s0,0,0,0a.64.64,0,0,1,.37-.56h0s.19.14.42.35l.37.39.34.5A5.21,5.21,0,0,1,61,46.78v.09a1.59,1.59,0,0,1,0,.22,2,2,0,0,1-.09.59c-.18.61-.32.31-.4,0a4.25,4.25,0,0,0-.23-.78,4.52,4.52,0,0,0-.5-1.27l-.29-.41-.29-.32Z"/>
            <path class="cls-14" d="M47.4,44.05s0,0,0,0c.2-.07.51,0,.5.44,0,0,0,0,0,.06a3.37,3.37,0,0,0-.6.9l-.07.16a2.75,2.75,0,0,0-.2.57l-.05.16c0,.1-.06.25-.11.43-.07.34-.15.79-.21,1.17-.16,1.29-.31.78-.39,0a6,6,0,0,1,0-1,5,5,0,0,1,.06-.71,1.87,1.87,0,0,1,.06-.33,2.49,2.49,0,0,1,.2-.58l.08-.19A4.22,4.22,0,0,1,47.4,44.05Z"/>
            <path class="cls-14" d="M51,45s0,0,0,0,.28-.12.36,0,.14.22.22.39v0a2.94,2.94,0,0,0-.24,1,2.71,2.71,0,0,0,0,.4c0,.22,0,.43,0,.65,0,0,0,.24-.05.63s-.06.73-.09,1.21c-.06,1.29-.26.8-.4,0,0,0-.07-.43-.11-.93s-.06-1-.06-1c0-.2,0-.39,0-.59s0-.29,0-.43A3.67,3.67,0,0,1,51,45Z"/>
            <path class="cls-14" d="M66.26,51.77s0,0,0,0a.61.61,0,0,1,.64-.2s0,0,0,0,.06.21.15.5l.14.5c0,.19.08.39.13.59s.08.4.12.58,0,.37.06.53l0,.5a3.8,3.8,0,0,1-.2.91c-.17.61-.32.33-.39,0,0,0-.08-.87-.12-.87l0-.46q0-.21-.06-.48l-.12-.54c-.07-.37-.17-.75-.25-1S66.26,51.78,66.26,51.77Z"/>
            <path class="cls-11" d="M48.11,29.13c-.66,0-.53,1,.13,1S48.77,29.13,48.11,29.13Z"/>
            <path class="cls-11" d="M50.37,26.62c-1.31,0-1.07,2,.23,2S51.66,26.62,50.37,26.62Z"/>
            <path class="cls-11" d="M50.83,29.33c-.77,0-.9,1.2-.12,1.2S51.61,29.33,50.83,29.33Z"/>
            <path class="cls-11" d="M48.86,32c-.54,0-.48.84.07.84S49.41,32,48.86,32Z"/>
            <path class="cls-11" d="M53,31.23c-1.3,0-1.06,2,.23,2S54.25,31.23,53,31.23Z"/>
            <path class="cls-11" d="M55,28.67a.54.54,0,0,0-.46.61.55.55,0,0,0,.61.46.53.53,0,0,0,.46-.6A.55.55,0,0,0,55,28.67Z"/>
            <path class="cls-11" d="M58.32,30a2.27,2.27,0,0,0,.06.25.5.5,0,0,0,.64.29h0a.5.5,0,0,0,.29-.38h0a.83.83,0,0,0,0-.15C59.5,29.23,58.18,29.24,58.32,30Z"/>
            <path class="cls-11" d="M57.27,31.18a.77.77,0,0,0,0,1.53A.77.77,0,0,0,57.27,31.18Z"/>
            <path class="cls-11" d="M45.57,28.43a.86.86,0,0,0-.85-.19l-.28.13a.82.82,0,0,0,0,1.4l.12.05a.87.87,0,0,0,1.25-.55A.9.9,0,0,0,45.57,28.43Z"/>
            <path class="cls-11" d="M45.17,32a.41.41,0,0,0-.17-.24.27.27,0,0,0-.33,0l-.13.22C44.4,32.5,45.32,32.51,45.17,32Z"/>
            <path class="cls-11" d="M38.93,31.16c-.46,0-.43.71,0,.71S39.4,31.16,38.93,31.16Z"/>
            <path class="cls-11" d="M41.64,29.18c-.59,0-.5.92.09.92S42.23,29.18,41.64,29.18Z"/>
            <path class="cls-11" d="M41.75,29.21c-.73,0-.87,1.15-.13,1.15S42.49,29.21,41.75,29.21Z"/>
            <g>
              <path class="cls-11" d="M48.81,34.39v0C48.8,34.52,48.79,34.59,48.81,34.39Z"/>
              <path class="cls-11" d="M48.82,34.17a1,1,0,0,0-.16-.33.87.87,0,0,0-.59-.26.68.68,0,0,0-.71.63.62.62,0,0,0,.45.66.65.65,0,0,0,1-.46C48.81,34.32,48.82,34.19,48.82,34.17Z"/>
            </g>
            <path class="cls-11" d="M56.22,33.93a.9.9,0,0,0-.51-.21.68.68,0,1,0,.1,1.34.7.7,0,0,0,.43-.21A.58.58,0,0,0,56.22,33.93Z"/>
            <path class="cls-11" d="M59.81,33.21c-.6,0-.51.93.09.93S60.41,33.21,59.81,33.21Z"/>
            <path class="cls-11" d="M63.16,32v0a.5.5,0,0,0-.11-.26s0,0,0,0l0,0a.45.45,0,0,0-.35-.18h0a.6.6,0,0,0-.54.22.57.57,0,0,0,.12.8.6.6,0,0,0,.43.11l.11,0,.05,0c.1,0,.21-.11.21-.17h0a.53.53,0,0,0,.14-.29A.57.57,0,0,0,63.16,32Z"/>
            <path class="cls-11" d="M61.29,30.94a.4.4,0,0,0-.2-.09c-.59-.08-.59.84-.06.76a.46.46,0,0,0,.39-.22A.33.33,0,0,0,61.29,30.94Z"/>
            <path class="cls-11" d="M61.69,28.18c-.59,0-.5.9.08.9S62.27,28.18,61.69,28.18Z"/>
          </g>
          <path d="M56,7a2.58,2.58,0,0,1,.38-.1,5.09,5.09,0,0,1,.6,0,4.36,4.36,0,0,1,.68.07,7.71,7.71,0,0,1,1.56.52c.27.13.54.26.81.42s.53.31.79.49a6.8,6.8,0,0,1,.73.57c.22.22.44.41.63.64a4.42,4.42,0,0,1,.52.64,4.4,4.4,0,0,1,.4.63,4.56,4.56,0,0,1,.26.56,2,2,0,0,1,.16.44c.08.25.12.39.12.39a.1.1,0,0,1-.07.12.11.11,0,0,1-.11,0h0L63.25,12a2.34,2.34,0,0,0-.27-.34,3.68,3.68,0,0,0-.39-.41c-.16-.13-.31-.29-.5-.43a5.58,5.58,0,0,0-.59-.42,6.15,6.15,0,0,0-.67-.38c-.24-.11-.47-.23-.72-.32a7.09,7.09,0,0,0-.73-.26c-.25-.09-.5-.13-.73-.19a10.32,10.32,0,0,0-1.28-.17C57.19,9,57,9,56.89,9l-.3,0a2.83,2.83,0,0,1-.4,0h0a1,1,0,0,1-.8-1.19A1,1,0,0,1,56,7Z"/>
        </g>
      </g>
    </g>
  </g>
</svg>
