<svg xmlns="http://www.w3.org/2000/svg" width="80" height="100" viewBox="0 0 80 100">
  <defs>
    <style>
      .cls-1 {
        isolation: isolate;
      }

      .cls-2 {
        fill: #c7bfff;
      }

      .cls-3 {
        fill: #ff4d95;
      }

      .cls-4 {
        fill: #437e39;
      }

      .cls-5 {
        fill: #ff3a5c;
      }

      .cls-6 {
        fill: #5057b8;
      }

      .cls-7, .cls-8 {
        fill: #f0d907;
      }

      .cls-7 {
        mix-blend-mode: multiply;
      }

      .cls-9 {
        fill: #fff;
      }

      .cls-10 {
        fill: #e8e8e8;
      }

      .cls-11 {
        fill: #64bd55;
      }

      .cls-12 {
        fill: #a2a7e8;
      }

      .cls-13 {
        fill: #3c37a1;
      }
    </style>
  </defs>
  <g class="cls-1">
    <g id="Ñëîé_1" data-name="Ñëîé 1">
      <g>
        <g>
          <path class="cls-2" d="M19.29,20.84c3,2.52,5.7,6.72,8.43,9.92a35.71,35.71,0,0,0,3.79,3.94c.53.5,1,.82,1.33,1.09l.51.4-.63.16c-.4.08-1,.25-1.77.34a23.5,23.5,0,0,1-6.22,0c-5-.63-10.72-3-13.92-5.7s-4.18-4.56-4.17-6.11S7.7,22,8.87,20.62s2.22-2.67,3.8-2.9S16.33,18.33,19.29,20.84Z"/>
          <path class="cls-2" d="M16.84,37.47c1.36-.15,3-.15,5-.19l6-.12c2,0,3.79,0,5.09,0s2.1.12,2.1.12l-1.44,1.52c-.9.93-2.14,2.21-3.64,3.58a31.57,31.57,0,0,1-5.32,4,17.11,17.11,0,0,1-6.51,2.31,12.73,12.73,0,0,1-5-.3,6.69,6.69,0,0,1-1.48-.64,3.44,3.44,0,0,1-.9-.82c-.87-1.17-.58-2.56-.3-4.1A7.09,7.09,0,0,1,11.87,39a3.6,3.6,0,0,1,.78-.58,4.21,4.21,0,0,1,1-.44A17.36,17.36,0,0,1,16.84,37.47Z"/>
          <path class="cls-2" d="M63.93,30.5a20.61,20.61,0,0,1-6.52,3.81A32.58,32.58,0,0,1,50,36.1a36.39,36.39,0,0,1-5.93.28c-.74,0-1.34-.09-1.75-.12l-.63-.07,1.6-1.72c1-1.06,2.26-2.56,3.64-4.21s2.85-3.47,4.22-5.16A43.25,43.25,0,0,1,55,20.77c2.38-2.21,3.58-2.86,5-2.86A10.09,10.09,0,0,1,64.5,19.5c1.6.88,3.09,1.61,3.45,3.32S67.4,27.31,63.93,30.5Z"/>
          <path class="cls-2" d="M55.69,47.61C51,47.45,45.2,45.36,40.9,42.74a29.77,29.77,0,0,1-2.9-2,16.93,16.93,0,0,1-2.09-1.95q-.4-.45-.69-.81l-.43-.68-.33-.57.62.21.7.22,1,.17a20.39,20.39,0,0,0,2.49.22c1,0,2,0,3.11,0,4.44-.14,9.82-.85,13.7-.71s5.55.41,6.49,1.23a8.16,8.16,0,0,1,1.86,3.46c.45,1.42,1,2.68-.24,4S60.35,47.76,55.69,47.61Z"/>
          <g>
            <path class="cls-3" d="M13.51,20.38a1.17,1.17,0,1,0,1.18,1.16A1.17,1.17,0,0,0,13.51,20.38Z"/>
            <path class="cls-3" d="M10.62,23.8h0c-.47-.27-.43.63,0,.4a0,0,0,0,0,0,0A.22.22,0,0,0,10.62,23.8Z"/>
            <path class="cls-3" d="M9.45,25.71a.48.48,0,0,0,0,1A.48.48,0,0,0,9.45,25.71Z"/>
            <path class="cls-3" d="M12.16,26.25a.91.91,0,0,0-1,1.06.19.19,0,0,1,0,.07.91.91,0,0,0,.79.73.88.88,0,0,0,.92-.57l0-.07A.92.92,0,0,0,12.16,26.25Z"/>
            <path class="cls-3" d="M14.11,29.74c-.75,0-.68,1.16.06,1.16S14.85,29.74,14.11,29.74Z"/>
            <path class="cls-3" d="M15.35,25.08a.84.84,0,0,0-.92.72.82.82,0,0,0,.72.91.84.84,0,0,0,.91-.71A.82.82,0,0,0,15.35,25.08Z"/>
            <path class="cls-3" d="M19.08,24.2a.44.44,0,0,0,0,.88A.44.44,0,0,0,19.08,24.2Z"/>
            <path class="cls-3" d="M17.43,21.55h-.07c-.83-.11-.83,1.16-.1,1.06h.07C17.88,22.52,18.06,21.64,17.43,21.55Z"/>
            <path class="cls-3" d="M18.29,28.58c-1.1,0-1.3,1.71-.19,1.71S19.4,28.58,18.29,28.58Z"/>
          </g>
          <g>
            <path class="cls-3" d="M13.14,39.87a.87.87,0,0,0-.94.75.85.85,0,0,0,.75.93.87.87,0,0,0,.94-.74A.86.86,0,0,0,13.14,39.87Z"/>
            <path class="cls-3" d="M11.66,43.28h0a.75.75,0,0,0,0,1.16l0,0a.75.75,0,1,0,0-1.19Z"/>
            <path class="cls-3" d="M14.72,42.37a.48.48,0,0,0,0,1A.48.48,0,0,0,14.72,42.37Z"/>
            <path class="cls-3" d="M17.13,39h0a.73.73,0,1,0,0,1.35h0A.73.73,0,0,0,17.13,39Z"/>
            <path class="cls-3" d="M14.14,46.28a.4.4,0,0,0,0,.8A.4.4,0,0,0,14.14,46.28Z"/>
            <path class="cls-3" d="M24.1,44.38a.39.39,0,0,0,0,.78A.39.39,0,0,0,24.1,44.38Z"/>
          </g>
          <g>
            <path class="cls-3" d="M59.74,20.92a.81.81,0,0,0-.89.68.79.79,0,0,0,.68.89.81.81,0,0,0,.89-.68A.79.79,0,0,0,59.74,20.92Z"/>
            <path class="cls-3" d="M64.08,23.19a.18.18,0,0,0-.07-.05c-.08-.05-.23,0-.2.12s0,.08,0,.12a.1.1,0,0,0,.18,0c0-.05,0-.05,0-.08A.07.07,0,0,0,64.08,23.19Z"/>
            <path class="cls-3" d="M63.94,23.15a.4.4,0,0,0,0,.8A.4.4,0,0,0,63.94,23.15Z"/>
            <path class="cls-3" d="M62.06,24.39H62c-.94-.14-.93,1.34-.08,1.22h0C62.63,25.5,62.78,24.49,62.06,24.39Z"/>
            <path class="cls-3" d="M57.67,24.9c-.63,0-.6,1,0,1S58.3,24.9,57.67,24.9Z"/>
            <path class="cls-3" d="M59.18,27h0a.73.73,0,1,0,0,1.46h0C60,28.42,60,27.09,59.18,27Z"/>
            <path class="cls-3" d="M64.8,26.08a1.07,1.07,0,0,0-1.1,1,1.06,1.06,0,1,0,1.1-1Z"/>
            <path class="cls-3" d="M56.89,21.92a.71.71,0,0,0-.63.78.71.71,0,1,0,.63-.78Z"/>
            <path class="cls-3" d="M54.53,27.74a.74.74,0,0,0-.65.81.75.75,0,0,0,.82.65.74.74,0,0,0,.64-.82A.74.74,0,0,0,54.53,27.74Z"/>
            <path class="cls-3" d="M61,29.39a.84.84,0,0,0-.92.72.83.83,0,0,0,.73.93.85.85,0,0,0,.92-.73A.83.83,0,0,0,61,29.39Z"/>
          </g>
          <g>
            <path class="cls-3" d="M60.21,38.66c-1.26,0-1.39,2-.13,2S61.47,38.66,60.21,38.66Z"/>
            <path class="cls-3" d="M63,42.37H63a.76.76,0,0,0,0,1.49h0C64.13,44.11,64.11,42.13,63,42.37Z"/>
            <path class="cls-3" d="M61.08,41.18v0a.35.35,0,0,0-.42-.39c-.23,0-.46.1-.42.39v0a.3.3,0,0,0,0,.19h0c0,.43.59.34.75,0A.33.33,0,0,0,61.08,41.18Z"/>
            <path class="cls-3" d="M62.61,39.59a.36.36,0,0,0,0,.72A.36.36,0,0,0,62.61,39.59Z"/>
            <path class="cls-3" d="M61.56,44.76c-.67,0-.63,1,0,1S62.23,44.76,61.56,44.76Z"/>
            <path class="cls-3" d="M53.33,45.06a.4.4,0,0,0-.46-.28h0a.29.29,0,0,0-.16,0,.39.39,0,0,0-.4.46.42.42,0,0,0,.38.49.66.66,0,0,0,.21,0h0c.27,0,.49-.27.49-.51A.59.59,0,0,0,53.33,45.06Z"/>
            <path class="cls-3" d="M50.69,42.22a.71.71,0,0,0-.63.77.73.73,0,0,0,.78.63.7.7,0,0,0,.63-.78A.72.72,0,0,0,50.69,42.22Z"/>
            <path class="cls-3" d="M58.35,38.32h0l0,0h0a.3.3,0,0,0-.27-.22h0a.37.37,0,0,0-.39.34.34.34,0,0,0,.51.32c0,.06,0,.08.1,0a.35.35,0,0,0,.12-.26A.3.3,0,0,0,58.35,38.32Z"/>
          </g>
        </g>
        <g>
          <g>
            <path class="cls-4" d="M32.86,39.78a20.78,20.78,0,0,0-2.8-.89.69.69,0,0,0,0-.25.61.61,0,0,0,.38-.37,1.36,1.36,0,0,1,.65.15c.16.1.39-.08.28-.25a1.42,1.42,0,0,0-1-.65.85.85,0,0,0-.2-.22c-.18-.11-.36-.2-.53-.29.4-.08.78-.16,1.12-.25s.22-.47,0-.44c-1,.09-2,.12-3,.19h0a.73.73,0,0,0-.41-.62,15.42,15.42,0,0,0,4.08-.59.14.14,0,0,0,0-.26,9.69,9.69,0,0,0-10.18,2.49c-3.11,3.18-4.61,8.95-5.45,13.21C14.67,56.14,13,61.2,11.58,66.5a73.48,73.48,0,0,1-2.37,8c-.37,1-.86,1.92-1.25,2.88-1.13.14-2.28.89-3.35,1.1S1.72,78.76,1.14,80s0,2.54.34,3.64a20.11,20.11,0,0,0,2.68,5.63,1.1,1.1,0,0,0,1.32.3c1.69-.8,1.65-2.77.59-4a7.88,7.88,0,0,1-1.52-3.49c-.06-.24.25-.46.7-.66v0a11,11,0,0,0,1.6,3.06,18.32,18.32,0,0,0,1.22,2.28A1,1,0,0,0,9.53,87c.8-.68,1.35-2.52.72-3.41a9.6,9.6,0,0,1-1.41-2.33c-.17-.54.2-.61.6-.95l.1-.09a8.16,8.16,0,0,0,1,1.07c.64.57,1.1,1.72,2,1.86,1.09.17,1.54-.8,2-1.58s-.42-1.59-1-2a4,4,0,0,1-2-3.55,4.58,4.58,0,0,1,.09-.83c.35-.78.72-1.56,1.14-2.31,2.26-4,3.17-8.62,4.77-12.85s2.61-9,4.26-13.34c.58-1.53,2.31-6.46,4.37-6.57,1.2-.07,2.43.1,3.64.1A20.19,20.19,0,0,1,32.81,40,.11.11,0,0,0,32.86,39.78Z"/>
            <path class="cls-5" d="M14.42,63.31a.78.78,0,0,1,0-1.56A.78.78,0,0,1,14.42,63.31Zm1.87-4.42c-.7,0-.85,1.1-.14,1.1S17,58.89,16.29,58.89ZM15,59.35a.24.24,0,0,0,0,.48A.24.24,0,0,0,15,59.35Zm.87-3.14c-.51,0-.46.79,0,.79S16.4,56.21,15.9,56.21Zm1.69,0a.8.8,0,0,0-.38-.06.49.49,0,0,0,0,1,.73.73,0,0,0,.36,0A.48.48,0,0,0,17.59,56.18Zm-.45-4.93c-.95,0-1,1.47-.05,1.47S18.09,51.25,17.14,51.25Zm-.95,2.11a.86.86,0,1,0,.89.83A.87.87,0,0,0,16.19,53.36Zm1.92-.07a.49.49,0,0,0-.44.53.51.51,0,0,0,.54.44.49.49,0,0,0-.1-1Zm.65-2.18a.28.28,0,0,0,0,.55A.28.28,0,0,0,18.76,51.11ZM17.25,49.7c-.44,0-.42.69,0,.69A.35.35,0,0,0,17.25,49.7ZM17.1,48a.83.83,0,0,0,0,1.66A.83.83,0,0,0,17.1,48Zm.54-3.21c-.31.37,0,.77.42.79s.44-.26.43-.53A.48.48,0,0,0,17.64,44.81ZM19,47.68c-.55,0-.48.85.06.85S19.57,47.68,19,47.68ZM13.07,64c-.49,0-.45.76,0,.76S13.56,64,13.07,64ZM3.19,83.53a.47.47,0,0,0,.43-.5,1,1,0,0,1,0-.1.57.57,0,1,0-1.13-.14v.12a.49.49,0,0,0,.17.49A.62.62,0,0,0,3.19,83.53Zm1.63-2.79c.72,0,.86-1.13.13-1.13S4.08,80.74,4.82,80.74Zm-2.48,0c-.46,0-.43.7,0,.7A.35.35,0,0,0,2.34,80.72Zm4.72,0a.53.53,0,0,0-.45.58.53.53,0,0,0,.58.45.51.51,0,0,0,.45-.58A.53.53,0,0,0,7.06,80.71ZM2.26,80h0a.53.53,0,0,0,.22-.39.52.52,0,0,0-.06-.3h0a.45.45,0,0,0-.26-.29,2.21,2.21,0,0,0-.83.65.58.58,0,0,0,.67.43l0,0A.66.66,0,0,0,2.26,80Zm4.89.24c.51,0,.46-.79-.05-.79S6.63,80.27,7.15,80.27Zm-3.56.52c.61,0,.51-.94-.09-.94S3,80.79,3.59,80.79Zm1.79-1.63c.56,0,.53-.78.06-.93a5.08,5.08,0,0,1-.51.17A.52.52,0,0,0,5.38,79.16ZM2.61,84.3a0,0,0,0,0,0,.08h0c.07,0,.07-.1,0-.09Zm7.11-7.72c-.92,0-1,1.43-.06,1.43S10.65,76.58,9.72,76.58Zm-1,3c-.29,0-.31.46,0,.46S9.05,79.53,8.75,79.53Zm.83-4a.29.29,0,1,0,0-.57h0a.29.29,0,0,0,0,.56Zm1.54,3.15a.26.26,0,0,0,0-.52A.26.26,0,0,0,11.12,78.65ZM3.68,84.8c.52,0,.47-.81-.06-.81S3.15,84.8,3.68,84.8ZM4,81.28c-.6,0-.51.93.08.93S4.55,81.28,4,81.28ZM9.87,78.4a.3.3,0,0,0,0,.59A.3.3,0,0,0,9.87,78.4ZM4.08,82.9c-.49,0-.45.74,0,.74S4.56,82.9,4.08,82.9Zm3.55-5.46a3.45,3.45,0,0,0-.43.12.8.8,0,1,0,.43-.12Z"/>
          </g>
          <g>
            <path class="cls-4" d="M42.08,39.78a26.45,26.45,0,0,1,3.23-.89.69.69,0,0,1,0-.25.66.66,0,0,1-.44-.37,1.75,1.75,0,0,0-.75.15c-.18.1-.45-.08-.33-.25A1.71,1.71,0,0,1,45,37.52a.69.69,0,0,1,.23-.22c.21-.11.41-.2.61-.29-.46-.08-.9-.16-1.3-.25s-.25-.47,0-.44c1.13.09,2.32.12,3.5.19h0a.74.74,0,0,1,.48-.62,20.64,20.64,0,0,1-4.74-.59.13.13,0,0,1,0-.26A12.47,12.47,0,0,1,55.6,37.53c3.61,3.18,5.35,8.95,6.32,13.21,1.22,5.4,3.21,10.46,4.8,15.76a69.29,69.29,0,0,0,2.75,8c.43,1,1,1.92,1.45,2.88,1.31.14,2.64.89,3.89,1.1s3.34.28,4,1.54,0,2.54-.41,3.64a18.86,18.86,0,0,1-3.1,5.63,1.4,1.4,0,0,1-1.52.3c-2-.8-1.92-2.77-.69-4a7.3,7.3,0,0,0,1.76-3.49c.07-.24-.29-.46-.81-.66v0a10.47,10.47,0,0,1-1.86,3.06,16.06,16.06,0,0,1-1.41,2.28A1.34,1.34,0,0,1,69.1,87c-.93-.68-1.57-2.52-.84-3.41a9.39,9.39,0,0,0,1.64-2.33c.19-.54-.23-.61-.69-.95l-.11-.09a9.78,9.78,0,0,1-1.21,1.07c-.75.57-1.28,1.72-2.37,1.86-1.27.17-1.78-.8-2.3-1.58s.49-1.59,1.16-2c1.49-1,2.24-1.81,2.27-3.55a3.85,3.85,0,0,0-.11-.83c-.41-.78-.83-1.56-1.32-2.31-2.62-4-3.68-8.62-5.52-12.85s-3-9-5-13.34c-.67-1.53-2.67-6.46-5-6.57-1.4-.07-2.83.1-4.23.1A27,27,0,0,0,42.13,40C42,40,42,39.82,42.08,39.78Z"/>
            <path class="cls-5" d="M63.44,63.31a.79.79,0,1,0,0-1.56A.79.79,0,1,0,63.44,63.31Zm-2.17-4.42c.81,0,1,1.1.16,1.1S60.44,58.89,61.27,58.89Zm1.46.46a.24.24,0,1,1,0,.48A.24.24,0,1,1,62.73,59.35Zm-1-3.14c.59,0,.54.79,0,.79S61.14,56.21,61.72,56.21Zm-2,0a1.07,1.07,0,0,1,.44-.06.49.49,0,0,1,0,1,1.05,1.05,0,0,1-.43,0A.46.46,0,0,1,59.76,56.18Zm.52-4.93a.74.74,0,1,1,.06,1.47A.74.74,0,1,1,60.28,51.25Zm1.1,2.11a.93.93,0,0,1,1,.89,1,1,0,0,1-1,.83.93.93,0,0,1-1-.89A1,1,0,0,1,61.38,53.36Zm-2.22-.07a.51.51,0,0,1,.5.53c0,.29-.31.44-.62.44a.52.52,0,0,1-.5-.54A.57.57,0,0,1,59.16,53.29Zm-.75-2.18a.28.28,0,1,1,0,.55A.28.28,0,1,1,58.41,51.11Zm1.74-1.41a.35.35,0,1,1,0,.69A.35.35,0,1,1,60.15,49.7ZM60.33,48a.84.84,0,1,1,0,1.66A.84.84,0,1,1,60.33,48Zm-.62-3.21c.36.37,0,.77-.49.79a.46.46,0,0,1-.51-.53C58.73,44.64,59.41,44.5,59.71,44.81ZM58.1,47.68c.64,0,.56.85-.07.85S57.47,47.68,58.1,47.68ZM65,64c.57,0,.52.76,0,.76S64.44,64,65,64ZM76.45,83.53A.5.5,0,0,1,76,83a.26.26,0,0,1,0-.1.59.59,0,0,1,.57-.64.66.66,0,0,1,.73.5.48.48,0,0,1,0,.12.45.45,0,0,1-.19.49A.81.81,0,0,1,76.45,83.53Zm-1.89-2.79c-.83,0-1-1.13-.16-1.13S75.41,80.74,74.56,80.74Zm2.88,0a.35.35,0,1,1,0,.7A.35.35,0,1,1,77.44,80.72Zm-5.48,0a.54.54,0,0,1,.52.58c0,.31-.34.45-.67.45a.53.53,0,0,1-.52-.58C71.33,80.86,71.63,80.71,72,80.71ZM77.52,80h0a.53.53,0,0,1-.25-.39.52.52,0,0,1,.06-.3h0a.52.52,0,0,1,.31-.29,2.51,2.51,0,0,1,1,.65.68.68,0,0,1-.78.43l0,0A.88.88,0,0,1,77.52,80Zm-5.66.24c-.59,0-.53-.79.06-.79S72.46,80.27,71.86,80.27Zm4.13.52c-.71,0-.6-.94.1-.94S76.69,80.79,76,80.79Zm-2.08-1.63c-.65,0-.61-.78-.06-.93.19.07.39.12.58.17A.52.52,0,0,1,73.91,79.16Zm3.21,5.14a0,0,0,0,1,0,.08h0c-.08,0-.08-.1,0-.09Zm-8.24-7.72A.72.72,0,1,1,69,78,.72.72,0,1,1,68.88,76.58Zm1.12,3A.23.23,0,1,1,70,80,.23.23,0,1,1,70,79.53Zm-1-4c-.55.09-.55-.65,0-.57h0a.28.28,0,0,1,0,.56Zm-1.78,3.15a.26.26,0,1,1,0-.52A.26.26,0,1,1,67.26,78.65Zm8.62,6.15c-.6,0-.54-.81.06-.81S76.49,84.8,75.88,84.8Zm-.32-3.52c.7,0,.59.93-.1.93S74.87,81.28,75.56,81.28ZM68.71,78.4a.3.3,0,1,1,0,.59A.3.3,0,1,1,68.71,78.4Zm6.71,4.5c.56,0,.52.74,0,.74S74.86,82.9,75.42,82.9ZM71.3,77.44a4.05,4.05,0,0,1,.5.12A.79.79,0,0,1,71.32,79,.8.8,0,1,1,71.3,77.44Z"/>
          </g>
          <path class="cls-6" d="M51.82,65.59C50.69,57.68,49.09,50,49.06,42s.28-16.46-.13-24.48c-.36-7-5.72-10.84-11.57-10.91C32,6.53,27,10.54,26.63,17.5c-.38,8-.09,16.41-.12,24.48S25,57.68,24,65.59c-.76,5.88-6.42,15.57-3.55,21.07s10.37,5.82,16.83,5.79c7.07,0,15.26-.2,18.45-5.79S52.67,71.47,51.82,65.59Z"/>
          <g>
            <path class="cls-7" d="M37,26.43a7.56,7.56,0,0,1-7.55-7.55,6.76,6.76,0,0,1,.12-1.2A7.54,7.54,0,1,1,37,26.43Z"/>
            <path class="cls-8" d="M37,26.43a7.56,7.56,0,0,1-7.55-7.55,6.76,6.76,0,0,1,.12-1.2A7.54,7.54,0,1,1,37,26.43Z"/>
            <g>
              <g>
                <path class="cls-9" d="M30.78,18.88A6.24,6.24,0,1,0,37,12.65,6.25,6.25,0,0,0,30.78,18.88Z"/>
                <path class="cls-10" d="M31,17.29a6.21,6.21,0,0,0,12.2,1.22c0,.12,0,.24,0,.37a6.24,6.24,0,1,1-12.47,0A6,6,0,0,1,31,17.29Z"/>
              </g>
              <g>
                <path d="M36.12,20.49a3.11,3.11,0,1,0-1-4.28A3.12,3.12,0,0,0,36.12,20.49Z"/>
                <path class="cls-9" d="M37.06,17.41a1.24,1.24,0,1,0-.4-1.71A1.25,1.25,0,0,0,37.06,17.41Z"/>
              </g>
            </g>
          </g>
          <path class="cls-11" d="M27.15,60.1a28.45,28.45,0,0,0,21.06.7c-3.51,4.59-2.09,15.78-11.76,15-7.71-.66-6.66-9.85-8.94-15Z"/>
          <g>
            <path class="cls-9" d="M37.55,70.85a7.79,7.79,0,0,0-.9-2.55,7.47,7.47,0,0,0-.93,3.15c-.12,1.38-.27,3-.36,4.13a7.11,7.11,0,0,0,1.09.17,10.4,10.4,0,0,0,1.94,0C38,73.64,37.71,71.72,37.55,70.85Z"/>
            <path class="cls-9" d="M42,68.56a11.07,11.07,0,0,0,1.27-3.29A28.71,28.71,0,0,0,43.6,62a26.93,26.93,0,0,1-3.2.41A27.38,27.38,0,0,0,42,68.56Z"/>
            <path class="cls-9" d="M34.39,62.16a28.81,28.81,0,0,1-3.22-.67q.07.94.24,2c.77,5,1.1,5,1.1,5a39.23,39.23,0,0,0,1.41-3.87A19.08,19.08,0,0,0,34.39,62.16Z"/>
          </g>
          <path class="cls-12" d="M36.32,74.4A7.28,7.28,0,0,1,30,70.15c1,2.92,2.67,5.28,6.43,5.6,5.43.46,7.36-2.85,8.63-6.67C43.64,72.36,41.32,74.83,36.32,74.4Z"/>
          <g>
            <path class="cls-4" d="M21.11,92.82a4.78,4.78,0,0,0-3-1,.07.07,0,0,0,0,.14,6,6,0,0,1,2.26,1.7c.5.64.78,1.42,1.33,2a.37.37,0,0,0,.62-.19A3.15,3.15,0,0,0,21.11,92.82Z"/>
            <path class="cls-4" d="M35.36,96.27c0-.06-.09-.07-.12,0a6.27,6.27,0,0,1-1.92,1.38.38.38,0,0,0,.12.68,1.67,1.67,0,0,0,1.45-.53,1.78,1.78,0,0,0,.46-.74C35.46,96.77,35.36,96.54,35.36,96.27Z"/>
            <g>
              <path class="cls-13" d="M34.14,90a.08.08,0,0,0-.08,0,2.78,2.78,0,0,0-1.73,1.87A4.81,4.81,0,0,0,31,89.74a.14.14,0,0,0-.2,0c-.44.9.07,1.94.24,2.87a14.71,14.71,0,0,1,0,4.19l-.25.09c-1.1.44.06,1.66,1.15,1.17A.08.08,0,0,1,32,98s.08,0,.17,0c.95.26,1.64-.41,1.19-1s.08-2.88.24-3.92C33.67,92.33,34.73,90.66,34.14,90Z"/>
              <path class="cls-13" d="M33.35,96.53l-.22-.3a1,1,0,0,0-1.53-.1,68.76,68.76,0,0,1-7.32,0A1.86,1.86,0,0,0,23.1,95a2.43,2.43,0,0,0,0-.47,1.4,1.4,0,0,0-1.73-1.25,1.21,1.21,0,0,0-.77.61,1.1,1.1,0,0,0,.21,1.26l.06,0,0,.06-.1.06a1.32,1.32,0,0,0-.48,1,3.27,3.27,0,0,0,.46,2,2.44,2.44,0,0,0,1.6,1.18,1.08,1.08,0,0,0,.19,0c1.24.23,3.11-.25,4-.24a28,28,0,0,0,3.56-.11,10.92,10.92,0,0,0,3.11.11,1.15,1.15,0,0,0,.93-1C34.36,97.57,33.79,97.09,33.35,96.53Z"/>
            </g>
          </g>
          <g>
            <path class="cls-4" d="M54.5,92.82a4.72,4.72,0,0,1,3-1,.07.07,0,0,1,0,.14,6,6,0,0,0-2.24,1.7,22.34,22.34,0,0,1-1.31,2,.37.37,0,0,1-.61-.19A3.19,3.19,0,0,1,54.5,92.82Z"/>
            <path class="cls-4" d="M40.44,96.27c0-.06.09-.07.12,0a6.26,6.26,0,0,0,1.89,1.38.38.38,0,0,1-.11.68,1.65,1.65,0,0,1-1.44-.53,1.76,1.76,0,0,1-.45-.74C40.34,96.77,40.44,96.54,40.44,96.27Z"/>
            <g>
              <path class="cls-13" d="M41.65,90s0,0,.07,0a2.78,2.78,0,0,1,1.71,1.87,4.85,4.85,0,0,1,1.35-2.07.14.14,0,0,1,.2,0c.44.9-.07,1.94-.23,2.87a14.71,14.71,0,0,0,0,4.19,1.84,1.84,0,0,1,.25.09c1.08.44-.06,1.66-1.14,1.17,0,0,0,0,0-.06s-.08,0-.17,0c-.94.26-1.63-.41-1.18-1s-.08-2.88-.23-3.92C42.11,92.33,41.06,90.66,41.65,90Z"/>
              <path class="cls-13" d="M42.42,96.53l.22-.3a1,1,0,0,1,1.51-.1,66.88,66.88,0,0,0,7.22,0A1.89,1.89,0,0,1,52.54,95a2.43,2.43,0,0,1,0-.47,1.39,1.39,0,0,1,1.71-1.25,1.19,1.19,0,0,1,.76.61,1.1,1.1,0,0,1-.21,1.26l-.05,0a.21.21,0,0,0,0,.06l.1.06a1.32,1.32,0,0,1,.48,1,3.4,3.4,0,0,1-.45,2,2.43,2.43,0,0,1-1.58,1.18l-.19,0c-1.23.23-3.08-.25-4-.24a27.26,27.26,0,0,1-3.51-.11,10.63,10.63,0,0,1-3.07.11,1.15,1.15,0,0,1-.92-1C41.43,97.57,42,97.09,42.42,96.53Z"/>
            </g>
          </g>
          <path class="cls-4" d="M31,36.52c-.06.09-.14.06-.17.19s0,0,0,0l.13-.16C31.11,36.62,31.09,36.45,31,36.52Z"/>
          <path class="cls-5" d="M33,32.91a.31.31,0,0,0,0,.62A.31.31,0,0,0,33,32.91Z"/>
          <path class="cls-5" d="M38.62,32.26c-.45,0-.42.71,0,.71S39.08,32.26,38.62,32.26Z"/>
          <path class="cls-5" d="M40.79,35.11a.93.93,0,1,0,1,.86A.93.93,0,0,0,40.79,35.11Z"/>
          <path class="cls-5" d="M36.17,37.34a.91.91,0,1,0,.11,1.82.91.91,0,0,0,.85-1A.92.92,0,0,0,36.17,37.34Z"/>
          <path class="cls-5" d="M39.07,42.31a.87.87,0,0,0-.63-.8.84.84,0,0,0-1,.61.77.77,0,0,1,0,.15.88.88,0,0,0,.63,1,.86.86,0,0,0,1.06-.86A.59.59,0,0,0,39.07,42.31Z"/>
          <path class="cls-5" d="M39.41,38c-.54,0-.48.84.06.84S40,38,39.41,38Z"/>
          <path class="cls-5" d="M37.1,32.27c-.71,0-.86,1.1-.14,1.1S37.81,32.27,37.1,32.27Z"/>
          <path class="cls-5" d="M42.8,38a.79.79,0,0,0,0,1.57A.79.79,0,0,0,42.8,38Z"/>
          <path class="cls-5" d="M41.72,40.49a.77.77,0,0,0,0,1.54A.77.77,0,0,0,41.72,40.49Z"/>
          <path class="cls-5" d="M41.89,44.38c-1.11,0-1,1.72,0,1.72S43,44.38,41.89,44.38Z"/>
          <path class="cls-5" d="M41.77,45.14l0,0-.08,0a.21.21,0,0,0,0,.38l0,0a.23.23,0,0,0,.29-.21s0-.09,0-.13S41.85,45,41.77,45.14Z"/>
          <path class="cls-5" d="M35.1,43.66h0c-.37-.13-.52.45-.15.58a.42.42,0,0,0,.19,0C35.5,44.28,35.49,43.67,35.1,43.66Z"/>
          <g>
            <path class="cls-5" d="M34.61,47.22h0Z"/>
            <path class="cls-5" d="M34.62,47.23h0c.21,0,0,1,.33.62a.38.38,0,0,0,.1-.27A.37.37,0,0,0,34.62,47.23Z"/>
          </g>
          <path class="cls-5" d="M38.75,47.76l-.21,0a.56.56,0,0,0-.61.47v0a.55.55,0,0,0,.62.62.33.33,0,0,0,.14,0h.05A.52.52,0,0,0,38.75,47.76Z"/>
          <path class="cls-5" d="M39.25,52.32c-.57-.57-1.15-.81-1.61-.33h0a.12.12,0,0,0,0,0,.86.86,0,0,0-.07.1v0l0,.09v0a.82.82,0,0,0-.08.46.92.92,0,0,0,.3.61.9.9,0,0,0,.5.26.7.7,0,0,0,.25,0h0a1,1,0,0,0,.87-.8A1,1,0,0,0,39.25,52.32Z"/>
          <path class="cls-5" d="M34.57,46.91a.57.57,0,0,0-.62.49.55.55,0,0,0,.48.62.58.58,0,0,0,.63-.48A.56.56,0,0,0,34.57,46.91Z"/>
          <path class="cls-5" d="M37.38,45.44c-.44,0-.42.69,0,.69S37.83,45.44,37.38,45.44Z"/>
          <path class="cls-5" d="M40.65,33.74s0,0,0,0a.14.14,0,0,0,.22,0l0,0C41.12,33.44,40.4,33.42,40.65,33.74Z"/>
          <path class="cls-5" d="M44,33.11a.73.73,0,0,0-.05,1.46A.73.73,0,1,0,44,33.11Z"/>
          <path class="cls-5" d="M41,32.94c-.55,0-.48.86.07.86S41.56,32.94,41,32.94Z"/>
          <path class="cls-5" d="M42.65,29.5a.65.65,0,0,0-.69.57.63.63,0,1,0,.69-.57Z"/>
          <path class="cls-5" d="M39.09,29.57c-.63,0-.52,1,.11,1S39.73,29.57,39.09,29.57Z"/>
          <path class="cls-5" d="M34.74,28.33c-.49,0-.45.77,0,.77S35.24,28.33,34.74,28.33Z"/>
          <path class="cls-5" d="M33.87,34.93c-.85,0-.95,1.32-.1,1.32S34.72,34.93,33.87,34.93Z"/>
          <path class="cls-5" d="M32.55,37.79l-.07,0a1,1,0,0,0-1.37.71c-.12.66.61,1.43,1.3,1.08l.26-.14A.94.94,0,0,0,32.55,37.79Z"/>
          <path class="cls-5" d="M34.57,40.55a.52.52,0,0,0-.45.57.52.52,0,0,0,.57.45.52.52,0,0,0,.45-.57A.52.52,0,0,0,34.57,40.55Z"/>
          <path class="cls-5" d="M32.6,42.62a.46.46,0,0,0-.42.5A.46.46,0,0,0,33.1,43,.47.47,0,0,0,32.6,42.62Z"/>
          <path class="cls-5" d="M41.11,49.31l0,0a.56.56,0,0,0-.16.68s0,0,0,0a.56.56,0,0,0,1,.13l0-.06A.58.58,0,0,0,41.11,49.31Z"/>
          <path class="cls-5" d="M40.64,47.51c-.2,0-.23.32,0,.32S40.85,47.51,40.64,47.51Z"/>
          <path class="cls-5" d="M42.63,41.55h0c-.52-.08-.51.71-.07.65h0C42.89,42.14,43,41.61,42.63,41.55Z"/>
          <path class="cls-5" d="M43.63,43a.82.82,0,0,0-.17-.11.45.45,0,0,0-.61.54.42.42,0,0,0,.11.18C43.37,44.17,44.15,43.39,43.63,43Z"/>
          <path class="cls-5" d="M44.37,40.45a.3.3,0,0,0-.59,0v.07c0,.38.63.38.59,0Z"/>
          <path class="cls-5" d="M45.46,36.37a.33.33,0,0,0-.07-.13h0a.33.33,0,0,0-.46,0,.39.39,0,0,0-.1.4c.06.34.61.31.67,0A.41.41,0,0,0,45.46,36.37Z"/>
          <path class="cls-5" d="M44,47.2a.74.74,0,1,0,.71.76A.74.74,0,0,0,44,47.2Z"/>
          <path class="cls-5" d="M42.19,53.16a.93.93,0,0,0-.86,1,1,1,0,0,0,1,.86.93.93,0,0,0,.86-1A.94.94,0,0,0,42.19,53.16Z"/>
          <path class="cls-5" d="M43,27.09a.27.27,0,0,0,0,.54A.27.27,0,0,0,43,27.09Z"/>
          <path class="cls-5" d="M44.72,30.41l-.06,0a.41.41,0,0,0-.59.38.42.42,0,0,0,.63.32l0,0A.38.38,0,0,0,44.72,30.41Z"/>
          <path class="cls-5" d="M45.83,28.14a.52.52,0,0,0-.45.57.53.53,0,0,0,.58.45.52.52,0,0,0,.45-.57A.54.54,0,0,0,45.83,28.14Z"/>
          <path class="cls-5" d="M32,29.2h0a.59.59,0,0,0-.38-.07.63.63,0,0,0-.49.71l.45.55C32.33,30.73,32.8,29.39,32,29.2Z"/>
          <path class="cls-5" d="M30.6,32.55h0a.31.31,0,0,0-.29.3v0c0,.38.54.36.58,0,0,0,0,0,0-.06A.29.29,0,0,0,30.6,32.55Z"/>
          <path class="cls-5" d="M29.77,25.59a.58.58,0,0,0-.63.49.57.57,0,0,0,.49.63.58.58,0,0,0,.63-.49A.56.56,0,0,0,29.77,25.59Z"/>
          <path class="cls-5" d="M45.2,23.61c-.49,0-.45.76,0,.76S45.69,23.61,45.2,23.61Z"/>
          <path class="cls-5" d="M39.66,55.17v0a.38.38,0,0,0,.72,0v0C40.58,54.56,39.46,54.53,39.66,55.17Z"/>
          <path class="cls-5" d="M35.93,50.9a.48.48,0,1,0,.53.43A.5.5,0,0,0,35.93,50.9Z"/>
          <path class="cls-5" d="M36.51,55.37a.75.75,0,0,0-.76.71.73.73,0,0,0,.71.75.73.73,0,0,0,0-1.46Z"/>
          <path class="cls-5" d="M38.7,57.66c-.6,0-.51.93.09.93S39.3,57.66,38.7,57.66Z"/>
          <path class="cls-5" d="M40.48,57.35l0,0a.11.11,0,0,0,0,.15l0,0a.18.18,0,0,0,.32-.11A.19.19,0,0,0,40.48,57.35Z"/>
          <path class="cls-5" d="M38.59,59.83c-.84,0-.94,1.31-.1,1.31S39.44,59.83,38.59,59.83Z"/>
          <path class="cls-5" d="M40.07,60.49c-.51,0-.47.8,0,.8S40.58,60.49,40.07,60.49Z"/>
          <path class="cls-5" d="M34,.77c-1.42-.61-4.71-.71-5.77.72.63-.11,1.72,0,1.71.86-2,.08-4.72,1.56-5.23,3.68.51-.37,1.82-.84,2.3-.28-.4.36-1,.48-1.36.87a6.24,6.24,0,0,0-1.24,2.59,1.06,1.06,0,0,1,.92-.35c.09,1.32-.6,2.54-.35,3.89a8,8,0,0,0,1.37,2.78,5.43,5.43,0,0,1,2.36-4.29c.06.39.22.86.58,1,0-.91,1.43-1.73,2.09-2.22.35,1.81,2.54-.08,3.08-.69a5.75,5.75,0,0,0,1.36-3.49c.47.27.47.93.56,1.41C38.2,4.86,36.49,1.82,34,.77Z"/>
          <path d="M36.28,7.86a3.17,3.17,0,0,1,.38-.1,5.09,5.09,0,0,1,.6,0,4.24,4.24,0,0,1,.68.07,7.71,7.71,0,0,1,1.56.52,8.89,8.89,0,0,1,.81.42,7.34,7.34,0,0,1,.79.49,6.8,6.8,0,0,1,.73.57c.22.21.44.41.63.63a6.41,6.41,0,0,1,.92,1.27,4.44,4.44,0,0,1,.26.56,3.3,3.3,0,0,1,.17.45l.11.39a.11.11,0,0,1-.07.12.08.08,0,0,1-.1,0h0l-.24-.31a2.34,2.34,0,0,0-.27-.34,3.68,3.68,0,0,0-.39-.41c-.16-.14-.31-.29-.5-.43a4.43,4.43,0,0,0-.59-.42,6.15,6.15,0,0,0-.67-.38c-.24-.11-.47-.23-.72-.32a6.55,6.55,0,0,0-.74-.27,6.88,6.88,0,0,0-.72-.18c-.48-.1-.92-.14-1.28-.18-.18,0-.34,0-.48,0a1.25,1.25,0,0,1-.3-.05,2.25,2.25,0,0,1-.4,0h0a1,1,0,0,1-.8-1.19A1,1,0,0,1,36.28,7.86Z"/>
        </g>
      </g>
    </g>
  </g>
</svg>
