<svg xmlns="http://www.w3.org/2000/svg" width="120" height="70" viewBox="0 0 120 70">
  <defs>
    <style>
      .cls-1 {
        isolation: isolate;
      }

      .cls-2 {
        fill: #98e1e3;
      }

      .cls-3 {
        fill: #55d2d6;
      }

      .cls-4 {
        fill: #0c989c;
      }

      .cls-5 {
        fill: #00acb3;
      }

      .cls-6 {
        fill: #078f94;
      }

      .cls-7 {
        fill: #19b8bd;
      }

      .cls-8 {
        fill: #ffe398;
        opacity: 0.2;
        mix-blend-mode: screen;
      }

      .cls-9 {
        fill: #21b3b8;
        opacity: 0.1;
      }

      .cls-10, .cls-9 {
        mix-blend-mode: multiply;
      }

      .cls-10 {
        fill: #f0d907;
      }

      .cls-11 {
        fill: #01858a;
      }

      .cls-12 {
        fill: #fff;
      }

      .cls-13 {
        fill: #e8e8e8;
      }

      .cls-14 {
        fill: #47dade;
      }

      .cls-15 {
        fill: #0ca4a8;
      }
    </style>
  </defs>
  <g class="cls-1">
    <g id="Ñëîé_1" data-name="Ñëîé 1">
      <g>
        <g>
          <path class="cls-2" d="M31.91,27l-.46.48c-4.62-3.33-11.06-5.54-16.62-4.37C8.32,24.46,3.78,30.6.52,36.27c.93-1.06,2.86-2.19,4.3-1.53,2.27,1,1.25,3.48,1.13,5.42.57-2.12,3.88-3,5.66-2.36,2.06.71,3,3.28,3.82,5.12,1-4.78,7.32-4.39,8,.43C25.54,39,28.3,40,32.1,39.47,32.26,35.38,31.44,30.67,31.91,27Z"/>
          <g>
            <path class="cls-3" d="M23.13,42.31a5.28,5.28,0,0,1,.25,1A8.51,8.51,0,0,1,24,42.29a29.22,29.22,0,0,1,7.8-13.9c0-.42.05-.81.1-1.21C27.88,30.65,24.75,36,23.13,42.31Z"/>
            <path class="cls-3" d="M15.28,42.56C16.94,34.43,22,27.71,28.05,25.39c-.32-.17-.66-.33-1-.48-5.76,2.53-10.48,8.78-12.34,16.38C14.92,41.72,15.1,42.15,15.28,42.56Z"/>
            <path class="cls-3" d="M24.58,23.92c-.51-.17-1-.32-1.54-.46A26.58,26.58,0,0,0,6.27,37.54c0,.87-.27,1.79-.32,2.62a2.58,2.58,0,0,1,.52-1A25.69,25.69,0,0,1,24.58,23.92Z"/>
          </g>
        </g>
        <g>
          <path class="cls-2" d="M86.06,24.47l.48.48c4.93-3.32,11.78-5.53,17.7-4.36C111.18,22,116,28.11,119.48,33.78c-1-1.07-3-2.19-4.58-1.53-2.42,1-1.33,3.47-1.2,5.41-.61-2.12-4.14-3-6-2.36-2.2.72-3.24,3.28-4.07,5.12a4.3,4.3,0,0,0-8.48.43c-2.29-4.37-5.23-3.38-9.28-3.88C85.68,32.89,86.55,28.18,86.06,24.47Z"/>
          <g>
            <path class="cls-3" d="M95.41,39.82a5.36,5.36,0,0,0-.28,1,10.23,10.23,0,0,0-.65-1.06,28.75,28.75,0,0,0-8.3-13.9c0-.41-.06-.81-.11-1.2A29.31,29.31,0,0,1,95.41,39.82Z"/>
            <path class="cls-3" d="M103.77,40.07C102,31.93,96.66,25.21,90.16,22.89l1.07-.48c6.13,2.54,11.15,8.79,13.14,16.38C104.15,39.23,104,39.66,103.77,40.07Z"/>
            <path class="cls-3" d="M93.85,21.43c.55-.18,1.1-.33,1.65-.46a27.87,27.87,0,0,1,17.86,14.08c0,.86.28,1.78.34,2.61a2.6,2.6,0,0,0-.56-1C110,29.18,102.77,23.4,93.85,21.43Z"/>
          </g>
        </g>
        <g>
          <path class="cls-4" d="M42.09,55.09c2.91,9,9.79,11.8,17.68,11.59,12-.32,20.6-11.62,32.79-10.39,2.79.28,6.1.94,8.47,3.07,1.72-7.78-8.39-22.87-19.81-22.43-6.41.24-12,4.25-17.7,6.62-5.08,2.13-11.55,3-15.85,6.62-2.22,1.85-2.86,4.51-5.91,5.1Z"/>
          <g>
            <path class="cls-5" d="M38.73,15.28l-.61-1.2C32.63,3.28,25.66,1.36,25.66,1.36s-5.61,15.1,2.44,21C29,18.93,34.36,16.2,38.73,15.28Z"/>
            <path class="cls-6" d="M37.09,16l-.41-.8C33,8,28.41,6.76,28.41,6.76S24.69,16.77,30,20.7C30.62,18.41,34.19,16.6,37.09,16Z"/>
          </g>
          <g>
            <path class="cls-5" d="M76.24,15.28l.61-1.2C82.34,3.28,89.31,1.36,89.31,1.36s5.61,15.1-2.43,21C86,18.93,80.61,16.2,76.24,15.28Z"/>
            <path class="cls-6" d="M77.88,16l.41-.8C81.93,8,86.56,6.76,86.56,6.76s3.72,10-1.62,13.94C84.36,18.41,80.78,16.6,77.88,16Z"/>
          </g>
          <g>
            <path class="cls-7" d="M89.18,25.26c0,19-14.12,41.52-31.25,41.52S27.15,44.26,27.15,25.26,89.18,6.26,89.18,25.26Z"/>
            <path class="cls-7" d="M73.94,12.8a17,17,0,0,0-33,.39c-8,2.27-13.75,6.28-13.75,12.07,0,19,13.65,41.52,30.78,41.52S89.18,44.26,89.18,25.26C89.18,19.12,82.7,15,73.94,12.8Z"/>
            <path class="cls-8" d="M57.37,16.74a37.42,37.42,0,0,1,31,16.52,43.09,43.09,0,0,0,.78-8c0-6.14-6.48-10.29-15.24-12.46a17,17,0,0,0-33,.39c-8,2.27-13.75,6.28-13.75,12.07a42.93,42.93,0,0,0,.47,6.25A37.39,37.39,0,0,1,57.37,16.74Z"/>
          </g>
          <path class="cls-9" d="M57.94,63.19c-11.4,0-21.39-9.09-27.49-20.88,5.05,13.27,15.4,24.47,27.48,24.47s22.73-11.27,27.9-24.6C79.58,54,69.37,63.19,57.94,63.19Z"/>
          <g>
            <path class="cls-10" d="M57.93,32.57A13.33,13.33,0,0,1,44.61,19.25a11.94,11.94,0,0,1,.21-2.11A13.3,13.3,0,1,1,57.93,32.57Z"/>
            <path class="cls-11" d="M57.93,32.57A13.33,13.33,0,0,1,44.61,19.25a11.94,11.94,0,0,1,.21-2.11A13.3,13.3,0,1,1,57.93,32.57Z"/>
            <g>
              <g>
                <path class="cls-12" d="M46.92,19.25a11,11,0,1,0,11-11A11,11,0,0,0,46.92,19.25Z"/>
                <path class="cls-13" d="M47.34,16.44a11,11,0,0,0,21.53,2.15c0,.23.07.44.07.66a11,11,0,0,1-22,0A10.43,10.43,0,0,1,47.34,16.44Z"/>
              </g>
              <g>
                <path d="M53.83,21.3a5.49,5.49,0,1,0-.46-7.75A5.48,5.48,0,0,0,53.83,21.3Z"/>
                <path class="cls-12" d="M56.39,16.23a2.19,2.19,0,1,0-.19-3.09A2.19,2.19,0,0,0,56.39,16.23Z"/>
              </g>
            </g>
          </g>
          <path class="cls-6" d="M57.47,34.28a54.61,54.61,0,0,1-20.41-3.72c.36,10,9.36,18.08,20.41,18.08s20.06-8,20.41-18.08A54.57,54.57,0,0,1,57.47,34.28Z"/>
          <path class="cls-14" d="M57.47,46.32c-10.24,0-18.74-6.8-20.41-15.74.37,10,9.36,18.06,20.41,18.06s20-8,20.41-18.06C76.21,39.52,67.71,46.32,57.47,46.32Z"/>
          <g>
            <path class="cls-12" d="M45.44,33.08a50.52,50.52,0,0,1-5.13-1.34A13.3,13.3,0,0,0,42.64,38a8.32,8.32,0,0,0,2.47-3.68A7.48,7.48,0,0,0,45.44,33.08Z"/>
            <path class="cls-12" d="M59.92,34.23c-.81,0-1.63.05-2.45.05s-1.77,0-2.64-.06a11.16,11.16,0,0,0,.87,3.06,13,13,0,0,0,1.35,2.47,8.32,8.32,0,0,0,2.47-3.68A6.81,6.81,0,0,0,59.92,34.23Z"/>
            <path class="cls-12" d="M52.31,35.34a6.47,6.47,0,0,0,.33-1.25c-1.72-.14-3.39-.34-5-.61a11.6,11.6,0,0,0,.87,3.07A12.89,12.89,0,0,0,49.85,39,8.26,8.26,0,0,0,52.31,35.34Z"/>
            <path class="cls-12" d="M74.64,31.74a51.57,51.57,0,0,1-5.35,1.38,6.3,6.3,0,0,0,.36,1.37,8.27,8.27,0,0,0,2.56,3.68,12.75,12.75,0,0,0,1.41-2.47A12.33,12.33,0,0,0,74.64,31.74Z"/>
            <path class="cls-12" d="M64.8,38.9a13.32,13.32,0,0,0,1.41-2.47,10.89,10.89,0,0,0,.86-2.91c-1.66.27-3.38.47-5.14.6a5.83,5.83,0,0,0,.3,1.1A8.33,8.33,0,0,0,64.8,38.9Z"/>
          </g>
          <path class="cls-15" d="M50,61.41a8.45,8.45,0,0,0-4.68-.92,9.19,9.19,0,0,0-5,.7c-1.66.72-4.76,2.86-3.88,5.07a.76.76,0,0,0,.73.53c1.75,0,3.19-1,4.87-1.08a3.47,3.47,0,0,0-.35,3.78.89.89,0,0,0,1.25.19,35.23,35.23,0,0,0,2.71-2.89,5,5,0,0,0,1.72,2.81,1,1,0,0,0,1.49-.43,9.83,9.83,0,0,0,.85-2.34,4,4,0,0,0,1.74,1,1,1,0,0,0,.92-.43C53.55,65.26,51.91,62.53,50,61.41Z"/>
          <path class="cls-15" d="M64.09,61.41a8.41,8.41,0,0,1,4.67-.92,9.14,9.14,0,0,1,5,.7c1.67.72,4.76,2.86,3.88,5.07a.75.75,0,0,1-.73.53c-1.74,0-3.18-1-4.86-1.08a3.47,3.47,0,0,1,.35,3.78.88.88,0,0,1-1.24.19,37.17,37.17,0,0,1-2.72-2.89A5,5,0,0,1,66.7,69.6a1,1,0,0,1-1.49-.43,9.83,9.83,0,0,1-.85-2.34,4,4,0,0,1-1.73,1,1,1,0,0,1-.92-.43C60.59,65.26,62.23,62.53,64.09,61.41Z"/>
          <path class="cls-4" d="M42.43,18.92c-.64,0-.77,1-.13,1S43.07,18.92,42.43,18.92Z"/>
          <path class="cls-4" d="M42.72,22.92s0,.07,0,.1.23.18.24,0v-.1C43,22.77,42.71,22.76,42.72,22.92Z"/>
          <path class="cls-4" d="M39.52,22.34a.47.47,0,0,0-.41.53.49.49,0,0,0,.53.4.46.46,0,0,0,.4-.52A.48.48,0,0,0,39.52,22.34Z"/>
          <path class="cls-4" d="M43.15,26.09a.94.94,0,0,0-1-.79.91.91,0,0,0-.8,1,.92.92,0,0,0,1,.79A.91.91,0,0,0,43.15,26.09Z"/>
          <path class="cls-4" d="M44.94,27.52a.62.62,0,1,0-.06,1.24.64.64,0,0,0,.65-.59A.62.62,0,0,0,44.94,27.52Z"/>
          <path class="cls-4" d="M43.14,29.13a.93.93,0,0,0-1-.8.91.91,0,0,0-.8,1,.93.93,0,0,0,1,.8A.91.91,0,0,0,43.14,29.13Z"/>
          <path class="cls-4" d="M43.13,22a.6.6,0,0,0-.08,1.19.61.61,0,0,0,.64-.56A.6.6,0,0,0,43.13,22Z"/>
          <path class="cls-4" d="M37.88,24.16a.71.71,0,0,0,0,1.41A.71.71,0,0,0,37.88,24.16Z"/>
          <path class="cls-4" d="M46.3,30.06c-.64,0-.77,1-.12,1S47,30.06,46.3,30.06Z"/>
          <path class="cls-4" d="M48.94,30.29c-1.14,0-.95,1.76.18,1.76S50.07,30.29,48.94,30.29Z"/>
          <path class="cls-4" d="M65,32.43c-.4,0-.38.63,0,.63S65.42,32.43,65,32.43Z"/>
          <path class="cls-4" d="M71.06,29.33a1,1,0,0,0-1.09.89,1,1,0,0,0,.89,1.09A1,1,0,0,0,72,30.42,1,1,0,0,0,71.06,29.33Z"/>
          <path class="cls-4" d="M67.73,30.3c-1.12,0-1,1.73.16,1.73S68.84,30.3,67.73,30.3Z"/>
          <path class="cls-4" d="M65.05,32.09a.65.65,0,1,0,0,1.3.65.65,0,0,0,0-1.3Z"/>
          <path class="cls-4" d="M70.87,25.7c-.79,0-.86,1.24-.06,1.24S71.68,25.7,70.87,25.7Z"/>
          <path class="cls-4" d="M69.83,27.49c-.52,0-.45.81.08.81S70.36,27.49,69.83,27.49Z"/>
          <path class="cls-4" d="M73.85,26.9a.75.75,0,0,0,0,1.5A.75.75,0,0,0,73.85,26.9Z"/>
          <path class="cls-4" d="M73.35,29.18c-.54,0-.46.83.07.83S73.88,29.18,73.35,29.18Z"/>
          <path class="cls-4" d="M69.59,31.59h0a.56.56,0,0,0-.19-.09.44.44,0,0,0-.2,0h-.07a.41.41,0,0,0-.26.27.33.33,0,0,0,.08.51l.1.06a.41.41,0,0,0,.5-.14A.38.38,0,0,0,69.59,31.59Z"/>
          <path class="cls-4" d="M73.85,23.81a.89.89,0,0,0-1.71.18,1,1,0,0,0,0,.48,1.28,1.28,0,0,1,.11.2.9.9,0,0,0,.36.28h0a.77.77,0,0,0,.8,0h0l.08-.05A.89.89,0,0,0,73.85,23.81Z"/>
          <path class="cls-4" d="M75.86,24.18a.59.59,0,0,0-.62.52.58.58,0,0,0,.52.61.57.57,0,0,0,.61-.52A.56.56,0,0,0,75.86,24.18Z"/>
          <path class="cls-4" d="M76.73,26.85c-.58,0-.47.88.1.88S77.3,26.85,76.73,26.85Z"/>
          <path class="cls-4" d="M73,19.87a0,0,0,0,0,0,.05S73.05,19.87,73,19.87Z"/>
          <path class="cls-4" d="M73.62,19.44a.75.75,0,1,0-1.24.76l.17.12s0,0,0,0l.09.06h0l.24.1c.4.19.79-.22.83-.59A.76.76,0,0,0,73.62,19.44Z"/>
          <path class="cls-4" d="M75.52,20.66a.82.82,0,0,0-.77.86.84.84,0,0,0,.86.77.82.82,0,1,0-.09-1.63Z"/>
          <path class="cls-4" d="M77.8,22.45c-.62,0-.48,1,.13,1S78.42,22.45,77.8,22.45Z"/>
          <path class="cls-4" d="M42,18.23a.83.83,0,0,0-.77.89A.84.84,0,0,0,42.89,19,.85.85,0,0,0,42,18.23Z"/>
          <path class="cls-4" d="M39.54,21.62a.83.83,0,0,0-.77.88.84.84,0,0,0,.88.77.83.83,0,0,0-.11-1.65Z"/>
          <path class="cls-4" d="M38.47,26.7c-.45,0-.41.7,0,.7S38.92,26.7,38.47,26.7Z"/>
          <path class="cls-4" d="M40.35,27.34c-.71,0-.82,1.11-.1,1.11S41.08,27.34,40.35,27.34Z"/>
          <path class="cls-4" d="M40.59,23.84c-.85,0-.9,1.32,0,1.32S41.44,23.84,40.59,23.84Z"/>
          <path class="cls-4" d="M37,22.35h-.11c-.28,0-.29.46,0,.45H37A.22.22,0,0,0,37,22.35Z"/>
          <path class="cls-4" d="M36.75,21.86a.46.46,0,0,0,.11.92.46.46,0,0,0,.4-.51A.48.48,0,0,0,36.75,21.86Z"/>
          <path class="cls-4" d="M39.92,19.83a.47.47,0,0,0-.1-.34.44.44,0,0,0-.35-.29H39.4a.47.47,0,0,0-.54.53.56.56,0,0,0,.22.41.55.55,0,0,0,.27.12c.08,0,.25,0,.07-.05A.35.35,0,0,0,39.92,19.83Z"/>
          <path class="cls-4" d="M52.45,3.39a.65.65,0,0,0-.66.6.63.63,0,1,0,1.26.06A.63.63,0,0,0,52.45,3.39Z"/>
          <path class="cls-4" d="M56,1.85a.84.84,0,0,0-.77.91.84.84,0,0,0,1.68-.13A.86.86,0,0,0,56,1.85Z"/>
          <path class="cls-4" d="M58.94,4a.77.77,0,1,0,.8.74A.79.79,0,0,0,58.94,4Z"/>
          <path class="cls-4" d="M64,4.32a.81.81,0,0,0-.76.86v.11a.82.82,0,0,0,.86.76.84.84,0,0,0,.77-.86V5.08A.81.81,0,0,0,64,4.32Z"/>
          <path class="cls-4" d="M60.77,2.08a.75.75,0,1,0,.76.74A.75.75,0,0,0,60.77,2.08Z"/>
          <path class="cls-4" d="M55,4.56a.68.68,0,0,0,0,1.35A.68.68,0,0,0,55,4.56Z"/>
          <path class="cls-4" d="M50.68,6.33a1,1,0,0,0-1-.81.93.93,0,0,0-.8,1.05,1,1,0,0,0,1.05.8A.93.93,0,0,0,50.68,6.33Z"/>
          <path class="cls-4" d="M47.83,7.47a.68.68,0,0,0,0,1.35A.68.68,0,0,0,47.83,7.47Z"/>
          <path class="cls-4" d="M56.08,1.94h-.23A.88.88,0,1,0,56,3.69h.22a.88.88,0,0,0,.79-1A.89.89,0,0,0,56.08,1.94Z"/>
          <path class="cls-4" d="M65.09,6.12a.45.45,0,0,0-.39.5.46.46,0,0,0,.5.4.44.44,0,0,0,.39-.5A.46.46,0,0,0,65.09,6.12Z"/>
          <path class="cls-4" d="M67.27,5.13a.31.31,0,0,0,0-.28c-.16-.32-.58-.08-.53.22a.08.08,0,0,1,0,0,.22.22,0,0,0,.39.14h0l0,0h0v0l0-.06Z"/>
          <path class="cls-4" d="M67.81,7.18A1,1,0,0,0,66.73,8a1,1,0,0,0,.84,1.07,1,1,0,0,0,.24-1.92Z"/>
          <path class="cls-4" d="M53.94,1.7a.69.69,0,0,0-.25,0,.52.52,0,0,0,0,1,.45.45,0,0,0,.23,0A.51.51,0,0,0,53.94,1.7Z"/>
          <path class="cls-4" d="M49.84,3.39c-.51,0-.44.79.07.79S50.35,3.39,49.84,3.39Z"/>
          <path class="cls-4" d="M52.07,5.57c-.2,0-.22.3,0,.3S52.26,5.57,52.07,5.57Z"/>
          <path class="cls-4" d="M51.81,5.82s0,0,0,0S51.85,5.82,51.81,5.82Z"/>
          <path class="cls-4" d="M52,5.5l-.15-.06-.08,0h-.16a.11.11,0,0,0-.06,0h0a.39.39,0,0,0-.29.35v.11a.36.36,0,0,0,.25.35l.06,0h0s0,0,0,0h.06l.18,0c.1-.06.13-.07.07,0C52.28,6.1,52.37,5.62,52,5.5Z"/>
          <path class="cls-4" d="M57.5,4.18a.82.82,0,0,0-.26-.1.7.7,0,1,0,0,1.35.69.69,0,0,0,.28-1.25Z"/>
          <path class="cls-4" d="M58,2.15l-.11,0a.16.16,0,0,0-.12,0h0l0,0a.15.15,0,0,0,0,.18h0s0,0,0,.05l0,0h0l.06,0h.05a.16.16,0,0,0,.1,0h0C58.23,2.48,58.18,2.17,58,2.15Z"/>
          <path class="cls-4" d="M61.27,4.4l-.05,0a.43.43,0,0,0-.24.1.53.53,0,0,0-.19.33.5.5,0,0,0,.43.56C62.09,5.37,61.81,4.22,61.27,4.4Z"/>
          <path class="cls-4" d="M63.65,2.52c-.52,0-.45.82.08.82S64.18,2.52,63.65,2.52Z"/>
          <path class="cls-4" d="M48.12,5.27A.5.5,0,0,0,47.8,5h-.17a.46.46,0,0,0-.34.24.48.48,0,0,0,0,.42.59.59,0,0,1,0,.08.44.44,0,0,0,.81,0,.36.36,0,0,1,0-.09A.5.5,0,0,0,48.12,5.27Z"/>
          <path class="cls-4" d="M45.49,8.73c-.49,0-.44.76,0,.76S46,8.73,45.49,8.73Z"/>
          <path class="cls-4" d="M69.56,8.86a.63.63,0,0,0-.65.58.62.62,0,0,0,1.23.07A.62.62,0,0,0,69.56,8.86Z"/>
          <path class="cls-4" d="M69.86,7.09a.28.28,0,0,0-.13,0,0,0,0,0,0,0,.09.28.28,0,0,0,.13,0A.09.09,0,1,0,69.86,7.09Z"/>
          <path class="cls-4" d="M68.55,5.91a.5.5,0,0,0-.21,0,.59.59,0,0,0-.6.39.58.58,0,0,0,.22.68.54.54,0,0,0,.52.08l.06,0s0,0,.06,0A.57.57,0,0,0,68.55,5.91Z"/>
          <path class="cls-4" d="M70.11,7.15H70a0,0,0,1,0,0,.07h.1S70.15,7.14,70.11,7.15Z"/>
          <path class="cls-4" d="M70.32,7.54a.4.4,0,0,0,0-.72h0a.27.27,0,0,0-.11,0l-.08,0h-.18a.41.41,0,0,0-.39.41v.09a.39.39,0,0,0,.29.39h0l.06,0h.13l.09,0h0Z"/>
          <path class="cls-4" d="M46.68,9.41a.44.44,0,0,0-.31.68s0,0,0,0a.41.41,0,0,0,.7-.05l0-.06A.44.44,0,0,0,46.68,9.41Z"/>
          <path class="cls-4" d="M46.12,6.31a.26.26,0,0,0,0,.51A.26.26,0,0,0,46.12,6.31Z"/>
          <path class="cls-4" d="M45.39,11.15s0,0,0,0S45.42,11.15,45.39,11.15Z"/>
          <path class="cls-4" d="M45.34,10.72a.46.46,0,0,0-.4.51.47.47,0,0,0,.51.39.45.45,0,0,0,.39-.5A.47.47,0,0,0,45.34,10.72Z"/>
          <path class="cls-4" d="M71.44,9.53a.31.31,0,0,0,0,.62C71.86,10.15,71.84,9.53,71.44,9.53Z"/>
          <path class="cls-4" d="M70.92,11.35c-.55,0-.46.86.09.86S71.47,11.35,70.92,11.35Z"/>
        </g>
      </g>
    </g>
  </g>
</svg>
