<svg xmlns="http://www.w3.org/2000/svg" width="75" height="90" viewBox="0 0 75 90">
  <defs>
    <style>
      .cls-1 {
        isolation: isolate;
      }

      .cls-2 {
        fill: #8fe9ff;
      }

      .cls-3 {
        fill: #c71b21;
      }

      .cls-13, .cls-4, .cls-6 {
        fill: #e51f26;
      }

      .cls-5 {
        fill: #b0181d;
      }

      .cls-6 {
        opacity: 0.3;
      }

      .cls-13, .cls-6 {
        mix-blend-mode: screen;
      }

      .cls-11, .cls-7 {
        fill: #f0d907;
      }

      .cls-7 {
        mix-blend-mode: multiply;
      }

      .cls-8 {
        fill: #ff9cde;
      }

      .cls-9 {
        fill: #fff;
      }

      .cls-10 {
        fill: #e8e8e8;
      }

      .cls-12 {
        fill: #faff3e;
      }
    </style>
  </defs>
  <g class="cls-1">
    <g id="Ñëîé_1" data-name="Ñëîé 1">
      <g>
        <path class="cls-2" d="M71.38,36.8A14.34,14.34,0,0,0,73.64,35a18.15,18.15,0,0,1-2.48,5.37,6.12,6.12,0,0,0,2.92-.33c-.72,2.65-2.76,5.72-4.84,6.66a5.28,5.28,0,0,0,2.6.26,13.47,13.47,0,0,1-1.38,1.85A9.49,9.49,0,0,1,68.4,50a4.12,4.12,0,0,1,2.07,1.22c-2.77,1.41-6.31.82-9,.14-3.19-.8-6.73-2.56-4.48-7.44,1.52-3.29,3.95-2.84,6.42-3.39A21.34,21.34,0,0,0,71.38,36.8Z"/>
        <path class="cls-2" d="M14,32.45a16.4,16.4,0,0,1-2.57-2.2,18,18,0,0,0,2.3,6.12,9.09,9.09,0,0,1-3.62-.68c.5,3,2.6,6.52,5.07,7.76a7.65,7.65,0,0,1-3.3,0,13.68,13.68,0,0,0,1.45,2.17,12.08,12.08,0,0,0,2.41,1.52A5.68,5.68,0,0,0,13,48.23c3.26,1.84,7.81,1.58,11.29,1.14,4.13-.53,8.85-2.06,6.77-7.6-1.41-3.75-4.54-3.52-7.56-4.39A27.31,27.31,0,0,1,14,32.45Z"/>
        <g>
          <path class="cls-3" d="M74.67,51.58a1.12,1.12,0,0,0-.37-1.17.44.44,0,0,0,0-.15c-.68-1.25-2.35-1-3.5-1.08a24.23,24.23,0,0,1-4.8-1c-1.07-.37-2.15-.76-3.22-1.17-1.52-.71-2.9-1.72-4.37-2.56a11,11,0,0,1-4.18-3.68c-.07-.1-.22,0-.2.11a4.89,4.89,0,0,0,1.49,2.89,5.24,5.24,0,0,0-.73-.27s-.05,0-.05.06a2.21,2.21,0,0,0,.19.5l-.2-.14a.29.29,0,0,0-.46.34c.52,1.44,2.14,2.27,3.23,3.11a10.21,10.21,0,0,0,4.44,1.41,15.11,15.11,0,0,1,2.54.6l.58.19c1.08.37,2.15.83,3.19,1.28a8.3,8.3,0,0,0,2.88.72l.32.08a10.52,10.52,0,0,1-3.71,1c-1,0-2,1.66-.73,2.2a1.86,1.86,0,0,0,1.71-.17,10.5,10.5,0,0,1,2.47-.6,3.42,3.42,0,0,0,1.59-1,1.28,1.28,0,0,0,.14-.21c-.13,1.21-.07,2.58-1,2.68-.57.07-1,.37-1.57.49s-.92.08-1.38.22c-.66.2-.81,1-.67,1.65a.63.63,0,0,0,.63.46,8.07,8.07,0,0,0,2-.21,4.8,4.8,0,0,0,1.38-.68c.51-.33,1.13-.3,1.6-.66a2.33,2.33,0,0,0,.56-1.86,20.58,20.58,0,0,0-.12-2.8A.73.73,0,0,0,74.67,51.58Zm-1.41-.25a.21.21,0,0,0,0,.06l0,0c0-.07,0-.15,0-.24h0A.81.81,0,0,0,73.26,51.33Z"/>
          <path class="cls-4" d="M63.24,8.32c-.28-1.7-.17-3.05-1.12-4.55A6.92,6.92,0,0,0,58.32.91a3.77,3.77,0,0,0-1.76,0A3.75,3.75,0,0,0,53.32,2.5,9.27,9.27,0,0,0,51.71,5l-.07.07a3.57,3.57,0,0,1-2-.29,11.07,11.07,0,0,0-3.44-.3c-2.31.13-2.24,4.11-1.86,5.64a1.66,1.66,0,0,0,1.84,1.12c1-.19,1.12-1.59,1.12-2.38s0-1.2,1-1.29a5.71,5.71,0,0,1,1.24.09c-.54.85-.73,2.1.18,2.54C51,10.85,51.75,8.86,52,8a1,1,0,0,1,.49-.56,6.78,6.78,0,0,1-.08,1.86,2.08,2.08,0,0,0,.7,2.26.86.86,0,0,0,1,0,3,3,0,0,0,.66-1.35,3,3,0,0,0-.2-2.56,8.72,8.72,0,0,1-.52-1.8A5.29,5.29,0,0,0,54.2,5a4.61,4.61,0,0,1,2.53-2.27l0,0h.39c1.26.09,2.12,1.17,3.11,1.8,1.36.87-.34,4.81-.81,5.73-1.2,2.31-1.51,5-3.11,7.17a15.38,15.38,0,0,1-3.05,2.33,13.85,13.85,0,0,1-1.92,1.37c-.54,0-.5.89,0,.93A1.53,1.53,0,0,0,52,22a.76.76,0,0,0,.06.76l.06.08a2.83,2.83,0,0,0-1.42,1.5c-.1.39.42.57.66.31a2.56,2.56,0,0,1,1.47-.6c.72-.12,1.75-1.12,2.39-1.55a15.82,15.82,0,0,0,4-3.9A16.36,16.36,0,0,0,61.87,14C62.42,12.26,63.54,10.21,63.24,8.32ZM53.32,21.26a.12.12,0,0,0,0,.19,2.32,2.32,0,0,1-.38.06l.41-.27Z"/>
          <path class="cls-3" d="M25.2,35.64a1.17,1.17,0,0,1-.05-.11.2.2,0,0,0-.37,0c-.11.29-4.57.12-5.13.13a21.61,21.61,0,0,1-7.15-1.22,6.5,6.5,0,0,1-4.6-4.92,13.6,13.6,0,0,1-.22-2.38A.16.16,0,0,0,7.75,27a7.6,7.6,0,0,0-.11-1.37.15.15,0,0,0,0-.07,1.18,1.18,0,0,0,0-.2h0l0,0s0,0,0,0a.36.36,0,0,0,0-.11.07.07,0,0,0,0-.08A17.59,17.59,0,0,0,8.11,22a18.2,18.2,0,0,1,.27-2.08A20.06,20.06,0,0,1,11,13.71a.66.66,0,0,0-.13-.92c.37.23-.26-.42-.34-.54a.77.77,0,0,0-.57-.4,2.44,2.44,0,0,0-1.93.82,8,8,0,0,0-1.88,6.16c0,.21-.07.42-.1.64a4.26,4.26,0,0,0-3-2.22C2.51,17.17,1,17.1,1,18c0,1.25.48,1.47,1.31,2.19.44.37,1.08-.06,1.14-.55.08-.7.07-.42.43-.52a2.37,2.37,0,0,1,.41.38A7,7,0,0,1,5.54,21.7c-.53-.15-1.08-.25-1.35-.34a3.38,3.38,0,0,0-1.53-.23c-.73-.22-1.9-.43-2.26.46A2.71,2.71,0,0,0,1,24.06a.69.69,0,0,0,1.21-.37c.07-1.4,3.23-1.14,3.42.06a4.1,4.1,0,0,0,.61,1.42A8.93,8.93,0,0,0,8,32.83a8.61,8.61,0,0,0,4.21,3.64c2.13.91,4.26.89,6.5,1.3,1.38.25,4,.8,5.39.22a.4.4,0,0,0,0-.76l-.53-.2a.4.4,0,0,0-.07-.39,4.21,4.21,0,0,0,1.7-.78A.23.23,0,0,0,25.2,35.64Z"/>
          <path class="cls-5" d="M31.34,82.91c0-1.07-.11-2.14-.17-3.22,0-.22,0-.45-.05-.69a.71.71,0,0,0,.07-.26c.22-2.6,0-5.2.32-7.8.22-1.77.89-3.84.34-5.6,0-.32.08-.64.1-1a.19.19,0,0,0-.35-.11,11.83,11.83,0,0,0-1.51,3.19c0-.67,0-1.33,0-2a.12.12,0,0,0-.21-.08,7.78,7.78,0,0,0-1,3.41c-.16-.47-.33-.93-.52-1.39-.51-1.24-1.66-2.35-2-3.65,0,0-.05,0-.05,0a9.31,9.31,0,0,0,.95,3.37c-.12-.22-.25-.44-.38-.65s-.21-.06-.18.06c.34,1.24.52,2.53.79,3.79a22.35,22.35,0,0,1,0,5.17c-.21,1,1,2.59,1.47,3.45s.37,3.12.41,4.3a5.66,5.66,0,0,1-1.2.08c-1.19.07-2.42.22-3.61.22-.27,0-.54-1.7-1-2a2.11,2.11,0,0,0-2.08.07c-1,.82-.22,3.82,1,4.18,2.78.81,5.77-.22,8.56-.65.79.77,2.31,1,3,.09C35.43,83.38,32.69,82.75,31.34,82.91Z"/>
          <path class="cls-5" d="M47.34,86.84a.76.76,0,0,0,0-.15.9.9,0,0,0-.75-.74,2.69,2.69,0,0,0-1.16.08c-.23.06-1.28-1.52-1.5-1.72a16.16,16.16,0,0,1-2-2.37A23.77,23.77,0,0,0,42,79.55a9,9,0,0,1,.83-2.94A6.6,6.6,0,0,0,42,71.79c.05-.4.11-.76.14-1a9.57,9.57,0,0,0-.28-4.42.11.11,0,0,0-.2,0,1.55,1.55,0,0,0-.07.23.07.07,0,0,0-.09,0,2.32,2.32,0,0,0-.91,1.74,6.61,6.61,0,0,0-.29-1.25.09.09,0,0,0-.16,0,13.63,13.63,0,0,0-.36,1.33c-.13-.38-.27-.76-.43-1.13a.14.14,0,0,0-.25,0c-.46,1.18-.09,2.47,0,3.7,0,.47,0,.93,0,1.4-.47,1.35-.69,3,.09,4,.89,1.24.53,2.88.62,4.4a1,1,0,0,0-1,.33,1.63,1.63,0,0,0,1.22,2.38h.06c.12.86,1.15,1.68,1.64,2.27s.76,1,1.13,1.42,1,.81,1.37,1.33a2.24,2.24,0,0,0,2.78.19A1.58,1.58,0,0,0,47.34,86.84Z"/>
          <path class="cls-5" d="M58,81.36c-1,0-1.59.82-2.33,1.11A14,14,0,0,1,54,81.86a7,7,0,0,0-1.79-.52l0,0a15.4,15.4,0,0,1-2.51-1.09c0-.13,0-.26,0-.39A11.08,11.08,0,0,0,49.81,78c0-.5,0-1,0-1.48A3.93,3.93,0,0,0,49.87,74a10.11,10.11,0,0,0-.35-2.18c0-.62-.08-1.25-.14-1.87s.64-4.2.09-4.24S48.47,67,48.26,68A5.4,5.4,0,0,0,48.19,67a.47.47,0,0,0-.55-.39,12.58,12.58,0,0,0-.23-1.82s0,0,0,0a4.4,4.4,0,0,0-.49,1.37c-.31-.69-1-2-1.41-2h0a.26.26,0,0,0-.24.18,1.77,1.77,0,0,0,.13,1.17,17.91,17.91,0,0,1,1,4c.2,1.18.22,2.45.3,3.64,0,.58-.2,3.33.52,4.13a9.68,9.68,0,0,0,.29,2.76,2.91,2.91,0,0,0-.56.11,1.29,1.29,0,0,0-.75,2c1.18,1.35,3.1.41,4.68,1.06a13,13,0,0,0,4.07,1.3c.9,0,3.3,1.07,3.83-.28C59,83.38,59.51,81.39,58,81.36Z"/>
          <path class="cls-4" d="M56.6,46.83c-3.24-3.68,2.21-5.29,4.94-6.46,5-2.15,9-6.11,7.84-12s-6.67-7.94-12-6.83c-.78.16-2.95,1.19-3.54.38s.78-3.73.9-4.53c.82-5.24-2.41-7.34-7.28-5.8-2.53.8-6.33,4.3-9,3.26-1.19-.46-2.23-1.66-3.39-2.26a12.83,12.83,0,0,0-5.41-1.51c-2.47-.08-4.11,1.07-4.52,3.51-.37,2.2,1.23,5.15-1.72,5.48-2.78.32-5.26-1.26-7.87.6a5.82,5.82,0,0,0-2,7c1.58,3.43,5.62,2.37,8,4.61,1.29,1.21,1.49,2.86,1.56,4.56L23,37c-1,2-2.91,3.37-3.38,5.71-.7,3.48,1.42,4.71,3.58,6-2.83,3.68-7.27,7.05-6.58,12.16,1,7.68,8.44,10.46,14.46,7.22.68,1,1,2.38,2.28,3.07,5.06,2.72,7.14-4.12,11.22-5.1a2.52,2.52,0,0,1,1.18,0,7.3,7.3,0,0,1,1.87,1.33c3.77,3.15,7.32,5.46,12.21,2.86,4.39-2.33,9.64-8.4,7.8-13.76C65.92,51.47,59.79,50.47,56.6,46.83Z"/>
          <path class="cls-6" d="M55.62,46.49c-3-3.45,2.07-5,4.63-6.05,4.66-2,8.42-5.72,7.34-11.24s-6.25-7.43-11.29-6.39c-.73.15-2.75,1.12-3.31.36s.73-3.49.85-4.25c.77-4.9-2.27-6.87-6.82-5.43-2.37.75-5.92,4-8.43,3.06-1.12-.43-2.09-1.55-3.18-2.11A11.82,11.82,0,0,0,30.35,13c-2.31-.08-3.84,1-4.23,3.29-.35,2.05,1.15,4.82-1.62,5.13-2.59.3-4.92-1.19-7.35.56a5.42,5.42,0,0,0-1.85,6.53c1.48,3.21,5.26,2.22,7.48,4.31,1.22,1.14,1.4,2.68,1.47,4.27l-.09.2c-1,1.88-2.72,3.15-3.16,5.35-.66,3.25,1.33,4.4,3.35,5.59-2.65,3.45-6.8,6.6-6.16,11.39,1,7.19,7.9,9.79,13.53,6.75.65,1,1,2.24,2.14,2.88,4.73,2.54,6.68-3.86,10.5-4.78a2.48,2.48,0,0,1,1.11,0,6.59,6.59,0,0,1,1.75,1.24c3.53,3,6.85,5.11,11.42,2.68,4.11-2.18,9-7.87,7.31-12.88C64.34,50.83,58.61,49.89,55.62,46.49Z"/>
          <path class="cls-6" d="M54.21,46c-2.74-3.11,1.86-4.46,4.16-5.46C62.58,38.72,66,35.38,65,30.41s-5.63-6.69-10.17-5.75c-.66.13-2.48,1-3,.31s.65-3.14.76-3.82c.69-4.41-2-6.19-6.14-4.89-2.14.67-5.34,3.63-7.6,2.75-1-.38-1.89-1.4-2.86-1.9a10.76,10.76,0,0,0-4.56-1.28,3.35,3.35,0,0,0-3.82,3c-.31,1.84,1,4.34-1.45,4.62s-4.44-1.07-6.63.5a4.88,4.88,0,0,0-1.66,5.89c1.32,2.89,4.73,2,6.74,3.88a5.21,5.21,0,0,1,1.32,3.85.91.91,0,0,1-.09.17c-.87,1.7-2.44,2.85-2.84,4.83-.6,2.93,1.2,4,3,5-2.39,3.1-6.13,5.94-5.55,10.26.87,6.48,7.11,8.82,12.19,6.08.58.89.86,2,1.93,2.59,4.26,2.3,6-3.47,9.46-4.3a2.29,2.29,0,0,1,1,0,5.81,5.81,0,0,1,1.57,1.12c3.19,2.66,6.18,4.6,10.3,2.42,3.7-2,8.13-7.1,6.58-11.61C62.07,49.9,56.9,49.06,54.21,46Z"/>
          <g>
            <path class="cls-7" d="M19.24,29.25a4.2,4.2,0,0,1-4.19-4.2,4.24,4.24,0,0,1,4.19-4.19,4.2,4.2,0,1,1,0,8.39Z"/>
            <path class="cls-8" d="M19.24,29.25a4.2,4.2,0,0,1-4.19-4.2,4.24,4.24,0,0,1,4.19-4.19,4.2,4.2,0,1,1,0,8.39Z"/>
            <g>
              <g>
                <path class="cls-9" d="M15.77,25.05a3.47,3.47,0,1,0,3.47-3.46A3.47,3.47,0,0,0,15.77,25.05Z"/>
                <path class="cls-10" d="M15.9,24.17a3.45,3.45,0,0,0,6.79.68,1.36,1.36,0,0,1,0,.2,3.47,3.47,0,0,1-6.94,0A3.67,3.67,0,0,1,15.9,24.17Z"/>
              </g>
              <g>
                <path d="M18,25.7a1.73,1.73,0,1,0-.14-2.44A1.73,1.73,0,0,0,18,25.7Z"/>
                <path class="cls-9" d="M18.76,24.1a.69.69,0,0,0,.91-1,.69.69,0,0,0-.91,1Z"/>
              </g>
            </g>
          </g>
          <g>
            <path class="cls-7" d="M31.37,22.76A3.75,3.75,0,0,1,27.61,19a3.29,3.29,0,0,1,.06-.6,3.75,3.75,0,1,1,3.7,4.35Z"/>
            <path class="cls-8" d="M31.37,22.76A3.75,3.75,0,0,1,27.61,19a3.29,3.29,0,0,1,.06-.6,3.75,3.75,0,1,1,3.7,4.35Z"/>
            <g>
              <g>
                <path class="cls-9" d="M28.26,19a3.11,3.11,0,1,0,3.11-3.11A3.1,3.1,0,0,0,28.26,19Z"/>
                <path class="cls-10" d="M28.38,18.21a3.09,3.09,0,0,0,6.07.61,1.11,1.11,0,0,1,0,.19,3.11,3.11,0,0,1-6.21,0A3,3,0,0,1,28.38,18.21Z"/>
              </g>
              <g>
                <path d="M30.21,19.58a1.54,1.54,0,1,0-.13-2.18A1.54,1.54,0,0,0,30.21,19.58Z"/>
                <path class="cls-9" d="M30.93,18.15a.62.62,0,1,0-.05-.87A.62.62,0,0,0,30.93,18.15Z"/>
              </g>
            </g>
          </g>
          <g>
            <path class="cls-7" d="M45.73,25.38a4.52,4.52,0,0,1-4.52-4.52,3.88,3.88,0,0,1,.07-.72,4.48,4.48,0,0,1,4.45-3.81,4.53,4.53,0,0,1,0,9.05Z"/>
            <path class="cls-8" d="M45.73,25.38a4.52,4.52,0,0,1-4.52-4.52,3.88,3.88,0,0,1,.07-.72,4.48,4.48,0,0,1,4.45-3.81,4.53,4.53,0,0,1,0,9.05Z"/>
            <g>
              <g>
                <path class="cls-9" d="M42,20.86a3.74,3.74,0,1,0,3.74-3.74A3.73,3.73,0,0,0,42,20.86Z"/>
                <path class="cls-10" d="M42.13,19.9a3.72,3.72,0,0,0,7.31.73,1.79,1.79,0,0,1,0,.23,3.74,3.74,0,0,1-7.47,0A3.77,3.77,0,0,1,42.13,19.9Z"/>
              </g>
              <g>
                <path d="M44.34,21.55a1.86,1.86,0,1,0-.16-2.63A1.85,1.85,0,0,0,44.34,21.55Z"/>
                <path class="cls-9" d="M45.2,19.83a.74.74,0,1,0-.06-1A.75.75,0,0,0,45.2,19.83Z"/>
              </g>
            </g>
          </g>
          <g>
            <path class="cls-7" d="M58.43,62a4.83,4.83,0,0,1-4.83-4.82,4.48,4.48,0,0,1,.08-.77A4.82,4.82,0,1,1,58.43,62Z"/>
            <path class="cls-11" d="M58.43,62a4.83,4.83,0,0,1-4.83-4.82,4.48,4.48,0,0,1,.08-.77A4.82,4.82,0,1,1,58.43,62Z"/>
            <g>
              <g>
                <path class="cls-9" d="M54.44,57.19a4,4,0,1,0,4-4A4,4,0,0,0,54.44,57.19Z"/>
                <path class="cls-10" d="M54.59,56.17a4,4,0,0,0,7.8.78c0,.08,0,.16,0,.24a4,4,0,0,1-8,0A3.81,3.81,0,0,1,54.59,56.17Z"/>
              </g>
              <g>
                <path d="M56.94,57.93a2,2,0,1,0-.16-2.81A2,2,0,0,0,56.94,57.93Z"/>
                <path class="cls-9" d="M57.87,56.09A.8.8,0,0,0,59,56a.79.79,0,0,0-.07-1.12A.8.8,0,0,0,57.8,55,.79.79,0,0,0,57.87,56.09Z"/>
              </g>
            </g>
          </g>
          <g>
            <path class="cls-7" d="M60.25,35.88a4.82,4.82,0,0,1-4.82-4.82,4.4,4.4,0,0,1,.07-.77,4.82,4.82,0,1,1,4.75,5.59Z"/>
            <path class="cls-8" d="M60.25,35.88a4.82,4.82,0,0,1-4.82-4.82,4.4,4.4,0,0,1,.07-.77,4.82,4.82,0,1,1,4.75,5.59Z"/>
            <g>
              <g>
                <path class="cls-9" d="M56.26,31.06a4,4,0,1,0,4-4A4,4,0,0,0,56.26,31.06Z"/>
                <path class="cls-10" d="M56.41,30a4,4,0,0,0,7.8.78c0,.08,0,.16,0,.24a4,4,0,0,1-8,0A4.26,4.26,0,0,1,56.41,30Z"/>
              </g>
              <g>
                <path d="M58.77,31.8A2,2,0,1,0,58.6,29,2,2,0,0,0,58.77,31.8Z"/>
                <path class="cls-9" d="M59.69,30a.79.79,0,0,0,1.12-.07.79.79,0,0,0-1.19-1.05A.79.79,0,0,0,59.69,30Z"/>
              </g>
            </g>
          </g>
          <g>
            <path class="cls-7" d="M32.27,29.06a2,2,0,0,1-2-2,1.91,1.91,0,0,1,0-.32,2,2,0,1,1,2,2.34Z"/>
            <path class="cls-11" d="M32.27,29.06a2,2,0,0,1-2-2,1.91,1.91,0,0,1,0-.32,2,2,0,1,1,2,2.34Z"/>
            <g>
              <g>
                <path class="cls-9" d="M30.6,27a1.67,1.67,0,1,0,1.67-1.67A1.67,1.67,0,0,0,30.6,27Z"/>
                <path class="cls-10" d="M30.66,26.61a1.66,1.66,0,0,0,3.27.33s0,.07,0,.1a1.67,1.67,0,0,1-3.34,0A1.54,1.54,0,0,1,30.66,26.61Z"/>
              </g>
              <g>
                <path d="M31.65,27.35a.83.83,0,0,0,1.17-.07.83.83,0,0,0-1.24-1.11A.83.83,0,0,0,31.65,27.35Z"/>
                <path class="cls-9" d="M32,26.58a.34.34,0,1,0,0-.47A.33.33,0,0,0,32,26.58Z"/>
              </g>
            </g>
          </g>
          <g>
            <path class="cls-7" d="M39.34,29.09a2,2,0,0,1-2-2,1.91,1.91,0,0,1,0-.32,2,2,0,1,1,2,2.34Z"/>
            <path class="cls-11" d="M39.34,29.09a2,2,0,0,1-2-2,1.91,1.91,0,0,1,0-.32,2,2,0,1,1,2,2.34Z"/>
            <g>
              <g>
                <path class="cls-9" d="M37.67,27.07a1.67,1.67,0,1,0,1.67-1.67A1.67,1.67,0,0,0,37.67,27.07Z"/>
                <path class="cls-10" d="M37.73,26.64a1.68,1.68,0,0,0,1.66,1.57A1.66,1.66,0,0,0,41,27s0,.07,0,.11a1.67,1.67,0,1,1-3.34,0A2,2,0,0,1,37.73,26.64Z"/>
              </g>
              <g>
                <path d="M38.72,27.38a.84.84,0,1,0-.07-1.18A.84.84,0,0,0,38.72,27.38Z"/>
                <path class="cls-9" d="M39.11,26.61a.33.33,0,1,0,0-.47A.33.33,0,0,0,39.11,26.61Z"/>
              </g>
            </g>
          </g>
          <g>
            <path class="cls-7" d="M41.68,36a2,2,0,0,1-2-2,2.12,2.12,0,0,1,0-.33,2,2,0,0,1,2-1.7,2,2,0,1,1,0,4.05Z"/>
            <path class="cls-11" d="M41.68,36a2,2,0,0,1-2-2,2.12,2.12,0,0,1,0-.33,2,2,0,0,1,2-1.7,2,2,0,1,1,0,4.05Z"/>
            <g>
              <g>
                <path class="cls-9" d="M40,34a1.68,1.68,0,1,0,1.67-1.68A1.67,1.67,0,0,0,40,34Z"/>
                <path class="cls-10" d="M40.08,33.55a1.66,1.66,0,0,0,3.27.32s0,.07,0,.11A1.68,1.68,0,0,1,40,34,1.55,1.55,0,0,1,40.08,33.55Z"/>
              </g>
              <g>
                <path d="M41.06,34.29A.84.84,0,1,0,42.17,33a.83.83,0,0,0-1.18.07A.85.85,0,0,0,41.06,34.29Z"/>
                <path class="cls-9" d="M41.45,33.52a.34.34,0,0,0,.47,0,.33.33,0,1,0-.47,0Z"/>
              </g>
            </g>
          </g>
          <g>
            <path class="cls-7" d="M30.56,34.37A2,2,0,0,1,27.73,34a2.29,2.29,0,0,1-.17-.28,2,2,0,1,1,3,.67Z"/>
            <path class="cls-11" d="M30.56,34.37A2,2,0,0,1,27.73,34a2.29,2.29,0,0,1-.17-.28,2,2,0,1,1,3,.67Z"/>
            <g>
              <g>
                <path class="cls-9" d="M28,33.77a1.67,1.67,0,1,0,.33-2.35A1.67,1.67,0,0,0,28,33.77Z"/>
                <path class="cls-10" d="M27.8,33.39a1.67,1.67,0,0,0,2.81-1.71.46.46,0,0,1,.07.07,1.67,1.67,0,0,1-2.67,2A2,2,0,0,1,27.8,33.39Z"/>
              </g>
              <g>
                <path d="M29,33.38a.83.83,0,1,0-.76-.89A.83.83,0,0,0,29,33.38Z"/>
                <path class="cls-9" d="M28.88,32.53a.33.33,0,1,0,.05-.66.34.34,0,0,0-.36.31A.33.33,0,0,0,28.88,32.53Z"/>
              </g>
            </g>
          </g>
          <g>
            <path class="cls-7" d="M35.22,32a1.45,1.45,0,1,1,2-.62A1.45,1.45,0,0,1,35.22,32Z"/>
            <path class="cls-11" d="M35.22,32a1.45,1.45,0,1,1,2-.62A1.45,1.45,0,0,1,35.22,32Z"/>
            <g>
              <g>
                <path class="cls-9" d="M34.82,30.18a1.21,1.21,0,0,0,.51,1.63,1.21,1.21,0,1,0,1.11-2.14A1.2,1.2,0,0,0,34.82,30.18Z"/>
                <path class="cls-10" d="M35,29.93a1.2,1.2,0,0,0,2,1.3s0,0,0,.06a1.22,1.22,0,0,1-1.63.52,1.21,1.21,0,0,1-.51-1.63A1.14,1.14,0,0,1,35,29.93Z"/>
              </g>
              <g>
                <path d="M35.39,30.73a.6.6,0,0,0,.77.35.61.61,0,0,0,.35-.78.61.61,0,0,0-.78-.35A.6.6,0,0,0,35.39,30.73Z"/>
                <path class="cls-9" d="M35.89,30.37a.24.24,0,0,0,.31.13.23.23,0,0,0,.14-.3.24.24,0,1,0-.45.17Z"/>
              </g>
            </g>
          </g>
          <g>
            <path class="cls-7" d="M45.6,32.38a1.44,1.44,0,0,1-.62-2,1.06,1.06,0,0,1,.12-.2,1.44,1.44,0,0,1,1.84-.42,1.45,1.45,0,1,1-1.34,2.58Z"/>
            <path class="cls-11" d="M45.6,32.38a1.44,1.44,0,0,1-.62-2,1.06,1.06,0,0,1,.12-.2,1.44,1.44,0,0,1,1.84-.42,1.45,1.45,0,1,1-1.34,2.58Z"/>
            <g>
              <g>
                <path class="cls-9" d="M45.2,30.53A1.21,1.21,0,1,0,46.82,30,1.21,1.21,0,0,0,45.2,30.53Z"/>
                <path class="cls-10" d="M45.38,30.28a1.2,1.2,0,0,0,2,1.3s0,0,0,.06a1.21,1.21,0,1,1-2.14-1.11A1.44,1.44,0,0,1,45.38,30.28Z"/>
              </g>
              <g>
                <path d="M45.77,31.08a.6.6,0,0,0,.77.35.6.6,0,1,0-.43-1.12A.59.59,0,0,0,45.77,31.08Z"/>
                <path class="cls-9" d="M46.27,30.72a.25.25,0,0,0,.31.14.24.24,0,0,0,.14-.31.24.24,0,1,0-.45.17Z"/>
              </g>
            </g>
          </g>
          <g>
            <path class="cls-7" d="M47.05,36.15a1.47,1.47,0,0,1-.62-2,1.62,1.62,0,0,1,.13-.19,1.45,1.45,0,0,1,1.84-.43,1.46,1.46,0,1,1-1.35,2.59Z"/>
            <path class="cls-11" d="M47.05,36.15a1.47,1.47,0,0,1-.62-2,1.62,1.62,0,0,1,.13-.19,1.45,1.45,0,0,1,1.84-.43,1.46,1.46,0,1,1-1.35,2.59Z"/>
            <g>
              <g>
                <path class="cls-9" d="M46.66,34.3a1.2,1.2,0,1,0,1.62-.51A1.19,1.19,0,0,0,46.66,34.3Z"/>
                <path class="cls-10" d="M46.84,34.05a1.2,1.2,0,0,0,2,1.29l0,.07a1.2,1.2,0,1,1-2.13-1.11A.94.94,0,0,1,46.84,34.05Z"/>
              </g>
              <g>
                <path d="M47.22,34.85a.6.6,0,1,0,.35-.78A.61.61,0,0,0,47.22,34.85Z"/>
                <path class="cls-9" d="M47.73,34.48a.23.23,0,0,0,.31.14.25.25,0,0,0,.14-.31.25.25,0,0,0-.31-.14A.24.24,0,0,0,47.73,34.48Z"/>
              </g>
            </g>
          </g>
          <g>
            <path class="cls-7" d="M50.1,56.61a2.32,2.32,0,0,1-1-3.13,1.61,1.61,0,0,1,.2-.31,2.3,2.3,0,0,1,2.93-.68,2.32,2.32,0,1,1-2.15,4.12Z"/>
            <path class="cls-11" d="M50.1,56.61a2.32,2.32,0,0,1-1-3.13,1.61,1.61,0,0,1,.2-.31,2.3,2.3,0,0,1,2.93-.68,2.32,2.32,0,1,1-2.15,4.12Z"/>
            <g>
              <g>
                <path class="cls-9" d="M49.47,53.67a1.92,1.92,0,1,0,2.59-.82A1.91,1.91,0,0,0,49.47,53.67Z"/>
                <path class="cls-10" d="M49.76,53.27a1.91,1.91,0,0,0,3.16,2.06.49.49,0,0,1,0,.11,1.92,1.92,0,0,1-3.41-1.77A1.71,1.71,0,0,1,49.76,53.27Z"/>
              </g>
              <g>
                <path d="M50.38,54.54a1,1,0,1,0,.55-1.24A1,1,0,0,0,50.38,54.54Z"/>
                <path class="cls-9" d="M51.18,54a.38.38,0,1,0,.71-.27.37.37,0,0,0-.49-.22A.38.38,0,0,0,51.18,54Z"/>
              </g>
            </g>
          </g>
          <path class="cls-12" d="M27.06,36.08c2.64,2.68,13.12,6.17,19.57,3.11,1.71-.82,3.92-1.94,4.85-3.61-.95,5.9-5.68,12.49-8.55,14.12-1.37.77-5.64,1.81-8.23.41-2.36-1.26-2.66-4.14-3.82-7A49.61,49.61,0,0,0,27.06,36.08Z"/>
          <path class="cls-8" d="M50.28,37C48.5,41.81,45,46.36,42.66,47.67c-1.37.77-5.64,1.81-8.23.41-2.36-1.26-2.66-4.13-3.82-7a35.48,35.48,0,0,0-1.86-3.76,8,8,0,0,1-1.69-1.25,49.61,49.61,0,0,1,3.82,7c1.16,2.85,1.46,5.73,3.82,7,2.59,1.4,6.86.36,8.23-.41,2.87-1.63,7.6-8.22,8.55-14.12A5.34,5.34,0,0,1,50.28,37Z"/>
          <g>
            <path class="cls-9" d="M41.32,40.36c-.08,1-.13,2.2-.11,3.55,0,3.52.92,3.87,1.24,2.13.28-1.55,1.14-2.92,1.61-6A15.32,15.32,0,0,1,41.32,40.36Z"/>
            <path class="cls-9" d="M32.32,38.91c.16,1.24.37,2.75.6,4.36.6,4.07,1,3.72,1,3.72s.24-3.69.39-7.47C33.63,39.34,33,39.14,32.32,38.91Z"/>
            <path class="cls-9" d="M36.34,40c.1.67.19,1.37.3,2.09.6,4.07,1,3.72,1,3.72s.16-2.54.3-5.56C37.42,40.15,36.88,40.07,36.34,40Z"/>
          </g>
          <path d="M13.19,16.8a4.68,4.68,0,0,0,0,1,4.54,4.54,0,0,0,.71,2.07,2.76,2.76,0,0,0,.37.46,2.52,2.52,0,0,0,.45.37,2.83,2.83,0,0,0,.47.27,3.27,3.27,0,0,0,.47.16,4.18,4.18,0,0,0,.41.08,1.32,1.32,0,0,0,.33,0h0a1.18,1.18,0,0,1-.33,0,3.44,3.44,0,0,1-.43,0,3.36,3.36,0,0,1-.5-.13,3,3,0,0,1-.52-.24,2.48,2.48,0,0,1-.5-.37,3.2,3.2,0,0,1-.43-.47,4.64,4.64,0,0,1-.82-2.19,4.78,4.78,0,0,1,0-1.07c0-.32.15-.6.22-.61s.11.23.09.54Z"/>
          <path d="M15.09,15.64a8.54,8.54,0,0,0-.12,1,9,9,0,0,0,0,1,6,6,0,0,0,.18,1.17,4.76,4.76,0,0,0,.19.57,3.2,3.2,0,0,0,.27.52,2.31,2.31,0,0,0,.34.42,1.79,1.79,0,0,0,.38.3,1.63,1.63,0,0,0,.37.19,1.17,1.17,0,0,0,.3.1l.28.06h0L17,21a1,1,0,0,1-.32-.07,1.85,1.85,0,0,1-.4-.16,1.91,1.91,0,0,1-.43-.29,2,2,0,0,1-.39-.42,3.46,3.46,0,0,1-.32-.52,4.36,4.36,0,0,1-.23-.6,6.68,6.68,0,0,1-.26-2.3,7.6,7.6,0,0,1,.13-1,.89.89,0,0,1,.29-.59c.08,0,.08.24,0,.55C15.1,15.58,15.1,15.61,15.09,15.64Z"/>
          <path d="M16.27,15.9s-.07.34-.12.85a7.6,7.6,0,0,0,0,1.9,3.35,3.35,0,0,0,.66,1.73,1.47,1.47,0,0,0,.25.25,1.34,1.34,0,0,0,.22.16,1.72,1.72,0,0,1,.21.12h0l-.22-.09a1.28,1.28,0,0,1-.25-.14,1.42,1.42,0,0,1-.28-.23,1.81,1.81,0,0,1-.28-.33,2.91,2.91,0,0,1-.25-.42,4.25,4.25,0,0,1-.32-1,7.09,7.09,0,0,1-.08-2,7.54,7.54,0,0,1,.13-.88c.06-.27.19-.49.27-.49s.09.2.05.47C16.28,15.84,16.27,15.87,16.27,15.9Z"/>
          <path d="M17.78,16s-.08.33-.21.83c-.06.25-.14.54-.21.85a7.55,7.55,0,0,0-.15,1,2.78,2.78,0,0,0,.05,1,1.46,1.46,0,0,0,.17.4,1.54,1.54,0,0,0,.25.31,2.29,2.29,0,0,0,.29.18,1.12,1.12,0,0,0,.24.1l.23.06h0l-.23-.05a.74.74,0,0,1-.27-.06,1.91,1.91,0,0,1-.32-.16,1.3,1.3,0,0,1-.31-.31,1.45,1.45,0,0,1-.22-.43,2.68,2.68,0,0,1-.13-1,6.5,6.5,0,0,1,.11-1c.06-.32.13-.62.2-.87.12-.49.21-.82.21-.82.07-.26.17-.46.25-.48s.12.2.07.47A.31.31,0,0,1,17.78,16Z"/>
          <path d="M19.05,16.71a1,1,0,0,0-.12.16,3.64,3.64,0,0,0-.26.47,4.54,4.54,0,0,0-.27.72c0,.13-.08.27-.1.42a3.65,3.65,0,0,0,.14,2.06,1,1,0,0,0,.16.27.71.71,0,0,0,.15.18l.15.15h0L18.73,21a.65.65,0,0,1-.18-.16,1.11,1.11,0,0,1-.2-.26,1.8,1.8,0,0,1-.17-.34,2.58,2.58,0,0,1-.13-.42A3.55,3.55,0,0,1,18,18.9a3.73,3.73,0,0,1,0-.47c0-.16.06-.3.09-.45a4.31,4.31,0,0,1,.27-.77,3.05,3.05,0,0,1,.29-.51c.07-.12.14-.18.13-.18.16-.21.39-.29.44-.25s0,.2-.15.39Z"/>
          <path d="M24.32,12.08v.06a.42.42,0,0,0,0,.17c0,.08,0,.17,0,.27s.06.21.09.34a4.07,4.07,0,0,0,.17.38,4.65,4.65,0,0,0,.26.41,5.18,5.18,0,0,0,.72.77,5.56,5.56,0,0,0,.86.63,5.42,5.42,0,0,0,.85.41,3.34,3.34,0,0,0,.36.1,1.11,1.11,0,0,0,.28.05l.26,0h-.26l-.29,0a1.4,1.4,0,0,1-.38-.07,4,4,0,0,1-.91-.34,5.56,5.56,0,0,1-.93-.59,4.15,4.15,0,0,1-1.09-1.22c-.08-.15-.14-.3-.2-.43s-.07-.28-.1-.4,0-.23,0-.32a.58.58,0,0,1,0-.2A.45.45,0,0,0,24,12a.74.74,0,0,1,.16-.37c.07-.09.13-.14.16-.14s.06.07.05.16a2.55,2.55,0,0,1-.05.32Z"/>
          <path d="M26,11.13a1.49,1.49,0,0,0,0,.19q0,.18.06.48c0,.2.09.43.14.67l.12.37a2.39,2.39,0,0,0,.15.37l.18.36.21.33a5.12,5.12,0,0,0,.44.54.88.88,0,0,0,.21.18l.16.14.15.12h0l-.16-.09-.19-.12a1,1,0,0,1-.24-.16,3.41,3.41,0,0,1-.52-.5l-.25-.32-.22-.37a2.64,2.64,0,0,1-.18-.38c0-.13-.11-.25-.15-.38a6.28,6.28,0,0,1-.16-.71c0-.21-.05-.39-.06-.52v-.19c0-.22.07-.41.15-.42s.15.14.16.35A.13.13,0,0,0,26,11.13Z"/>
          <path d="M27.62,10s0,.07-.05.21-.05.33-.09.57,0,.51-.07.8,0,.3,0,.46a2.42,2.42,0,0,0,.06.46c0,.16.05.32.08.47l.15.43a5.76,5.76,0,0,0,.34.74c.05.11.13.19.18.28l.15.21.13.18h0l-.15-.16-.18-.2a1.84,1.84,0,0,1-.21-.25,4.86,4.86,0,0,1-.43-.73c-.06-.14-.13-.29-.19-.44s-.08-.32-.13-.48a3.85,3.85,0,0,1-.08-.49c0-.16,0-.32,0-.48a6.9,6.9,0,0,1,.06-.84c0-.25.06-.46.09-.6l.06-.22c.06-.24.18-.44.26-.44s.1.2.06.44C27.63,9.9,27.63,9.93,27.62,10Z"/>
          <path d="M29.84,9.85l-.1.21-.2.56c-.1.23-.15.52-.24.81s-.06.31-.09.47a4,4,0,0,0-.07.48c0,.17,0,.33,0,.49s0,.33,0,.48a5.09,5.09,0,0,0,.1.84,2.28,2.28,0,0,0,.08.33l.08.26.06.22h0l-.09-.21-.1-.25a1.93,1.93,0,0,1-.13-.32,5.67,5.67,0,0,1-.19-.85c0-.16,0-.33-.05-.49s0-.34,0-.51a2.11,2.11,0,0,1,0-.51c0-.17,0-.33.08-.49a6.86,6.86,0,0,1,.23-.85c.08-.24.16-.44.21-.58a2.28,2.28,0,0,1,.1-.21c.11-.24.27-.42.34-.41s.07.22,0,.46Z"/>
          <path d="M31.69,10.65a1.42,1.42,0,0,0-.16.14,2.85,2.85,0,0,0-.37.42,4.08,4.08,0,0,0-.41.67,4.94,4.94,0,0,0-.33.86,4.83,4.83,0,0,0-.16.91,4.25,4.25,0,0,0,0,.81,2.61,2.61,0,0,0,.06.32,1.84,1.84,0,0,0,.07.24l.08.21h0l-.1-.2a1.74,1.74,0,0,1-.1-.23c0-.1-.07-.2-.1-.32a3.5,3.5,0,0,1-.1-.83,4,4,0,0,1,.09-1,4.52,4.52,0,0,1,.31-.92,3.43,3.43,0,0,1,.43-.74,2.9,2.9,0,0,1,.4-.46l.18-.15c.2-.17.45-.21.49-.17s0,.08,0,.15a2.07,2.07,0,0,1-.21.21Z"/>
          <path d="M32.91,11.13l-.11.14-.24.41c-.1.17-.18.39-.28.6a5.77,5.77,0,0,0-.22.74c0,.13-.05.26-.08.39s0,.25,0,.37a3.78,3.78,0,0,0,0,.68,4.43,4.43,0,0,0,.09.47l0,.19h0L32,15a3,3,0,0,1-.17-.47,3.46,3.46,0,0,1-.1-.7c0-.12,0-.26,0-.4s0-.27,0-.41a4.33,4.33,0,0,1,.19-.79,5.76,5.76,0,0,1,.28-.65c.11-.18.19-.33.26-.43l.11-.15c.14-.17.31-.28.37-.24s0,.2-.08.37Z"/>
          <path d="M40.65,11.14l0,.06a.71.71,0,0,0-.11.17l-.13.29c0,.11,0,.26-.09.4s0,.33,0,.51,0,.37.1.56a5.46,5.46,0,0,0,.46,1.17,7.26,7.26,0,0,0,.69,1.07,6,6,0,0,0,.78.8,2.55,2.55,0,0,0,.35.27,1.58,1.58,0,0,0,.3.17l.27.13h0l-.28-.1a1.5,1.5,0,0,1-.32-.15,3,3,0,0,1-.39-.24,6.3,6.3,0,0,1-.85-.76,6.48,6.48,0,0,1-.77-1.07,4.82,4.82,0,0,1-.52-1.22,2.66,2.66,0,0,1-.12-.6A5.51,5.51,0,0,1,40,12c0-.17.06-.33.1-.47l.15-.35a1.33,1.33,0,0,1,.14-.2l0-.07a.9.9,0,0,1,.38-.29q.18-.09.24-.06s0,.09-.06.17-.17.17-.25.3Z"/>
          <path d="M42.47,11.55a1.55,1.55,0,0,0-.1.19,2.29,2.29,0,0,0-.18.53,3.85,3.85,0,0,0-.09.81,4.45,4.45,0,0,0,.1.95,4,4,0,0,0,.29.91,3.16,3.16,0,0,0,.41.73,2.36,2.36,0,0,0,.39.45,1.52,1.52,0,0,0,.17.15h0l-.19-.13a2.25,2.25,0,0,1-.45-.41,3.69,3.69,0,0,1-.5-.71,4,4,0,0,1-.37-.93,4.49,4.49,0,0,1-.15-1,3.51,3.51,0,0,1,.08-.89,2.91,2.91,0,0,1,.21-.6.88.88,0,0,1,.12-.21c.13-.25.37-.36.43-.33s0,.07,0,.15a2.12,2.12,0,0,1-.13.27A.25.25,0,0,1,42.47,11.55Z"/>
          <path d="M44.1,12.17l-.08.15c0,.1-.09.24-.15.41a2.47,2.47,0,0,0-.06.29c0,.11-.05.22-.07.33a4.27,4.27,0,0,0,0,.72l0,.37c0,.12,0,.23.08.35a1.09,1.09,0,0,0,.1.32c0,.1.08.19.11.28a.91.91,0,0,0,.13.22l.11.17a1,1,0,0,1,.1.15h0l-.12-.13-.14-.15a.89.89,0,0,1-.16-.21c-.05-.08-.11-.17-.16-.27a1.24,1.24,0,0,1-.15-.33l-.12-.36-.06-.39a4,4,0,0,1,0-.77q0-.2.06-.36a3,3,0,0,1,.07-.32c.07-.18.12-.34.16-.45a.83.83,0,0,1,.09-.16c.11-.19.25-.31.32-.28s.06.2,0,.37Z"/>
          <path d="M45.58,12.24l-.1.12a2,2,0,0,0-.22.38,3.54,3.54,0,0,0-.19.6,6,6,0,0,0-.09.74,10.88,10.88,0,0,0,0,1.43c0,.39.07.65.07.65h0s-.08-.25-.17-.64a7.05,7.05,0,0,1-.18-1.44,4.09,4.09,0,0,1,.05-.79,3.2,3.2,0,0,1,.19-.68,1.89,1.89,0,0,1,.26-.44.83.83,0,0,1,.13-.15c.15-.16.36-.2.41-.15s0,.07,0,.13a1.5,1.5,0,0,1-.14.2Z"/>
          <path d="M47.05,13l-.09.11-.2.33c0,.07-.07.15-.11.24s-.08.17-.11.27a5.61,5.61,0,0,0-.16.62l-.06.33c0,.11,0,.21,0,.32a3.69,3.69,0,0,0,0,.57c0,.17,0,.31,0,.4a.91.91,0,0,1,0,.16h0s0-.05-.05-.15-.08-.23-.11-.4a4.52,4.52,0,0,1-.08-.58c0-.11,0-.23,0-.34l0-.34a3.72,3.72,0,0,1,.13-.68,2.64,2.64,0,0,1,.1-.3,1.57,1.57,0,0,1,.12-.26L46.7,13a.61.61,0,0,1,.11-.13c.13-.14.29-.21.34-.16s0,.19-.07.32Z"/>
          <path d="M48.68,14.38l-.09.08-.19.26a4.5,4.5,0,0,0-.22.4,1.7,1.7,0,0,0-.09.24,1.29,1.29,0,0,0-.08.26,3.09,3.09,0,0,0-.09.53,2.51,2.51,0,0,0,0,.47c0,.14,0,.25,0,.33a.72.72,0,0,1,0,.14h0a.58.58,0,0,0,0-.13,1.56,1.56,0,0,1-.11-.33,2.18,2.18,0,0,1-.08-.49,2.76,2.76,0,0,1,0-.57,2.47,2.47,0,0,1,.06-.29c0-.09,0-.19.08-.28a4.6,4.6,0,0,1,.24-.45c.09-.13.16-.23.22-.3l.1-.09c.12-.11.26-.15.32-.09s0,.18-.07.28Z"/>
          <path d="M50.25,15.52l-.37.27c-.11.08-.22.19-.35.3a3.32,3.32,0,0,0-.37.38l-.17.21-.14.22a2.27,2.27,0,0,0-.19.43,1.21,1.21,0,0,0,0,.18l0,.14,0,.13h0V17.5a.69.69,0,0,1,0-.2,2.17,2.17,0,0,1,.13-.48l.11-.26.16-.24a3.26,3.26,0,0,1,.73-.78c.23-.18.39-.28.39-.28s.27-.09.32,0,0,.18-.11.27Z"/>
          <path d="M54.35,22.2l-.11.24c0,.08-.05.18-.07.29a2.25,2.25,0,0,0,0,.4,4.45,4.45,0,0,0,0,.47A3.89,3.89,0,0,0,55,25.12a6,6,0,0,0,.4.46c.16.13.29.28.45.39a2.65,2.65,0,0,0,.46.31,3.89,3.89,0,0,0,.44.24,2.93,2.93,0,0,0,.39.16,1.65,1.65,0,0,0,.32.08l.28,0h0l-.29,0a1,1,0,0,1-.32-.06,1.5,1.5,0,0,1-.42-.12,2.65,2.65,0,0,1-.47-.2,4.29,4.29,0,0,1-.5-.29c-.17-.11-.32-.25-.49-.38s-.31-.29-.45-.45a4.49,4.49,0,0,1-.69-1.06,4.63,4.63,0,0,1-.19-.56,3.57,3.57,0,0,1-.06-.54,2.27,2.27,0,0,1,0-.46c0-.13.07-.24.09-.34l.13-.28a1,1,0,0,1,.29-.35c.09-.08.17-.12.2-.1s0,.08,0,.17a2.14,2.14,0,0,1-.17.34Z"/>
          <path d="M57.86,22.45a.78.78,0,0,1-.11.13l-.1.17a2.14,2.14,0,0,0-.13.22,3.45,3.45,0,0,0-.28,1.38,3.7,3.7,0,0,0,.26,1.41,2,2,0,0,0,.22.44l.1.15h0l-.13-.14a1.91,1.91,0,0,1-.28-.4A3.35,3.35,0,0,1,57,24.36a3,3,0,0,1,.25-1.52,1.59,1.59,0,0,1,.14-.26l.12-.19.13-.15c.15-.17.36-.23.41-.18s0,.2-.14.34Z"/>
          <path d="M60.29,22.65a.33.33,0,0,0-.1.12,1.84,1.84,0,0,0-.24.36,4.18,4.18,0,0,0-.44,1.27,4.13,4.13,0,0,0,0,1.35,2,2,0,0,0,.12.44,1.37,1.37,0,0,1,.07.16h0l-.1-.14a2,2,0,0,1-.19-.43,3.54,3.54,0,0,1-.12-1.42A4.14,4.14,0,0,1,59.67,23a2.72,2.72,0,0,1,.27-.4.57.57,0,0,1,.13-.14c.15-.16.36-.19.4-.14s0,.18-.14.32Z"/>
          <path d="M62.84,23.24l-.15.05c-.08.06-.21.12-.34.23A1.67,1.67,0,0,0,62,24a2.65,2.65,0,0,0-.33.6,3.67,3.67,0,0,0-.25,1.3,3.06,3.06,0,0,0,0,.62h0l0-.17a2.57,2.57,0,0,1-.09-.44,3.44,3.44,0,0,1,.11-1.39,2.42,2.42,0,0,1,.32-.69,2.07,2.07,0,0,1,.86-.77l.17-.07c.19-.07.39,0,.41,0s-.09.17-.25.23Z"/>
          <path d="M65,24.34l-.13.08-.32.24c-.13.1-.26.24-.42.38s-.3.31-.42.49l-.19.27c-.06.09-.1.19-.15.28a2.94,2.94,0,0,0-.23.53,3.43,3.43,0,0,0-.09.4l0,.15h0V27a3.57,3.57,0,0,1,0-.42,2.49,2.49,0,0,1,.16-.57c0-.1.08-.21.13-.32s.11-.2.17-.3a4.81,4.81,0,0,1,.42-.56,4,4,0,0,1,.43-.41l.35-.26.14-.08c.16-.09.33-.11.37,0s0,.18-.16.28Z"/>
          <path d="M66.06,26.72h-.14l-.36.07c-.08,0-.15.06-.23.08l-.26.11-.24.17a1.5,1.5,0,0,0-.25.19l-.22.22-.19.24a2.08,2.08,0,0,0-.27.47.64.64,0,0,0-.08.2c0,.07,0,.12,0,.17a1.31,1.31,0,0,0,0,.14h0s0-.05,0-.15,0-.1,0-.17a1,1,0,0,1,0-.23A1.93,1.93,0,0,1,64,27.7l.16-.28a2.85,2.85,0,0,1,.23-.26.92.92,0,0,1,.25-.23l.26-.21.29-.13a.7.7,0,0,1,.26-.1l.42-.09h.17c.18,0,.33.09.33.16s-.13.14-.29.15Z"/>
          <path d="M66.8,29.17a4.46,4.46,0,0,0-1.87-.11,2.81,2.81,0,0,0-.66.2,2.17,2.17,0,0,0-.5.33c-.07.06-.12.13-.18.18a1.12,1.12,0,0,0-.11.15l-.1.14h0a1.37,1.37,0,0,1,.07-.16,1.47,1.47,0,0,1,.09-.17c.05-.06.09-.14.15-.21a2.13,2.13,0,0,1,.5-.42,2.24,2.24,0,0,1,.69-.29,3.93,3.93,0,0,1,2,.06c.19.05.33.18.32.25s-.16.1-.34.06Z"/>
          <path d="M66.22,31.46l-.09,0-.11,0a.66.66,0,0,0-.15,0,2.21,2.21,0,0,0-.39,0,1.72,1.72,0,0,0-.45,0,3.4,3.4,0,0,0-.46.09c-.14,0-.26.11-.38.15a1.63,1.63,0,0,0-.25.15l-.1.06h0l.08-.09a2.36,2.36,0,0,1,.22-.21,3.51,3.51,0,0,1,.37-.23A2.17,2.17,0,0,1,65,31.1a1.68,1.68,0,0,1,.5-.07,1.66,1.66,0,0,1,.45,0,.85.85,0,0,1,.17,0l.14,0a.25.25,0,0,1,.11.05c.13.08.2.2.16.26a.23.23,0,0,1-.26,0Z"/>
          <path d="M46.61,50.62a2.19,2.19,0,0,0,.1.64,2.62,2.62,0,0,0,.79,1.17,3.37,3.37,0,0,0,1.3.67,3.54,3.54,0,0,0,.49.1l.19,0h-.19a2.47,2.47,0,0,1-.51,0,3.71,3.71,0,0,1-.7-.17,3.57,3.57,0,0,1-.74-.4,3,3,0,0,1-.59-.6,2.88,2.88,0,0,1-.34-.68,2.71,2.71,0,0,1-.11-.52,1.78,1.78,0,0,0,0-.2c0-.22.1-.41.17-.42s.13.16.14.35A.13.13,0,0,0,46.61,50.62Z"/>
          <path d="M49,49.76a1.47,1.47,0,0,0-.14.48,2.79,2.79,0,0,0,.1,1.15,3.61,3.61,0,0,0,.52,1.06,2.94,2.94,0,0,0,.37.42h0a2.2,2.2,0,0,1-.44-.35,3.14,3.14,0,0,1-.69-1.05,2.67,2.67,0,0,1-.18-1.27,1.69,1.69,0,0,1,.18-.58c.08-.17.25-.26.31-.23s.05.18,0,.32Z"/>
          <path d="M51.31,50.09a.86.86,0,0,0-.07.12l-.12.32a.86.86,0,0,0-.06.23L51,51a3.63,3.63,0,0,0,0,.58c0,.1,0,.2,0,.3a2.33,2.33,0,0,1,.05.28,2.45,2.45,0,0,0,.16.48,2.33,2.33,0,0,0,.18.33l.08.12h0l-.1-.11a1.58,1.58,0,0,1-.25-.29,2.15,2.15,0,0,1-.24-.48l-.1-.3c0-.1,0-.21,0-.31a3.43,3.43,0,0,1,0-.64c0-.1,0-.19,0-.28a2,2,0,0,1,.06-.26l.15-.37.07-.13c.1-.15.23-.23.29-.2s.07.17,0,.31Z"/>
          <path d="M53.59,50.52l-.07.09c0,.06-.09.16-.16.26s-.1.26-.17.4a2,2,0,0,0,0,.24.73.73,0,0,0,0,.25l0,.26,0,.25a1.8,1.8,0,0,0,.11.43,2,2,0,0,0,.14.29l.06.12h0l-.09-.1a1.7,1.7,0,0,1-.2-.26,1.78,1.78,0,0,1-.2-.44c0-.09,0-.18-.07-.27s0-.19,0-.29a1.32,1.32,0,0,1,0-.28,1.26,1.26,0,0,1,0-.28,2.22,2.22,0,0,1,.17-.46c.08-.13.13-.24.18-.3l.09-.1c.1-.12.23-.17.29-.13s0,.17,0,.29Z"/>
          <path d="M56,51.29s-.18.09-.43.25a2.92,2.92,0,0,0-.81.74,1.62,1.62,0,0,0-.25.51,1.52,1.52,0,0,0,0,.51,1.7,1.7,0,0,0,.09.36,1.31,1.31,0,0,1,0,.14h0l-.07-.13a2,2,0,0,1-.16-.35,1.66,1.66,0,0,1,0-.56,1.45,1.45,0,0,1,.22-.62,2.66,2.66,0,0,1,.84-.86,4.11,4.11,0,0,1,.48-.27c.15-.07.31-.06.35,0s0,.18-.17.26Z"/>
          <path d="M58,49.91a2.81,2.81,0,0,0-.22.55,3.14,3.14,0,0,0-.12,1.3,1.81,1.81,0,0,0,.2.66,1.78,1.78,0,0,0,.17.27,2.19,2.19,0,0,0,.2.22,2,2,0,0,0,.38.24l.15.07h0l-.16,0a1.73,1.73,0,0,1-.43-.18,2.12,2.12,0,0,1-.24-.2,1.64,1.64,0,0,1-.23-.28,1.87,1.87,0,0,1-.29-.71,3.05,3.05,0,0,1,.06-1.43,2.47,2.47,0,0,1,.26-.61c.09-.18.27-.28.33-.25s0,.19,0,.35Z"/>
          <path d="M60.41,49.67a4.76,4.76,0,0,0-.29.51,5.13,5.13,0,0,0-.43,1.19,2.13,2.13,0,0,0,0,.66,1.28,1.28,0,0,0,.18.55,1.57,1.57,0,0,0,.15.19.5.5,0,0,0,.14.12l.13.1h0l-.15-.08a.35.35,0,0,1-.16-.1.75.75,0,0,1-.19-.17,1.33,1.33,0,0,1-.28-.57,2,2,0,0,1,0-.74,4.06,4.06,0,0,1,.4-1.3,4.23,4.23,0,0,1,.3-.53c.11-.16.27-.25.33-.22s.05.18,0,.34Z"/>
          <path d="M62,50.92a2.24,2.24,0,0,0-.33.47,3.25,3.25,0,0,0-.42,1.21,2.6,2.6,0,0,0,0,.68,2,2,0,0,0,.14.59,1.59,1.59,0,0,0,.22.38l.1.13h0l-.13-.11a1.63,1.63,0,0,1-.28-.35,2.16,2.16,0,0,1-.24-.61,2.59,2.59,0,0,1,0-.74,3.25,3.25,0,0,1,.39-1.34,2.35,2.35,0,0,1,.38-.52c.13-.15.32-.21.37-.16s0,.19-.11.32Z"/>
          <path d="M63.75,52.22a2.35,2.35,0,0,0-.4.26,3.63,3.63,0,0,0-.73.77,2.22,2.22,0,0,0-.41,1,.69.69,0,0,0,0,.2.85.85,0,0,0,0,.16l0,.14h0l0-.14a1.55,1.55,0,0,1,0-.15c0-.07,0-.14,0-.22a2.14,2.14,0,0,1,.29-1.11,3.2,3.2,0,0,1,.76-.88,2.51,2.51,0,0,1,.44-.29c.15-.08.32-.07.35,0s0,.17-.16.25Z"/>
          <path d="M65.05,54.5a2.09,2.09,0,0,0-.59-.11,2.86,2.86,0,0,0-1.32.23,2.65,2.65,0,0,0-1.07.83,1.91,1.91,0,0,0-.14.21,1.8,1.8,0,0,0-.1.18,1.37,1.37,0,0,0-.07.16h0a35.71,35.71,0,0,1,.11-.37,1.79,1.79,0,0,1,.12-.24,2.14,2.14,0,0,1,.41-.54,2.28,2.28,0,0,1,.63-.46,2.66,2.66,0,0,1,1.44-.31,2.39,2.39,0,0,1,.68.12c.2.07.33.22.32.28s-.18.08-.36,0Z"/>
          <path d="M65.08,57s-.22-.08-.55-.17a4.4,4.4,0,0,0-1.22-.16,1.64,1.64,0,0,0-.63.12,1.05,1.05,0,0,0-.26.13,1.29,1.29,0,0,0-.21.17,1.6,1.6,0,0,0-.26.33l-.08.14h0l.06-.15a1.44,1.44,0,0,1,.2-.39,1.94,1.94,0,0,1,.2-.21,1.31,1.31,0,0,1,.27-.19,2,2,0,0,1,.69-.21,3.6,3.6,0,0,1,1.32.12,4.84,4.84,0,0,1,.57.18c.17.06.3.18.29.26s-.17.09-.34,0Z"/>
          <path d="M28.64,25.49a1.81,1.81,0,0,0,.2.21c.13.12.32.28.52.43s.41.32.55.45l.23.23h0l-.29-.14-.63-.33a3.15,3.15,0,0,1-.6-.41l-.17-.18-.06-.07a.19.19,0,0,1,0-.25.22.22,0,0,1,.23,0Z"/>
          <path d="M29.52,25l0,.07.08.19a2.49,2.49,0,0,0,.33.53,4.94,4.94,0,0,0,.65.7h0a2.65,2.65,0,0,1-.84-.53,2.1,2.1,0,0,1-.43-.56,1,1,0,0,0-.09-.22.66.66,0,0,0,0-.09.19.19,0,0,1,.09-.22.18.18,0,0,1,.2.11Z"/>
          <path d="M35.35,24.36a2.83,2.83,0,0,1-.32,1,1.69,1.69,0,0,1-.21.31,1.6,1.6,0,0,1-.24.22,1.16,1.16,0,0,1-.2.12l-.07,0h0l.06-.06a1.31,1.31,0,0,0,.14-.16,1.61,1.61,0,0,0,.15-.26,1.46,1.46,0,0,0,.14-.31,6.8,6.8,0,0,0,.25-.91.19.19,0,0,1,.17-.15c.08,0,.14.09.14.18Z"/>
          <path d="M36,24.78s-.1.12-.27.29a2.7,2.7,0,0,1-.3.27,2.54,2.54,0,0,1-.36.29c-.14.09-.27.17-.39.26a4,4,0,0,1-.36.18l-.36.17h0l.3-.25c.09-.08.2-.15.31-.26l.34-.3a3.14,3.14,0,0,0,.32-.31l.28-.27.26-.28c.08-.08.2-.12.26-.08s.06.15,0,.26Z"/>
          <path d="M37.08,23.93a.76.76,0,0,0,0,.28.57.57,0,0,0,0,.13.78.78,0,0,1,0,.16c0,.1.06.22.11.32a1.54,1.54,0,0,0,.17.31,1.34,1.34,0,0,0,.19.26,1.93,1.93,0,0,0,.16.15l.07.06h0l-.08,0a1.48,1.48,0,0,1-.22-.11,2,2,0,0,1-.27-.21,1.5,1.5,0,0,1-.24-.31,1.81,1.81,0,0,1-.18-.37l0-.18a.52.52,0,0,1,0-.17.92.92,0,0,1,0-.36c0-.11.12-.18.19-.15a.21.21,0,0,1,.12.2Z"/>
          <path d="M37.62,24.08a1.38,1.38,0,0,0,0,.2,1.57,1.57,0,0,0,0,.43c0,.08,0,.16.07.23l.1.2.13.18h0l-.2-.12a.86.86,0,0,1-.18-.16,1.07,1.07,0,0,1-.16-.25,1.2,1.2,0,0,1-.09-.54,1.05,1.05,0,0,1,0-.24.15.15,0,0,1,.18-.1.17.17,0,0,1,.13.15Z"/>
          <path d="M42.17,25.51s-.05.09-.11.22-.1.14-.15.21a2,2,0,0,1-.2.21l-.23.17a1,1,0,0,1-.22.12l-.22.09h0l.16-.18a1.33,1.33,0,0,0,.16-.17l.16-.2c.06-.07.1-.15.15-.22a1.25,1.25,0,0,0,.11-.18l.1-.2a.18.18,0,0,1,.19-.06.13.13,0,0,1,.1.17Z"/>
          <path d="M42.51,25.85a.28.28,0,0,1,0,.07l-.13.15a1.41,1.41,0,0,1-.47.33,1.9,1.9,0,0,1-.54.16h-.25l.22-.11a3.93,3.93,0,0,0,.44-.28,3.28,3.28,0,0,0,.37-.32c.09-.1.14-.17.13-.17a.19.19,0,0,1,.2-.05.14.14,0,0,1,.08.19Z"/>
          <path d="M26.22,30l.13.26a2.36,2.36,0,0,0,.15.25c.07.08.11.2.2.27l.24.25a3,3,0,0,0,.25.18l.25.18h0l-.3-.09a2.34,2.34,0,0,1-.3-.12l-.32-.22c-.11-.07-.17-.19-.26-.27a2,2,0,0,1-.19-.28l-.14-.28a.19.19,0,0,1,.05-.23.2.2,0,0,1,.22.07Z"/>
          <path d="M27,29.74v.06A1.49,1.49,0,0,0,27,30a2,2,0,0,0,.18.49,2.25,2.25,0,0,0,.48.65h0a1.28,1.28,0,0,1-.24-.11,1.67,1.67,0,0,1-.46-.4,1.54,1.54,0,0,1-.3-.85.17.17,0,0,1,.15-.17.18.18,0,0,1,.16.13Z"/>
          <path d="M33.94,29.3a.7.7,0,0,1,0,.11c0,.07.08.16.14.26s.11.2.16.27l.08.13h0L34.21,30a1,1,0,0,1-.29-.18,1.08,1.08,0,0,1-.22-.28c0-.09-.06-.15-.06-.15s0-.11.11-.14a.25.25,0,0,1,.18,0Z"/>
          <path d="M34.32,29.16a.41.41,0,0,1,0,.13s0,.08,0,.13,0,.11,0,.16a1.63,1.63,0,0,0,0,.33c0,.09,0,.16,0,.16h0L34.24,30a.74.74,0,0,1-.21-.31.71.71,0,0,1,0-.21.37.37,0,0,1,0-.18.92.92,0,0,1,.05-.18c0-.06.09-.08.16-.05s.13.08.13.13Z"/>
          <path d="M38.36,29.94a1.8,1.8,0,0,1-.12.25,1.27,1.27,0,0,1-.42.41,1.06,1.06,0,0,1-.55.17,1.27,1.27,0,0,1-.25,0h0l.23-.08a1.42,1.42,0,0,0,.42-.27,1.69,1.69,0,0,0,.4-.57.17.17,0,0,1,.18-.09.14.14,0,0,1,.11.18Z"/>
          <path d="M38.76,30.56l-.22.12a3,3,0,0,1-.53.22,1.75,1.75,0,0,1-.32,0,.64.64,0,0,1-.28,0,.45.45,0,0,1-.17-.08l-.06,0h.07a.44.44,0,0,0,.17,0,.69.69,0,0,0,.24,0,1.39,1.39,0,0,0,.26-.1l.47-.26a1.68,1.68,0,0,1,.23-.12.15.15,0,0,1,.2.06.16.16,0,0,1,0,.2Z"/>
          <path d="M39.12,32.07a.55.55,0,0,0,.05.14,1.07,1.07,0,0,0,.19.28,1.69,1.69,0,0,0,.43.35H39.6a1,1,0,0,1-.41-.15.86.86,0,0,1-.3-.34,1,1,0,0,1-.08-.21.13.13,0,0,1,.12-.14.19.19,0,0,1,.18.06Z"/>
          <path d="M38.44,32.83s.06.06.16.14a2.28,2.28,0,0,0,.49.22,6.08,6.08,0,0,0,.82.18h0a2.29,2.29,0,0,1-.87.07,1.57,1.57,0,0,1-.61-.2A1,1,0,0,1,38.2,33a.15.15,0,0,1,0-.22.2.2,0,0,1,.21,0Z"/>
          <path d="M44.17,32.11s0,.08-.06.2a1.18,1.18,0,0,1-.1.19.9.9,0,0,1-.15.19l-.19.16a1.07,1.07,0,0,1-.19.09l-.19.06h0l.13-.14a.61.61,0,0,0,.12-.15l.12-.18c0-.05.05-.12.09-.18s.06-.11.07-.16l0-.16A.16.16,0,0,1,44,32a.13.13,0,0,1,.14.13Z"/>
          <path d="M44.5,32.75l0,.07-.1.14a1.12,1.12,0,0,1-.44.31,1.18,1.18,0,0,1-.5.09l-.22,0h0l.21-.07a2.3,2.3,0,0,0,.4-.22,1.37,1.37,0,0,0,.3-.28c.07-.09.11-.15.1-.15a.17.17,0,0,1,.19,0,.14.14,0,0,1,.1.17Z"/>
          <path d="M44.43,29l.06.16a2.46,2.46,0,0,0,.18.37,4.07,4.07,0,0,0,.25.35l.14.16h0a1.09,1.09,0,0,1-.2-.08,1.41,1.41,0,0,1-.38-.27,1.33,1.33,0,0,1-.28-.4.79.79,0,0,1-.07-.22.14.14,0,0,1,.12-.16.19.19,0,0,1,.18.07Z"/>
          <path d="M45.19,28.66a.28.28,0,0,1,0,.05s0,.07,0,.13a1.09,1.09,0,0,0,.12.41,2.5,2.5,0,0,0,.25.4l.15.18h0l-.21-.11a1.37,1.37,0,0,1-.41-.34,1,1,0,0,1-.22-.51,1.11,1.11,0,0,1,0-.26.16.16,0,0,1,.17-.12.21.21,0,0,1,.14.15Z"/>
          <path d="M49.07,29.6a1.28,1.28,0,0,1-.14.24,1.39,1.39,0,0,1-.47.42,1.17,1.17,0,0,1-.31.12,1,1,0,0,1-.29,0,1.75,1.75,0,0,1-.26,0h0l.25-.05a1.54,1.54,0,0,0,.24-.1,1.14,1.14,0,0,0,.23-.15,1.76,1.76,0,0,0,.35-.39l.13-.21a.17.17,0,0,1,.19-.07.16.16,0,0,1,.09.19Z"/>
          <path d="M49.09,30.3l-.06.06a1.23,1.23,0,0,1-.16.15,1.79,1.79,0,0,1-.57.29,1.06,1.06,0,0,1-.34.06.78.78,0,0,1-.31,0c-.08,0-.14-.06-.19-.08l-.06,0h.07a.6.6,0,0,0,.2,0,.91.91,0,0,0,.26-.05,1.53,1.53,0,0,0,.27-.11,3.48,3.48,0,0,0,.47-.31l.14-.12a.17.17,0,0,0,0-.05.18.18,0,0,1,.22,0,.16.16,0,0,1,0,.22Z"/>
          <path d="M45.27,33.34a3.07,3.07,0,0,0,.49.58,1.73,1.73,0,0,0,.21.17,1.27,1.27,0,0,0,.22.13c.06,0,.13,0,.17.05l.07,0h-.07a.84.84,0,0,1-.19,0,1.77,1.77,0,0,1-.28-.06,1.28,1.28,0,0,1-.29-.14,2,2,0,0,1-.45-.39L45,33.5a.17.17,0,0,1,0-.21.18.18,0,0,1,.21,0Z"/>
          <path d="M45.17,34.15l.12.1a2.75,2.75,0,0,0,.34.16,4.58,4.58,0,0,0,.6.16h0a1.45,1.45,0,0,1-.65.09,1,1,0,0,1-.45-.14.65.65,0,0,1-.18-.15.13.13,0,0,1,0-.19.2.2,0,0,1,.19,0Z"/>
          <path d="M49.56,33s0,.09-.06.22a1.06,1.06,0,0,1-.12.2.78.78,0,0,1-.15.22l-.19.17a.71.71,0,0,1-.2.12l-.2.08h0l.14-.16a1.12,1.12,0,0,0,.13-.16,2,2,0,0,1,.11-.2,1,1,0,0,0,.1-.21,1.42,1.42,0,0,0,.08-.18l.06-.18a.18.18,0,0,1,.18-.08.13.13,0,0,1,.12.14Z"/>
          <path d="M49.9,33.57l-.14.15a3.17,3.17,0,0,1-.37.31l-.23.14a.7.7,0,0,1-.22.07l-.22,0h0l.17-.14a1,1,0,0,0,.17-.13l.16-.18.31-.34.16-.16a.15.15,0,0,1,.19,0,.19.19,0,0,1,0,.2Z"/>
          <g>
            <path class="cls-13" d="M27.1,65.55a8.26,8.26,0,0,0-2.52-.69,7.61,7.61,0,0,1-3.21-1.78,5,5,0,0,1-1.46-3.45,7.91,7.91,0,0,1,.47-3.5.14.14,0,0,0-.2-.18c-2.16,1.65-1.73,5.23-.57,7.31s5.16,4.16,7.47,3A.4.4,0,0,0,27.1,65.55Z"/>
            <path class="cls-13" d="M28.72,47.07a11.31,11.31,0,0,0-2.64-2.38c-2.08-1.69-.27-3.41.49-5.22.05-.13-.1-.23-.21-.18a4.27,4.27,0,0,0-2.57,4.48c.27,1.81,2.95,3.5,4.64,3.69C28.64,47.49,28.86,47.28,28.72,47.07Z"/>
            <path class="cls-13" d="M41.9,53.64c-1.63-1.72-3.67-1.79-5.74-.94-2.95,1.21-3.52,6.68-7.68,4.61a.21.21,0,0,0-.22.35c1.8,1.33,3.62,1,5.29-.41,1.12-.93,1.29-2.41,2.58-3.24,2-1.3,3.51-.18,5.52.08A.27.27,0,0,0,41.9,53.64Z"/>
            <path class="cls-13" d="M41.53,63.1c-1.66.8-2.73,1.88-4.73,1.76a4.92,4.92,0,0,1-3.86-3c-.09-.34-.56-.21-.58.1a4.59,4.59,0,0,0,3.18,4.17c2.46.73,5.38,0,6.59-2.42A.46.46,0,0,0,41.53,63.1Z"/>
            <path class="cls-13" d="M64.08,63.29a.46.46,0,0,0-.73-.29c-1.35,1.23-2.18,2.76-3.8,3.79a11.81,11.81,0,0,1-5.15,1.38c-.11,0-.11.15,0,.21,1.39,1.21,4,.58,5.48-.16S64.56,65.3,64.08,63.29Z"/>
          </g>
        </g>
      </g>
    </g>
  </g>
</svg>
