<svg xmlns="http://www.w3.org/2000/svg" width="105" height="95" viewBox="0 0 105 95">
  <defs>
    <style>
      .cls-1 {
        isolation: isolate;
      }

      .cls-2 {
        fill: #d0d2f5;
      }

      .cls-3 {
        fill: #aca0fa;
      }

      .cls-4, .cls-6 {
        fill: #3c37a1;
      }

      .cls-13, .cls-5 {
        fill: #f04646;
      }

      .cls-5, .cls-8 {
        opacity: 0.1;
      }

      .cls-5, .cls-9 {
        mix-blend-mode: multiply;
      }

      .cls-6, .cls-8 {
        mix-blend-mode: screen;
      }

      .cls-7, .cls-8 {
        fill: #5057b8;
      }

      .cls-10, .cls-9 {
        fill: #f0d907;
      }

      .cls-11 {
        fill: #fff;
      }

      .cls-12 {
        fill: #e8e8e8;
      }

      .cls-14 {
        fill: #c40e0e;
      }

      .cls-15 {
        fill: #7a81de;
      }
    </style>
  </defs>
  <g class="cls-1">
    <g id="Ñëîé_1" data-name="Ñëîé 1">
      <g>
        <g>
          <path class="cls-2" d="M1.71,32.28c0-.05,0-.05,0,0A22.65,22.65,0,0,0,4,35.84a46.2,46.2,0,0,0,3.76,3.24c-2.13.11-4.47.55-6.6.18a25.73,25.73,0,0,0,9.86,5.28c-2.74.57-5.83,2-8.69,1.3C6,48,9.61,48,13.63,48c-3.34,1.46-6.57,3.28-10.12,4.19,3.06.13,6.3,1.25,9.23,0a11.88,11.88,0,0,0-3.2,1.89,49.25,49.25,0,0,1-4.46,2.41,26,26,0,0,0,14.65-2.08c5-2.3,11.9-6,14.61-11.09,1-1.94.24-4.28-1.94-4.62-2.45-.37-5.23,0-7.71-.06A51.38,51.38,0,0,1,9.51,36.3,29.3,29.3,0,0,1,1.71,32.28Z"/>
          <path class="cls-3" d="M8.79,40c-1,0-.77,1.49.19,1.49S9.75,40,8.79,40Z"/>
          <path class="cls-3" d="M12.84,38.65c-.79,0-.7,1.23.09,1.23S13.63,38.65,12.84,38.65Z"/>
          <path class="cls-3" d="M13.91,40.84a.84.84,0,0,0-1.15.68v0a.86.86,0,0,0,.74.93.84.84,0,0,0,.93-.74v0A.85.85,0,0,0,13.91,40.84Z"/>
          <path class="cls-3" d="M10.69,42.17c-.84,0-.72,1.3.12,1.3S11.53,42.17,10.69,42.17Z"/>
          <path class="cls-3" d="M16.38,45.43v0a.55.55,0,0,0,.13,1h-.06c.39.26.89-.15.86-.57A.6.6,0,0,0,16.38,45.43Z"/>
          <path class="cls-3" d="M20.53,41.23a.9.9,0,0,0-1,.79.88.88,0,0,0,.79,1,.88.88,0,1,0,.17-1.75Z"/>
          <path class="cls-3" d="M16.27,48.58c-.13.53-.26,1.07-.38,1.61a.65.65,0,0,0,.59,0l.05,0,0,0h0a1.19,1.19,0,0,0,.15-.09A.85.85,0,0,0,17,49.5.83.83,0,0,0,16.27,48.58Z"/>
          <path class="cls-3" d="M10.68,46c-.89,0-.75,1.38.14,1.38S11.57,46,10.68,46Z"/>
          <path class="cls-3" d="M5.87,39.81a.8.8,0,0,0-.88.68.78.78,0,0,0,.68.89.82.82,0,0,0,.89-.68A.79.79,0,0,0,5.87,39.81Z"/>
          <path class="cls-3" d="M6.58,35.68v0a.65.65,0,0,0-1.11.08l0,0a.66.66,0,1,0,1.14-.09Z"/>
          <path class="cls-3" d="M10.2,50.58a.75.75,0,0,0-1.34.34v0a.67.67,0,0,0,.54.78l.09,0A.76.76,0,0,0,10.2,50.58Z"/>
          <path class="cls-3" d="M13.66,49c-1.26,0-1.39,1.95-.13,1.95S14.92,49,13.66,49Z"/>
          <path class="cls-3" d="M16.85,50a1.16,1.16,0,0,0,.21-.56,1.1,1.1,0,0,0-.3-.77h0l-.06,0-.12-.11a.71.71,0,0,0-.15-.08l0,0a1,1,0,0,0-.28-.07h-.08a1.09,1.09,0,0,0-1.11,1,1.07,1.07,0,0,0,.74,1,1,1,0,0,0,.56,0,.71.71,0,0,0,.21-.08,1,1,0,0,0,.27-.18.73.73,0,0,0,.1-.13l.07-.07Z"/>
          <path class="cls-3" d="M14.21,52h-.08s-.05,0-.08,0l-.1,0h0a.65.65,0,0,0-.63.68.16.16,0,0,0,0,.07s0,0,0,.06a.62.62,0,0,0,.61.68h0l.09,0,.09,0h.08A.75.75,0,0,0,14.21,52Z"/>
          <path class="cls-3" d="M11.76,54.57l-.07,0c-.6.41.19,1.19.6.6l.05-.07C12.57,54.81,12.11,54.33,11.76,54.57Z"/>
          <path class="cls-3" d="M17,53.08a.77.77,0,0,0-.66.87.79.79,0,0,0,.86.66.77.77,0,0,0,.67-.86A.79.79,0,0,0,17,53.08Z"/>
          <path class="cls-3" d="M20.87,50.06h-.33c-.41,0-.43.64,0,.64h.33C21.26,50.7,21.29,50.06,20.87,50.06Z"/>
          <path class="cls-3" d="M18.32,51c-.41,0-.44.65,0,.65S18.74,51,18.32,51Z"/>
          <path class="cls-3" d="M19.24,46.1c-.82,0-.72,1.27.1,1.27S20.05,46.1,19.24,46.1Z"/>
          <path class="cls-3" d="M13.43,45.3a.37.37,0,0,0,0,.73A.37.37,0,0,0,13.43,45.3Z"/>
          <path class="cls-3" d="M7.1,46.17a.47.47,0,0,0,0,.94A.47.47,0,0,0,7.1,46.17Z"/>
        </g>
        <g>
          <path class="cls-2" d="M103.33,33.78c0-.05,0-.05,0,0a22.88,22.88,0,0,1-2.1,3.57,45.27,45.27,0,0,1-3.42,3.24c1.94.11,4.06.55,6,.18a22.69,22.69,0,0,1-9,5.28c2.49.57,5.31,2,7.91,1.3-3.28,2.16-6.6,2.17-10.26,2.19,3,1.45,6,3.27,9.21,4.18-2.78.13-5.73,1.25-8.39,0a10.55,10.55,0,0,1,2.9,1.89A44.2,44.2,0,0,0,100.27,58,21.74,21.74,0,0,1,86.94,56c-4.54-2.3-10.82-6-13.28-11.1-.93-1.94-.22-4.27,1.76-4.6,2.23-.38,4.76,0,7-.07A43,43,0,0,0,96.25,37.8,25.71,25.71,0,0,0,103.33,33.78Z"/>
          <path class="cls-3" d="M96.9,41.53c.88,0,.7,1.49-.17,1.49S96,41.53,96.9,41.53Z"/>
          <path class="cls-3" d="M93.21,40.15c.73,0,.64,1.23-.08,1.23S92.49,40.15,93.21,40.15Z"/>
          <path class="cls-3" d="M92.24,42.34a.68.68,0,0,1,.59,0,.8.8,0,0,1,.45.67v0a.84.84,0,0,1-.67.93.79.79,0,0,1-.85-.74v0A.88.88,0,0,1,92.24,42.34Z"/>
          <path class="cls-3" d="M95.17,43.67c.76,0,.65,1.3-.11,1.3S94.4,43.67,95.17,43.67Z"/>
          <path class="cls-3" d="M90,46.93v0a.57.57,0,0,1-.12,1h.06c-.36.26-.81-.15-.79-.57A.55.55,0,0,1,90,46.93Z"/>
          <path class="cls-3" d="M86.22,42.73a.84.84,0,0,1,.87.79c0,.44-.28,1-.71,1a.84.84,0,0,1-.88-.78C85.46,43.26,85.78,42.73,86.22,42.73Z"/>
          <path class="cls-3" d="M90.09,50.08c.12.53.23,1.07.35,1.61a.55.55,0,0,1-.54,0l0,0,0,0h0a1,1,0,0,1-.13-.09.84.84,0,0,1-.28-.55C89.39,50.59,89.68,50.08,90.09,50.08Z"/>
          <path class="cls-3" d="M95.18,47.54c.81,0,.68,1.38-.13,1.38S94.37,47.54,95.18,47.54Z"/>
          <path class="cls-3" d="M99.55,41.31a.76.76,0,0,1,.81.68c0,.39-.23.89-.62.89a.75.75,0,0,1-.81-.68C98.88,41.82,99.15,41.31,99.55,41.31Z"/>
          <path class="cls-3" d="M98.9,37.18l0,0a.57.57,0,0,1,1,.08.05.05,0,0,0,0,0,.67.67,0,0,1-.61.95A.68.68,0,0,1,98.9,37.18Z"/>
          <path class="cls-3" d="M95.62,52.08a.67.67,0,0,1,1.22.34.09.09,0,0,0,0,0,.68.68,0,0,1-.5.78l-.08,0C95.68,53.38,95.27,52.6,95.62,52.08Z"/>
          <path class="cls-3" d="M92.47,50.46c1.14,0,1.26,1.95.11,1.95S91.32,50.46,92.47,50.46Z"/>
          <path class="cls-3" d="M89.57,51.5a1,1,0,0,1-.19-.56,1.16,1.16,0,0,1,.26-.77h0l0,0,.11-.1a.51.51,0,0,1,.13-.09l0,0a.72.72,0,0,1,.25-.07h.07a1,1,0,0,1,1,1,1,1,0,0,1-.67,1,.81.81,0,0,1-.51,0,.6.6,0,0,1-.2-.08,1.77,1.77,0,0,1-.24-.17s-.05-.09-.08-.14a.46.46,0,0,1-.07-.07Z"/>
          <path class="cls-3" d="M92,53.45h.15l.09,0h0a.63.63,0,0,1,.57.68v.13a.61.61,0,0,1-.56.67H92C91.23,54.87,91.2,53.52,92,53.45Z"/>
          <path class="cls-3" d="M94.19,56.07l.07,0c.54.41-.17,1.19-.54.61l0-.08C93.45,56.31,93.88,55.83,94.19,56.07Z"/>
          <path class="cls-3" d="M89.46,54.58c.39,0,.65.49.61.87a.74.74,0,0,1-.79.66c-.39,0-.65-.49-.61-.86A.75.75,0,0,1,89.46,54.58Z"/>
          <path class="cls-3" d="M85.91,51.56h.3c.37,0,.39.64,0,.64h-.29C85.55,52.2,85.53,51.56,85.91,51.56Z"/>
          <path class="cls-3" d="M88.23,52.53c.38,0,.4.65,0,.65S87.85,52.53,88.23,52.53Z"/>
          <path class="cls-3" d="M87.39,47.6c.75,0,.65,1.27-.09,1.27S86.65,47.6,87.39,47.6Z"/>
          <path class="cls-3" d="M92.68,46.8c.42,0,.44.73,0,.73S92.25,46.8,92.68,46.8Z"/>
          <path class="cls-3" d="M98.44,47.67c.55,0,.53.94,0,.94S97.89,47.67,98.44,47.67Z"/>
        </g>
        <g>
          <path class="cls-4" d="M94.46,85.43a2.25,2.25,0,0,0-.14-.44,10.35,10.35,0,0,0-1.12-3.83c-1.59-3.26-4.35-4.49-7.19-6.58-.51-.38-1-.77-1.48-1.17a.87.87,0,0,0-.27-.23,23.9,23.9,0,0,1-6.36-8.33c-.17-.37-.32-.74-.46-1.1-.06-.13-.1-.27-.15-.4s-.15-.44-.22-.65l-.15-.51-.12-.5c0-.2-.1-.4-.14-.6a2.17,2.17,0,0,1,0-.25,14,14,0,0,1-.21-2.59v0c0-.31,0-.63,0-1s0-.63.08-1,.09-.69.15-1c0-.1-.12-.14-.17-.07-.18.26-.34.52-.49.78L76,56c-.14.25-.25.51-.36.76,0,0,0,.08,0,.12v0l-.14,0C66.78,53.94,57.94,58.1,53,65.52a8.3,8.3,0,0,0-1.54,4.34h0c-.34-.36-.66-.72-1-1.08l-.1-.11c-.35-.41-.69-.82-1-1.25,0,0-.06,0,0,0,.18.35.38.69.58,1l.22.35.44.63.27.39c.19.26.39.51.6.76q.54.68,1.14,1.32l.08.07c.33.36.68.71,1,1.06l.26.24.94.88.26.24,1.17,1c3.59,3.11,7.55,4.51,11.83,6.44a29.21,29.21,0,0,0,11.66,2.21c2.25,0,4.48.11,6.72.25,1.23.08,4.59,0,5.7,1.3a4.58,4.58,0,0,0,.35.83.81.81,0,0,0,1.22.13A1,1,0,0,0,94.46,85.43Z"/>
          <path class="cls-5" d="M93,85.53c-.61-1.27-3.72-3-8.24-3.51a39.16,39.16,0,0,1-9.31-2.91,25.71,25.71,0,0,1-8.28-5.74,17.12,17.12,0,0,1-4.31-7,5.7,5.7,0,0,0-4.38-4.29,7.23,7.23,0,0,0-2.58-.12A23,23,0,0,0,53,65.52a8.3,8.3,0,0,0-1.54,4.34h0c-.34-.36-.66-.72-1-1.08l-.1-.11c-.35-.41-.69-.82-1-1.25,0,0-.06,0,0,0,.18.35.38.69.58,1l.22.35.44.63.27.39c.19.26.39.51.6.76q.54.68,1.14,1.32l.08.07c.33.36.68.71,1,1.06l.26.24.94.88.26.24,1.17,1c3.59,3.11,7.55,4.51,11.83,6.44a29.21,29.21,0,0,0,11.66,2.21c2.25,0,4.48.11,6.72.25,1.23.08,4.59,0,5.7,1.3a4.58,4.58,0,0,0,.35.83.7.7,0,0,0,.76.33A3.45,3.45,0,0,0,93,85.53Z"/>
          <g>
            <path class="cls-4" d="M39,39a25.08,25.08,0,0,0-14.76,7.75,24.26,24.26,0,0,0-4.31,6.17c-.72,1.51-1.68,3.55-1.43,5.29v.06a.17.17,0,0,0,0,.14v0a.25.25,0,0,0,.47,0,.24.24,0,0,1,0-.08c8.27-14.6,15.18-14.9,19.68-15.89a1,1,0,0,0,.55-1.59h0l-.05-.09.3,0C40.55,40.38,40,38.81,39,39Z"/>
            <path class="cls-4" d="M25,59a5.15,5.15,0,0,0-5.62-3.7.25.25,0,0,0-.24-.11c-1.42.22-3.59,1.56-4,3-.22.83.27,2.07.39,2.89a5.59,5.59,0,0,0,1.11,2.8.87.87,0,0,0,1.47-.14,5.75,5.75,0,0,0,.31-1,1.67,1.67,0,0,0,.61.08,1.14,1.14,0,0,0,1.14-1,5.41,5.41,0,0,0,.23,1.06,1.59,1.59,0,0,0,2.52.94c1.06-.74.39-2.83.11-3.76a8,8,0,0,0-1.2-2.4,2.92,2.92,0,0,1,1.22,1.59l.11-.3.15,1a1,1,0,0,0,1.17,0l.17-.12A1,1,0,0,0,25,59Z"/>
          </g>
          <g>
            <path class="cls-4" d="M67.32,39a27.76,27.76,0,0,1,15.9,7.75,24.11,24.11,0,0,1,4.66,6.17c.77,1.51,1.8,3.55,1.53,5.29,0,0,0,0,0,.06a.29.29,0,0,1,0,.14s0,0,0,0c-.05.24-.42.22-.5,0l0-.08c-8.92-14.6-16.37-14.9-21.21-15.89a1,1,0,0,1-.6-1.59h0l.06-.09-.32,0C65.63,40.38,66.2,38.81,67.32,39Z"/>
            <path class="cls-4" d="M82.37,59c.43-2.28,3.65-4.21,6.06-3.7a.27.27,0,0,1,.26-.11c1.52.22,3.86,1.56,4.28,3,.24.83-.29,2.07-.42,2.89a5.37,5.37,0,0,1-1.2,2.8,1,1,0,0,1-1.58-.14,5.89,5.89,0,0,1-.34-1,1.87,1.87,0,0,1-.65.08,1.21,1.21,0,0,1-1.23-1,4.81,4.81,0,0,1-.25,1.06,1.75,1.75,0,0,1-2.71.94c-1.14-.74-.43-2.83-.12-3.76a7.75,7.75,0,0,1,1.29-2.4,3,3,0,0,0-1.31,1.59l-.12-.3c-.06.34-.11.69-.16,1a1.15,1.15,0,0,1-1.27,0l-.17-.12A.91.91,0,0,1,82.37,59Z"/>
          </g>
          <g>
            <path class="cls-4" d="M91.54,15.94a20.15,20.15,0,0,1,6.36,1.73c-1.68,2.88-5.76,2.81-8.61,3.54,2.63,0,4.59.72,5.94,2.82a9.5,9.5,0,0,0-4.59.36c2,1.52,5.89,2.84,5.3,6.28-2.72-.08-7-2.34-9.35,0a8.14,8.14,0,0,1,2.66,5c-1.85-.91-6.1-2.17-4.66,1.49-1.62,0-5.53-2.9-7-1.72-1,.85.6,4.41.45,5.74-1.44-.76-2.44-2.62-3.68-3.77-1.45-1.35-2.51-1.51-4.2-2.33-6.61-3.24-1.61-12.47,2.17-15.6C77.5,15.22,85.25,14.84,91.54,15.94Z"/>
            <path class="cls-6" d="M84.89,18.65a14.21,14.21,0,0,1,4.23,1.11c-1.12,1.86-3.84,1.82-5.73,2.29,2.09.17,3,.46,4,1.81a6.54,6.54,0,0,0-3,.23c1.34,1,3.91,1.83,3.52,4-1.81-.05-4.65-1.5-6.22,0a5.23,5.23,0,0,1,1.77,3.21c-1.23-.58-4-1.39-3.1,1-1.08,0-3.68-1.87-4.64-1.12-.7.55.4,2.85.3,3.7-1-.49-1.63-1.68-2.45-2.43A9.32,9.32,0,0,0,70.68,31c-4.4-2.08-1.08-8,1.43-10C75.54,18.19,80.7,17.94,84.89,18.65Z"/>
          </g>
          <g>
            <path class="cls-4" d="M16.08,15.22a21.14,21.14,0,0,0-6.47,1.72c1.72,2.89,5.86,2.82,8.75,3.55-2.67,0-4.66.71-6,2.82a9.72,9.72,0,0,1,4.67.36C15,25.19,11,26.51,11.61,30c2.77-.08,7.1-2.34,9.5,0a8.15,8.15,0,0,0-2.7,5c1.87-.91,6.19-2.16,4.74,1.5,1.64,0,5.61-2.91,7.08-1.73,1.07.86-.61,4.42-.45,5.75,1.47-.76,2.48-2.62,3.75-3.77,1.47-1.35,2.54-1.51,4.26-2.33,6.72-3.24,1.63-12.47-2.2-15.6C30.35,14.5,22.48,14.12,16.08,15.22Z"/>
            <path class="cls-6" d="M22.84,17.93A14.35,14.35,0,0,0,18.54,19c1.14,1.86,3.9,1.81,5.82,2.28-2.12.18-3.1.46-4,1.82a6.77,6.77,0,0,1,3.1.23c-1.36,1-4,1.83-3.58,4,1.84-.05,4.73-1.5,6.32,0a5.23,5.23,0,0,0-1.8,3.21c1.25-.58,4.12-1.39,3.15,1,1.1,0,3.74-1.88,4.72-1.12.71.55-.4,2.84-.3,3.7,1-.49,1.65-1.68,2.49-2.43a9.45,9.45,0,0,1,2.84-1.5c4.47-2.08,1.09-8-1.47-10C32.34,17.47,27.1,17.22,22.84,17.93Z"/>
          </g>
          <path class="cls-7" d="M30.94,71C23.33,57.6,37.56,23.87,45.83,17.25c3.41-2.73,15.84-3.2,20,1.37,8.38,9.29,19.42,45,13.12,52.37S36.94,81.55,30.94,71Z"/>
          <path class="cls-8" d="M37.28,71.15c-6.89-12.12,6-42.67,13.48-48.66,3.09-2.47,14.35-2.9,18.08,1.24a18.81,18.81,0,0,1,1.49,1.9,34.19,34.19,0,0,0-4.54-7c-4.12-4.57-16.55-4.1-20-1.37C37.56,23.87,23.33,57.6,30.94,71c3.78,6.65,19.34,7.87,31.91,6C52.2,78,40.38,76.6,37.28,71.15Z"/>
          <g>
            <path class="cls-9" d="M60.38,37.34a6.56,6.56,0,0,1-6.56-6.56,5.77,5.77,0,0,1,.1-1,6.55,6.55,0,1,1,6.46,7.6Z"/>
            <path class="cls-10" d="M60.38,37.34a6.56,6.56,0,0,1-6.56-6.56,5.77,5.77,0,0,1,.1-1,6.55,6.55,0,1,1,6.46,7.6Z"/>
            <g>
              <g>
                <path class="cls-11" d="M55,30.78a5.42,5.42,0,1,0,5.42-5.41A5.41,5.41,0,0,0,55,30.78Z"/>
                <path class="cls-12" d="M55.16,29.4a5.39,5.39,0,0,0,10.6,1.06c0,.11,0,.21,0,.32a5.42,5.42,0,1,1-10.83,0A5.23,5.23,0,0,1,55.16,29.4Z"/>
              </g>
              <g>
                <path d="M56.16,29.4a2.7,2.7,0,1,0,2.7-2.7A2.7,2.7,0,0,0,56.16,29.4Z"/>
                <path class="cls-11" d="M58.86,28.68a1.08,1.08,0,1,0,1.08-1.08A1.08,1.08,0,0,0,58.86,28.68Z"/>
              </g>
            </g>
          </g>
          <g>
            <path class="cls-9" d="M48.15,35.92a5.15,5.15,0,0,0,5.14-5.14,4.92,4.92,0,0,0-.08-.81,5.13,5.13,0,1,0-5.06,6Z"/>
            <path class="cls-10" d="M48.15,35.92a5.15,5.15,0,0,0,5.14-5.14,4.92,4.92,0,0,0-.08-.81,5.13,5.13,0,1,0-5.06,6Z"/>
            <g>
              <g>
                <path class="cls-11" d="M52.39,30.78a4.24,4.24,0,1,1-4.24-4.24A4.24,4.24,0,0,1,52.39,30.78Z"/>
                <path class="cls-12" d="M52.23,29.7a4.22,4.22,0,0,1-8.29.83,2.13,2.13,0,0,0,0,.25,4.24,4.24,0,1,0,8.48,0A3.92,3.92,0,0,0,52.23,29.7Z"/>
              </g>
              <g>
                <path d="M51.45,29.7a2.12,2.12,0,1,1-2.11-2.11A2.11,2.11,0,0,1,51.45,29.7Z"/>
                <path class="cls-11" d="M49.34,29.14a.85.85,0,1,1-.85-.84A.84.84,0,0,1,49.34,29.14Z"/>
              </g>
            </g>
          </g>
          <path class="cls-13" d="M75.07,44.39c0,6.22-9.14,11.26-20.42,11.26s-20.41-5-20.41-11.26S48.34,50.91,60.93,41C69.77,34,75.07,38.18,75.07,44.39Z"/>
          <path class="cls-14" d="M68.53,52.64a5.41,5.41,0,0,0-1.88-1.22c-1.34-.57-2.57-1.23-3.89-1.85-1.51-.71-2.48-.39-3.9.33a4.41,4.41,0,0,1-4.46.24c-1.51-.77-2.65-2.24-4.39-2.54a5.49,5.49,0,0,0-4.93,2,6.55,6.55,0,0,0-1.47,4.27,33.31,33.31,0,0,0,11,1.79A31,31,0,0,0,68.53,52.64Z"/>
          <g>
            <path class="cls-11" d="M40.55,43.51a9.14,9.14,0,0,0,2.47,5,8.44,8.44,0,0,0,2.45-4A50.28,50.28,0,0,1,40.55,43.51Z"/>
            <path class="cls-11" d="M51.45,52.24C50.39,48.89,50,49.19,50,49.19l-1,2.54a9.76,9.76,0,0,0-.6,3.37,35.35,35.35,0,0,0,4,.47A26.56,26.56,0,0,0,51.45,52.24Z"/>
            <path class="cls-11" d="M57.93,48.76A21.07,21.07,0,0,0,59,42.3a17.25,17.25,0,0,1-5,2.07C55.15,46.57,57.59,49.8,57.93,48.76Z"/>
            <path class="cls-11" d="M62.35,39.91a8.7,8.7,0,0,0,.4,2A26.53,26.53,0,0,0,64.2,46.1l1.62,4s2.63.47,2.68-4a65.9,65.9,0,0,1,1.21-8.75C67.74,37.18,65.26,37.91,62.35,39.91Z"/>
          </g>
          <path class="cls-15" d="M54.65,54.52c-10.88,0-19.77-4.69-20.37-10.61a3.58,3.58,0,0,0,0,.48c0,6.22,9.14,11.26,20.41,11.26s20.42-5,20.42-11.26c0-.22,0-.43,0-.65C74.59,49.74,65.64,54.52,54.65,54.52Z"/>
          <path class="cls-10" d="M53.46,38.35a.25.25,0,0,0,0,.49A.25.25,0,0,0,53.46,38.35Z"/>
          <path class="cls-10" d="M50.65,37.55a.38.38,0,0,0,0,.76A.38.38,0,0,0,50.65,37.55Z"/>
          <path class="cls-10" d="M48.79,40l0,0,0-.06a.69.69,0,0,0-.36-.18.67.67,0,0,0-.74,1,.6.6,0,0,0,.66.3.53.53,0,0,0,.47-.21l0,0h0v0l0,0A.53.53,0,0,0,48.79,40Z"/>
          <path class="cls-10" d="M52.3,40.53a.71.71,0,0,0,0,1.42A.71.71,0,0,0,52.3,40.53Z"/>
          <path class="cls-10" d="M55.93,39.2h0a.57.57,0,0,0,0,1.08h0a.57.57,0,1,0,0-1.1Z"/>
          <path class="cls-10" d="M52.63,36a.6.6,0,0,0,0,1.2A.6.6,0,0,0,52.63,36Z"/>
          <path class="cls-10" d="M46.52,36.91s0,.06,0,.06A0,0,0,1,0,46.52,36.91Z"/>
          <path class="cls-10" d="M46.52,36.33a.61.61,0,0,0,0,1.22A.61.61,0,0,0,46.52,36.33Z"/>
          <path class="cls-10" d="M45.08,39.43h-.2a.16.16,0,0,0,0,.31h.2a.15.15,0,0,0,.16-.16A.14.14,0,0,0,45.08,39.43Z"/>
          <path class="cls-10" d="M42.56,36.72a.22.22,0,0,0,0,.44A.22.22,0,0,0,42.56,36.72Z"/>
          <path class="cls-10" d="M43.71,41a.26.26,0,0,0,0,.51A.26.26,0,0,0,43.71,41Z"/>
          <path class="cls-10" d="M47.81,41.81c-.08-.11-.17-.11-.3-.11a.2.2,0,0,0,0,.39.27.27,0,0,0,.29-.11A.17.17,0,0,0,47.81,41.81Z"/>
          <path class="cls-10" d="M60.07,38.49a2.24,2.24,0,0,0-.52.16.71.71,0,0,0,0,1.21,1.27,1.27,0,0,0,.32.13.78.78,0,0,0,.93-.54C60.93,39,60.57,38.42,60.07,38.49Z"/>
          <path class="cls-10" d="M56.27,37a.24.24,0,0,0,0,.48A.24.24,0,0,0,56.27,37Z"/>
          <path class="cls-10" d="M58.92,40.18a.23.23,0,0,0,0,.46A.23.23,0,0,0,58.92,40.18Z"/>
          <path class="cls-10" d="M53.3,24.9a.48.48,0,0,0,0,1A.48.48,0,0,0,53.3,24.9Z"/>
          <path class="cls-10" d="M51,22.71a.52.52,0,0,0,0,1A.52.52,0,0,0,51,22.71Z"/>
          <path class="cls-10" d="M54.86,22.3l-.14-.06a.33.33,0,0,0-.41.33c0,.19.22.4.42.31l.13-.05A.28.28,0,0,0,54.86,22.3Z"/>
          <path class="cls-10" d="M52.83,23s0,0,0-.07a.2.2,0,0,0-.16-.07.23.23,0,0,0-.23.23.23.23,0,0,0,.17.22.23.23,0,0,0,.18,0s.1-.13.07-.11A.1.1,0,0,0,52.83,23Z"/>
          <path class="cls-10" d="M51.26,24.85a.34.34,0,0,0-.2.13.1.1,0,0,0,0,.13.34.34,0,0,0,.2.13C51.59,25.37,51.59,24.71,51.26,24.85Z"/>
          <path class="cls-10" d="M46.72,23.54c-.27.47.54.8.67.28A.37.37,0,0,0,46.72,23.54Z"/>
          <path class="cls-10" d="M49.33,21a.13.13,0,0,0,0,.26A.13.13,0,0,0,49.33,21Z"/>
          <path class="cls-10" d="M53.77,19.83a.3.3,0,0,0-.31-.13.11.11,0,0,0-.07,0h0a.18.18,0,0,0-.1.19.17.17,0,0,0,.11.19h0l.07,0a.3.3,0,0,0,.31-.13A.15.15,0,0,0,53.77,19.83Z"/>
          <path class="cls-10" d="M55.7,23.89a.35.35,0,0,0-.38.5.34.34,0,0,0,.53.06A.34.34,0,0,0,55.7,23.89Z"/>
          <path class="cls-10" d="M58.59,22.33a.23.23,0,0,0,0,.46A.23.23,0,0,0,58.59,22.33Z"/>
          <path class="cls-10" d="M56.1,20a.3.3,0,1,0,0,.52A.28.28,0,0,0,56.1,20Z"/>
          <path class="cls-10" d="M57.26,20.48a.93.93,0,1,0,.93.92A.93.93,0,0,0,57.26,20.48Z"/>
          <path class="cls-10" d="M60.73,22.07a.5.5,0,0,0,0,1A.5.5,0,0,0,60.73,22.07Z"/>
          <path class="cls-10" d="M63.71,23.2a.52.52,0,0,0,0,1A.52.52,0,0,0,63.71,23.2Z"/>
          <path class="cls-10" d="M49.33,20a.54.54,0,0,0,0,1.08A.54.54,0,0,0,49.33,20Z"/>
          <path class="cls-10" d="M49,22.48a.36.36,0,0,0-.44-.05l0,0a.33.33,0,0,0-.06.51.28.28,0,0,0,.1.09l.06,0a.3.3,0,0,0,.52-.12A.5.5,0,0,0,49,22.48Z"/>
          <path class="cls-10" d="M63.71,37.51a.42.42,0,0,0,0,.84A.42.42,0,0,0,63.71,37.51Z"/>
          <path class="cls-10" d="M66.75,35.27a.36.36,0,0,0,.15.71A.36.36,0,1,0,66.75,35.27Z"/>
          <path class="cls-10" d="M68.33,32.06a.42.42,0,0,0,0,.84A.42.42,0,0,0,68.33,32.06Z"/>
          <path class="cls-10" d="M65.65,36.49l-.13-.1c-.16-.12-.38,0-.38.22a.26.26,0,0,0,.39.22l.12-.1A.17.17,0,0,0,65.65,36.49Z"/>
          <path class="cls-10" d="M69,33.5a1,1,0,0,0,0,1.92A1,1,0,0,0,69,33.5Z"/>
          <path class="cls-10" d="M68.5,29.48a.36.36,0,0,0,0,.71A.36.36,0,0,0,68.5,29.48Z"/>
          <path class="cls-10" d="M67,27.31h0a.44.44,0,0,0-.45-.42.49.49,0,0,0-.46.61.51.51,0,0,0,.86.32A.42.42,0,0,0,67,27.31Z"/>
          <path class="cls-10" d="M41.4,28.62a.56.56,0,0,0,0,1.11A.56.56,0,0,0,41.4,28.62Z"/>
          <path class="cls-10" d="M40.07,32.61a.86.86,0,0,0,0,1.72A.86.86,0,0,0,40.07,32.61Z"/>
          <path class="cls-10" d="M42.39,34.28a.35.35,0,0,0,0,.69A.35.35,0,0,0,42.39,34.28Z"/>
          <path class="cls-10" d="M40.57,35.84a.27.27,0,0,0,0,.54A.27.27,0,0,0,40.57,35.84Z"/>
          <path class="cls-10" d="M43.71,23.77a.28.28,0,0,0,0,.56A.28.28,0,0,0,43.71,23.77Z"/>
          <path class="cls-10" d="M43,25.55c-.17-.22-.53.13-.3.31s.28.26.42.12S43.13,25.66,43,25.55Z"/>
          <path class="cls-10" d="M71.64,35.8a.32.32,0,0,0,0,.63A.32.32,0,0,0,71.64,35.8Z"/>
          <path class="cls-4" d="M48.81,71.76a.32.32,0,0,0-.51-.37,17.08,17.08,0,0,0-2.41,3.7.78.78,0,0,0-.16-.28,2.52,2.52,0,0,0,.2-.88.74.74,0,0,0-1.27-.49,6.71,6.71,0,0,0-.87,1.09,3.19,3.19,0,0,0-.3-.42V73.9c0-1.31.51-1.72.15-2.91a.85.85,0,0,0-1.43-.25,10.25,10.25,0,0,0-1.71,3.87,2.11,2.11,0,0,0-.18.27.61.61,0,0,0-.65.33,18.91,18.91,0,0,1-.05-2.38c.07-1.45,1-3,.75-4.39,0,0,0,0,0,0-4.56,4.75-1.83,13,1.92,18.09a14,14,0,0,0-7.77-.39,35.21,35.21,0,0,0-5.49,2c-.95.39-1.61.94-1.57,2a.92.92,0,0,0,.54.72,4.27,4.27,0,0,0,3.22-.07,12.74,12.74,0,0,1,1.29-.4,4,4,0,0,0-.57.6,1,1,0,0,0,.48,1.5c1.39.65,3.52,0,4.9-.38.47-.11.93-.22,1.39-.31-.21.21-.43.43-.66.64-.56.54-.36,1.81.58,1.77,2.38-.12,4.13-1.78,6.22-2.64A4.9,4.9,0,0,0,47,91.23a1.47,1.47,0,0,0,1-1.81,3.58,3.58,0,0,0-.68-1.16,2.22,2.22,0,0,1-.25-.42c-.3-2.31-1.18-4.59-1.21-7C45.79,77.81,47.4,74.37,48.81,71.76Z"/>
          <path class="cls-4" d="M58.94,71.76a.32.32,0,0,1,.51-.37,16.79,16.79,0,0,1,2.43,3.7,1,1,0,0,1,.17-.28,2.52,2.52,0,0,1-.2-.88.75.75,0,0,1,1.28-.49A6.28,6.28,0,0,1,64,74.53a2.47,2.47,0,0,1,.3-.42V73.9c0-1.31-.51-1.72-.15-2.91a.86.86,0,0,1,1.44-.25,10.14,10.14,0,0,1,1.73,3.87,2.11,2.11,0,0,1,.18.27.62.62,0,0,1,.66.33,18.91,18.91,0,0,0,0-2.38c-.07-1.45-1-3-.76-4.39a0,0,0,0,1,0,0c4.6,4.75,1.84,13-2,18.09a14.33,14.33,0,0,1,7.85-.39,35.89,35.89,0,0,1,5.55,2c1,.39,1.63.94,1.58,2a.91.91,0,0,1-.55.72,4.35,4.35,0,0,1-3.25-.07,12.91,12.91,0,0,0-1.3-.4,4.08,4.08,0,0,1,.58.6,1,1,0,0,1-.48,1.5c-1.41.65-3.56,0-5-.38-.47-.11-.94-.22-1.4-.31.21.21.43.43.67.64.56.54.36,1.81-.59,1.77-2.4-.12-4.17-1.78-6.29-2.64a5,5,0,0,1-2.16-.29,1.48,1.48,0,0,1-1-1.81,3.64,3.64,0,0,1,.7-1.16,2.18,2.18,0,0,0,.24-.42c.3-2.31,1.2-4.59,1.23-7C62,77.81,60.36,74.37,58.94,71.76Z"/>
          <path class="cls-10" d="M52.93,17.07C51.79,16.65,45,14.8,47.6,9.41c.59.73,1.5,3.13,2.47,3.33-2-2.57-1.83-4.7.45-6.82.55-1.42,2.2-2.07,2.83-5.08a5.47,5.47,0,0,1,.26,5.25,9.88,9.88,0,0,0,1.72-2.75c-.25,2.19,1.79,4.2.79,6.38a10.73,10.73,0,0,1,2.32-2.48c.52,2.47,1.41,4.74,0,6.94A13.54,13.54,0,0,1,54.83,17,2.93,2.93,0,0,1,52.93,17.07Z"/>
        </g>
      </g>
    </g>
  </g>
</svg>
