<svg xmlns="http://www.w3.org/2000/svg" width="105" height="90" viewBox="0 0 105 90">
  <defs>
    <style>
      .cls-1 {
        isolation: isolate;
      }

      .cls-2 {
        fill: #8fe9ff;
      }

      .cls-12, .cls-3 {
        fill: #f04646;
      }

      .cls-4 {
        fill: #cc3b3b;
      }

      .cls-5, .cls-8 {
        fill: #f0d907;
      }

      .cls-6 {
        fill: #bf3838;
      }

      .cls-7 {
        fill: #ff8585;
      }

      .cls-12, .cls-8 {
        mix-blend-mode: multiply;
      }

      .cls-9 {
        fill: #fff;
      }

      .cls-10 {
        fill: #e8e8e8;
      }

      .cls-11 {
        fill: #d60051;
      }

      .cls-12 {
        opacity: 0.3;
      }

      .cls-13 {
        fill: #f0b607;
      }
    </style>
  </defs>
  <g class="cls-1">
    <g id="Ñëîé_1" data-name="Ñëîé 1">
      <g>
        <path class="cls-2" d="M88.84,29.57a15.07,15.07,0,0,0,1.75-2.29A18.59,18.59,0,0,1,89.5,33.1a6.23,6.23,0,0,0,2.75-1c0,2.75-1.28,6.22-3.07,7.64a5.28,5.28,0,0,0,2.58-.39,12.36,12.36,0,0,1-.88,2.14,9.93,9.93,0,0,1-1.71,1.66,4.08,4.08,0,0,1,2.3.67c-2.33,2-5.92,2.34-8.69,2.34-3.28,0-7.15-.84-6.16-6.12.67-3.57,3.13-3.72,5.39-4.86A21.43,21.43,0,0,0,88.84,29.57Z"/>
        <path class="cls-2" d="M17.07,24.59A16.21,16.21,0,0,1,15.6,21.8a15,15,0,0,0-.23,5.85,9.21,9.21,0,0,1-3-2C11.75,28.27,12.29,32,14,34a8.11,8.11,0,0,1-2.93-1.31A11,11,0,0,0,11.58,35a11.1,11.1,0,0,0,1.58,2.18A5.94,5.94,0,0,0,10.27,37c2.22,2.77,6.36,4.36,9.62,5.38,3.86,1.2,8.63,1.83,8.83-3.48.15-3.59-2.72-4.63-5.08-6.53A27.27,27.27,0,0,1,17.07,24.59Z"/>
        <g>
          <path class="cls-3" d="M52.37,84.45c.25-2.72.2-8.58-2.18-9.81-2.86-1.48-5.19.86-6.14,3.12a12.12,12.12,0,0,0-.25,7.35.83.83,0,0,0-.33.36,2.41,2.41,0,0,0,.34,2.11c.95.65,6.77.45,8.46-.39C53,86.45,53.09,84.82,52.37,84.45Z"/>
          <g>
            <path class="cls-3" d="M29.36,82.76a9.32,9.32,0,0,0,4.65.88c1.11-.07,4,0,3.37-2-.42-1.21-3-1.61-4-1.84s-2-.32-2.94-.57c-1.22-.31-2-.14-2.26,1.11A1.91,1.91,0,0,0,29.36,82.76Z"/>
            <path class="cls-3" d="M28.53,81c-.22,2,4.08,3.62,7.68,2,1.22-1.27,1.44-7.69-.63-10.71-1.41-2-4.26-3.9-6.89-1.92C26.32,72.16,27.77,78.74,28.53,81Z"/>
          </g>
          <g>
            <path class="cls-3" d="M29.36,82.76a9.32,9.32,0,0,0,4.65.88c1.11-.07,4,0,3.37-2-.42-1.21-3-1.61-4-1.84s-2-.32-2.94-.57c-1.22-.31-2-.14-2.26,1.11A1.91,1.91,0,0,0,29.36,82.76Z"/>
            <path class="cls-3" d="M28.53,81c-.22,2,4.08,3.62,7.68,2,1.22-1.27,1.44-7.69-.63-10.71-1.41-2-4.26-3.9-6.89-1.92C26.32,72.16,27.77,78.74,28.53,81Z"/>
          </g>
          <path class="cls-3" d="M41.2,55.74l-.8.07c-.25,0-.54.07-.87.12a8.75,8.75,0,0,0-1.15.26,11.07,11.07,0,0,0-2.8,1.21,15.35,15.35,0,0,0-3,2.53c-.26.27-.52.54-.77.84-.13.15-.25.3-.37.46l-.2.23,0,.06,0,0,0,0v0l-.1.13-.39.53c-.1.16-.2.33-.31.49-.2.31-.42.71-.62,1.08C28.9,65.3,28.23,67.1,27.39,69a17.79,17.79,0,0,1-3.57,5.71A9.24,9.24,0,0,1,17,77.42a8.45,8.45,0,0,1-3.66-1c-.28-.14-.54-.33-.81-.5s-.5-.38-.74-.58h0l-.08-.07,0,0-.07-.07L11.42,75l-.28-.29a3.71,3.71,0,0,1-.31-.34L10.52,74A8.07,8.07,0,0,1,9,70.65a9.24,9.24,0,0,1,0-3.48,13.64,13.64,0,0,1,1-3.07,26.16,26.16,0,0,1,1.41-2.6A19.26,19.26,0,0,0,13.5,57a9.82,9.82,0,0,0,.37-2.13,10.33,10.33,0,0,0-.12-2,14.3,14.3,0,0,0-.92-3.15c-.34-.86-.66-1.53-.89-2l-.34-.69.5-.29.42.66c.27.43.66,1.07,1.11,1.93a14.2,14.2,0,0,1,1.28,3.28,11.43,11.43,0,0,1,.31,2.21A11.17,11.17,0,0,1,15,57.32a20,20,0,0,1-1.93,5.09,22.34,22.34,0,0,0-1.18,2.48,11.64,11.64,0,0,0-.71,2.63,7.35,7.35,0,0,0,.1,2.65,5.57,5.57,0,0,0,1.16,2.3,6.1,6.1,0,0,0,4.64,2.29,6.48,6.48,0,0,0,4.75-2,16.18,16.18,0,0,0,2.91-4.88c.77-1.81,1.46-3.7,2.37-5.46.24-.44.45-.86.74-1.3.13-.22.27-.43.41-.64l.38-.54.1-.13.08-.11.05-.07.22-.27c.15-.18.29-.36.45-.52a12.1,12.1,0,0,1,.92-1,12.46,12.46,0,0,1,4-2.69,9.52,9.52,0,0,1,3.71-.68,11.88,11.88,0,0,1,1.37.14c.39.1.73.17,1,.26l.74.29Z"/>
          <g>
            <path class="cls-4" d="M12.83,49.73a14.3,14.3,0,0,1,.92,3.15,10.33,10.33,0,0,1,.12,2c0,.29-.06.6-.1.9a11,11,0,0,0,.3-1.91,10.45,10.45,0,0,0-.11-2A15,15,0,0,0,13,48.72c-.25-.61-.48-1.12-.67-1.52l-.27-.43-.5.29.34.69C12.17,48.2,12.49,48.87,12.83,49.73Z"/>
            <path class="cls-4" d="M12.07,63.89a11.15,11.15,0,0,0-.67,2.47,10.92,10.92,0,0,1,.47-1.47,22.34,22.34,0,0,1,1.18-2.48A20,20,0,0,0,15,57.32c0-.2.08-.4.11-.6a20.43,20.43,0,0,1-1.83,4.68A21.74,21.74,0,0,0,12.07,63.89Z"/>
            <path class="cls-4" d="M40.39,54.83l-.66.09a11.3,11.3,0,0,0-1.15.26,11.68,11.68,0,0,0-2.8,1.22,15.35,15.35,0,0,0-3.05,2.53c-.25.26-.51.54-.76.84-.13.14-.25.3-.38.45l-.19.24,0,0,0,0h0l-.09.13-.39.53c-.1.16-.21.32-.31.49s-.42.71-.62,1.08C29.1,64.3,28.43,66.1,27.6,68A17.81,17.81,0,0,1,24,73.71a9.22,9.22,0,0,1-6.85,2.71,8.52,8.52,0,0,1-3.66-1c-.28-.15-.54-.33-.81-.5s-.49-.38-.74-.58l0,0-.07-.06,0,0-.08-.07L11.63,74l-.28-.28a3.6,3.6,0,0,1-.31-.34L10.72,73A8.06,8.06,0,0,1,9.2,69.65a8.73,8.73,0,0,1,0-3.18c-.06.23-.12.46-.16.7a9.24,9.24,0,0,0,0,3.48A8.07,8.07,0,0,0,10.52,74l.31.38a3.71,3.71,0,0,0,.31.34l.28.29.15.14.07.07,0,0,.08.07h0c.24.2.48.4.74.58s.53.36.81.5a8.45,8.45,0,0,0,3.66,1,9.24,9.24,0,0,0,6.84-2.7A17.79,17.79,0,0,0,27.39,69c.84-1.91,1.51-3.71,2.32-5.24.2-.37.42-.77.62-1.08.11-.16.21-.33.31-.49l.39-.53.1-.13h0l0,0,0-.06.2-.23c.12-.16.24-.31.37-.46.25-.3.51-.57.77-.84a15.35,15.35,0,0,1,3-2.53,11.07,11.07,0,0,1,2.8-1.21,8.75,8.75,0,0,1,1.15-.26c.33,0,.62-.11.87-.12l.8-.07.08-.57-.74-.29Z"/>
          </g>
          <path class="cls-5" d="M14.42,42.24a6,6,0,0,1-.69,1.15,4.25,4.25,0,0,0-2.46-4,4.93,4.93,0,0,0,.39,1.84c-1.62-.08-6.72-3.7-7.89-1.59C5,40,6.78,40,7.34,41.35c-1.4.56-5.64.3-5.73,2.61,1.92.09,3.93.08,5.59,1.22-1.35.76-4.53.42-4.71,2.68-.14,1.85,3.41,0,5,.45-.71.36-2.35,1.44-1.11,2.25.83.54,2.08-.88,3.17-.52-.39-.13-1,2,.35,2.42.94.29,2.8-.69,3.43-1.34C15,49.35,16.38,44.18,14.42,42.24Z"/>
          <path class="cls-3" d="M60.89,59.93l.71-.07a10.81,10.81,0,0,1,2.09,0,10.6,10.6,0,0,1,3.16.86A15.55,15.55,0,0,1,70.43,63,47.63,47.63,0,0,1,74,66.4a44.88,44.88,0,0,0,3.76,3.65,12.14,12.14,0,0,0,4.6,2.56,7.67,7.67,0,0,0,5.05-.45,5.06,5.06,0,0,0,1.9-1.54,5.43,5.43,0,0,0,.32-.51c.08-.18.18-.36.25-.55l.09-.29,0-.14,0-.08v0s0,.1,0,0l.12-.73a8.13,8.13,0,0,0-.2-2.51,21.93,21.93,0,0,0-.8-2.58c-.64-1.7-1.41-3.36-1.88-5.1-.12-.44-.2-.84-.29-1.33s-.1-.81-.13-1.23A9,9,0,0,1,87,53.05a4.6,4.6,0,0,1,2.7-3.5A7.84,7.84,0,0,1,92.94,49a11.86,11.86,0,0,1,1.19.11c.34,0,.63.08.86.13l.71.14-.1.57-.7-.07c-.22,0-.5,0-.83,0a8.49,8.49,0,0,0-1.13,0,6.71,6.71,0,0,0-2.82.63,4.15,4.15,0,0,0-.68.44,3.32,3.32,0,0,0-.55.63,3.48,3.48,0,0,0-.41.79,5.27,5.27,0,0,0-.21.93,7.37,7.37,0,0,0,0,2.1c0,.38.12.8.19,1.2s.17.74.3,1.11c.48,1.54,1.27,3.14,2,4.88a20.45,20.45,0,0,1,1,2.8A9.42,9.42,0,0,1,92,68.6l-.1.73v.11l0,0,0,.1-.06.21-.12.42c-.1.27-.23.53-.34.8s-.3.5-.45.75A6.88,6.88,0,0,1,88.24,74a9.08,9.08,0,0,1-3.2.87,9.5,9.5,0,0,1-3.3-.26,13.94,13.94,0,0,1-5.31-3,43.54,43.54,0,0,1-3.82-3.92c-1.12-1.28-2.17-2.46-3.22-3.44a15.19,15.19,0,0,0-3.09-2.32,10.56,10.56,0,0,0-2.76-1.07,12.75,12.75,0,0,0-1.92-.28l-.71,0Z"/>
          <path class="cls-6" d="M60.89,59.91l.71-.06a11.61,11.61,0,0,1,2.1,0,11,11,0,0,1,3.16.87A15.71,15.71,0,0,1,70.43,63,45.86,45.86,0,0,1,74,66.4a48.22,48.22,0,0,0,3.76,3.65,12.21,12.21,0,0,0,4.6,2.56,7.57,7.57,0,0,0,5-.44,5.12,5.12,0,0,0,1.92-1.54c.1-.17.22-.33.32-.51l.25-.54.08-.3,0-.14,0-.07V69s0,.1,0,0l.12-.73a7.86,7.86,0,0,0-.2-2.51,18.72,18.72,0,0,0-.8-2.58c-.63-1.7-1.4-3.36-1.86-5.1A13,13,0,0,1,87,56.8c0-.42-.1-.81-.13-1.23A9.13,9.13,0,0,1,87,53.05a4.61,4.61,0,0,1,2.71-3.49A7.59,7.59,0,0,1,93,49.05a9.65,9.65,0,0,1,1.19.1c.34.05.63.09.86.14l.71.14-.09.57-.7-.07q-.35,0-.84-.06c-.33,0-.71,0-1.13,0a6.86,6.86,0,0,0-2.82.63,4.15,4.15,0,0,0-.68.44,3.38,3.38,0,0,0-.55.64,3.21,3.21,0,0,0-.41.78,6.33,6.33,0,0,0-.22.93,8.26,8.26,0,0,0,0,2.11c0,.37.13.79.19,1.19s.17.74.3,1.11c.48,1.54,1.27,3.14,2,4.88a20.92,20.92,0,0,1,1,2.8A9.71,9.71,0,0,1,92,68.62l-.11.72v.16l0,.11-.06.2-.12.42c-.1.27-.22.53-.34.8s-.3.5-.45.75A6.87,6.87,0,0,1,88.23,74a9.14,9.14,0,0,1-3.2.87,9.76,9.76,0,0,1-3.3-.27,13.87,13.87,0,0,1-5.31-3,42.11,42.11,0,0,1-3.81-3.93c-1.13-1.27-2.17-2.46-3.22-3.44a15.19,15.19,0,0,0-3.09-2.32,10.28,10.28,0,0,0-2.76-1.08,12.75,12.75,0,0,0-1.92-.28l-.71,0Z"/>
          <path class="cls-3" d="M61.1,58.93l.71-.07a11.5,11.5,0,0,1,2.09,0,10.73,10.73,0,0,1,3.16.87A15.29,15.29,0,0,1,70.63,62a44,44,0,0,1,3.53,3.37A46.36,46.36,0,0,0,77.92,69a12.12,12.12,0,0,0,4.61,2.56,7.63,7.63,0,0,0,5-.44,5.19,5.19,0,0,0,1.91-1.54c.1-.17.22-.34.32-.51s.17-.36.25-.55l.09-.29,0-.15,0-.07v0s0,.09,0,0l.12-.72a7.89,7.89,0,0,0-.2-2.52,20.57,20.57,0,0,0-.8-2.57,53.85,53.85,0,0,1-1.87-5.1,12.62,12.62,0,0,1-.29-1.34c0-.41-.1-.8-.13-1.22A9.54,9.54,0,0,1,87.17,52a4.61,4.61,0,0,1,2.71-3.49A7.66,7.66,0,0,1,93.15,48a9.32,9.32,0,0,1,1.18.11c.34,0,.63.08.87.13l.71.14-.1.57-.7-.07a6.53,6.53,0,0,0-.84,0,10.22,10.22,0,0,0-1.12,0,6.85,6.85,0,0,0-2.82.64,3.84,3.84,0,0,0-.69.44,3.71,3.71,0,0,0-.55.63,3.84,3.84,0,0,0-.41.78,5.6,5.6,0,0,0-.21.94,8.18,8.18,0,0,0,0,2.1c0,.38.13.79.19,1.2s.17.74.3,1.11c.49,1.54,1.28,3.13,2,4.88a19.19,19.19,0,0,1,1,2.8,9.62,9.62,0,0,1,.29,3.23l-.11.73v.16l0,.1L92,68.8l-.12.41c-.09.27-.22.54-.34.81s-.3.5-.45.75A6.94,6.94,0,0,1,88.45,73a9.35,9.35,0,0,1-3.21.87A9.68,9.68,0,0,1,82,73.56a13.85,13.85,0,0,1-5.31-3,43.5,43.5,0,0,1-3.82-3.92,46,46,0,0,0-3.23-3.44,15.15,15.15,0,0,0-3.08-2.32,9.94,9.94,0,0,0-2.77-1.07,12.65,12.65,0,0,0-1.91-.28l-.72,0Z"/>
          <path class="cls-5" d="M95.25,46.14c-.42.39-.39.7-.54,1,1-.77,5.38-2,5.62,0a3.22,3.22,0,0,0-3.29,1c1.75.3,5.54.83,5.59,3.28-.8-.33-2-.71-2.73-.12a9.61,9.61,0,0,1,3.49,5.19c-.93.72-2.61-1.39-3.45-1.86-.08,1.56,1,3.64,1.25,5.3-1.43-1.11-1.09-3.77-2.43-4.87-.56,1.08-.17,4-1.85,4.14,0-1,.64-6.21-1.17-5-.38.26.36,2.53-1.12,1.21-.59-.53-.3-2-.49-2.69-.7.13-1.2.76-1.87,1.08a15.48,15.48,0,0,0,.14-1.66c-.07.74-1.15,0-1.28-.19s.4-1.81.51-2.16C92.14,48.22,93.1,45.93,95.25,46.14Z"/>
          <path class="cls-3" d="M79.61,51.21c0,17.07-13.24,30.91-29.58,30.91S20.44,68.28,20.44,51.21,33.68,20.3,50,20.3,79.61,34.14,79.61,51.21Z"/>
          <path class="cls-7" d="M35.65,6.34l1.11-.24c.34-.09.81-.12,1.32-.19a15.59,15.59,0,0,1,1.75-.09,6.66,6.66,0,0,1,1,0c.35,0,.71,0,1.07.09a16.59,16.59,0,0,1,2.28.48,15,15,0,0,1,2.35.89l1.15.62a11.79,11.79,0,0,1,1.09.76,7,7,0,0,1,1,.85,9.36,9.36,0,0,1,.94.95l.83,1,.67,1.09c.11.19.23.36.32.55s.17.38.25.56c.16.38.32.74.48,1.1.22.74.43,1.44.59,2.1s.2,1.27.29,1.81.05,1,.08,1.4c0,.78.05,1.23.05,1.23l-3.07-.19s0-.38.06-1.05a10.78,10.78,0,0,0,0-1.2c0-.46-.06-1-.09-1.55s-.21-1.16-.33-1.8c-.1-.31-.2-.62-.31-.94,0-.16-.1-.33-.16-.49s-.15-.32-.22-.47c-.16-.32-.31-.65-.47-1s-.41-.61-.62-.92a5.3,5.3,0,0,0-.71-.87,5.16,5.16,0,0,0-.8-.82c-.29-.24-.56-.52-.88-.74l-.95-.64a12,12,0,0,0-2-1,13.68,13.68,0,0,0-2-.64c-.33-.08-.66-.12-1-.18a5.16,5.16,0,0,0-.93-.12,12,12,0,0,0-1.64-.07,8.25,8.25,0,0,0-1.27.06l-1.13.13Z"/>
          <g>
            <path class="cls-3" d="M68.39,83.78a8.64,8.64,0,0,1-4.46.88c-1.07-.06-3.86,0-3.24-2,.4-1.22,2.84-1.62,3.87-1.85s1.89-.32,2.83-.57c1.16-.31,1.87-.14,2.15,1.12A1.9,1.9,0,0,1,68.39,83.78Z"/>
            <path class="cls-3" d="M69.19,82c.21,2-3.92,3.62-7.38,2-1.16-1.28-1.38-7.7.61-10.71,1.35-2,4.08-3.91,6.62-1.92C71.31,73.18,69.92,79.76,69.19,82Z"/>
          </g>
          <path class="cls-3" d="M79.61,51.21c0,17.07-13.24,30.91-29.58,30.91S20.44,68.28,20.44,51.21,33.68,20.3,50,20.3,79.61,34.14,79.61,51.21Z"/>
          <g>
            <path class="cls-8" d="M32.85,37.29a7.56,7.56,0,0,1-7.55-7.55,6.76,6.76,0,0,1,.12-1.2,7.54,7.54,0,1,1,7.43,8.75Z"/>
            <path class="cls-5" d="M32.85,37.29a7.56,7.56,0,0,1-7.55-7.55,6.76,6.76,0,0,1,.12-1.2,7.54,7.54,0,1,1,7.43,8.75Z"/>
            <g>
              <g>
                <path class="cls-9" d="M26.61,29.74a6.24,6.24,0,1,0,6.24-6.24A6.24,6.24,0,0,0,26.61,29.74Z"/>
                <path class="cls-10" d="M26.85,28.14a6.2,6.2,0,0,0,12.2,1.23c0,.12,0,.24,0,.37a6.24,6.24,0,1,1-12.47,0A6.13,6.13,0,0,1,26.85,28.14Z"/>
              </g>
              <g>
                <path d="M28,28.14A3.11,3.11,0,1,0,31.11,25,3.11,3.11,0,0,0,28,28.14Z"/>
                <path class="cls-9" d="M31.11,27.32a1.24,1.24,0,1,0,2.48,0,1.24,1.24,0,0,0-2.48,0Z"/>
              </g>
            </g>
          </g>
          <g>
            <path class="cls-8" d="M45.19,28.82a7.55,7.55,0,0,1-7.54-7.55,6.66,6.66,0,0,1,.11-1.19,7.54,7.54,0,1,1,7.43,8.74Z"/>
            <path class="cls-5" d="M45.19,28.82a7.55,7.55,0,0,1-7.54-7.55,6.66,6.66,0,0,1,.11-1.19,7.54,7.54,0,1,1,7.43,8.74Z"/>
            <g>
              <g>
                <path class="cls-9" d="M39,21.27A6.24,6.24,0,1,0,45.19,15,6.23,6.23,0,0,0,39,21.27Z"/>
                <path class="cls-10" d="M39.19,19.68A6.21,6.21,0,0,0,51.4,20.9c0,.13,0,.25,0,.37a6.24,6.24,0,1,1-12.47,0A6.43,6.43,0,0,1,39.19,19.68Z"/>
              </g>
              <g>
                <path d="M40.35,19.68a3.11,3.11,0,1,0,3.1-3.11A3.1,3.1,0,0,0,40.35,19.68Z"/>
                <path class="cls-9" d="M43.45,18.85a1.25,1.25,0,1,0,1.24-1.24A1.25,1.25,0,0,0,43.45,18.85Z"/>
              </g>
            </g>
          </g>
          <g>
            <path class="cls-8" d="M61.68,31.13a8.77,8.77,0,0,1-8.76-8.76A8,8,0,0,1,53.05,21a8.75,8.75,0,1,1,8.63,10.15Z"/>
            <path class="cls-5" d="M61.68,31.13a8.77,8.77,0,0,1-8.76-8.76A8,8,0,0,1,53.05,21a8.75,8.75,0,1,1,8.63,10.15Z"/>
            <g>
              <g>
                <path class="cls-9" d="M54.44,22.37a7.24,7.24,0,1,0,7.24-7.24A7.24,7.24,0,0,0,54.44,22.37Z"/>
                <path class="cls-10" d="M54.71,20.51a7.21,7.21,0,0,0,14.17,1.42c0,.15,0,.29,0,.44a7.24,7.24,0,0,1-14.48,0A7.14,7.14,0,0,1,54.71,20.51Z"/>
              </g>
              <g>
                <path d="M56.05,20.51a3.61,3.61,0,1,0,3.61-3.61A3.61,3.61,0,0,0,56.05,20.51Z"/>
                <path class="cls-9" d="M59.66,19.56a1.44,1.44,0,1,0,1.44-1.44A1.43,1.43,0,0,0,59.66,19.56Z"/>
              </g>
            </g>
          </g>
          <g>
            <path class="cls-8" d="M72.81,38.88a7.56,7.56,0,0,1-7.55-7.55,6.76,6.76,0,0,1,.12-1.2,7.48,7.48,0,0,1,7.43-6.35,7.55,7.55,0,0,1,0,15.1Z"/>
            <path class="cls-5" d="M72.81,38.88a7.56,7.56,0,0,1-7.55-7.55,6.76,6.76,0,0,1,.12-1.2,7.48,7.48,0,0,1,7.43-6.35,7.55,7.55,0,0,1,0,15.1Z"/>
            <g>
              <g>
                <path class="cls-9" d="M66.57,31.33a6.24,6.24,0,1,0,6.24-6.24A6.23,6.23,0,0,0,66.57,31.33Z"/>
                <path class="cls-10" d="M66.8,29.73A6.21,6.21,0,0,0,79,31c0,.13,0,.25,0,.38a6.24,6.24,0,0,1-12.47,0A6.51,6.51,0,0,1,66.8,29.73Z"/>
              </g>
              <g>
                <path d="M68,29.73a3.11,3.11,0,1,0,3.11-3.11A3.11,3.11,0,0,0,68,29.73Z"/>
                <path class="cls-9" d="M71.07,28.91a1.24,1.24,0,0,0,2.48,0,1.24,1.24,0,1,0-2.48,0Z"/>
              </g>
            </g>
          </g>
          <g>
            <path class="cls-8" d="M31.66,14.32A5.63,5.63,0,0,1,26,8.7a5.07,5.07,0,0,1,.09-.9,5.62,5.62,0,1,1,5.54,6.52Z"/>
            <path class="cls-5" d="M31.66,14.32A5.63,5.63,0,0,1,26,8.7a5.07,5.07,0,0,1,.09-.9,5.62,5.62,0,1,1,5.54,6.52Z"/>
            <g>
              <g>
                <path class="cls-9" d="M27,8.7a4.65,4.65,0,1,0,4.65-4.65A4.65,4.65,0,0,0,27,8.7Z"/>
                <path class="cls-10" d="M27.19,7.51a4.62,4.62,0,0,0,9.09.91c0,.09,0,.18,0,.28a4.65,4.65,0,0,1-9.3,0A4.23,4.23,0,0,1,27.19,7.51Z"/>
              </g>
              <g>
                <path d="M32.76,7.4a2.32,2.32,0,1,0-1.9,2.67A2.31,2.31,0,0,0,32.76,7.4Z"/>
                <path class="cls-9" d="M30.58,8.39a.93.93,0,0,0-1.83.3.93.93,0,0,0,1.83-.3Z"/>
              </g>
            </g>
          </g>
          <path class="cls-11" d="M44,43.31c-7.14,2-11.93,6.81-11.19,14.47.6,6.15,3.88,10.37,9.91,12,6.21,1.67,14.92,1.45,19.73-3.43,3.76-3.83,5.27-13.7,2.11-18.29C60.31,41.93,50.34,41.54,44,43.31Z"/>
          <path class="cls-5" d="M50,57.25c-1.05.41-2.43,1.63-3.58,1.62a4,4,0,0,1-1.72-.82,9,9,0,0,0-3.54-1.26c-3.69-.36-5.79,2.69-5.35,6.14a8.82,8.82,0,0,0,2.36,4.77,14.72,14.72,0,0,0,4.58,2.09c6.21,1.67,14.92,1.45,19.73-3.43a12.49,12.49,0,0,0,2.63-4.55C62.7,57.58,54.49,55.51,50,57.25Z"/>
          <g>
            <path class="cls-9" d="M61.67,53.77l-.13.44S61.6,54.66,61.67,53.77Z"/>
            <path class="cls-9" d="M58.23,47.6c.31-1,.7-2.28,1.13-3.63a16.36,16.36,0,0,0-1.57-.59c0,.57,0,1.18-.06,1.85,0,1,0,1.73-.06,2.37Z"/>
            <path class="cls-9" d="M63.74,47.06A11.09,11.09,0,0,0,62,45.49c-.1,1-.17,2.23-.2,3.7,0,2.63-.1,3.94-.15,4.58C62,52.74,62.77,50.05,63.74,47.06Z"/>
            <path class="cls-9" d="M48.68,47.06l.11.45S49.07,47.87,48.68,47.06Z"/>
            <path class="cls-9" d="M51.72,51c-.08.29-.13.45-.13.45S51.65,51.92,51.72,51Z"/>
            <path class="cls-9" d="M52.1,42.42c-.11,1.07-.2,2.39-.23,4,0,2.63-.1,3.94-.15,4.57.36-1.22,1.42-4.78,2.62-8.41C53.6,42.51,52.85,42.45,52.1,42.42Z"/>
            <path class="cls-9" d="M60.24,60.22c-.26-.09-3.66-2.44-4.19-2.44a3.73,3.73,0,0,0-3.58,3.4c-.21,2.22.4,6.94.7,9.34a15.94,15.94,0,0,0,8.76-3.71A61.9,61.9,0,0,0,60.24,60.22Z"/>
            <path class="cls-9" d="M37.47,46.47c.34,1.05.81,2.33,1.49,3.92,1,2.41,1.51,3.63,1.73,4.23-.19-1.35-.73-5.46-1.12-9.53A15.22,15.22,0,0,0,37.47,46.47Z"/>
            <path class="cls-9" d="M46.36,42.78l.14.25c1.29,2.3,1.9,3.45,2.18,4-.19-.76-.6-2.42-1.07-4.46C47.19,42.65,46.77,42.71,46.36,42.78Z"/>
            <path class="cls-9" d="M46.56,62.48a41.39,41.39,0,0,1-1.37-4.08s-1-1.23-1.48,1.12c-.36,2,.45,8.69.71,10.66a28,28,0,0,0,3.64.48C47.64,68,46.83,62.93,46.56,62.48Z"/>
            <path class="cls-9" d="M43.33,43.51c-.67.21-1.33.44-1.95.7.08.68.18,1.43.31,2.26h1.25C43.06,45.54,43.19,44.54,43.33,43.51Z"/>
            <path class="cls-9" d="M39.53,63.9c-1.3-3.64-1-2.55-2.39-4.73s-1.09-3.3-1.43,0c-.23,2.19.52,5.4,1,7.4a13,13,0,0,0,4,2.54A23.73,23.73,0,0,0,39.53,63.9Z"/>
            <path class="cls-9" d="M40.69,54.62l.06.46S41,55.47,40.69,54.62Z"/>
          </g>
          <path class="cls-7" d="M62.73,64c-4.91,4.88-13.84,5.09-20.19,3.42C37.19,66,34,62.64,32.79,57.77h0c.6,6.15,3.88,10.37,9.91,12,6.21,1.67,14.92,1.45,19.73-3.43,2-2,3.3-5.63,3.7-9.3A14.49,14.49,0,0,1,62.73,64Z"/>
          <g>
            <path class="cls-5" d="M37.38,81.67a1.53,1.53,0,0,0-.4-.56.92.92,0,0,0-.13.24.83.83,0,0,0,0,.15.9.9,0,0,0-.08.23c0,.23,0,.27,0,.12a.84.84,0,0,0,0,.27,1.1,1.1,0,0,0,.42.85A1.1,1.1,0,0,0,37.38,81.67Z"/>
            <path class="cls-5" d="M30.81,83.3l.23.06a.79.79,0,0,0,.32-.18l.1-.14a.73.73,0,0,0,.3-.59,3.16,3.16,0,0,0-.17-1.26,1.33,1.33,0,0,0-1.17-.7,1.39,1.39,0,0,0-1.19.46.91.91,0,0,0-.11.22,1.51,1.51,0,0,0-.42,1.17,3,3,0,0,0,.66.42A9.88,9.88,0,0,0,30.81,83.3Z"/>
            <path class="cls-5" d="M34,83.64c.39,0,1,0,1.61-.13a1.15,1.15,0,0,0-.27-1.32,1.89,1.89,0,0,0-1.16-.63,1.41,1.41,0,0,0-1.42,2l.07.08H34Z"/>
          </g>
          <g>
            <path class="cls-5" d="M45.23,86.36a1.08,1.08,0,0,0-1.41,1.17.25.25,0,0,0,0,.07A7.27,7.27,0,0,0,46.7,88a1.47,1.47,0,0,0,0-.21C46.6,87,45.86,86.61,45.23,86.36Z"/>
            <path class="cls-5" d="M51.83,85.86a1.24,1.24,0,0,0,0,.87.74.74,0,0,0,.41.44,2.37,2.37,0,0,0,.52-2.12A1.63,1.63,0,0,0,51.83,85.86Z"/>
            <path class="cls-5" d="M50.74,87.48a1.83,1.83,0,0,0-1-1.08,1.08,1.08,0,0,0-1.13.09,2,2,0,0,0-.42.2,1.06,1.06,0,0,0-.3.88,1.5,1.5,0,0,0,.11.36,21,21,0,0,0,2.81-.31A.57.57,0,0,0,50.74,87.48Z"/>
          </g>
          <g>
            <path class="cls-5" d="M67.21,84.13s0,0,0,0a2.64,2.64,0,0,1,0-.28,1.59,1.59,0,0,0-.25-.72,1.36,1.36,0,0,0-.79-.64,1.54,1.54,0,0,0-1.61.7,1.19,1.19,0,0,0-.08,1,1.09,1.09,0,0,0,.42.56A6.68,6.68,0,0,0,67,84.32l.21-.07A.48.48,0,0,0,67.21,84.13Z"/>
            <path class="cls-5" d="M68.21,82c-.09.21-.11.25,0,.11a.59.59,0,0,0-.09.24,1.32,1.32,0,0,0,.18.91,2,2,0,0,0,.34.43,1.86,1.86,0,0,0,1-2.26,1.16,1.16,0,0,0-.06-.22,2.29,2.29,0,0,0-1,.51A1.42,1.42,0,0,0,68.21,82Z"/>
            <path class="cls-5" d="M60.61,83.33c.09.88,1.17,1.15,2.14,1.25a1.31,1.31,0,0,0-.09-1.08A1.22,1.22,0,0,0,61.39,83,1.14,1.14,0,0,0,60.61,83.33Z"/>
          </g>
          <path class="cls-12" d="M42.68,75.09c-9.54-3-14.6-6.23-21.73-18.19C23.5,71.25,35.55,82.12,50,82.12a29.28,29.28,0,0,0,25-14.42C70.67,72.39,56.68,79.46,42.68,75.09Z"/>
          <path class="cls-5" d="M53.69,31.69a.62.62,0,0,0-.67.56.62.62,0,0,0,.56.67.64.64,0,0,0,.68-.56A.63.63,0,0,0,53.69,31.69Z"/>
          <path class="cls-5" d="M48,29.36a1.11,1.11,0,0,0-1.21.94,1.08,1.08,0,1,0,2.15.26A1.07,1.07,0,0,0,48,29.36Z"/>
          <path class="cls-5" d="M48.94,33.46c-.73,0-.87,1.15-.13,1.15S49.69,33.46,48.94,33.46Z"/>
          <path class="cls-5" d="M52.15,34.88c-.58,0-.5.9.08.9S52.73,34.88,52.15,34.88Z"/>
          <path class="cls-5" d="M42.87,33.77l-.13,0a1,1,0,0,0-.87.79,1,1,0,0,0,.78,1.13l.15,0a1,1,0,1,0,.07-2Z"/>
          <path class="cls-5" d="M48.2,37.08a1,1,0,0,0-.89,1.1,1,1,0,0,0,1.1.89A1,1,0,0,0,49.3,38,1,1,0,0,0,48.2,37.08Z"/>
          <path class="cls-5" d="M39.4,38.81a1.06,1.06,0,0,0-1.15-.89,1,1,0,0,0-.89,1.14,1,1,0,1,0,2-.25Z"/>
          <path class="cls-5" d="M56.89,35.92h-.07a1,1,0,0,0-1.17.85,1,1,0,0,0,1.13,1.17h.07a1,1,0,0,0,0-2Z"/>
          <path class="cls-5" d="M64,40.24a.8.8,0,0,0,0-.31v0a1,1,0,0,0-.74-.8l-.1,0h-.11a.81.81,0,0,0-.31,0h-.06l-.09,0a.6.6,0,0,0-.26.15.08.08,0,0,1,0,0,1,1,0,0,0-.06,1.54h0a1,1,0,0,0,.26.2l.1,0,.06,0a1,1,0,0,0,.81-.13l0,0a.75.75,0,0,0,.17-.14.23.23,0,0,0,.07-.07,1.13,1.13,0,0,0,.1-.13l.07-.11A.92.92,0,0,0,64,40.24Z"/>
          <path class="cls-5" d="M62.1,33.91a.87.87,0,0,0-.34-.12,1,1,0,1,0-.08,2,1.16,1.16,0,0,0,.54-.21,1,1,0,0,0,.41-.85A1,1,0,0,0,62.1,33.91Z"/>
          <path class="cls-5" d="M68.24,39.25a1,1,0,0,0-.88,1.08,1,1,0,0,0,1.08.89,1,1,0,0,0,.88-1.08A1,1,0,0,0,68.24,39.25Z"/>
          <path class="cls-5" d="M32,38.87c-.46,0-.43.71,0,.71S32.45,38.87,32,38.87Z"/>
          <path class="cls-5" d="M35.1,40.8c-.76,0-.89,1.18-.13,1.18S35.87,40.8,35.1,40.8Z"/>
          <path class="cls-5" d="M31.93,43.43a.57.57,0,0,0-.62.48.56.56,0,0,0,.49.63.57.57,0,0,0,.62-.49A.55.55,0,0,0,31.93,43.43Z"/>
          <path class="cls-5" d="M43,40.36l-.1-.15,0,0c-.29-.3-.79,0-.75.39a.46.46,0,0,0,.8.26l0,0A.4.4,0,0,0,43,40.36Z"/>
          <path class="cls-5" d="M40.09,35.8a.26.26,0,0,0,0,.51A.26.26,0,0,0,40.09,35.8Z"/>
          <path class="cls-5" d="M42.61,30.48c-.69,0-.54,1.06.14,1.06S43.29,30.48,42.61,30.48Z"/>
          <path class="cls-5" d="M45.54,33.8c-.49,0-.45.76,0,.76S46,33.8,45.54,33.8Z"/>
          <g>
            <path class="cls-5" d="M51.82,30.7h-.06C51.83,30.71,51.81,30.72,51.82,30.7Z"/>
            <path class="cls-5" d="M51.92,29.94a.47.47,0,0,0-.76.27.46.46,0,0,0,.72.45l-.06,0a.36.36,0,0,0,.26-.25A.47.47,0,0,0,51.92,29.94Z"/>
          </g>
          <path class="cls-5" d="M53.44,38.81a.5.5,0,0,0-.28-.14c-.63-.09-.63.91,0,.83a.52.52,0,0,0,.34-.16A.37.37,0,0,0,53.44,38.81Z"/>
          <path class="cls-5" d="M56.67,32.3c-.19,0-.21.3,0,.3S56.87,32.3,56.67,32.3Z"/>
          <path class="cls-5" d="M60.18,32.28c-.77,0-.9,1.21-.12,1.21S61,32.28,60.18,32.28Z"/>
          <path class="cls-5" d="M58,33.66a.53.53,0,0,0-.46.59.54.54,0,0,0,.59.45.53.53,0,0,0,.46-.59A.54.54,0,0,0,58,33.66Z"/>
          <path class="cls-5" d="M59.38,39.4c-.53,0-.47.81,0,.81S59.9,39.4,59.38,39.4Z"/>
          <path class="cls-5" d="M60.26,36.06c-.55,0-.49.85.06.85S60.8,36.06,60.26,36.06Z"/>
          <path class="cls-5" d="M65.79,36.66l-.1,0c-.82-.16-.82,1.3,0,1.14l.09,0A.56.56,0,0,0,65.79,36.66Z"/>
          <path class="cls-5" d="M63.46,36.22a.23.23,0,0,0-.31,0,.38.38,0,0,0-.12.21.27.27,0,1,0,.53,0A.35.35,0,0,0,63.46,36.22Z"/>
          <path class="cls-5" d="M64.18,32.5,64,32.41c-.71-.1-.7,1.05,0,1a.52.52,0,0,0,.43-.29A.42.42,0,0,0,64.18,32.5Z"/>
          <path class="cls-5" d="M44.66,30.56c-.58,0-.5.89.07.89S45.23,30.56,44.66,30.56Z"/>
          <path class="cls-5" d="M66.66,43.19c-.83,0-.94,1.3-.1,1.3S67.5,43.19,66.66,43.19Z"/>
          <path class="cls-5" d="M71.33,43.81c-.6,0-.51.92.08.92S71.91,43.81,71.33,43.81Z"/>
          <path class="cls-5" d="M70.86,46.32c-.7,0-.85,1.1-.14,1.1S71.58,46.32,70.86,46.32Z"/>
          <path class="cls-5" d="M71.81,40.74c-.46,0-.43.72,0,.72S72.27,40.74,71.81,40.74Z"/>
          <path class="cls-5" d="M75.13,43.38c-.23,0-.25.35,0,.35S75.35,43.38,75.13,43.38Z"/>
          <path class="cls-5" d="M72.82,46.58c-.18,0-.2.28,0,.28S73,46.58,72.82,46.58Z"/>
          <path class="cls-5" d="M74.64,43.08c-.61,0-.52.94.09.94S75.24,43.08,74.64,43.08Z"/>
          <path class="cls-5" d="M72.89,45.77a.53.53,0,0,0-.46.59.54.54,0,0,0,.59.45.53.53,0,0,0,.46-.59A.54.54,0,0,0,72.89,45.77Z"/>
          <path class="cls-5" d="M72.64,48.2a.4.4,0,0,0-.24.69l0,0a.3.3,0,0,0,.53-.09v0A.4.4,0,0,0,72.64,48.2Z"/>
          <path class="cls-5" d="M27.68,38a.33.33,0,0,0-.22.55c-.1-.12,0,.06.08.09s.26,0,.37-.1A.32.32,0,0,0,27.68,38Z"/>
          <path class="cls-5" d="M28.91,40.72c-.68,0-.54,1.05.14,1.05S29.59,40.72,28.91,40.72Z"/>
          <path class="cls-5" d="M29,43a1,1,0,0,0-.58-.56h0a1.09,1.09,0,0,0-.54-.07,1,1,0,0,0-.25.07h0a1.17,1.17,0,0,0-.27.15,1.27,1.27,0,0,0-.43.83,1.07,1.07,0,0,0,.93,1.2A1.21,1.21,0,0,0,29,43Z"/>
          <path class="cls-5" d="M30.09,45.81c-.62,0-.52,1,.1,1S30.7,45.81,30.09,45.81Z"/>
          <path class="cls-5" d="M73.72,45.11a1.19,1.19,0,0,0-.62,0,.91.91,0,0,0-.57,1.14l0,.09a.83.83,0,0,0,1.19.5l.08,0a.91.91,0,0,0,.62-.91A.94.94,0,0,0,73.72,45.11Z"/>
          <path class="cls-5" d="M75.38,47.35c-.49,0-.45.77,0,.77S75.88,47.35,75.38,47.35Z"/>
          <path class="cls-5" d="M70.67,50.14a1.71,1.71,0,0,0-.2-.18c-.47-.37-1.15.12-1.16.64a.77.77,0,0,0,1.29.56.44.44,0,0,0,.14-.16A.71.71,0,0,0,70.67,50.14Z"/>
          <path class="cls-5" d="M67,46.41l-.12,0c-.35-.14-.4.6,0,.42l.1,0C67.14,46.68,67.09,46.46,67,46.41Z"/>
          <path class="cls-5" d="M56.46,40.61c-.63,0-.52,1,.11,1S57.1,40.61,56.46,40.61Z"/>
          <path class="cls-5" d="M61.36,43c-.67,0-.54,1,.12,1S62,43,61.36,43Z"/>
          <path class="cls-5" d="M38.33,42.45c-.48,0-.44.76,0,.76S38.82,42.45,38.33,42.45Z"/>
          <path class="cls-5" d="M35.33,43.91h0c-.47-.13-.73.5-.49.83A.88.88,0,0,0,35,45a.27.27,0,0,0,.3,0l.07-.06h0a.5.5,0,0,0,.32-.53A.54.54,0,0,0,35.33,43.91Z"/>
          <path class="cls-13" d="M100.33,53.25c.18-1.18-1.76-1.43-2.22-2.35.49-.26,1.86-.21,1.24-.92-.44-.52-1.77-.08-2.3-.08-2.17,0-1.69-1-.54-2.22-.93-.38-2.63,1.86-3.14.44a.84.84,0,0,1-.93-.23,7.18,7.18,0,0,0-.38.79A1.83,1.83,0,0,1,92,49c-.19,1.59-.38,2,1.23.88.53.46.23,1.13.37,1.68,1.19-.84,1.89-.51,2,1,1.4-.69,1.51,1,2.34,1.71C98.73,52.79,98.53,53,100.33,53.25Z"/>
          <path class="cls-13" d="M15.06,47.51a1,1,0,0,1-.22-.14c-.81-.68-.36-3.44-1.28-3.52-.41,2.17-1.59-1.2-1.93-1.38-.14.28-.47.55-.55.9C10,43.1,9.67,41.44,8.53,41.58c.21.35,0,.31.05.66-1.68,0-4.36.47-1.47,1.39.87.28,1.44.25,1.41,1.25,0,1.19-1,.44,0,1.42.23.23.72-.14,1,.3.18.27-.5.83-.31,1.07.65.86,1.27-.59,2-.11,1,.65-1.07,3.64,1.51,2.54a16,16,0,0,1,1.76-.81A10.66,10.66,0,0,0,15.06,47.51Z"/>
          <path class="cls-13" d="M31.82,2a5.71,5.71,0,0,0-5.64,4.66,18.05,18.05,0,0,1,3.53-.35,14.41,14.41,0,0,1,7.79,2,5.19,5.19,0,0,0,0-.68A5.69,5.69,0,0,0,31.82,2Z"/>
        </g>
      </g>
    </g>
  </g>
</svg>
