<svg xmlns="http://www.w3.org/2000/svg" width="85" height="95" viewBox="0 0 85 95">
  <defs>
    <style>
      .cls-1 {
        isolation: isolate;
      }

      .cls-2 {
        fill: #d0d2f5;
      }

      .cls-3 {
        fill: #b3a1f0;
      }

      .cls-4 {
        fill: #5057b8;
      }

      .cls-5, .cls-6 {
        fill: #f0d907;
      }

      .cls-5 {
        mix-blend-mode: multiply;
      }

      .cls-7 {
        fill: #fff;
      }

      .cls-8 {
        fill: #e8e8e8;
      }

      .cls-9 {
        fill: #ff2377;
      }

      .cls-10 {
        fill: #242424;
      }

      .cls-11 {
        fill: #315400;
      }

      .cls-12 {
        fill: #599100;
      }

      .cls-13 {
        fill: #ff3381;
      }
    </style>
  </defs>
  <g class="cls-1">
    <g id="Ñëîé_1" data-name="Ñëîé 1">
      <g>
        <g>
          <path class="cls-2" d="M76.74,45.79c-4.8,4.28-15.08-3.31-17.37-5.87s-.24-8.09,4.55-12.37,14.34-4.57,16.62-2S81.53,41.51,76.74,45.79Z"/>
          <g>
            <path class="cls-3" d="M58.63,38.52c3.91-5.42,12.52-9.4,22.86-10.22,0-.29-.08-.57-.13-.83-10.14.83-18.66,4.67-22.91,10A4.29,4.29,0,0,0,58.63,38.52Z"/>
            <path class="cls-3" d="M81,36.46l.15-.81c-8.92-1.3-17.1.05-22.35,3.43a3.21,3.21,0,0,0,.48.77c5.3-.88,12.09.63,18.8,4.32.16-.22.3-.46.44-.7-6.19-3.4-12.48-5-17.69-4.62C65.94,36.26,73.18,35.32,81,36.46Z"/>
          </g>
          <path class="cls-3" d="M81.84,27.07a.79.79,0,0,0-.67.88.81.81,0,0,0,.88.67.78.78,0,0,0,.67-.88A.8.8,0,0,0,81.84,27.07Z"/>
          <path class="cls-3" d="M81.2,35.18a.86.86,0,0,0-.93.74.84.84,0,0,0,.74.93.86.86,0,0,0,.93-.74A.84.84,0,0,0,81.2,35.18Z"/>
          <path class="cls-3" d="M78.25,42.9a1,1,0,0,0-1,.91,1,1,0,1,0,1-.91Z"/>
        </g>
        <g>
          <path class="cls-2" d="M8.26,44.84c4.8,4.28,15.08-3.31,17.37-5.87s.24-8.1-4.55-12.38S6.74,22,4.46,24.58,3.47,40.56,8.26,44.84Z"/>
          <g>
            <path class="cls-3" d="M26.37,37.56c-3.91-5.41-12.52-9.4-22.86-10.22,0-.29.08-.56.13-.82,10.14.82,18.66,4.67,22.91,10A4.21,4.21,0,0,1,26.37,37.56Z"/>
            <path class="cls-3" d="M4,35.51l-.15-.81c8.92-1.3,17.1,0,22.35,3.43a3.66,3.66,0,0,1-.48.77c-5.3-.89-12.09.63-18.8,4.32-.16-.23-.3-.46-.44-.7,6.19-3.4,12.48-5,17.68-4.63C19.07,35.3,11.82,34.36,4,35.51Z"/>
          </g>
          <path class="cls-3" d="M3.16,26.12a.79.79,0,0,1,.67.88.81.81,0,0,1-.88.67.78.78,0,0,1-.67-.88A.79.79,0,0,1,3.16,26.12Z"/>
          <path class="cls-3" d="M3.8,34.22a.87.87,0,0,1,.93.74A.85.85,0,0,1,4,35.9a.86.86,0,0,1-.93-.74A.85.85,0,0,1,3.8,34.22Z"/>
          <path class="cls-3" d="M6.75,41.94a1,1,0,0,1,1,.92,1,1,0,1,1-1-.92Z"/>
        </g>
        <g>
          <path class="cls-4" d="M38.18,87.38c-1.4-1-2.94-.82-4.49-.48a1,1,0,0,1-.15-.35,16.25,16.25,0,0,1,0-5.3c.28-2.71,1-5.4,1.49-8.07a.28.28,0,0,0-.5-.21,16.72,16.72,0,0,0-2.45,6.51c-.84-2.69-2-5.33-2.61-8a.27.27,0,0,0-.53.06c.07,2.47,1.19,4.85,1.8,7.21a19.25,19.25,0,0,1,.54,7.83c-1.83,1.12-5,.63-7,1.29a1,1,0,0,0-.61,1c.52,2.5,2.39,2.49,4.36,1.95a1.14,1.14,0,0,0,.43,1.28c1.8,1.53,3-.47,4-2,.94,1.3,2.41,3,4,1.8a1.46,1.46,0,0,0,.26-2.27,2.23,2.23,0,0,0,1.6-1A1,1,0,0,0,38.18,87.38Z"/>
          <path class="cls-4" d="M46,87.38c1.45-1,3-.82,4.66-.48a1.23,1.23,0,0,0,.15-.35,15.46,15.46,0,0,0,0-5.3c-.29-2.71-1-5.4-1.54-8.07a.28.28,0,0,1,.51-.21,16.27,16.27,0,0,1,2.55,6.51c.87-2.69,2.1-5.33,2.71-8a.28.28,0,0,1,.54.06c-.07,2.47-1.23,4.85-1.86,7.21a18.75,18.75,0,0,0-.57,7.83c1.9,1.12,5.16.63,7.27,1.29a.94.94,0,0,1,.63,1c-.54,2.5-2.47,2.49-4.52,1.95a1.1,1.1,0,0,1-.44,1.28c-1.88,1.53-3.1-.47-4.2-2-1,1.3-2.5,3-4.1,1.8a1.43,1.43,0,0,1-.27-2.27,2.35,2.35,0,0,1-1.66-1A.94.94,0,0,1,46,87.38Z"/>
          <g>
            <path class="cls-5" d="M44.25,37.18a6.78,6.78,0,0,1-6.44-7.08A5.59,5.59,0,0,1,38,29a6.76,6.76,0,1,1,6.29,8.15Z"/>
            <path class="cls-6" d="M44.25,37.18a6.78,6.78,0,0,1-6.44-7.08A5.59,5.59,0,0,1,38,29a6.76,6.76,0,1,1,6.29,8.15Z"/>
            <g>
              <g>
                <path class="cls-7" d="M39,30.15a5.6,5.6,0,1,0,5.85-5.32A5.6,5.6,0,0,0,39,30.15Z"/>
                <path class="cls-8" d="M39.26,28.73a5.57,5.57,0,0,0,10.88,1.61c0,.11,0,.22,0,.33A5.6,5.6,0,1,1,39,30.15,6.16,6.16,0,0,1,39.26,28.73Z"/>
              </g>
              <g>
                <path d="M40.29,28.78a2.79,2.79,0,1,0,2.92-2.65A2.8,2.8,0,0,0,40.29,28.78Z"/>
                <path class="cls-7" d="M43.11,28.18a1.11,1.11,0,0,0,1.06,1.16,1.12,1.12,0,0,0,.1-2.23A1.12,1.12,0,0,0,43.11,28.18Z"/>
              </g>
            </g>
          </g>
          <path class="cls-4" d="M62.71,52.61C62,69,52.09,73.62,40.22,73.07S19,67,19.72,50.61,31.11,13.11,43,13.67,63.48,36.21,62.71,52.61Z"/>
          <g>
            <path class="cls-9" d="M31.49,10.88c-.9,0-1.29.41-1.44,1.36a5,5,0,0,1-1-3.79c-2.19.56-2.5,2.32-1.93,3.93a2.72,2.72,0,0,1-.37-.53A9.94,9.94,0,0,1,26.41,6a5.5,5.5,0,0,0-2,2.18,6.77,6.77,0,0,0-.81,2.58,3.68,3.68,0,0,0,0,.74,8.25,8.25,0,0,1-2.48-4.28c-1.86,1-2.54,3.72-2.65,5.56-1.71-1-2.6-3.73-2.8-4.91A5.58,5.58,0,0,0,14,12.66c-1.1-.55-2-1.82-3.22-3.54-1.46,2.85-.21,5.67.62,6.18-1,.17-2.07-.6-3.49-1.62,1.16,4.76,3.28,8.55,9.11,6.8,3.59-1.07,7.72-3.59,15.57,1.44a4.11,4.11,0,0,0,3.33-4C34,15.73,31.31,16.23,31.49,10.88Z"/>
            <path class="cls-9" d="M54.49,12c.9.09,1.25.53,1.31,1.49a5,5,0,0,0,1.31-3.69c2.13.77,2.28,2.55,1.56,4.1a3.37,3.37,0,0,0,.42-.5A9.92,9.92,0,0,0,60,7.56a5.34,5.34,0,0,1,1.81,2.36,6.49,6.49,0,0,1,.57,2.64,3.64,3.64,0,0,1-.09.73,8.21,8.21,0,0,0,2.87-4c1.75,1.2,2.18,3.94,2.12,5.79,1.8-.88,2.93-3.48,3.25-4.63a5.57,5.57,0,0,1,1.21,4.93c1.15-.44,2.18-1.63,3.54-3.22,1.19,3-.32,5.66-1.19,6.09,1,.27,2.12-.4,3.62-1.29-1.6,4.63-4.06,8.21-9.7,5.93-3.48-1.4-7.36-4.3-15.64,0a4.14,4.14,0,0,1-3-4.26C51.53,16.55,54.18,17.29,54.49,12Z"/>
          </g>
          <g>
            <path class="cls-9" d="M46.7,11A6.45,6.45,0,0,0,46,6.52,2.64,2.64,0,0,1,44.74,9c.19-1-1.08-5.47-2.68-6.72.29,1.47-.29,2.43-.49,3.78a14.86,14.86,0,0,1-.45-2c-.89,1.1-2.22,3.65-1.73,5.2a5,5,0,0,0-1.06-1.85c-1,2.49-.49,4.71,2.28,5.77-.54.49-1.81.27-2.54.11,1.4,1.25,3.75,1.27,5.51,1.1C45.15,14.3,46.39,12.7,46.7,11Z"/>
            <path class="cls-10" d="M46.18,17s-4.21-3-8.19-.83c-1.92,1-.2,2,.22,1.8C41.74,16.15,46.18,17,46.18,17Z"/>
            <g>
              <path class="cls-11" d="M40.69,36.18A9,9,0,0,1,33.41,25.8a8.4,8.4,0,0,1,.39-1.39,8.94,8.94,0,0,1,17.33,4,4.32,4.32,0,0,1-.05.54A9,9,0,0,1,40.69,36.18Z"/>
              <g>
                <g>
                  <path class="cls-7" d="M35.3,26.13a7.05,7.05,0,1,0,8.17-5.72A7.06,7.06,0,0,0,35.3,26.13Z"/>
                  <path class="cls-8" d="M35.87,24.39a7,7,0,0,0,13.36,3.76c0,.15,0,.28,0,.43A7.05,7.05,0,1,1,35.3,26.13,7.25,7.25,0,0,1,35.87,24.39Z"/>
                </g>
                <g>
                  <path d="M37.16,24.62a3.51,3.51,0,1,0,4.07-2.85A3.52,3.52,0,0,0,37.16,24.62Z"/>
                  <path class="cls-7" d="M40.78,24.32a1.41,1.41,0,1,0,1.63-1.14A1.4,1.4,0,0,0,40.78,24.32Z"/>
                </g>
              </g>
            </g>
            <g>
              <path class="cls-12" d="M56,34.82c-1.45-1.12-3.08.46-3.08.46a16.74,16.74,0,0,1-10.81,4v0c-.53,0-1.06,0-1.59-.1a16.69,16.69,0,0,1-11.23-6.17s-1.3-1.87-2.94-1.05-3,16,10.7,18.93v0a10.3,10.3,0,0,0,1.13.25c.51.09,1,.16,1.56.2C55.74,52.64,57.37,35.89,56,34.82Z"/>
              <path class="cls-11" d="M40.61,40.4a19.11,19.11,0,0,1-12.9-6.33,11.25,11.25,0,0,0-.37,2c-.54,6.77,5.07,12.74,12.54,13.34s14-4.4,14.51-11.17a11.64,11.64,0,0,0,0-2A19.12,19.12,0,0,1,40.61,40.4Z"/>
              <g>
                <path class="cls-7" d="M46.87,43.26c-2.1,3.83-11,2.48-11,2.48l-.29,2.68a14.64,14.64,0,0,0,4.28,1,13.89,13.89,0,0,0,11.93-4.86C50.72,42.44,48.56,40.18,46.87,43.26Z"/>
                <path class="cls-7" d="M33.56,47.44c-.78-2.69.38-7-1-5.82a11.73,11.73,0,0,0-2.25,3.11A13.79,13.79,0,0,0,33.56,47.44Z"/>
              </g>
              <g>
                <path class="cls-7" d="M50.79,38.48A6.58,6.58,0,0,1,52,40.61c.45,1.52,1.56-2.12,1.4-3.67A17.58,17.58,0,0,1,50.79,38.48Z"/>
                <path class="cls-7" d="M32.75,38.07a20.2,20.2,0,0,1-2.21-1.41,10.59,10.59,0,0,0-.81,3.48C29.72,41.93,31.07,39.05,32.75,38.07Z"/>
              </g>
            </g>
          </g>
          <g>
            <path class="cls-9" d="M69.4,47.66c1.22.26.43.35,2.95,1a20.54,20.54,0,0,0-2.25-7,3.09,3.09,0,0,0,.43.14,1.6,1.6,0,0,0-.65-1.27,11.07,11.07,0,0,1,1.38,1c-.76-2-1.88-4.83-4.78-6.31-1.31-.66-6.26-3-7.37-4.1.42.64.33,1.48.71,2.12a8.06,8.06,0,0,0-1.54-.5A5.92,5.92,0,0,0,60.79,36c-.92.11-1-.41-3.15-.51.9,1,2.3,2.93,3.28,3.87a5.86,5.86,0,0,0-3.26.52c1.16,1.53,2.55,2.43,3.52,3.78-.33-.15-1.82,0-2.19-.11.64,3.13,2.1,3.65,2.69,6.92a6.22,6.22,0,0,0-2.63-1.83c.92,2,.78,5.4.23,8.08a5,5,0,0,1-2.59-1.61,8.79,8.79,0,0,1-1.17,6.25c-.3-1.26-.33-2.86-1.15-3.94.81,2.25-1.93,8-4.32,8.27a9,9,0,0,0-.74-2.27,5.9,5.9,0,0,0-1.86,2.7,5.83,5.83,0,0,1-1.06-2.27c-.54,1.61-.36,3-1.66,4.49-2.19-3.49-1.6.9-2.84,2.62-.67-5.09-3.7-5.29-3.3-9.74-1,.13-2.15,1.53-2.52,2.52-.42-1-.16-3.9-.82-4.61-.79.82-1.28.45-2.16,1.72a14.28,14.28,0,0,1-.56-4.48c-1.21,0-1.88,1-2.09,2.12-.8-2.26-1.81-5.62-.65-7.8-2.22.15-3.33,1.78-4.74,3.16-1.09-2.1-.38-3.85,1.37-5.65A6.3,6.3,0,0,0,22.74,46c.6-.55,1.39-1.8,2.43-2.21a9.29,9.29,0,0,0-2.62-4.65,6.64,6.64,0,0,1,2.34.56c.11-1.9-1-3.05-.57-4.2.19.65.37.77.66.89,0-1,.13-1.86.08-2.83-.09-1.75-.46-2.43-.23-3.26a22.92,22.92,0,0,0-4.69,3.75c-1.85,2.13-5.53,5.06-7.65,7,1.64.2,1.9-.19,1,.9a10.24,10.24,0,0,0-2.72,5c2.29-.84,4.87-2.1,3.92,1.13-1,3.44-4.58,10.5-1.2,13.67A1.8,1.8,0,0,1,14.75,60c.37,2.79,1,6.22,3.1,8.34-.17-2.53,1.23-2.23,2-.32,1.11,2.64,2,8.82,5.76,9.24-1-1.22-.27-1.37.67-.65A8.52,8.52,0,0,1,28,79.23l.06,0a10.44,10.44,0,0,0,2.31,3.16,2.11,2.11,0,0,1-.11-1.09l.77.61.26.21a19.21,19.21,0,0,0,1.58,1.44l.13-.37a7.19,7.19,0,0,1,2.67,2.09,14.38,14.38,0,0,0,1.2-2.46,7.37,7.37,0,0,0,.65,1,14.79,14.79,0,0,0,1.33,1.28c1.3,1.7,3.09,3.51,3.87,4.5a6.59,6.59,0,0,0,.27.86c.69-1.28,3.32-4.46,4.19-6.67.29-.29.55-.58.79-.86a14.81,14.81,0,0,0,1.35,2.41c.42-1.23,3-2.63,4-3.72.42-.46.94-.9,1.39-1.38a9.15,9.15,0,0,1-.38,3.29,8,8,0,0,0,3.08-5.7c.09.65.36,1.44.44,2a12.61,12.61,0,0,0,2-4.25,5.87,5.87,0,0,0,0-1.32c.7-.38,1.09-.13.31.93a4.2,4.2,0,0,0,.89-.28,6.77,6.77,0,0,1,.21,1.48c.33-.9,1.22-1.59,1.66-2.48a9.11,9.11,0,0,0,.81-2.26c.87-2.11,1.23-4.65,1.75-6.14.68-2,2.15-2.38,2.19.15,2-2.29,2.42-5.76,2.57-8.57a1.83,1.83,0,0,1,1.52,1.65C75.12,55.32,70.79,51,69.4,47.66Z"/>
            <path class="cls-9" d="M71.26,41.5Z"/>
          </g>
          <path class="cls-13" d="M63.81,51.24a29.1,29.1,0,0,1-1.2,4.18,9.19,9.19,0,0,1-.79,2.2c-.43.87-1.29,1.53-1.62,2.41a7.13,7.13,0,0,0-.2-1.44,4,4,0,0,1-.87.28c.76-1,.37-1.28-.3-.91a6.11,6.11,0,0,1,0,1.28,12.44,12.44,0,0,1-1.92,4.14c-.09-.54-.35-1.32-.44-1.94a7.71,7.71,0,0,1-3,5.54,9,9,0,0,0,.38-3.2c-.45.47-1,.9-1.36,1.35-1,1.06-3.52,2.42-3.93,3.62a15.26,15.26,0,0,1-1.31-2.35c-.24.28-.49.56-.77.84-.85,2.16-3.41,5.26-4.08,6.49a6.18,6.18,0,0,1-.27-.83c-.75-1-2.5-2.73-3.76-4.38A14.17,14.17,0,0,1,37,67.27a7.16,7.16,0,0,1-.63-1,13.78,13.78,0,0,1-1.17,2.41,6.89,6.89,0,0,0-2.6-2c0,.12-.09.24-.13.35A16.65,16.65,0,0,1,31,65.56l-.25-.2c-.23-.2-.49-.39-.75-.59a2,2,0,0,0,.1,1.06,10.3,10.3,0,0,1-2.25-3.08l0,0a8.27,8.27,0,0,0-1.63-2.57c-.91-.7-1.63-.55-.66.63-3.65-.4-4.52-6.43-5.6-9a3.27,3.27,0,0,0-.82-1.22c-1,3-3.51,8.39-.85,10.88A1.5,1.5,0,0,1,19.27,60c.31,2.32.85,5.17,2.57,6.93-.14-2.1,1-1.85,1.69-.26.92,2.19,1.67,7.33,4.78,7.67-.83-1-.22-1.13.57-.54A7.44,7.44,0,0,1,30.26,76l0,0a8.63,8.63,0,0,0,1.92,2.62,1.75,1.75,0,0,1-.09-.91c.22.17.44.34.64.51a2.11,2.11,0,0,0,.22.17,16.32,16.32,0,0,0,1.31,1.2c0-.1.07-.21.11-.31A5.91,5.91,0,0,1,36.63,81a10.82,10.82,0,0,0,1-2.05,6.79,6.79,0,0,0,.54.88,12.57,12.57,0,0,0,1.11,1.06c1.08,1.41,2.57,2.92,3.21,3.74a4.52,4.52,0,0,0,.23.71c.57-1,2.76-3.7,3.48-5.54q.36-.36.66-.72a11.78,11.78,0,0,0,1.11,2c.36-1,2.53-2.19,3.36-3.09.35-.38.78-.75,1.16-1.15a7.81,7.81,0,0,1-.32,2.73,6.59,6.59,0,0,0,2.55-4.73c.08.54.3,1.2.37,1.66A10.36,10.36,0,0,0,56.73,73a5,5,0,0,0,0-1.09c.58-.32.91-.12.25.77a2.92,2.92,0,0,0,.74-.24,5.22,5.22,0,0,1,.18,1.23c.28-.75,1-1.31,1.38-2A7.68,7.68,0,0,0,60,69.76c.72-1.76,1-3.87,1.45-5.11.58-1.64,1.79-2,1.83.13,1.69-1.9,2-4.79,2.13-7.12A1.53,1.53,0,0,1,66.67,59c2.31-2.39.18-5.28-1.26-7.79Z"/>
          <path class="cls-4" d="M26.71,71.28s0,0,0,0S26.74,71.28,26.71,71.28Z"/>
          <path class="cls-4" d="M29.35,71.56s0,0,0,0S29.38,71.56,29.35,71.56Z"/>
          <path class="cls-4" d="M15,62.51c.47-2.76,2.16-4.57,3.66-6.8C20.52,53,22.05,50.33,22.14,47a.21.21,0,0,0-.38-.12l0,0c-.11-.47-.66-.85-1.07-.4a.44.44,0,0,0-.08.11,1.16,1.16,0,0,0-.2-.24s-.07,0-.1,0a2.44,2.44,0,0,0-.35.42c0-.11-.05-.22-.08-.32a.6.6,0,0,0-1.17,0l0,0a.21.21,0,0,0-.11.08l0,0a4.27,4.27,0,0,0-.88,1.45,22.08,22.08,0,0,0-1.08,2.62c-1.22,2.31-2.74,4.46-3.91,6.8a14.67,14.67,0,0,0-1.27,6.94,12.78,12.78,0,0,0,.39,2.62,20.74,20.74,0,0,1-1.28,3.66c-.65,1.81,1.26,4.58,3.1,4.86.54.08,1.14-.32,1-.94A6.16,6.16,0,0,0,13.68,73a3.64,3.64,0,0,1-.83-2.84c.62,1.12.71,2.43,2,3.1a1.08,1.08,0,0,0,1.59-1.12A4.34,4.34,0,0,0,16,70.63a1,1,0,0,0,1.06-1.21,5,5,0,0,0-2.3-2.85A18.25,18.25,0,0,1,15,62.51Z"/>
          <path class="cls-4" d="M71.74,62.07c-.59-2.76-2.72-4.57-4.62-6.81-2.31-2.71-4.24-5.38-4.36-8.68,0-.21.33-.29.48-.12l0,0a.86.86,0,0,1,1.36-.4l.1.11A1.81,1.81,0,0,1,65,46a.12.12,0,0,1,.13,0,3.47,3.47,0,0,1,.45.41c0-.1.06-.21.1-.32a.8.8,0,0,1,1.47,0h0l.14.08,0,0a4.06,4.06,0,0,1,1.12,1.44,20.29,20.29,0,0,1,1.36,2.62c1.54,2.32,3.47,4.46,4.94,6.81A12,12,0,0,1,76.35,64a10.4,10.4,0,0,1-.49,2.62,17.68,17.68,0,0,0,1.62,3.66c.82,1.81-1.6,4.58-3.93,4.86-.67.08-1.43-.33-1.19-.94a5.62,5.62,0,0,1,1.1-1.64,3.17,3.17,0,0,0,1.05-2.84c-.79,1.12-.91,2.43-2.55,3.09-1.08.44-2.11-.25-2-1.12a4,4,0,0,1,.57-1.53c-.77.1-1.67-.5-1.33-1.21a5.36,5.36,0,0,1,2.9-2.85A14.1,14.1,0,0,0,71.74,62.07Z"/>
          <path class="cls-9" d="M18.84,45c-1.81,1.65-2.22,3.92-3.1,6.06.29-.52.48-1.24,1-1.59l.26.16c-.64.93-.45,2.51-.38,3.59A4.45,4.45,0,0,1,19.12,51a6.35,6.35,0,0,0-.66,2.59c0,.75.12,3.67,1.06,3.87.05-1.06-.07-3.07,1.21-3.45a5.07,5.07,0,0,0,1.4,2.65,13.17,13.17,0,0,1-.13-4c.17-.94.78-2.57,0-3.37.44.36.62.89,1.16,1.13.8-1.05,0-3.26-.75-4.1-.39-.46-.91-.72-.65-1.32s2.4-2.5.24-2.1A7.79,7.79,0,0,0,18.84,45Z"/>
          <path class="cls-9" d="M68.71,49.07a4.75,4.75,0,0,0-3.35-4.52,4.84,4.84,0,0,0-3.66.75,8.19,8.19,0,0,1,.66,2.43c.18,1.19.38,2.39.45,3.59.17.5.29,1,.49,1.51.13.31,1.12,1.62,1.06,1.85.24-.91.42-1.86.65-2.77a5.71,5.71,0,0,0,1.16,1.38c.59-1.86.58-3.48-1-4.87a6.39,6.39,0,0,1,2.3,3,6.28,6.28,0,0,0,.07-2.85A1.9,1.9,0,0,0,68.71,49.07Z"/>
          <path class="cls-9" d="M29.74,27a.57.57,0,0,0-.62.48.55.55,0,1,0,1.1.13A.54.54,0,0,0,29.74,27Z"/>
          <path class="cls-9" d="M31.74,30.24c-.24,0-.26.37,0,.37S32,30.24,31.74,30.24Z"/>
          <path class="cls-9" d="M31.67,32.13a.18.18,0,0,0-.17-.19h-.14a.31.31,0,0,0-.21.52.31.31,0,0,0,.53-.22A.41.41,0,0,1,31.67,32.13Z"/>
          <path class="cls-9" d="M34.34,33.51c-.7,0-.84,1.1-.13,1.1S35.05,33.51,34.34,33.51Z"/>
          <path class="cls-9" d="M36.56,35.56a.8.8,0,0,0,0,1.6A.8.8,0,0,0,36.56,35.56Z"/>
          <path class="cls-9" d="M39.41,37.55a0,0,0,0,0-.09,0l0,.11c0,.15.19.14.16,0S39.42,37.6,39.41,37.55Z"/>
          <path class="cls-9" d="M39.24,38.07c0-.34-.05-.69-.07-1a.5.5,0,0,0-.26.11h0s-.06,0-.11.1a.54.54,0,0,0-.11.37.56.56,0,0,0,.19.33.4.4,0,0,0,.31.15.21.21,0,0,1-.12,0A.28.28,0,0,0,39.24,38.07Z"/>
          <path class="cls-9" d="M41.3,37.89a.29.29,0,0,0,0,.57A.29.29,0,0,0,41.3,37.89Z"/>
          <path class="cls-9" d="M43.33,36.93c-.51,0-.45.8.06.8S43.84,36.93,43.33,36.93Z"/>
          <path class="cls-9" d="M45.81,37c-.92,0-1,1.42-.05,1.42S46.72,37,45.81,37Z"/>
          <path class="cls-9" d="M48,35.12c-.67,0-.53,1,.13,1S48.68,35.12,48,35.12Z"/>
          <path class="cls-9" d="M49.36,36.23c-.65,0-.52,1,.12,1S50,36.23,49.36,36.23Z"/>
          <path class="cls-9" d="M51.47,34a.78.78,0,1,0,.78.77A.79.79,0,0,0,51.47,34Z"/>
          <path class="cls-9" d="M53.54,30.11a.2.2,0,0,0,0,.39A.2.2,0,0,0,53.54,30.11Z"/>
          <path class="cls-9" d="M55.11,32.46a.27.27,0,0,0,0,.54A.27.27,0,0,0,55.11,32.46Z"/>
          <path class="cls-9" d="M52.79,32.63v0a.5.5,0,0,0-.52-.61.49.49,0,0,0-.25.85h0a.5.5,0,0,0,.67-.06l0,0,0,0Z"/>
          <path class="cls-9" d="M52.7,27.65c-.15,0-.17.23,0,.23S52.85,27.65,52.7,27.65Z"/>
          <path class="cls-9" d="M54.86,28.92a.3.3,0,0,0,0,.59A.3.3,0,0,0,54.86,28.92Z"/>
          <path class="cls-9" d="M56.44,29.47a1,1,0,0,0-1.07-.86,1,1,0,0,0-.86,1.07,1,1,0,0,0,1.07.86A1,1,0,0,0,56.44,29.47Z"/>
          <path class="cls-9" d="M29.28,29.9c-.53,0-.47.81.06.81S29.81,29.9,29.28,29.9Z"/>
          <path class="cls-9" d="M29.33,29.16a.78.78,0,1,0,.78.78A.79.79,0,0,0,29.33,29.16Z"/>
          <path class="cls-9" d="M32,26.83c-.17,0-.3.22-.16.34l0,0c0,.07.17.11.22,0l0,0A.21.21,0,0,0,32,26.83Z"/>
          <path class="cls-9" d="M30.77,31.68a.7.7,0,0,0-.58-.11c-.63.05-.6,1,0,1.11h.13a.59.59,0,0,0,.6-.36h0A.56.56,0,0,0,30.77,31.68Z"/>
          <path class="cls-9" d="M33.3,34.1c0,.09,0,.11,0,0v0c-.08-.38-.65-.31-.72,0v.06c-.07.31.31.63.59.41l.14-.12A.28.28,0,0,0,33.3,34.1Z"/>
          <path class="cls-9" d="M33,30.43a.46.46,0,0,0-.26-.13c-.57-.14-.6.88,0,.73A.38.38,0,0,0,33,30.9.34.34,0,0,0,33,30.43Z"/>
          <path class="cls-9" d="M50.34,34l0,0a.34.34,0,0,0-.59,0l0,0a.37.37,0,0,0,.35.54A.38.38,0,0,0,50.34,34Z"/>
          <path class="cls-9" d="M48,37.18c0-.25-.37-.17-.4,0a.38.38,0,0,0,0,.1.21.21,0,0,0,.42,0A.81.81,0,0,0,48,37.18Z"/>
          <path class="cls-9" d="M40.62,36.57c-.83,0-.92,1.28-.09,1.28S41.45,36.57,40.62,36.57Z"/>
          <path class="cls-9" d="M38.93,36.94a.64.64,0,0,0-.68.59.63.63,0,0,0,.58.67.63.63,0,1,0,.1-1.26Z"/>
          <path class="cls-9" d="M31,29S31,29,31,29,31,29,31,29Z"/>
          <path class="cls-9" d="M31,28.65a.33.33,0,0,0,0,.65A.33.33,0,0,0,31,28.65Z"/>
          <path class="cls-9" d="M51.85,29.6h0c-.74-.34-1,1-.28,1h.17a.4.4,0,0,0,.41-.37A.49.49,0,0,0,51.85,29.6Z"/>
          <path class="cls-9" d="M54.41,33.14c0-.42-.72-.52-.77-.06v.05c-.07.6.85.61.79.06A.11.11,0,0,1,54.41,33.14Z"/>
          <path class="cls-9" d="M43.85,38.18s0-.07,0-.06,0,0,0,0h0a.24.24,0,0,0-.43.05.17.17,0,0,0,0,.1.26.26,0,1,0,.51,0Z"/>
          <path class="cls-9" d="M46.75,35.81a.38.38,0,0,0-.13-.09.32.32,0,0,0-.47.2c0,.21.17.49.4.39a.61.61,0,0,0,.24-.15A.22.22,0,0,0,46.75,35.81Z"/>
          <path class="cls-9" d="M32.32,24.4a.53.53,0,0,0-.45.58.54.54,0,0,0,.59.45.53.53,0,0,0,.45-.58A.55.55,0,0,0,32.32,24.4Z"/>
          <path class="cls-9" d="M52.54,25.5a.67.67,0,0,0-.7.62.66.66,0,0,0,1.31.08A.67.67,0,0,0,52.54,25.5Z"/>
          <path class="cls-9" d="M52.29,28.72a.87.87,0,0,0-.07.17.38.38,0,0,0,.49.44.58.58,0,0,0,.18-.08C53.42,28.91,52.68,28.12,52.29,28.72Z"/>
          <path class="cls-9" d="M54,28.18a.27.27,0,0,0,0,.53A.27.27,0,0,0,54,28.18Z"/>
          <path class="cls-9" d="M50.75,32.52h0a.16.16,0,0,0-.15-.14h0a.19.19,0,1,0,0,.38h.08s0,0,.06,0a.17.17,0,0,0,.06-.14A.11.11,0,0,0,50.75,32.52Z"/>
          <path class="cls-9" d="M34.24,35.56h-.06a.35.35,0,0,0-.19.51.36.36,0,0,0,.29.16h0A.35.35,0,1,0,34.24,35.56Z"/>
          <path class="cls-9" d="M36,35c-.23,0-.25.35,0,.35S36.22,35,36,35Z"/>
          <path class="cls-9" d="M32.92,32.33a.14.14,0,0,0,0,.06,0,0,0,0,0,.07,0l0-.06C33.09,32.22,32.87,32.22,32.92,32.33Z"/>
          <path class="cls-9" d="M33,32a.32.32,0,0,0,0,.63A.32.32,0,0,0,33,32Z"/>
          <path class="cls-9" d="M31.28,33.59c-.27,0-.29.43,0,.43A.22.22,0,0,0,31.28,33.59Z"/>
          <path class="cls-9" d="M31.3,25.66h0c-.32-.09-.3.45,0,.37h0A.18.18,0,0,0,31.3,25.66Z"/>
          <path class="cls-9" d="M32.5,28.71h0c-.52-.06-.53.72-.07.66h0C32.78,29.33,32.9,28.76,32.5,28.71Z"/>
          <path class="cls-9" d="M53.55,30.88c-.48,0-.44.76.05.76S54,30.88,53.55,30.88Z"/>
          <path class="cls-9" d="M52.78,34.1c-.46,0-.43.72,0,.72S53.24,34.1,52.78,34.1Z"/>
          <path class="cls-9" d="M15.65,55.47l-.11,0a.27.27,0,0,0-.31.39.39.39,0,0,0,.35.19.2.2,0,0,0,.2-.19v0A.23.23,0,0,0,15.65,55.47Z"/>
          <path class="cls-9" d="M14.71,57a.31.31,0,0,0,0,.62A.31.31,0,0,0,14.71,57Z"/>
          <path class="cls-9" d="M14.82,55.46a.37.37,0,0,0-.23.63l0,0a.32.32,0,0,0,.45,0l0,0A.37.37,0,0,0,14.82,55.46Z"/>
          <path class="cls-9" d="M13.1,58.17a.35.35,0,0,0,.05.08.1.1,0,0,0,.16,0l.07-.09C13.6,57.83,12.84,57.8,13.1,58.17Z"/>
          <path class="cls-9" d="M13.05,60.21l-.12,0c-.4-.08-.39.55,0,.47l.11,0C13.23,60.58,13.26,60.25,13.05,60.21Z"/>
          <path class="cls-9" d="M14.49,58.09a.71.71,0,1,0,.69.73A.72.72,0,0,0,14.49,58.09Z"/>
          <path class="cls-9" d="M12.7,60.39c-.54,0-.47.83.07.83S13.24,60.39,12.7,60.39Z"/>
          <path class="cls-9" d="M12.85,63.2a.32.32,0,0,0,0,.63A.32.32,0,0,0,12.85,63.2Z"/>
          <path class="cls-9" d="M69.89,54a.49.49,0,0,1,0,.12c0,.52.76.44.78,0v-.12C70.71,53.44,69.87,53.47,69.89,54Z"/>
          <path class="cls-9" d="M71,55.29a.91.91,0,0,0-.84,1,.91.91,0,1,0,.84-1Z"/>
          <path class="cls-9" d="M74.57,58.26a.56.56,0,0,0-.61.47.55.55,0,0,0,.48.61.56.56,0,0,0,.61-.47A.55.55,0,0,0,74.57,58.26Z"/>
          <path class="cls-9" d="M71.2,58.12a.52.52,0,0,0-.39,0,.34.34,0,0,0,0,.64h0a.32.32,0,0,0,.43-.12l0,0A.35.35,0,0,0,71.2,58.12Z"/>
          <path class="cls-9" d="M73,60c-.28,0-.3.43,0,.43S73.3,60,73,60Z"/>
          <path class="cls-9" d="M75.25,60.76h-.12c-.13,0-.29.12-.27.27a.31.31,0,0,0,.46.27h0C75.6,61.22,75.57,60.74,75.25,60.76Z"/>
          <path class="cls-9" d="M74.13,62.73c.09-.59-.82-.58-.74-.06a.15.15,0,0,0,0,.06c0,.35.55.47.69.15a.16.16,0,0,0,0-.09Z"/>
          <path class="cls-9" d="M72.65,55.09a.5.5,0,0,0-.43.56.51.51,0,0,0,.56.43.5.5,0,0,0,.43-.56A.51.51,0,0,0,72.65,55.09Z"/>
          <path class="cls-9" d="M73.24,56.05a.33.33,0,0,0,0,.65A.33.33,0,0,0,73.24,56.05Z"/>
          <path class="cls-9" d="M73.05,57c-.54,0-.47.83.06.83S73.58,57,73.05,57Z"/>
        </g>
      </g>
    </g>
  </g>
</svg>
