<svg xmlns="http://www.w3.org/2000/svg" width="100" height="95" viewBox="0 0 100 95">
  <defs>
    <style>
      .cls-1 {
        isolation: isolate;
      }

      .cls-2 {
        fill: #8fe9ff;
      }

      .cls-3 {
        fill: #13a4a8;
      }

      .cls-4, .cls-5, .cls-7 {
        fill: #19b8bd;
      }

      .cls-5, .cls-6 {
        opacity: 0.5;
      }

      .cls-5, .cls-6, .cls-7, .cls-8 {
        mix-blend-mode: multiply;
      }

      .cls-7 {
        opacity: 0.2;
      }

      .cls-8, .cls-9 {
        fill: #f0d907;
      }

      .cls-10 {
        fill: #fff;
      }

      .cls-11 {
        fill: #e8e8e8;
      }

      .cls-12 {
        fill: #6e2810;
      }

      .cls-13 {
        fill: #f0b65e;
      }
    </style>
  </defs>
  <g class="cls-1">
    <g id="Ñëîé_1" data-name="Ñëîé 1">
      <g>
        <path class="cls-2" d="M94.56,47.2a27.48,27.48,0,0,1-8.86,7,41.88,41.88,0,0,1-10.33,3.62A62,62,0,0,1,67.19,59c-2.06.15-3.3.18-3.3.18l2.53-2.1c1.57-1.29,3.71-3.11,6-5.16a89.71,89.71,0,0,0,6.69-6.68c2-2.29,3.75-4.51,5.18-6.31l.54-.64.45-.63c.29-.4.62-.75.87-1.11.47-.71,1-1.27,1.4-1.79a7.79,7.79,0,0,1,1.23-1.26,4.88,4.88,0,0,1,1.11-.81c1.52-.79,3.14-.43,4.89.06s3.37.87,4,2.87A5.81,5.81,0,0,1,99,37.46,13.93,13.93,0,0,1,98.5,40a19.07,19.07,0,0,1-1.34,3.3A22,22,0,0,1,96,45.18c-.21.33-.44.67-.67,1S94.83,46.86,94.56,47.2Z"/>
        <path class="cls-2" d="M84.5,74C80.15,71.64,75,67.57,70.33,65.3A16.06,16.06,0,0,0,64,63.47a9.56,9.56,0,0,0-2.08.17l-.79.19.49-.67a8.78,8.78,0,0,1,1.71-1.64,13,13,0,0,1,3.28-1.71,20.48,20.48,0,0,1,4.53-1.05,34.31,34.31,0,0,1,10.37.46,33.37,33.37,0,0,1,9.17,3.11c5.06,2.74,7,5,7.55,6.81s-.46,3.15-1.52,4.63-2,2.8-3.74,3.08S88.86,76.33,84.5,74Z"/>
        <path class="cls-2" d="M15.55,37.35a38.13,38.13,0,0,1,3,3.1c1,1.19,1.84,2.32,2.73,3.51a72.65,72.65,0,0,0,5.26,6.57,25.63,25.63,0,0,0,2.7,2.5c.45.34.89.66,1.32.95s.85.53,1.24.75l1.09.54c.32.16.61.25.85.35l.76.29-.76.28c-.26.08-.57.2-.94.29l-1.3.29c-.49.08-1,.13-1.63.19S28.64,57,28,57a24,24,0,0,1-4.5-.65,35.24,35.24,0,0,1-9.47-4c-1.45-.86-2.87-1.82-4.05-2.69a33.11,33.11,0,0,1-3.3-2.59,18.9,18.9,0,0,1-4.77-6.22,7.54,7.54,0,0,1-.64-4.94A2.91,2.91,0,0,1,3,33.9a9.32,9.32,0,0,1,2.52-.49,13.43,13.43,0,0,1,4.76.13,5.28,5.28,0,0,1,1.92.85A43.79,43.79,0,0,1,15.55,37.35Z"/>
        <path class="cls-2" d="M10.79,60.38a23.41,23.41,0,0,1,8-3.83,28.34,28.34,0,0,1,9.07-1,21.57,21.57,0,0,1,6.86,1.46,7,7,0,0,1,1.06.47l.76.4.62.35-.69.21-.79.25a7.62,7.62,0,0,0-1,.38A26.81,26.81,0,0,0,29.39,62a55,55,0,0,0-5.61,4.5c-1.79,1.6-3.42,3.16-4.93,4.32-3,2.34-4.57,3.27-6.11,3.27s-2.91-.89-4.38-2-2.86-2-3-3.8S6.52,63.7,10.79,60.38Z"/>
        <g>
          <path class="cls-3" d="M46.24,87.47a4.1,4.1,0,0,0,1.48-.73.91.91,0,0,0,0-1.31,3.1,3.1,0,0,0-2.39-.27,20,20,0,0,0-2.18.92,2.78,2.78,0,0,0-.58.06,5.89,5.89,0,0,1,.1-1.62c.36-1.63,1.5-2.37,2.22-3.72a.67.67,0,0,0-.83-.92,4.1,4.1,0,0,1-1,.38.62.62,0,0,0-.36.28s0,0,0,0c.17-.27.35-.54.55-.8a.67.67,0,0,0-1-.86A6,6,0,0,0,41.5,80l-.25.45a.37.37,0,0,0-.57.18l0,.09a2.15,2.15,0,0,0-.29.25,1.39,1.39,0,0,0-.28-.6,1.07,1.07,0,0,0-.07-.19.36.36,0,0,0-.65,0,.38.38,0,0,0-.11.11l0,0a1.15,1.15,0,0,0-.64-.57.4.4,0,0,0-.43.1,15.2,15.2,0,0,1-.74-7.29s0,0,0,0c-.41,2.27-.76,4.86,0,7.14A29.72,29.72,0,0,0,40,85.82.77.77,0,0,0,40,86a7.47,7.47,0,0,0-4.57,1.12.65.65,0,0,0-.25.74c.79,1.87,4.5-.13,5.77-.13.2,0-.11.32-.12.72a9.16,9.16,0,0,0,0,2.28c.2,1,.36,2,1.46,2.17a.69.69,0,0,0,.71-.36,2.91,2.91,0,0,0,.22-1.8c-.08-.46-.45-1.7-.58-2.62,0,0,0,0,0,0l.18,0c.21.2.4.4.52.49a9.14,9.14,0,0,0,2.22,1.14c1,.38,2.27.94,3.29.63a.7.7,0,0,0,.44-.68C49.37,88.31,47.67,87.79,46.24,87.47Z"/>
          <path class="cls-3" d="M53.09,87.21a3.84,3.84,0,0,1-1.51-.58.92.92,0,0,1-.16-1.3,3,3,0,0,1,2.29-.5,19.57,19.57,0,0,1,2.21.7,3.57,3.57,0,0,1,.57,0,5.87,5.87,0,0,0-.25-1.6c-.52-1.59-1.7-2.21-2.53-3.49-.31-.47.17-1.2.72-1a3.66,3.66,0,0,0,1,.29.62.62,0,0,1,.37.24l0,0c-.19-.25-.39-.5-.61-.74a.66.66,0,0,1,.9-1A5.66,5.66,0,0,1,57,79.33c.1.14.2.28.29.43a.37.37,0,0,1,.58.12l0,.09a1.79,1.79,0,0,1,.31.22,1.51,1.51,0,0,1,.21-.63,1.46,1.46,0,0,1,.05-.2.35.35,0,0,1,.63-.09.28.28,0,0,1,.12.1s0,0,0,0a1.16,1.16,0,0,1,.56-.63.39.39,0,0,1,.43.06,15.66,15.66,0,0,0,0-7.33s0,0,0,0a15.27,15.27,0,0,1,.71,7.1A30.27,30.27,0,0,1,59,85a.76.76,0,0,1,0,.15,7.11,7.11,0,0,1,4.55.67.66.66,0,0,1,.32.71c-.58,1.94-4.39.31-5.62.43-.19,0,.14.31.19.71a9.17,9.17,0,0,1,.23,2.27c-.09,1-.15,2-1.2,2.29a.65.65,0,0,1-.73-.28,3,3,0,0,1-.39-1.78c0-.46.27-1.73.3-2.66,0,0,0,0,0,0l-.17.07c-.18.23-.35.44-.45.54a9.2,9.2,0,0,1-2,1.35c-.88.47-2.11,1.15-3.13.94a.67.67,0,0,1-.49-.63C50.13,88.35,51.73,87.67,53.09,87.21Z"/>
          <path class="cls-4" d="M71,65.09c0,13.17-9.6,17-21.46,17s-21.46-3.82-21.46-17S7.64,35.48,49.51,34.42C88.77,33.43,71,51.94,71,65.09Z"/>
          <path class="cls-4" d="M37.59,10a3,3,0,0,0-.13-.36s0,0,0,0,0-.06,0-.1,0,0,0-.07c-.92-2-2.64-2.12-4.73-2a4,4,0,0,0-.79.14c1.15-.73,2.54-.33,3.94-.39,1.13,0,1.24-2.28.37-2.72a5.12,5.12,0,0,0-4.93.68,19.18,19.18,0,0,0-1.49,1.37,2.21,2.21,0,0,0,.07-1.9.61.61,0,0,0-.9-.34,4.36,4.36,0,0,0-2.09,2.66c-.26.71.07,1.49-.11,2.21-.06.25-.11.5-.16.75-10,11.2-11.2,24.21-7.08,35.7.9,2.53,4,7.4,7.07,7.22a.19.19,0,0,0,.18-.24l0-.12a.16.16,0,0,0-.3,0,2.91,2.91,0,0,1-.61-.47l.47.16A.05.05,0,0,0,26.3,52c-15.12-17.61,4.13-39,4.56-39.44,1.1.66.45,2.5,1.61,3.21s2.38-.37,2.49-1.58a5.06,5.06,0,0,0-2.21-3.82,3.5,3.5,0,0,0-1.48-.49c.4-.13.87-.24.86-.24,1-.21,1.74-.16,2.31.8a3.36,3.36,0,0,0,1.63,1.39c1.12.54,1.55-.48,1.53-1.4A.73.73,0,0,0,37.59,10Z"/>
          <path class="cls-4" d="M55.4,8.05a3.73,3.73,0,0,1,.16-.35l0,0a.31.31,0,0,1,.05-.1l0-.07c1.14-2,3.28-2.13,5.88-2a4.2,4.2,0,0,1,1,.14c-1.43-.74-3.15-.34-4.88-.39-1.41,0-1.54-2.28-.46-2.72a7.62,7.62,0,0,1,6.11.68,21.06,21.06,0,0,1,1.85,1.37,1.86,1.86,0,0,1-.09-1.91.85.85,0,0,1,1.13-.33A4.69,4.69,0,0,1,68.77,5c.32.7-.09,1.49.13,2.21.08.25.14.5.2.75,12.39,11.2,13.9,24.21,8.79,35.7-1.12,2.53-4.9,7.4-8.77,7.22-.15,0-.27-.12-.23-.24a.56.56,0,0,1,0-.12c0-.15.32-.17.37,0a4.64,4.64,0,0,0,.76-.47l-.58.16c-.07,0-.12,0-.07-.09,18.77-17.62-5.12-39-5.65-39.44-1.37.66-.56,2.5-2,3.21a2.12,2.12,0,0,1-3.09-1.58c-.14-1.3,1.4-3.17,2.74-3.82A5.08,5.08,0,0,1,63.25,8a10.64,10.64,0,0,0-1.07-.24c-1.25-.21-2.16-.17-2.87.79a3.93,3.93,0,0,1-2,1.39c-1.39.55-1.91-.47-1.89-1.39A.77.77,0,0,1,55.4,8.05Z"/>
          <path class="cls-4" d="M40.57,80.33a0,0,0,1,0,0,0S40.59,80.33,40.57,80.33Z"/>
          <path class="cls-5" d="M49.24,73.53a42.63,42.63,0,0,1-21-5.39c1.4,10.71,10.38,13.94,21.26,13.94s20.05-3.3,21.31-14.28A42.51,42.51,0,0,1,49.24,73.53Z"/>
          <g class="cls-6">
            <path class="cls-7" d="M71,66.1c0-.33,0-.66,0-1a22.78,22.78,0,0,1,.61-4.79,69,69,0,0,1-23.41,3.78,71.93,71.93,0,0,1-20.61-2.84,16.72,16.72,0,0,1,.49,3.85c0,.34,0,.67,0,1a71.41,71.41,0,0,0,21.45,3.1A71.22,71.22,0,0,0,71,66.1Z"/>
            <path class="cls-7" d="M49.53,37.92A75,75,0,0,0,66.84,36c-3.89-1.17-9.46-1.76-17.33-1.56A78.14,78.14,0,0,0,33.19,36.2,75.79,75.79,0,0,0,49.53,37.92Z"/>
            <path class="cls-7" d="M49.3,46.5C59,46.5,67.8,44.81,74.47,42a8.28,8.28,0,0,0-3.55-4.27,69.63,69.63,0,0,1-23,3.63A71.86,71.86,0,0,1,27.2,38.51a8.52,8.52,0,0,0-3.34,3.41C30.56,44.76,39.49,46.5,49.3,46.5Z"/>
            <path class="cls-7" d="M49.17,55.55c9.57,0,18.29-1.65,24.93-4.37a22.62,22.62,0,0,0,.89-6.1c-6.85,3.3-16.49,5.36-27.18,5.36A67.55,67.55,0,0,1,23.1,46.16a21.54,21.54,0,0,0,1.09,5C30.84,53.89,39.59,55.55,49.17,55.55Z"/>
            <path class="cls-7" d="M72.13,58.12C72.7,56,73.39,53.86,74,51.77c-6.74,2.93-15.8,4.73-25.78,4.73a69.14,69.14,0,0,1-23.45-3.8c.61,1.74,1.31,3.53,1.91,5.31a69.56,69.56,0,0,0,22.9,3.6A70,70,0,0,0,72.13,58.12Z"/>
          </g>
          <path d="M55.81,23.18a2.09,2.09,0,0,1,.27-.08l.42,0a2.86,2.86,0,0,1,.48.06,5.33,5.33,0,0,1,1.09.36,6.59,6.59,0,0,1,1.12.64,5.21,5.21,0,0,1,1,.84,3.55,3.55,0,0,1,.36.45,3.19,3.19,0,0,1,.28.44c.08.14.13.28.19.39s.08.23.11.31l.08.28a.06.06,0,0,1-.05.08.06.06,0,0,1-.07,0h0l-.16-.22a2.79,2.79,0,0,0-.19-.24c-.09-.08-.16-.19-.28-.29a4.89,4.89,0,0,0-.76-.59,6.29,6.29,0,0,0-1-.49,6.4,6.4,0,0,0-1.93-.44l-.33,0a.62.62,0,0,1-.21,0,1.58,1.58,0,0,1-.28,0h0a.72.72,0,0,1-.57-.83A.7.7,0,0,1,55.81,23.18Z"/>
          <path d="M40,24a1.77,1.77,0,0,1-.31.12,2.18,2.18,0,0,1-.27.11l-.4.15c-.3.12-.67.23-1,.41a9.25,9.25,0,0,0-1.16.61,8.65,8.65,0,0,0-1.07.78,4.47,4.47,0,0,0-.44.42A3.48,3.48,0,0,0,35,27a2.7,2.7,0,0,0-.27.38,1.79,1.79,0,0,0-.18.32c-.1.18-.15.29-.15.29h0a.08.08,0,0,1-.1,0s0-.05,0-.08,0-.12,0-.34a2.53,2.53,0,0,1,.09-.38,4,4,0,0,1,.16-.49,5.29,5.29,0,0,1,.63-1.15,7.74,7.74,0,0,1,1-1.14,9.47,9.47,0,0,1,1.16-1,6.39,6.39,0,0,1,.58-.38,5.21,5.21,0,0,1,.56-.3c.19-.08.36-.15.52-.2l.46-.1.33,0a.79.79,0,0,1,.75.83A.81.81,0,0,1,40,24Z"/>
          <g>
            <path class="cls-8" d="M41.15,40.2a6.87,6.87,0,0,1-6.86-6.86,6.48,6.48,0,0,1,.11-1.09,6.85,6.85,0,1,1,6.75,8Z"/>
            <path class="cls-9" d="M41.15,40.2a6.87,6.87,0,0,1-6.86-6.86,6.48,6.48,0,0,1,.11-1.09,6.85,6.85,0,1,1,6.75,8Z"/>
            <g>
              <g>
                <path class="cls-10" d="M35.49,33.34a5.67,5.67,0,1,0,5.66-5.67A5.66,5.66,0,0,0,35.49,33.34Z"/>
                <path class="cls-11" d="M35.7,31.89A5.64,5.64,0,0,0,46.79,33c0,.12,0,.23,0,.34a5.67,5.67,0,1,1-11.33,0A5.41,5.41,0,0,1,35.7,31.89Z"/>
              </g>
              <g>
                <path d="M39,34.39a2.82,2.82,0,1,0-.24-4A2.83,2.83,0,0,0,39,34.39Z"/>
                <path class="cls-10" d="M40.36,31.79a1.13,1.13,0,1,0-.09-1.6A1.13,1.13,0,0,0,40.36,31.79Z"/>
              </g>
            </g>
          </g>
          <g>
            <path class="cls-8" d="M55.9,40.2A6.87,6.87,0,0,1,49,33.34a5.58,5.58,0,0,1,.11-1.09,6.85,6.85,0,1,1,6.75,8Z"/>
            <path class="cls-9" d="M55.9,40.2A6.87,6.87,0,0,1,49,33.34a5.58,5.58,0,0,1,.11-1.09,6.85,6.85,0,1,1,6.75,8Z"/>
            <g>
              <g>
                <path class="cls-10" d="M50.23,33.34a5.67,5.67,0,1,0,5.67-5.67A5.67,5.67,0,0,0,50.23,33.34Z"/>
                <path class="cls-11" d="M50.44,31.89A5.64,5.64,0,0,0,61.53,33c0,.12,0,.23,0,.34a5.67,5.67,0,0,1-11.34,0A5.84,5.84,0,0,1,50.44,31.89Z"/>
              </g>
              <g>
                <path d="M53.79,34.39a2.82,2.82,0,1,0-.24-4A2.82,2.82,0,0,0,53.79,34.39Z"/>
                <path class="cls-10" d="M55.1,31.79a1.14,1.14,0,0,0,1.6-.1A1.13,1.13,0,0,0,55,30.19,1.14,1.14,0,0,0,55.1,31.79Z"/>
              </g>
            </g>
          </g>
          <g>
            <g>
              <path class="cls-12" d="M56,45.91c0,1.91-3.12,4.65-7,4.65s-7-2.74-7-4.65,3.13-1.33,7-1.33S56,44,56,45.91Z"/>
              <path class="cls-13" d="M49,50.06c-3.68,0-6.68-2.5-6.95-4.39a2,2,0,0,0,0,.24c0,1.91,3.13,4.65,7,4.65s7-2.74,7-4.65a1,1,0,0,0,0-.24C55.72,47.56,52.71,50.06,49,50.06Z"/>
            </g>
            <path class="cls-10" d="M49,44.58c-1.67,0-3.2-.1-4.4-.07h-.18S43,47,43.73,47.11c1,.2,2.44.71,2.61,0l.75-1.59s-.35,1.56,0,1.89a3.27,3.27,0,0,0,2.08.49,3.27,3.27,0,0,0,2.08-.49c.35-.33,0-1.89,0-1.89L52,47.15c.16.67,1.65.16,2.61,0,.67-.13-.66-2.46-.73-2.58C52.63,44.45,50.92,44.58,49,44.58Z"/>
          </g>
        </g>
      </g>
    </g>
  </g>
</svg>
