<svg xmlns="http://www.w3.org/2000/svg" width="90" height="85" viewBox="0 0 90 85">
  <defs>
    <style>
      .cls-1 {
        isolation: isolate;
      }

      .cls-2 {
        fill: #d0d2f5;
      }

      .cls-3 {
        fill: #d95d5d;
      }

      .cls-4, .cls-5 {
        fill: #ff8787;
      }

      .cls-5 {
        opacity: 0.3;
      }

      .cls-5, .cls-6 {
        mix-blend-mode: multiply;
      }

      .cls-6, .cls-7 {
        fill: #f0d907;
      }

      .cls-8 {
        fill: #fff;
      }

      .cls-9 {
        fill: #e8e8e8;
      }

      .cls-10 {
        fill: #faffb2;
      }
    </style>
  </defs>
  <g class="cls-1">
    <g id="Ñëîé_1" data-name="Ñëîé 1">
      <g>
        <path class="cls-2" d="M80.38,10.4a19.78,19.78,0,0,1,4.35.3c1.25,4.16.85,10.12-2.88,13.21a7.65,7.65,0,0,1,2.9.93A10.67,10.67,0,0,1,75,31.24a17.33,17.33,0,0,1-11.26-3.61c-4.19-3.47-.6-9.28,2.75-12.2A21.16,21.16,0,0,1,80.38,10.4Z"/>
        <path class="cls-2" d="M85.7,42.93a20.31,20.31,0,0,1,2.49,3.58c-2.47,3.58-7.38,7-12.12,6a7.71,7.71,0,0,1,1.09,2.85,10.66,10.66,0,0,1-11.07-3.6,17.37,17.37,0,0,1-4.21-11c.1-5.44,6.87-6.26,11.25-5.46A21,21,0,0,1,85.7,42.93Z"/>
        <path class="cls-2" d="M10.49,10.55a19.38,19.38,0,0,0-4.13-.63c-2,3.57-2.84,9.13,0,12.72a7.55,7.55,0,0,0-2.91.26,10.19,10.19,0,0,0,7.79,7.86,16.86,16.86,0,0,0,11.26-1c4.61-2.33,2.43-8.4-.11-11.77A20.35,20.35,0,0,0,10.49,10.55Z"/>
        <path class="cls-2" d="M4.28,43.5a19.24,19.24,0,0,0-2.47,3.36c2.22,3.43,6.75,6.76,11.27,5.9A7.48,7.48,0,0,0,12,55.45a10.19,10.19,0,0,0,10.59-3.23,16.8,16.8,0,0,0,4.35-10.43c.09-5.17-6.3-6.07-10.46-5.39A20.39,20.39,0,0,0,4.28,43.5Z"/>
        <g>
          <path class="cls-3" d="M52.86,69.9c-.3-.87-1.42-1-2.19-1a3.37,3.37,0,0,0-1.27.23,13.45,13.45,0,0,0-.26-5.51.12.12,0,0,0-.23,0c-.1.58-.22,1.17-.35,1.76A13.41,13.41,0,0,1,48,62.5a.22.22,0,0,0-.43,0c-.37,1.58,0,3.12-.2,4.72-.15,1.38-.32,2.73-.6,4.06-.22.27-.64.86-.78,1.06a1.49,1.49,0,0,0-.13,1.33c.28.73,1.16.85,1.83.77a7.6,7.6,0,0,0,2.54-1A5.79,5.79,0,0,0,52.9,71,2.4,2.4,0,0,0,52.86,69.9Z"/>
          <path class="cls-4" d="M65.88,37.58c0-17.11-9.93-28.1-22.18-28.1s-22.19,11-22.19,28.1q0,1.44.09,2.88-.09,1.27-.09,2.58c0,8.27,4.18,14.94,8.77,19.33,3.91,5.51,7.77,9.06,13.42,9.06s9.5-3.55,13.42-9.06C61.7,58,65.88,51.31,65.88,43q0-1.3-.09-2.58Q65.88,39,65.88,37.58Z"/>
          <path class="cls-5" d="M21.64,34.23c-.09,1.09-.13,2.21-.13,3.35q0,1.44.09,2.88-.09,1.27-.09,2.58a23.8,23.8,0,0,0,.28,3.62c13.93,4.63,29.9,3.65,44-1.23A23.46,23.46,0,0,0,65.88,43c0-.84,0-1.67-.09-2.51C50.92,44.1,34.52,42.08,21.64,34.23Z"/>
          <path class="cls-5" d="M24.14,54.09a29.92,29.92,0,0,0,6.14,8.28c3.91,5.51,7.77,9.06,13.42,9.06s9.5-3.55,13.42-9.06c.54-.52,1.08-1.07,1.6-1.66C46.86,62.54,34.24,60.46,24.14,54.09Z"/>
          <g>
            <path class="cls-6" d="M43.47,29.79a9.71,9.71,0,0,1-9.7-9.69,8.88,8.88,0,0,1,.15-1.54,9.68,9.68,0,1,1,9.55,11.23Z"/>
            <path class="cls-7" d="M43.47,29.79a9.71,9.71,0,0,1-9.7-9.69,8.88,8.88,0,0,1,.15-1.54,9.68,9.68,0,1,1,9.55,11.23Z"/>
            <g>
              <g>
                <path class="cls-8" d="M35.45,20.1a8,8,0,1,0,8-8A8,8,0,0,0,35.45,20.1Z"/>
                <path class="cls-9" d="M35.75,18.05a8,8,0,0,0,15.68,1.57c0,.16,0,.31,0,.48a8,8,0,0,1-16,0A8.12,8.12,0,0,1,35.75,18.05Z"/>
              </g>
              <g>
                <path d="M37.24,18.05a4,4,0,1,0,4-4A4,4,0,0,0,37.24,18.05Z"/>
                <path class="cls-8" d="M41.23,17a1.6,1.6,0,1,0,1.59-1.59A1.6,1.6,0,0,0,41.23,17Z"/>
              </g>
            </g>
          </g>
          <g>
            <path class="cls-3" d="M52.05,73.73c-.3.09-.28.22,0,0Z"/>
            <path class="cls-3" d="M62.23,74.36a1,1,0,0,0-.73-.73,7.51,7.51,0,0,0-3.13-.11,16.11,16.11,0,0,1-3.29.18,13.62,13.62,0,0,0,3.28-4.45c1.58-3.23,0-5.47-1-8.46A1.56,1.56,0,0,0,56.06,60a1.18,1.18,0,0,0-1.29,1.23,22.93,22.93,0,0,0,.47,2.71,10.47,10.47,0,0,1,.23,4.24,9.79,9.79,0,0,1-1.9,3.66c-.27.42-.56.8-.86,1.2a3.83,3.83,0,0,1-.66.72h0l-.16.14,0,0c-.59.49-1,.78-1,.79a1,1,0,0,0,.53,1.93C53.38,76.49,63,78.68,62.23,74.36Z"/>
          </g>
          <path class="cls-3" d="M36.38,74.74c-3.94-2.32-5.29-8.49-4.07-12.85,0,0,0-.07,0-.11.19-.63.54-1.71-.27-2.07-.63-.29-1.19,0-1.73.37-1.73,1.79-2.24,5.67-1.77,7.51A18.5,18.5,0,0,0,32,74.05a16.11,16.11,0,0,0-7,1.27A1.13,1.13,0,0,0,24.27,77a1.11,1.11,0,0,0,.51.47,1.2,1.2,0,0,0,.54.27c2.28.55,5.7-.12,6.47-.25,1.48-.24,3.61.25,4.72-.86A1.19,1.19,0,0,0,36.38,74.74Z"/>
          <path class="cls-3" d="M46,76.9c-.32-.42-.78-.36-1.23-.12-.52-1.39-.24-10.41-.28-10.61a2.64,2.64,0,0,0-.4-1.15.64.64,0,0,0-.43-.33c-3-.42-2.14,8.93-1.18,12.17a3.49,3.49,0,0,0,.07.37A26.62,26.62,0,0,0,37,80.41a1,1,0,0,0-.16,1.19c0,.07.11.12.16.18l0,0h0c2,2.21,5.71-1,7.4-2.19,1.26-.9,1.64-1.26,1.69-1.45A1.13,1.13,0,0,0,46,76.9Z"/>
          <path class="cls-3" d="M23.09,47.46a0,0,0,0,0,0,.06A0,0,0,0,0,23.09,47.46Z"/>
          <path class="cls-10" d="M22.44,29.68c0,.1,0,.19-.05.29A3.89,3.89,0,0,0,23,32.44a5.19,5.19,0,0,0,.55.77l.25.29a2.59,2.59,0,0,0,.8-.39A4.48,4.48,0,0,0,26,31.43c.19-.38.35-.75.5-1.1C25.1,30.14,23.73,29.92,22.44,29.68Z"/>
          <path class="cls-10" d="M31.16,31.11c-1.47-.12-2.9-.27-4.27-.44a24.84,24.84,0,0,0-.07,3.59,6,6,0,0,0,1.47,3.45,8.44,8.44,0,0,0,1.4,1.37,6.21,6.21,0,0,0,3-3.53,21.81,21.81,0,0,0,1.11-4.25Z"/>
          <path class="cls-10" d="M54.59,31.16c-3.8.31-7.87.48-11.94.49H42.2A34.49,34.49,0,0,0,43,37a7.38,7.38,0,0,0,2.31,3.75,10.36,10.36,0,0,0,1.81,1.34,7.25,7.25,0,0,0,2.59-4.69,23.8,23.8,0,0,0,.34-2.74,7.56,7.56,0,0,0,1.59,2.94A8,8,0,0,0,53.16,39a4.83,4.83,0,0,0,1-1,9.15,9.15,0,0,0,1.57-3.57A28.49,28.49,0,0,0,56.26,31Z"/>
          <path class="cls-10" d="M56.44,30.49a20.59,20.59,0,0,0,1,3.54,8,8,0,0,0,2.22,3.3,5.08,5.08,0,0,0,1.3.86,8.38,8.38,0,0,0,1.52-1.64,6.81,6.81,0,0,0,1.34-4.12,27.79,27.79,0,0,0-.25-3.37C61.39,29.6,59,30.08,56.44,30.49Z"/>
          <path class="cls-10" d="M34.22,31.59c0,.13,0,.25.05.38a7.39,7.39,0,0,0,2,3.93A9.25,9.25,0,0,0,38,37.37a7.23,7.23,0,0,0,3-4.47c.1-.36.18-.72.26-1.07C38.84,31.8,36.5,31.72,34.22,31.59Z"/>
          <path class="cls-3" d="M62,29.19a70.87,70.87,0,0,1-8.88,1.27c-1.64.15-3.34.26-5.07.33s-3.48.1-5.25.1c-3.51,0-7-.13-10.31-.43a70.6,70.6,0,0,1-8.88-1.27l-1.18-.28q-.14.54-.24,1.08l1.16.31a66.24,66.24,0,0,0,9,1.46c3.32.33,6.88.49,10.43.51,1.77,0,3.56-.05,5.31-.14s3.47-.2,5.13-.37a66.5,66.5,0,0,0,9-1.46c1-.25,1.94-.52,2.79-.81-.07-.35-.15-.7-.23-1C64,28.72,63,29,62,29.19Z"/>
          <path class="cls-3" d="M22.71,41.32c-.07,0-.13,0,0,0a.71.71,0,0,1-.3-.1c-2.65-.11-5.22,1.76-5.46,6.11-.15,2.76.54,12.17,1.44,14.2.41.91,2,.25,1.67-.68a18.06,18.06,0,0,1-.75-4.76c-.18-2-.58-9.48-.07-10.65a4.56,4.56,0,0,1,3.09-2.27,1.89,1.89,0,0,0,.75-.7A1,1,0,0,0,22.71,41.32Z"/>
          <path class="cls-3" d="M23.07,64.23c-.12-.19-.25-.38-.38-.56s-.16-.61-.25-.91c-.35-1.07-1.28-2.71-2.59-2.57l-.14,0a.94.94,0,0,0-1.59.63,2.38,2.38,0,0,1-.1.48,4,4,0,0,1-.79,1.09c-.71.67-1.46,2-.9,3,.71,1.22,2.14.51,2.66-.41a4.51,4.51,0,0,0,.41-1.42,1.18,1.18,0,0,0,.18.13,8.21,8.21,0,0,1,1.28.72c.23.91.47,2.2,1.42,2.53a1.14,1.14,0,0,0,1.34-.82A2.5,2.5,0,0,0,23.07,64.23Z"/>
          <path class="cls-3" d="M27.06,56.11a3.76,3.76,0,0,0-3.76,0c-.14.08-.46.31-1.36.87-1.78-.28-3.64-.25-5.28-1-2.3-1.13-3-2-2.26-4.51.88-3.07,1-4.9,2.22-8.76.74-2.36,1.48-4.18,3.25-5.06,0,0-.39.11,0,0,1.62-.42,2.37.22,2.81.05.85-.33,1.26-2.13-.07-2.27-1.81-.2-4.74-.45-6.21,2.75-.34.75-6.71,16.34-2.61,18.48C16.51,58,19.24,58,22,58.68c.09,1.21.26,2.42,1.52,3a1,1,0,0,0,1.15-.14c.72-.56.56-1.17.38-2-.06-.29-.65-1.06-.75-1.54a3.2,3.2,0,0,0,2.55-.52A.9.9,0,0,0,27.06,56.11Z"/>
          <path class="cls-3" d="M68.07,39c-.86-1.17-1.84-3.27-3.32-3.71a.18.18,0,0,0-.2.25c.37.69.55,1.64.92,2.37.82,1.65,2,3,2.74,4.73,1.29,3.14-2,2.78-3.88,2.69-2-.1-3.38.21-4.7-1.53-.91-1.21-1.86-2.5-2.71-3.82-.5-1.56-.22-3.31-1.72-4.48a1.35,1.35,0,0,0-2.23.68,2.37,2.37,0,0,0,.36,1.61c.42.72.84,1.37,1.24,2A2.3,2.3,0,0,0,52.05,42a.85.85,0,0,0,.62.83c1.13.27,2.14-.34,3.21-.61a1,1,0,0,0,.26-.12,5.57,5.57,0,0,1,.94.94c.73,1,1.32,2.13,2.14,3.13,1.19,1.44,4.26.9,5.87,1,1.34.07,4.82.62,5.26-1.41C70.88,43.3,69.46,40.89,68.07,39Z"/>
          <path class="cls-3" d="M67.12,45.31c0-1.53-.94-4.52-3.27-3.53a1.83,1.83,0,0,0-.68,2.42,1.85,1.85,0,0,0,1.41.87c0,.26.15,3.27.17,4.53s.19,6.74-.1,7c0,0-.56.15-.58.17a4.8,4.8,0,0,1-1.92,0c-.63-2.17-3.07-3.69-4.6-5.31a.91.91,0,0,0-1.45,1.05h0c.41.74,1.25,1.14,1.87,1.73.18.17.82.91,1.38,1.63h-.06c-.32-.15-.6-.29-.82-.42a1.17,1.17,0,0,0-1.12,0,3.78,3.78,0,0,0-1.42,1.72,5.59,5.59,0,0,0-.72,1.47c-.38,1.1,1.4,1.79,2,.78.27-.46.61-.93.85-1.42a1.11,1.11,0,0,1,.3-.17,33.48,33.48,0,0,0,5.39,1.07c2.46.13,3.31-1,3.49-2.8C67.3,55.68,67.12,47.08,67.12,45.31Z"/>
          <g>
            <path class="cls-7" d="M35.59,4.79c.61,1.11,0,1.92-.76.73-.49.66-.34,2.05-.5,2.89A7.48,7.48,0,0,1,33,11.76a4.39,4.39,0,0,0-.56-2.84c-1.51,2.47-3.84,5.62-7,6.16.14-.81,4.2-4,1.52-3.53-1,.17-2.07,1.41-3.08,1.75A4.33,4.33,0,0,1,20.08,13c1.28-.52,3.86-1.58,3.8-3.23-2,.2-3.46,1-5-.82,1.46-.46,4.05-.56,4.86-2.16a5.85,5.85,0,0,1-3.15-2c1.59-.63,3.82-.13,5.63-.84A6.36,6.36,0,0,1,26,2.58C29.34,2.92,33.57,1.12,35.59,4.79Z"/>
            <path class="cls-7" d="M38.35,9.69a2.51,2.51,0,0,0-.16-.58,14.12,14.12,0,0,0-.54-1.41,12.5,12.5,0,0,0-1.4-2.81c-.93-1-2.76-1.65-3.93-.58a.41.41,0,0,0-.09.38.24.24,0,0,0,.06.2l.14.1a.32.32,0,0,0,.38,0A1.62,1.62,0,0,0,33.1,5a1.61,1.61,0,0,1,.65.21c.86.48,1,1.32,1.34,2.19s.56,1.55.84,2.32a3.65,3.65,0,0,0,.67,1.55A1.19,1.19,0,0,0,38.35,9.69Z"/>
          </g>
          <g>
            <path class="cls-7" d="M52,5.52c-.55,1.11,0,1.92.69.73.44.66.3,2.05.45,2.89a7.8,7.8,0,0,0,1.16,3.35,4.7,4.7,0,0,1,.51-2.84c1.35,2.47,3.45,5.62,6.32,6.15-.12-.8-3.78-4-1.37-3.52.89.17,1.86,1.41,2.78,1.75a3.56,3.56,0,0,0,3.43-.32c-1.16-.52-3.48-1.58-3.42-3.24,1.8.21,3.11,1,4.51-.81-1.3-.47-3.64-.56-4.37-2.15A5.28,5.28,0,0,0,65.5,5.45c-1.44-.64-3.44-.13-5.08-.84a5.72,5.72,0,0,0,.17-1.3C57.6,3.65,53.79,1.85,52,5.52Z"/>
            <path class="cls-7" d="M49.48,10.42a2.65,2.65,0,0,1,.15-.57,14,14,0,0,1,.49-1.42,13,13,0,0,1,1.26-2.81c.83-1,2.48-1.65,3.53-.58a.4.4,0,0,1,.09.38.28.28,0,0,1-.06.2l-.13.1a.26.26,0,0,1-.34,0l-.25.07a1.23,1.23,0,0,0-.59.22c-.78.47-.94,1.31-1.21,2.18s-.51,1.54-.76,2.32a3.81,3.81,0,0,1-.6,1.55C50.12,13.08,48.64,11.5,49.48,10.42Z"/>
          </g>
        </g>
      </g>
    </g>
  </g>
</svg>
