<svg xmlns="http://www.w3.org/2000/svg" width="100" height="95" viewBox="0 0 100 95">
  <defs>
    <style>
      .cls-1 {
        isolation: isolate;
      }

      .cls-2 {
        fill: #8fe9ff;
      }

      .cls-3 {
        fill: #f0be07;
      }

      .cls-4, .cls-5 {
        fill: #5057b8;
      }

      .cls-5 {
        opacity: 0.2;
        mix-blend-mode: screen;
      }

      .cls-6, .cls-7 {
        fill: #f0d907;
      }

      .cls-6 {
        mix-blend-mode: multiply;
      }

      .cls-8 {
        fill: #fff;
      }

      .cls-9 {
        fill: #e8e8e8;
      }

      .cls-10 {
        fill: #315400;
      }

      .cls-11 {
        fill: #89c23a;
      }

      .cls-12 {
        fill: #f2c82c;
      }
    </style>
  </defs>
  <g class="cls-1">
    <g id="Ñëîé_1" data-name="Ñëîé 1">
      <g>
        <path class="cls-2" d="M81.21,44.22A19.32,19.32,0,0,0,84,41.54a17.11,17.11,0,0,1-1.82,6.73A12,12,0,0,0,86.36,47c-.14,3.17-2.11,7.2-4.88,8.88a10.75,10.75,0,0,0,4-.51c-.56.84-.64,1.68-1.4,2.48a14.27,14.27,0,0,1-2.65,1.95,7.53,7.53,0,0,1,3.5.72c-3.62,2.41-9.11,2.84-13.35,2.91-5,.09-10.9-.78-9.26-6.88,1.11-4.13,4.89-4.37,8.37-5.74A34.08,34.08,0,0,0,81.21,44.22Z"/>
        <path class="cls-2" d="M11.44,42.22A18.21,18.21,0,0,1,9.76,39a17.13,17.13,0,0,0-.27,6.73,10.54,10.54,0,0,1-3.4-2.28C5.33,46.44,6,50.71,8,53a9.42,9.42,0,0,1-3.37-1.5,13,13,0,0,0,.56,2.67A12.59,12.59,0,0,0,7,56.67a6.72,6.72,0,0,0-3.32-.24c2.55,3.18,7.31,5,11.06,6.18,4.44,1.39,9.92,2.11,10.15-4C25,54.49,21.72,53.29,19,51.1A31.49,31.49,0,0,1,11.44,42.22Z"/>
        <g>
          <g>
            <path class="cls-3" d="M27.66,89.84a22.91,22.91,0,0,0,.22-6.45.12.12,0,0,0-.21,0c-1,1.87-1,4.14-1.39,6.22l-.62-.29a6.43,6.43,0,0,0-1.39-.36c-.05,0-.08,0-.14,0-.26-.06-.52-.1-.79-.14a.9.9,0,0,0-1,.33h0l-.09.14s0,0,0,0a1,1,0,0,0,.64,1.49c.26.06.53.1.79.14a1.13,1.13,0,0,0,.53,0,3,3,0,0,1,1.21.27,3.27,3.27,0,0,0,1.65.36.74.74,0,0,0,.78-.68A1.38,1.38,0,0,0,27.66,89.84Z"/>
            <path class="cls-3" d="M36.43,91.59A22.78,22.78,0,0,0,36,85.14a.11.11,0,0,0-.2,0c-.82,2-.6,4.22-.74,6.33l-.64-.22A6.39,6.39,0,0,0,33,91a.74.74,0,0,1-.14,0l-.81,0a.88.88,0,0,0-1,.44h0l-.07.15s0,0,0,0a1,1,0,0,0,.8,1.42l.8.05a1.08,1.08,0,0,0,.52-.11,2.86,2.86,0,0,1,1.23.15,3.32,3.32,0,0,0,1.68.18.75.75,0,0,0,.71-.76A1.32,1.32,0,0,0,36.43,91.59Z"/>
            <path class="cls-3" d="M45.21,91.93a22.8,22.8,0,0,0-1.37-6.31.12.12,0,0,0-.21,0c-.53,2.07,0,4.26.18,6.37l-.67-.13a6.9,6.9,0,0,0-1.44,0,.66.66,0,0,0-.14,0c-.27,0-.54,0-.8.06a.91.91,0,0,0-.9.57h0a.75.75,0,0,0,0,.16.06.06,0,0,0,0,0,1,1,0,0,0,1,1.29l.8-.06a1,1,0,0,0,.5-.19,3.07,3.07,0,0,1,1.24,0A3.13,3.13,0,0,0,45,93.65a.74.74,0,0,0,.59-.85A1.42,1.42,0,0,0,45.21,91.93Z"/>
            <path class="cls-3" d="M54.19,91.88A22.59,22.59,0,0,0,52.7,85.6a.11.11,0,0,0-.2,0c-.5,2.07.09,4.26.29,6.36l-.67-.11a6.32,6.32,0,0,0-1.44,0,.71.71,0,0,0-.15,0l-.8.07a.9.9,0,0,0-.88.59h0a.75.75,0,0,0-.05.16.08.08,0,0,0,0,0,1,1,0,0,0,1,1.27l.8-.07a1,1,0,0,0,.5-.2,3,3,0,0,1,1.23,0A3.23,3.23,0,0,0,54,93.61a.76.76,0,0,0,.58-.87A1.37,1.37,0,0,0,54.19,91.88Z"/>
            <path class="cls-3" d="M63,89.34A23,23,0,0,0,60,83.64a.11.11,0,0,0-.19.08c.06,2.13,1.19,4.09,1.92,6.07l-.68.06a7.56,7.56,0,0,0-1.38.39l-.15,0-.75.28a.9.9,0,0,0-.7.8h0a.91.91,0,0,0,0,.17v0a1,1,0,0,0,1.31,1l.75-.28a1.1,1.1,0,0,0,.43-.32,3,3,0,0,1,1.19-.37A3.23,3.23,0,0,0,63.3,91a.75.75,0,0,0,.34-1A1.36,1.36,0,0,0,63,89.34Z"/>
            <path class="cls-3" d="M71,85.71a23.05,23.05,0,0,0-4-5.1.11.11,0,0,0-.18.1c.42,2.09,1.86,3.84,2.92,5.67q-.33.08-.66.18a6.34,6.34,0,0,0-1.3.61.78.78,0,0,0-.14,0c-.24.12-.47.25-.7.39a.92.92,0,0,0-.56.91h0a.9.9,0,0,0,0,.16.09.09,0,0,0,0,0,1,1,0,0,0,1.45.73l.69-.4a1.11,1.11,0,0,0,.37-.38,2.84,2.84,0,0,1,1.11-.56,3.27,3.27,0,0,0,1.49-.79.74.74,0,0,0,.17-1A1.32,1.32,0,0,0,71,85.71Z"/>
            <path class="cls-4" d="M38.71,41.2c-1-10.46-2.77-16.93-3.64-17.59a.4.4,0,0,0,.25.05L35.16,22c.91-.09,1.91.56,3.16,5.87a105.55,105.55,0,0,1,2,13.13Z"/>
            <path class="cls-4" d="M46.08,39.47H44.45A123.06,123.06,0,0,1,45,26.8c.55-5,1.22-5.93,2.2-5.93v1.64a.56.56,0,0,0,.37-.14C47,23.13,46.08,29.51,46.08,39.47Z"/>
            <path class="cls-4" d="M52.39,41.52H50.76C50.76,32,55.82,24.21,62,24.21v1.64C56.72,25.85,52.39,32.88,52.39,41.52Z"/>
            <path class="cls-4" d="M91.64,41.43l-.55-.27a6.37,6.37,0,0,0-.67-.29,9.12,9.12,0,0,0-.91-.33A14,14,0,0,0,87,40a12.23,12.23,0,0,0-3.34.09,9.09,9.09,0,0,0-3.57,1.37,7.8,7.8,0,0,0-1.55,1.33c-.24.26-.43.56-.65.83l0,.06,0,0v0l0,0-.08.13-.15.26-.3.52-.15.26-.1.24-.2.49a7.6,7.6,0,0,0-.36,1.05l-.17.55-.11.58a8.78,8.78,0,0,0-.2,1.16,34.65,34.65,0,0,0-.24,4.94c0,1.7.07,3.43,0,5.2a23,23,0,0,1-.75,5.3c-.15.44-.3.87-.44,1.3l-.06.16-.09.2-.12.26-.24.54c-.18.37-.43.81-.64,1.2s-.48.73-.72,1.09a11.62,11.62,0,0,1-3.76,3.32,11.05,11.05,0,0,1-4.17,1.27,13.66,13.66,0,0,1-3.29-.11,13.9,13.9,0,0,1-2-.46l-.69-.21,1.72-4.57.48.18a9.47,9.47,0,0,0,1.37.43,8.66,8.66,0,0,0,2.11.25A6.6,6.6,0,0,0,67,68.65a7.38,7.38,0,0,0,2.58-2l.58-.74c.17-.26.33-.47.51-.78l.28-.52.14-.26,0-.06,0,0v0l0,0,0-.11c.14-.31.28-.63.41-.94a19.64,19.64,0,0,0,1-4.45c.18-1.61.27-3.31.39-5a36.67,36.67,0,0,1,.66-5.27c.08-.44.21-.87.33-1.3l.19-.65.24-.62a9.07,9.07,0,0,1,.54-1.25l.32-.61.16-.31.17-.25.35-.49.17-.25.08-.12.08-.11,0-.06c.3-.33.56-.67.88-1a10,10,0,0,1,2-1.48,10.9,10.9,0,0,1,4.25-1.28,13.48,13.48,0,0,1,3.67.19,14.68,14.68,0,0,1,2.68.8c.36.13.68.3,1,.42a7.44,7.44,0,0,1,.67.36l.53.31Z"/>
            <path class="cls-4" d="M74.18,75C74.18,94.86,16,94.86,16,75s14.3-35.84,28.55-35.84S74.18,55.2,74.18,75Z"/>
            <path class="cls-5" d="M45.31,44.73c12.32,0,25.46,12,28.79,28.05C73,54,58.28,39.18,44.58,39.18,30.33,39.18,16,55.2,16,75a9.45,9.45,0,0,0,.78,3.77C17.64,59.8,31.5,44.73,45.31,44.73Z"/>
            <path class="cls-4" d="M32.91,50H31.28c0-9.83-5.21-17.83-11.61-17.83V30.49C27,30.49,32.91,39.22,32.91,50Z"/>
            <path class="cls-4" d="M32.91,50H31.28c0-9.83-5.21-17.83-11.61-17.83V30.49C27,30.49,32.91,39.22,32.91,50Z"/>
            <path class="cls-4" d="M57.62,49.55H56c0-9.19,6.85-16.67,15.27-16.67v1.63C63.74,34.51,57.62,41.26,57.62,49.55Z"/>
            <g>
              <path class="cls-6" d="M18.36,36.56A7.41,7.41,0,0,1,11,29.17,6.47,6.47,0,0,1,11.08,28a7.39,7.39,0,1,1,7.28,8.57Z"/>
              <path class="cls-7" d="M18.36,36.56A7.41,7.41,0,0,1,11,29.17,6.47,6.47,0,0,1,11.08,28a7.39,7.39,0,1,1,7.28,8.57Z"/>
              <g>
                <g>
                  <path class="cls-8" d="M12.25,29.17a6.11,6.11,0,1,0,6.11-6.12A6.12,6.12,0,0,0,12.25,29.17Z"/>
                  <path class="cls-9" d="M12.48,27.6a6.08,6.08,0,0,0,12,1.2c0,.12,0,.24,0,.37a6.11,6.11,0,0,1-12.22,0A6.2,6.2,0,0,1,12.48,27.6Z"/>
                </g>
                <g>
                  <path d="M16.09,30.3a3,3,0,1,0-.26-4.3A3,3,0,0,0,16.09,30.3Z"/>
                  <path class="cls-8" d="M17.5,27.49a1.22,1.22,0,1,0-.1-1.72A1.23,1.23,0,0,0,17.5,27.49Z"/>
                </g>
              </g>
            </g>
            <g>
              <path class="cls-6" d="M46.17,27.94a7.24,7.24,0,0,1-7.23-7.23,7.05,7.05,0,0,1,.11-1.15,7.22,7.22,0,1,1,7.12,8.38Z"/>
              <path class="cls-7" d="M46.17,27.94a7.24,7.24,0,0,1-7.23-7.23,7.05,7.05,0,0,1,.11-1.15,7.22,7.22,0,1,1,7.12,8.38Z"/>
              <g>
                <g>
                  <path class="cls-8" d="M40.19,20.71a6,6,0,1,0,6-6A6,6,0,0,0,40.19,20.71Z"/>
                  <path class="cls-9" d="M40.42,19.18a5.95,5.95,0,0,0,11.69,1.17c0,.12,0,.23,0,.36a6,6,0,1,1-11.72-1.53Z"/>
                </g>
                <g>
                  <path d="M43.94,21.81a3,3,0,1,0-.25-4.2A3,3,0,0,0,43.94,21.81Z"/>
                  <path class="cls-8" d="M45.33,19.07a1.19,1.19,0,1,0-.1-1.68A1.19,1.19,0,0,0,45.33,19.07Z"/>
                </g>
              </g>
            </g>
            <g>
              <path class="cls-6" d="M71.24,39.49A7.23,7.23,0,0,1,64,32.26a6.25,6.25,0,0,1,.12-1.15A7.16,7.16,0,0,1,71.24,25a7.23,7.23,0,1,1,0,14.46Z"/>
              <path class="cls-7" d="M71.24,39.49A7.23,7.23,0,0,1,64,32.26a6.25,6.25,0,0,1,.12-1.15A7.16,7.16,0,0,1,71.24,25a7.23,7.23,0,1,1,0,14.46Z"/>
              <g>
                <g>
                  <path class="cls-8" d="M65.27,32.26a6,6,0,1,0,6-6A6,6,0,0,0,65.27,32.26Z"/>
                  <path class="cls-9" d="M65.49,30.73A5.94,5.94,0,0,0,77.18,31.9c0,.12,0,.24,0,.36a6,6,0,1,1-11.73-1.53Z"/>
                </g>
                <g>
                  <path d="M69,33.37a3,3,0,1,0-.25-4.2A3,3,0,0,0,69,33.37Z"/>
                  <path class="cls-8" d="M70.4,30.62a1.19,1.19,0,1,0-.1-1.68A1.19,1.19,0,0,0,70.4,30.62Z"/>
                </g>
              </g>
            </g>
            <g>
              <path class="cls-6" d="M34.26,32.81a9.14,9.14,0,0,1-9.13-9.13,7.78,7.78,0,0,1,.14-1.45,9.12,9.12,0,0,1,18.12,1.45A9.15,9.15,0,0,1,34.26,32.81Z"/>
              <path class="cls-7" d="M34.26,32.81a9.14,9.14,0,0,1-9.13-9.13,7.78,7.78,0,0,1,.14-1.45,9.12,9.12,0,0,1,18.12,1.45A9.15,9.15,0,0,1,34.26,32.81Z"/>
              <g>
                <g>
                  <path class="cls-8" d="M26.72,23.68a7.54,7.54,0,1,0,7.54-7.54A7.54,7.54,0,0,0,26.72,23.68Z"/>
                  <path class="cls-9" d="M27,21.75a7.51,7.51,0,0,0,14.76,1.48c0,.15,0,.29,0,.45a7.54,7.54,0,0,1-15.08,0A7.26,7.26,0,0,1,27,21.75Z"/>
                </g>
                <g>
                  <path d="M31.45,25.08a3.76,3.76,0,1,0-.32-5.31A3.76,3.76,0,0,0,31.45,25.08Z"/>
                  <path class="cls-8" d="M33.2,21.61a1.5,1.5,0,1,0-.13-2.12A1.5,1.5,0,0,0,33.2,21.61Z"/>
                </g>
              </g>
            </g>
            <g>
              <path class="cls-6" d="M58.88,33.41a9.24,9.24,0,0,1-9.23-9.23,7.88,7.88,0,0,1,.14-1.46,9.21,9.21,0,1,1,9.09,10.69Z"/>
              <path class="cls-7" d="M58.88,33.41a9.24,9.24,0,0,1-9.23-9.23,7.88,7.88,0,0,1,.14-1.46,9.21,9.21,0,1,1,9.09,10.69Z"/>
              <g>
                <g>
                  <path class="cls-8" d="M51.25,24.18a7.63,7.63,0,1,0,7.63-7.62A7.62,7.62,0,0,0,51.25,24.18Z"/>
                  <path class="cls-9" d="M51.54,22.23a7.58,7.58,0,0,0,14.91,1.49c0,.16,0,.3,0,.46a7.63,7.63,0,0,1-15.25,0A7.35,7.35,0,0,1,51.54,22.23Z"/>
                </g>
                <g>
                  <path d="M56,25.6a3.8,3.8,0,1,0-.32-5.37A3.82,3.82,0,0,0,56,25.6Z"/>
                  <path class="cls-8" d="M57.8,22.09a1.52,1.52,0,1,0,2-2.28,1.52,1.52,0,0,0-2,2.28Z"/>
                </g>
              </g>
            </g>
            <g>
              <path class="cls-10" d="M45.58,59.81A15.93,15.93,0,0,1,39,58.43v.1c0,4.42,3.11,8,7,8s7-3.58,7-8c0-.14,0-.29,0-.44A15.44,15.44,0,0,1,45.58,59.81Z"/>
              <path class="cls-11" d="M52.85,58.12c-.32,4.08-3.3,7.28-6.93,7.28s-6.43-3-6.89-6.92l-.07,0v.11c0,4.41,3.11,8,7,8s7-3.58,7-8c0-.15,0-.3,0-.45Z"/>
              <g>
                <path class="cls-8" d="M43.75,59.72a18.1,18.1,0,0,1-1.84-.3c.31.9.64,1.84.77,2.39C42.94,62.84,43.41,60.83,43.75,59.72Z"/>
                <path class="cls-8" d="M47.76,59.67c.35,1.13.8,3,1,2,.14-.54.45-1.44.75-2.32A16.68,16.68,0,0,1,47.76,59.67Z"/>
                <path class="cls-8" d="M46.8,59.77c-.4,0-.81,0-1.22,0h-.7c.2.45.45,1,.69,1.56C46.09,62.64,46.39,60.94,46.8,59.77Z"/>
              </g>
            </g>
            <path class="cls-4" d="M61.63,65.63s0,.07,0,.07S61.67,65.63,61.63,65.63Z"/>
            <path class="cls-7" d="M86,39.48c2.45.9,1,5.56,1.54,7.69.69-.49,1.09-1.3,1.78-1.64a6.39,6.39,0,0,0,6,6.48c-.5-1.52-2-3.07-2-4.8,1.26-.17,2.46,1.52,3.47,2.12-1.19-1.35-.27-3,.22-4.48a4.07,4.07,0,0,0,1.45,1.64c.25-2.06.94-4.59-.37-6.4-1.52-2.08-4.79-2.4-7.09-1.78.64,0,1.49-.42,2.33-.49-.19-.4-.62-.4-1-.31.52-.38.67-.77,1.31-.92C90.53,34.87,86,39.48,86,39.48Z"/>
            <path class="cls-7" d="M39.3,50.29c-1,0-1.11,1.57-.09,1.57S40.32,50.29,39.3,50.29Z"/>
            <path class="cls-7" d="M43.38,52.49c-.53,0-.5.82,0,.82S43.91,52.49,43.38,52.49Z"/>
            <path class="cls-7" d="M43.55,55.29c-.56,0-.52.85,0,.85S44.09,55.29,43.55,55.29Z"/>
            <path class="cls-7" d="M41.36,54.19c-.69,0-.59,1.07.1,1.07S42.05,54.19,41.36,54.19Z"/>
            <path class="cls-7" d="M36.89,55.86c-1.32,0-1.22,2,.09,2S38.2,55.86,36.89,55.86Z"/>
            <path class="cls-7" d="M42.31,56.53a.7.7,0,0,0-.75.61.68.68,0,0,0,.61.75.7.7,0,0,0,.75-.61A.68.68,0,0,0,42.31,56.53Z"/>
            <path class="cls-7" d="M46.55,56.13a.92.92,0,0,0,0,1.83A.92.92,0,0,0,46.55,56.13Z"/>
            <path class="cls-7" d="M46.73,54.86c-.25,0-.28.39,0,.39S47,54.86,46.73,54.86Z"/>
            <path class="cls-7" d="M46.42,51.76c-1,0-1.12,1.62-.08,1.62S47.47,51.76,46.42,51.76Z"/>
            <path class="cls-7" d="M49.43,54c-.45-.05-1,.52-.7,1l.12.19A.65.65,0,0,0,50,55.05c-.05.11-.06.14,0,.08A.7.7,0,0,0,49.43,54Z"/>
            <path class="cls-7" d="M49.34,57.1c-.56,0-.51.87,0,.87S49.9,57.1,49.34,57.1Z"/>
            <path class="cls-7" d="M51.69,56.88a.33.33,0,0,0,0,.66A.33.33,0,0,0,51.69,56.88Z"/>
            <path class="cls-7" d="M51,54.85a.37.37,0,0,0,0,.74A.37.37,0,0,0,51,54.85Z"/>
            <path class="cls-7" d="M43.36,49.41c-.65,0-.57,1,.08,1S44,49.41,43.36,49.41Z"/>
            <path class="cls-7" d="M49.67,51.63c-.57,0-.52.88,0,.88S50.24,51.63,49.67,51.63Z"/>
            <path class="cls-7" d="M53.73,52.14c-1,0-1.09,1.52-.11,1.52S54.71,52.14,53.73,52.14Z"/>
            <path class="cls-7" d="M54.23,56.41c-1.47,0-1.23,2.26.22,2.26S55.68,56.41,54.23,56.41Z"/>
            <path class="cls-7" d="M50.12,50.54h0a.6.6,0,1,0,0,1.1l0,0C50.68,51.48,50.72,50.6,50.12,50.54Z"/>
            <path class="cls-7" d="M52.59,50.06c-.87,0-1,1.37-.15,1.37S53.47,50.06,52.59,50.06Z"/>
            <path class="cls-7" d="M47.7,47.82a.94.94,0,0,0,0,1.87.94.94,0,0,0,0-1.87Z"/>
            <path class="cls-7" d="M35.9,52.4c-.65,0-.57,1,.08,1S36.55,52.4,35.9,52.4Z"/>
            <path class="cls-7" d="M39.05,53.76c-.12-.49-.83-.37-.93.07a1,1,0,0,0,0,.24c0,.64,1,.56,1-.07A1,1,0,0,0,39.05,53.76Z"/>
            <path class="cls-7" d="M33.13,56.22a.74.74,0,1,0-.4,1.4A.74.74,0,0,0,33.13,56.22Z"/>
            <path class="cls-7" d="M35.11,60.34a1.67,1.67,0,0,1-.08-.2.61.61,0,1,0-.81.79l.16.07A.53.53,0,0,0,35.11,60.34Z"/>
            <path class="cls-7" d="M38.05,60.65l0,0a.46.46,0,1,0,0,.78l0,0A.42.42,0,0,0,38.05,60.65Z"/>
            <path class="cls-7" d="M34.31,50.69a.55.55,0,0,0-.5.61.56.56,0,1,0,.5-.61Z"/>
            <path class="cls-7" d="M56.84,54.2l0-.07c-.15-.54-.88-.37-1,.09l0,.08a.54.54,0,0,0,.59.63A.55.55,0,0,0,56.84,54.2Z"/>
            <path class="cls-7" d="M42.15,46.09c-.88,0-1,1.36-.15,1.36S43,46.09,42.15,46.09Z"/>
            <path class="cls-7" d="M37.49,46.34c-1,0-1.1,1.52-.11,1.52S38.47,46.34,37.49,46.34Z"/>
            <path class="cls-7" d="M45.56,46.54c-.08,0-.1.12,0,.12S45.64,46.54,45.56,46.54Z"/>
            <path class="cls-7" d="M45.33,45a1.35,1.35,0,0,0-1.43,1.21,1.32,1.32,0,0,0,1.21,1.43,1.36,1.36,0,0,0,1.44-1.21A1.33,1.33,0,0,0,45.33,45Z"/>
            <path class="cls-7" d="M50,50.39l-.56,0a1.2,1.2,0,0,0,0,2.38,1.18,1.18,0,0,0,1.12-.46,1.55,1.55,0,0,0,.27-.65A1.08,1.08,0,0,0,50,50.39Z"/>
            <path class="cls-7" d="M51.13,46.88a.55.55,0,0,0-.49.61.56.56,0,0,0,.61.49.55.55,0,0,0,.49-.61A.57.57,0,0,0,51.13,46.88Z"/>
            <path class="cls-7" d="M54.87,52.58a1.24,1.24,0,0,0-1.35-1,1.2,1.2,0,0,0-1,1.35,1.23,1.23,0,0,0,1.35,1A1.21,1.21,0,0,0,54.87,52.58Z"/>
            <path class="cls-7" d="M55.88,49.11c-1.47,0-1.23,2.27.23,2.27S57.34,49.11,55.88,49.11Z"/>
            <path class="cls-7" d="M32.28,53.57v0a.59.59,0,0,0-1.05.26c-.08.54.7.95,1,.45h0A.56.56,0,0,0,32.28,53.57Z"/>
            <path class="cls-7" d="M32.09,53.61a.9.9,0,0,0-.83-.73,1,1,0,0,0-1,.55,1,1,0,0,0,.16,1.14.93.93,0,0,0,1.22.07h0l.08-.06,0,0,0,0A.9.9,0,0,0,32.09,53.61Z"/>
            <path class="cls-7" d="M58,56.29a.92.92,0,0,0,0,1.84A.92.92,0,0,0,58,56.29Z"/>
            <path class="cls-7" d="M57.72,60a1,1,0,0,0-.25,0c-.4.06-.56.71-.08.78a.72.72,0,0,0,.25,0C58.05,60.7,58.21,60,57.72,60Z"/>
            <path class="cls-7" d="M59.61,54.09c-.6,0-.54.93.06.93S60.21,54.09,59.61,54.09Z"/>
            <path class="cls-3" d="M96.28,40a4.64,4.64,0,0,0-3.79-1.57,9.23,9.23,0,0,1-1.41-.12,1,1,0,0,1,.06-.42,2,2,0,0,1,1-.94,3,3,0,0,0-2,.81c-.15.12-.38.33-.63.55a4,4,0,0,0-2.41,1.05c.89.72,1.41,3.12,1.53,4a9,9,0,0,1,0,1.63,2.19,2.19,0,0,1,.59-.51c0,2.67,1.52,5.87,4.33,6a16.59,16.59,0,0,1-1-4.69c1-.15,2,1.18,2.8,1.65-1-1.06-.26-2.41.12-3.58a3.16,3.16,0,0,0,1.17,1.28C96.85,43.41,97.36,41.38,96.28,40Z"/>
            <path class="cls-12" d="M31.93,1.19l.13,0c.26,0,.47-.12.48-.17s-.13,0,.25.41l.11.13a6.81,6.81,0,0,1,.4.61c.13.18.24.38.37.59s.31.48.44.72a17.16,17.16,0,0,1,.79,1.61,9.81,9.81,0,0,1,.52,1.65,7.31,7.31,0,0,1,.18,1.55,7.55,7.55,0,0,1-.08,1.31,9.44,9.44,0,0,1-.2.93l-.11.35-.19.26c-.11.17-.31.42-.49.7a9.38,9.38,0,0,0-.57,1l-.25.57a3.08,3.08,0,0,0-.14.54,2.14,2.14,0,0,0,.06,1.14c.07.19.13.2.09.17a1.1,1.1,0,0,0-.45-.17,7.16,7.16,0,0,1-1.06-.33,2,2,0,0,1-.58-.22,5.26,5.26,0,0,1-.61-.32,5.84,5.84,0,0,1-.71-.43,12.19,12.19,0,0,1-1.25-1l-.54-.49a5.11,5.11,0,0,1-.28-.5,7.22,7.22,0,0,1-.54-1.36,7.72,7.72,0,0,1-.32-2,8.07,8.07,0,0,1,.23-2.22A7.66,7.66,0,0,1,29.85,2.5a5.35,5.35,0,0,1,.74-.58,4.05,4.05,0,0,1,.65-.41A4.76,4.76,0,0,1,31.93,1.19Z"/>
            <path class="cls-12" d="M19.26,9.06l.1-.09c.19-.17.32-.34.31-.38s-.13.05.43.17l.16,0a6.37,6.37,0,0,1,.65.25,5.14,5.14,0,0,1,.63.25c.21.1.5.18.73.3a13.36,13.36,0,0,1,1.47.72,7.56,7.56,0,0,1,1.25.84,5.14,5.14,0,0,1,.89.93,2.3,2.3,0,0,1,.32.47,3.37,3.37,0,0,1,.25.45,4.9,4.9,0,0,1,.3.76,2.5,2.5,0,0,1,.1.31s0,.45,0,1.11c0,.16,0,.36,0,.54s.05.37.08.57a4.23,4.23,0,0,0,.31,1.09,2.26,2.26,0,0,0,.62.88c.15.11.2.09.15.09a1,1,0,0,0-.43.11c-.23.09-.58.26-1,.38a2,2,0,0,1-.54.19,4.18,4.18,0,0,1-.63.15l-.77.13c-.26,0-.53.05-.78.06s-.52,0-.71,0l-.69,0a4.57,4.57,0,0,1-.51-.2,7.2,7.2,0,0,1-1.21-.7,7.34,7.34,0,0,1-1.39-1.31,8.85,8.85,0,0,1-.59-.87,8.89,8.89,0,0,1-.46-1,7.83,7.83,0,0,1-.3-1.05,8.11,8.11,0,0,1-.12-1.08,6.93,6.93,0,0,1,.26-2,7.18,7.18,0,0,1,.33-.83,3.94,3.94,0,0,1,.33-.65A5.09,5.09,0,0,1,19.26,9.06Z"/>
            <path class="cls-12" d="M45,2.78l.1-.08c.19-.16.33-.32.32-.35s-.13,0,.42.15l.16,0,.64.25a3.72,3.72,0,0,1,.61.29c.21.11.49.23.72.38A7.08,7.08,0,0,1,49.3,4.56a5.7,5.7,0,0,1,1,1.55A6,6,0,0,1,50.84,8a6.57,6.57,0,0,1-.06,1.79A6.09,6.09,0,0,1,50.39,11a4.39,4.39,0,0,1-.23.48s-.1.11-.28.28a10.09,10.09,0,0,1-.79.64,9.86,9.86,0,0,1-1.1.7c-.37.22-.81.39-1.11.56a5.41,5.41,0,0,0-.94.53c-.12.11-.11.16-.1.12a2.53,2.53,0,0,0-.42-1.26,3.28,3.28,0,0,1-.25-.41c-.09-.13-.18-.28-.3-.43l-.37-.47a6.94,6.94,0,0,0-.77-.77,4.53,4.53,0,0,0-.36-.31l-.15-.24a5.19,5.19,0,0,1-.32-.63,3.06,3.06,0,0,1-.13-.43,2.1,2.1,0,0,1-.1-.51,4.74,4.74,0,0,1,0-1.25A7.17,7.17,0,0,1,43,6.12a8.67,8.67,0,0,1,.68-1.56c.12-.24.3-.49.42-.69a4.09,4.09,0,0,1,.39-.55A6.76,6.76,0,0,1,45,2.78Z"/>
            <path class="cls-12" d="M54.1,5.06,54.2,5c.21-.14.35-.3.34-.34s-.13,0,.41.17l.16,0a4.79,4.79,0,0,1,.64.34,3.51,3.51,0,0,1,.57.44,5.32,5.32,0,0,1,.64.62A5.85,5.85,0,0,1,58,8a6.13,6.13,0,0,1,.08,4,6.32,6.32,0,0,1-.72,1.52,5.56,5.56,0,0,1-1.12,1.25l-.34.14a9.34,9.34,0,0,1-.9.3c-.36.11-.77.22-1.2.32s-.84.17-1.17.27a4.36,4.36,0,0,0-1,.36c-.14.09-.14.14-.12.1A2.68,2.68,0,0,0,51.29,15a2,2,0,0,1-.15-.47c-.11-.31-.25-.72-.4-1.11s-.32-.79-.46-1.08a5,5,0,0,0-.22-.47s0-.13,0-.35a7.22,7.22,0,0,1,0-.83,4.24,4.24,0,0,1,.19-1.06A3.9,3.9,0,0,1,50.7,8.5a5.3,5.3,0,0,1,.84-1c.33-.34.69-.69,1.06-1,.19-.17.4-.33.55-.48a6.2,6.2,0,0,1,.48-.43Z"/>
            <path class="cls-12" d="M67.47,3.84l.12-.06A1.07,1.07,0,0,0,68,3.52s-.14,0,.33.36l.13.1s.22.22.5.5A5.78,5.78,0,0,1,69.5,5c.17.18.4.36.59.58a6.63,6.63,0,0,1,1.14,1.58,6,6,0,0,1,.65,2.46A6.21,6.21,0,0,1,71.8,11a9.52,9.52,0,0,1-.27,1.23A8.56,8.56,0,0,1,70.8,14,8.67,8.67,0,0,1,70,15.2c-.24.28-.4.43-.4.43l-.37.21c-.23.13-.61.3-1,.47a11,11,0,0,1-1.37.47,11.94,11.94,0,0,1-1.37.31,6.81,6.81,0,0,1-.8.14,2.76,2.76,0,0,0-.43.09c-.19.07-.21.12-.17.08a1,1,0,0,0,.19-.44,4.25,4.25,0,0,0,.09-.44c0-.15,0-.37,0-.55a3.05,3.05,0,0,1-.06-.5A9.49,9.49,0,0,0,64,14.29c-.13-.42-.28-.85-.39-1.13s-.2-.51-.2-.51,0-.14,0-.38a8.83,8.83,0,0,1,0-1,5.47,5.47,0,0,1,.08-.65c0-.21.11-.53.18-.8,0-.1.06-.21.1-.32a1.46,1.46,0,0,1,.1-.23c.1-.16.12-.31.23-.47s.18-.4.3-.61.24-.52.38-.78a15.62,15.62,0,0,1,1-1.79,7.81,7.81,0,0,1,.59-.77,3.19,3.19,0,0,1,.53-.56A4.35,4.35,0,0,1,67.47,3.84Z"/>
            <path class="cls-12" d="M74.49,15.84l.14,0a1.05,1.05,0,0,0,.48-.14s-.15,0,.36.28l.15.1a3.6,3.6,0,0,1,.51.56,2.66,2.66,0,0,1,.39.65,3.36,3.36,0,0,1,.34.89,4.9,4.9,0,0,1,0,2.16c0,.18-.09.37-.13.56s-.12.34-.19.51a5,5,0,0,1-.5.95,4.6,4.6,0,0,1-.64.78,4.17,4.17,0,0,1-.69.6,4.8,4.8,0,0,1-1.38.69,5.07,5.07,0,0,1-1.07.2h-.43l-.34-.13c-.2-.07-.51-.22-.85-.37l-1.1-.56c-.37-.18-.75-.42-1.06-.55a3.7,3.7,0,0,0-1-.32c-.15,0-.17,0-.13,0a3.16,3.16,0,0,0,.36-1.29s0-.17.08-.5.12-.77.18-1.21.11-.87.14-1.2a3.69,3.69,0,0,0,0-.53l.14-.3a4.44,4.44,0,0,1,.39-.65,2.43,2.43,0,0,1,.6-.64,2.06,2.06,0,0,1,.37-.23,1.76,1.76,0,0,1,.43-.13,1.91,1.91,0,0,1,.48-.05,5.33,5.33,0,0,1,.56,0c.4,0,.83.08,1.31.09A7,7,0,0,0,73.84,16Z"/>
            <path class="cls-12" d="M5.52,16.71l.11-.06a1.08,1.08,0,0,0,.4-.24s-.14,0,.37.25l.15.06s.24.15.56.3a4.22,4.22,0,0,0,1.2.35,5.7,5.7,0,0,0,1.17,0,2.79,2.79,0,0,1,1,.06,2.92,2.92,0,0,1,.89.43,4.54,4.54,0,0,1,.79.72,6.76,6.76,0,0,1,.78,1s.1.48.26,1.18L13.41,22c.09.38.17.82.26,1.13a4.59,4.59,0,0,0,.38,1c.09.13.14.13.1.11a2.87,2.87,0,0,0-1.29.27,3.46,3.46,0,0,1-.46.17L11.29,25c-.43.16-.84.3-1.16.4l-.54.17-.41,0a5.19,5.19,0,0,1-1-.22c-.22-.07-.45-.16-.69-.26a8.26,8.26,0,0,1-.74-.43,6.25,6.25,0,0,1-1.5-1.43,6.34,6.34,0,0,1-.62-1,6.08,6.08,0,0,1-.43-1.17A6.76,6.76,0,0,1,4,19.82a5.06,5.06,0,0,1,.15-1.13,3.15,3.15,0,0,1,.39-.89A2.07,2.07,0,0,1,5,17.18,2.86,2.86,0,0,1,5.52,16.71Z"/>
            <path class="cls-12" d="M1.16,30.75s0-.06,0-.13c0-.24,0-.44-.08-.45s0,.13.36-.26l.11-.12.53-.41A5.1,5.1,0,0,1,2.58,29l.28-.21a2.13,2.13,0,0,1,.32-.23,9.15,9.15,0,0,1,1.3-.76,4.92,4.92,0,0,1,1.32-.45A4,4,0,0,1,7,27.32a3.43,3.43,0,0,1,1.06.26,4.83,4.83,0,0,1,.75.36,3.11,3.11,0,0,1,.29.18s.28.36.68.9c.21.27.44.56.7.86s.25.29.38.44a4.09,4.09,0,0,0,.37.36,2.74,2.74,0,0,0,.85.53c.15,0,.18,0,.14,0a3.89,3.89,0,0,0-.82,1,3.82,3.82,0,0,1-.29.42c-.2.26-.47.6-.77.94l-.45.52a5.58,5.58,0,0,1-.41.42L9.1,35l-.38.17a4.81,4.81,0,0,1-1,.31,6.64,6.64,0,0,1-1.45.08,6.12,6.12,0,0,1-1.62-.41,5.69,5.69,0,0,1-1.52-1A6.12,6.12,0,0,1,2,32.77,5.1,5.1,0,0,1,1.58,32a3,3,0,0,1-.24-.64A3.46,3.46,0,0,1,1.16,30.75Z"/>
            <path class="cls-12" d="M83.51,21.65l.12,0a1,1,0,0,0,.42-.23s-.14,0,.35.26l.14.08a4.79,4.79,0,0,1,.53.47,2.7,2.7,0,0,1,.46.53,5,5,0,0,1,.49.72,5.18,5.18,0,0,1,.38.89,6.21,6.21,0,0,1,.23,1,6.47,6.47,0,0,1,0,1.08,7,7,0,0,1-.19,1.1,6.37,6.37,0,0,1-1,2,8.61,8.61,0,0,1-.67.77,8.79,8.79,0,0,1-.7.59,5.71,5.71,0,0,1-1.22.65c-.32.12-.51.17-.51.17H82c-.25,0-.61-.07-1-.13a9.2,9.2,0,0,1-1.25-.32c-.4-.11-.82-.32-1.14-.42a4.6,4.6,0,0,0-1-.3c-.16,0-.19,0-.15,0a2.45,2.45,0,0,0,.58-1.17,3.17,3.17,0,0,1,.11-.46,9.49,9.49,0,0,0,.17-1.1,9.77,9.77,0,0,0,0-1.07,3,3,0,0,0,0-.47s0-.1.06-.26a4,4,0,0,1,.16-.61,1.56,1.56,0,0,1,.14-.33,1.32,1.32,0,0,1,.2-.34,2.87,2.87,0,0,1,.63-.65,7.35,7.35,0,0,1,1-.67l.61-.35c.21-.12.42-.25.65-.36l.65-.36.55-.3Z"/>
          </g>
          <path class="cls-3" d="M64.89,65.58c1.89-.13,3.35,1.1,4.9,1.73a6.34,6.34,0,0,0-1.89-3.56C67.08,63,65.7,63,65,62.26c-1.6-1.54,2.62-.82,3.5-.82-.67-1-3.22-2.11-5-2.28C61.34,64.61,45.66,71,45.66,71s-17-6.79-18.33-12.34c-1.81.27-4.43,1.69-5,2.78.88-.08,5-1.19,3.57.5-.67.76-2,.92-2.79,1.75a6.39,6.39,0,0,0-1.55,3.72c1.49-.77,2.83-2.13,4.72-2.17-.54,1.31-1.75,1.74-2,3.44-.16,1.23-.16,4.69,1.2,5.25.09-1.74,1.58-5,3.76-4.72-.08.87-.72,1.38-.76,2.39a11.18,11.18,0,0,0,1.23,4.86c0-.65,1.13-2.84,2-2.52.36.14.46,2.47.88,3a4.17,4.17,0,0,1,2-2.3,7.5,7.5,0,0,0,.88,3.82,8.89,8.89,0,0,1,1.24-4.06,5.92,5.92,0,0,0,.74,3,1.71,1.71,0,0,1,.3-1.5,4.47,4.47,0,0,0,1.25,3.71,4.35,4.35,0,0,1,.74-2.28,8.5,8.5,0,0,0,1.78,3.5c-.41-1.37,1.78-2.57,2.12-3.94a10,10,0,0,0,.31,2.28c1.22-.95,2.54-1.82,2.66-3.47-.18,1.29.51,1.66,1.14.59A4.51,4.51,0,0,0,48,75.7a4.77,4.77,0,0,0,1.92,3.56,3.68,3.68,0,0,1,.37-2.4c.73.23,1.13,1.13,1.32,1.82.69-.75,1.67-1.94,1.63-3a4.12,4.12,0,0,1,.24.8,7,7,0,0,1,.11.8l0,0a24.53,24.53,0,0,1,.07,3.09c1-.91,2.1-1.32,2.91-2.43a10.34,10.34,0,0,1,.43,1.7,7.4,7.4,0,0,0,.52-3.89,4.25,4.25,0,0,1,2.17,2.11c.36-.57.24-2.91.6-3.08.82-.4,2.14,1.68,2.21,2.32a11.16,11.16,0,0,0,.77-4.94c-.13-1-.82-1.45-1-2.31,2.14-.5,3.93,2.62,4.18,4.35,1.3-.68,1-4.14.7-5.34C66.8,67.16,65.56,66.84,64.89,65.58Z"/>
        </g>
      </g>
    </g>
  </g>
</svg>
