<svg xmlns="http://www.w3.org/2000/svg" width="110" height="95" viewBox="0 0 110 95">
  <defs>
    <style>
      .cls-1 {
        isolation: isolate;
      }

      .cls-2 {
        fill: #a36a55;
      }

      .cls-3 {
        fill: #6e2810;
      }

      .cls-4 {
        fill: #ff5c23;
      }

      .cls-5 {
        fill: #f0b65e;
      }

      .cls-6 {
        fill: #f2b93d;
      }

      .cls-7 {
        fill: #361308;
      }

      .cls-8 {
        fill: #f0d907;
        mix-blend-mode: multiply;
      }

      .cls-9 {
        fill: #fff;
      }

      .cls-10 {
        fill: #e8e8e8;
      }
    </style>
  </defs>
  <g class="cls-1">
    <g id="Ñëîé_1" data-name="Ñëîé 1">
      <g>
        <path class="cls-2" d="M77,7C81.68,2.18,89.08-3.7,91,6.46a30.78,30.78,0,0,1-.15,11.16c7.84,2.66,6.64,13.52,2.5,18.8-7.66,9.76-15.26,3.43-23.11-2.58C66,30.59,60.11,27.56,63.79,22,67.31,16.76,72.63,11.56,77,7Z"/>
        <path class="cls-2" d="M33.65,7.27C29,2.46,21.61-3.42,19.71,6.74a30.78,30.78,0,0,0,.15,11.16c-7.85,2.66-6.64,13.52-2.5,18.79,7.66,9.77,15.25,3.43,23.11-2.57,4.24-3.25,10.11-6.28,6.43-11.81C43.38,17,38.06,11.84,33.65,7.27Z"/>
        <g>
          <path class="cls-3" d="M46.65,88.19c.14-2.54-.25-5.42.7-7.84.88-2.26,3.65-3.69,4.48-5.77,2-5-9.7-6.06-12.38-4.46-5,3-3.66,13.88-.59,17.83-.88.62-1.62.86-1.39,2.09.4,2.14,12.6,6,14.58,1.78C53.14,89.51,48.8,88.15,46.65,88.19Z"/>
          <path class="cls-3" d="M68.49,88.6c-.14-2.54.25-5.41-.71-7.84C66.87,78.5,64,77.08,63.19,75c-2-5,9.93-6.06,12.67-4.46,5.11,3,3.75,13.88.61,17.83.89.63,1.65.86,1.42,2.09-.41,2.14-12.9,6-14.93,1.78C61.85,89.92,66.29,88.57,68.49,88.6Z"/>
          <path class="cls-4" d="M86.59,61.14c-6.68-17.57-4-39.42-28.94-39.14H56.28c-25.2-.28-22.48,21.57-29.21,39.14C23.68,70,24.61,77.27,34.52,80.93,39.08,82.6,49.74,85.29,57,85.26S74.68,82.6,79.2,80.93C89,77.27,89.94,70,86.59,61.14Z"/>
          <path class="cls-5" d="M66.64,60.17A15.89,15.89,0,0,0,66.42,58C62,55.79,55,55.75,50.52,57.62a24.84,24.84,0,0,0-.19,2.55c0,4.15,3.65,5.52,8.15,5.52S66.64,64.32,66.64,60.17Z"/>
          <path class="cls-3" d="M66.64,60.17c0,4.15-3.65,5.52-8.16,5.52s-8.15-1.37-8.15-5.52,3-20.62,7.47-20.62S66.64,56,66.64,60.17Z"/>
          <path class="cls-6" d="M58.54,63.34c-4.24,0-7.72-1.21-8.11-4.81-.06.65-.1,1.22-.1,1.64,0,4.15,3.65,5.52,8.15,5.52s8.16-1.37,8.16-5.52a10.27,10.27,0,0,0-.08-1.12C65.9,62.25,62.56,63.34,58.54,63.34Z"/>
          <g>
            <path class="cls-3" d="M24.34,55.08c-2.64,2-5.28.43-7.46-2.32s-3.09-5.66-.45-7.67S31,36.91,33.16,39.67,27,53.07,24.34,55.08Z"/>
            <path class="cls-7" d="M21,55.87a2.14,2.14,0,0,0,.86-.5c1.52-1.43-1.24-2.53-2.89-4.53-1.28-1.55-1.54-4-2.91-3.73a1.29,1.29,0,0,0-1.21.85,7.84,7.84,0,0,0,2.06,4.8A8.22,8.22,0,0,0,21,55.87Z"/>
          </g>
          <g>
            <path class="cls-3" d="M90.29,55.51c2.86,1.83,5.37.05,7.32-2.87s2.58-5.9-.27-7.73-15.47-7.16-17.42-4.23S87.44,53.68,90.29,55.51Z"/>
            <path class="cls-7" d="M93.76,56.06a2.4,2.4,0,0,1-.91-.44c-1.67-1.33,1-2.63,2.49-4.75,1.15-1.65,1.18-4.1,2.59-4a1.34,1.34,0,0,1,1.3.77,7.68,7.68,0,0,1-1.62,5A8,8,0,0,1,93.76,56.06Z"/>
          </g>
          <g>
            <path class="cls-8" d="M56.82,35.66a9.3,9.3,0,0,1-9.37-9.2A8,8,0,0,1,47.59,25a9.35,9.35,0,1,1,9.23,10.66Z"/>
            <path class="cls-3" d="M56.82,35.66a9.3,9.3,0,0,1-9.37-9.2A8,8,0,0,1,47.59,25a9.35,9.35,0,1,1,9.23,10.66Z"/>
            <g>
              <g>
                <path class="cls-9" d="M49.08,26.46a7.74,7.74,0,1,0,7.74-7.6A7.67,7.67,0,0,0,49.08,26.46Z"/>
                <path class="cls-10" d="M49.37,24.51A7.72,7.72,0,0,0,64.51,26c0,.16,0,.3,0,.46a7.74,7.74,0,0,1-15.48,0A7.08,7.08,0,0,1,49.37,24.51Z"/>
              </g>
              <g>
                <path d="M54.45,31.38a3.91,3.91,0,0,0,5.45-.32,3.74,3.74,0,0,0-.32-5.35,3.91,3.91,0,0,0-5.45.32A3.74,3.74,0,0,0,54.45,31.38Z"/>
                <path class="cls-9" d="M56.25,30.42a1.56,1.56,0,0,0,2.18-.13,1.49,1.49,0,0,0-.13-2.13,1.57,1.57,0,0,0-2.18.12A1.51,1.51,0,0,0,56.25,30.42Z"/>
              </g>
            </g>
          </g>
          <path class="cls-5" d="M56.76,13.24A11.28,11.28,0,0,0,45.38,24.42c0,.26,0,.51,0,.77a35.05,35.05,0,0,0,11.66,1.89,35.65,35.65,0,0,0,11-1.66c0-.33.06-.66.06-1A11.29,11.29,0,0,0,56.76,13.24Z"/>
          <path d="M47.56,39.56l-.46.65c-.14.2-.29.44-.46.69a7.69,7.69,0,0,0-.48.8c-.6,1.13-1.11,2.31-1.11,2.31h0s.52-1.17.93-2.39c.1-.31.24-.6.34-.88l.3-.78.27-.76a.38.38,0,0,1,.52-.27.4.4,0,0,1,.18.57S47.57,39.54,47.56,39.56Z"/>
          <path d="M44.24,49.55l-.23.63a4.8,4.8,0,0,0-.18.66,6.33,6.33,0,0,0-.15.78c0,.27,0,.54-.06.79a2.93,2.93,0,0,0,0,.68l.1.67h0s0-.26-.11-.66a3.32,3.32,0,0,1-.11-.69c0-.25,0-.53-.06-.8s0-.55,0-.81,0-.5,0-.71c0-.42,0-.7,0-.7a.35.35,0,0,1,.42-.33.38.38,0,0,1,.35.42A.19.19,0,0,1,44.24,49.55Z"/>
          <path d="M47.86,45.89a.5.5,0,0,0-.08.12l-.17.33a5,5,0,0,0-.28,1.15,9,9,0,0,0-.07,1.21v.55h0s0-.22,0-.55-.06-.77-.1-1.21a9.51,9.51,0,0,1-.06-1.26c0-.18,0-.33,0-.43s0-.17,0-.17a.3.3,0,0,1,.45-.19c.22.09.35.28.29.41A.05.05,0,0,1,47.86,45.89Z"/>
          <path d="M50.76,44.23l-.14.65c-.09.39-.21.9-.28,1.41a6.75,6.75,0,0,0-.07.75c0,.25,0,.47,0,.67s.06.35.08.46l0,.17h0s0-.06,0-.17-.06-.27-.09-.46-.06-.42-.07-.66,0-.51,0-.77c0-.52,0-1.05-.07-1.43s-.08-.64-.08-.64a.33.33,0,0,1,.35-.38.36.36,0,0,1,.42.34S50.76,44.21,50.76,44.23Z"/>
          <path d="M40.64,41l-.15.11-.35.35a6.41,6.41,0,0,0-.88,1.23,8.52,8.52,0,0,0-.83,2.08h0s.28-1.09.66-2.16a13.94,13.94,0,0,1,.62-1.46l.25-.48a1.15,1.15,0,0,1,.11-.17.35.35,0,0,1,.55-.09.39.39,0,0,1,.07.55S40.65,40.94,40.64,41Z"/>
          <path d="M38.7,37.48l-.14.06-.36.22a1.16,1.16,0,0,0-.22.18l-.25.22a5.14,5.14,0,0,0-.46.55,11.33,11.33,0,0,0-.74,1.14l-.31.54h0s.11-.22.29-.55.38-.78.59-1.23c.11-.23.24-.45.35-.67l.19-.3a2.94,2.94,0,0,1,.17-.26c.13-.16.24-.29.31-.39l.14-.13a.32.32,0,0,1,.51.07.38.38,0,0,1,0,.52Z"/>
          <path d="M37.21,49.67l-.13.16c-.08.1-.19.26-.32.45s-.24.44-.38.69-.11.27-.16.41a2.54,2.54,0,0,0-.15.44,5,5,0,0,0-.19.9,4.72,4.72,0,0,0-.06.8,4.54,4.54,0,0,0,0,.57,2,2,0,0,0,0,.22h0s0-.08,0-.22,0-.33,0-.57,0-.51,0-.81,0-.61.08-.92a4,4,0,0,1,.08-.48c0-.15,0-.31.08-.45s.14-.58.23-.81l.2-.56.09-.21a.39.39,0,0,1,.55-.23.4.4,0,0,1,.15.56Z"/>
          <path d="M39.93,49.56l-.31.49-.21.57-.12.33a2,2,0,0,0-.09.35c0,.24-.09.48-.13.7a5,5,0,0,0-.06.62c0,.36,0,.6,0,.6h0s0-.24,0-.6c0-.19,0-.4,0-.63s0-.47,0-.72,0-.24,0-.36,0-.24,0-.36,0-.46,0-.65c.08-.38.13-.64.13-.64a.31.31,0,0,1,.45-.21.41.41,0,0,1,.28.46Z"/>
          <path d="M40,57.8l-.08.21c-.05.15-.11.35-.18.59s-.12.54-.18.86a7.91,7.91,0,0,0-.09,1,5.61,5.61,0,0,0,0,1,6.53,6.53,0,0,0,.15.87c.06.25.15.45.19.6l.08.22h0l-.08-.22a5.19,5.19,0,0,1-.2-.6,7.14,7.14,0,0,1-.22-.86,10.16,10.16,0,0,1-.16-1c-.05-.35-.05-.7-.08-1s0-.64,0-.91,0-.49,0-.65,0-.24,0-.24c0-.28.23-.48.46-.44a.42.42,0,0,1,.31.53Z"/>
          <path d="M43.57,57.94s-.23,1-.36,2a18.93,18.93,0,0,0-.18,2h0s0-1,0-2a19.06,19.06,0,0,0-.2-2c0-.19.13-.35.36-.37s.42.13.41.32A.13.13,0,0,1,43.57,57.94Z"/>
          <path d="M46.74,57s0,.22-.08.54c0,.16,0,.35-.06.55s0,.43,0,.64a17.21,17.21,0,0,0,.14,1.74h0a15.79,15.79,0,0,0-.33-1.71c-.06-.22-.08-.43-.13-.64s-.09-.39-.13-.56C46,57.21,46,57,46,57c0-.17.09-.32.32-.33s.44.11.44.27Z"/>
          <path d="M49.79,54.93a2.09,2.09,0,0,0-.06.25c0,.17,0,.41-.07.7,0,.58,0,1.37,0,2.16,0,.4,0,.8,0,1.17s-.08.71-.1,1-.07.28-.09.4l-.07.3c0,.17-.07.26-.07.26h0l.06-.26c0-.08,0-.19.07-.3a3.53,3.53,0,0,0,.08-.4c0-.29.06-.64,0-1a9.19,9.19,0,0,0-.09-1.15c-.1-.78-.24-1.56-.32-2.16,0-.31-.06-.56-.08-.74a1.48,1.48,0,0,1,0-.28c0-.33.17-.59.4-.58a.45.45,0,0,1,.37.54A.28.28,0,0,1,49.79,54.93Z"/>
          <path d="M35.67,61.43l-.06.06a1.42,1.42,0,0,0-.16.17l-.5.68c-.1.15-.18.32-.28.5a6.27,6.27,0,0,0-.29.58c-.09.21-.17.42-.26.64a5.05,5.05,0,0,0-.22.69c-.06.23-.13.46-.19.69s-.08.47-.12.69a10.46,10.46,0,0,0-.14,1.24,8.47,8.47,0,0,0,0,.88v.33h0v-.33c0-.21,0-.52,0-.88s0-.79.08-1.25c0-.22.05-.46.07-.7s.09-.48.13-.72a5.62,5.62,0,0,1,.16-.71c.06-.24.11-.47.17-.7s.15-.43.22-.63.13-.4.21-.57l.41-.83A1.21,1.21,0,0,1,35,61l0-.08c.23-.33.57-.5.75-.35s.15.48-.07.74Z"/>
          <path d="M32.89,57.83s-.24.22-.59.58a7.62,7.62,0,0,0-1.13,1.39,4.34,4.34,0,0,0-.45.85,5.56,5.56,0,0,0-.26.79c-.09.49-.13.82-.13.82h0s0-.33.11-.82c.07-.24.11-.53.21-.82a5.67,5.67,0,0,1,.35-.91,14.06,14.06,0,0,1,.87-1.63l.42-.73a.41.41,0,0,1,.58-.17.4.4,0,0,1,.08.59Z"/>
          <path d="M37.55,65s-.12.28-.32.69c-.09.21-.16.46-.25.73a4.62,4.62,0,0,0-.23.85c0,.3-.1.6-.15.88a5.33,5.33,0,0,0,0,.78c0,.46,0,.76,0,.76h0s0-.3,0-.76c0-.23,0-.5,0-.78s0-.6,0-.9a8.64,8.64,0,0,1,.07-.9c0-.29,0-.57.08-.8.07-.46.11-.77.11-.77a.38.38,0,0,1,.47-.34.39.39,0,0,1,.29.5Z"/>
          <path d="M40.19,66.85l-.23.51c-.06.16-.1.35-.16.55a6.4,6.4,0,0,0-.14.66,10.64,10.64,0,0,0-.12,1.25c0,.34,0,.57,0,.57h0s0-.23,0-.57,0-.8-.05-1.26c0-.23,0-.47,0-.69s0-.42,0-.6c0-.36,0-.6,0-.6,0-.2.18-.32.41-.26s.39.22.35.39A.17.17,0,0,1,40.19,66.85Z"/>
          <path d="M43.23,67.29l-.1,1.15c0,.34,0,.74,0,1.17a10,10,0,0,0,0,1.34c0,.46.08.91.12,1.34a9.52,9.52,0,0,0,.25,1.15c.17.66.28,1.11.28,1.11h0l-.3-1.11a10.31,10.31,0,0,1-.3-1.14c-.08-.42-.16-.88-.24-1.33a13.08,13.08,0,0,1-.19-1.34c0-.43-.11-.84-.15-1.18-.07-.69-.11-1.15-.11-1.15,0-.36.1-.67.33-.7s.43.23.43.58Z"/>
          <path d="M48.48,66.44l-.22.78a3.82,3.82,0,0,0-.08.39l-.06.44A7.62,7.62,0,0,0,48,69c0,.34,0,.67,0,1a6.62,6.62,0,0,0,.07.84c.06.5.11.83.11.83h0s0-.33-.13-.82c0-.25-.11-.53-.13-.85s-.06-.64-.1-1,0-.67-.06-1,0-.32,0-.46a3,3,0,0,1,0-.41c0-.52,0-.86,0-.86,0-.27.18-.47.41-.44a.41.41,0,0,1,.36.49A.31.31,0,0,1,48.48,66.44Z"/>
          <path d="M52.21,68.31l-.15.65-.14.67c0,.25-.1.52-.13.78-.11,1.07-.11,2.15-.11,2.15h0s0-1.07-.08-2.15c0-.27,0-.54,0-.79s0-.5,0-.7c0-.41-.06-.69-.06-.69a.32.32,0,0,1,.36-.37.38.38,0,0,1,.4.38A.17.17,0,0,1,52.21,68.31Z"/>
          <path d="M57.14,70.13a2.3,2.3,0,0,1,0,.34v.87c0,.18,0,.37,0,.57l0,.64c-.06.44-.08.92-.16,1.38-.11.94-.3,1.85-.42,2.55s-.24,1.14-.24,1.14h0s.1-.46.22-1.15c0-.35.12-.75.16-1.19s.08-.9.09-1.36,0-.94,0-1.37q0-.33-.06-.63a4.63,4.63,0,0,0-.06-.55c-.06-.34-.11-.62-.15-.82a2.44,2.44,0,0,0-.08-.3c-.1-.34,0-.67.22-.75s.46.15.52.52A.41.41,0,0,1,57.14,70.13Z"/>
          <path d="M36.32,75.06l-.06.18c0,.12-.09.3-.15.51a7,7,0,0,0-.2,1.58,6.11,6.11,0,0,0,.06.86,5.74,5.74,0,0,0,.16.73c.06.22.15.38.19.5l.08.19h0l-.08-.19c0-.12-.14-.28-.21-.49a6.62,6.62,0,0,1-.21-.73,7.27,7.27,0,0,1-.17-.86,11.72,11.72,0,0,1-.15-1.65c0-.23,0-.42,0-.56v-.21a.38.38,0,0,1,.43-.38.39.39,0,0,1,.34.45A.19.19,0,0,1,36.32,75.06Z"/>
          <path d="M29.86,73l-.19.15-.41.48A1.93,1.93,0,0,0,29,74c-.07.14-.15.28-.23.42l-.18.49a1.82,1.82,0,0,0-.14.52c0,.18-.07.36-.1.54s0,.35,0,.52a2.72,2.72,0,0,0,0,.5c0,.16,0,.31.06.44a1.85,1.85,0,0,0,.08.37l.08.28c0,.15.07.24.07.24h0s0-.09-.07-.24-.05-.17-.09-.28a1.9,1.9,0,0,1-.09-.36c0-.14-.05-.29-.08-.45a2.54,2.54,0,0,1-.05-.49c0-.18,0-.36,0-.54s0-.37,0-.56a2.51,2.51,0,0,1,.07-.55c0-.19.07-.37.1-.55s.11-.33.16-.49a3.68,3.68,0,0,1,.17-.44c.14-.26.25-.48.33-.64l.17-.22c.18-.25.48-.34.64-.18a.45.45,0,0,1,0,.63Z"/>
          <path d="M26.72,72.62l-.14.16-.31.46a5.3,5.3,0,0,0-.39.69,6.53,6.53,0,0,0-.33.85,6.14,6.14,0,0,0-.23.89c-.06.29-.08.57-.11.8s0,.43,0,.57,0,.22,0,.22h0s0-.08,0-.22,0-.33,0-.57,0-.51,0-.81.07-.61.12-.92.12-.63.18-.93.15-.57.24-.8.14-.43.2-.57.09-.21.09-.21a.39.39,0,0,1,.55-.23.39.39,0,0,1,.14.56Z"/>
          <path d="M30.62,76.78l-.25.87c-.06.26-.11.57-.17.91a7,7,0,0,0-.15,1c0,.36,0,.72-.05,1.06a8.56,8.56,0,0,0,.05.93c.06.54.09.9.09.9h0s0-.36-.11-.9c0-.27-.1-.59-.1-.93s-.05-.7-.07-1.07,0-.73,0-1.07,0-.67,0-1c0-.55,0-.92,0-.92,0-.29.19-.51.42-.49a.44.44,0,0,1,.35.53S30.63,76.76,30.62,76.78Z"/>
          <path d="M32.65,78.11l-.22.66a6.34,6.34,0,0,0-.17.69,6.84,6.84,0,0,0-.14.81A17.86,17.86,0,0,0,32,82.5h0v-.7c0-.42,0-1-.05-1.54,0-.28,0-.57,0-.83s0-.52,0-.74c0-.43,0-.72,0-.72a.35.35,0,0,1,.41-.36.39.39,0,0,1,.35.44S32.66,78.09,32.65,78.11Z"/>
          <path d="M40.7,79.46s0,.08-.09.21l-.17.56A9.22,9.22,0,0,0,40.18,82a15.34,15.34,0,0,0,0,1.82c0,.5.07.83.07.83h0s0-.33-.09-.83S40.05,82.69,40,82a18.25,18.25,0,0,1-.08-1.86c0-.26,0-.48,0-.63s0-.24,0-.24a.41.41,0,0,1,.46-.41.41.41,0,0,1,.31.51A.19.19,0,0,0,40.7,79.46Z"/>
          <path d="M42.87,81.23s0,.24-.09.59c0,.18,0,.39-.05.61s0,.47,0,.71,0,.48.06.7a4.15,4.15,0,0,0,.1.6c.08.36.14.59.14.59h0l-.16-.58c0-.18-.11-.37-.15-.6l-.18-.68c-.07-.24-.1-.48-.16-.7s-.11-.43-.15-.62l-.12-.6c0-.19.1-.36.33-.37s.43.11.43.29Z"/>
          <path d="M45.45,81.83s0,.28-.07.69c0,.21,0,.45,0,.72s0,.54,0,.82c.07,1.12.21,2.24.21,2.24h0a20.23,20.23,0,0,0-.4-2.21c-.07-.28-.13-.55-.19-.81s-.13-.5-.17-.72l-.15-.71a.34.34,0,0,1,.32-.43.4.4,0,0,1,.45.34A.15.15,0,0,1,45.45,81.83Z"/>
          <path d="M48.26,81.62v.79c0,.23,0,.5-.06.78s0,.59-.07.89c-.12,1.2-.13,2.4-.13,2.4h0s0-1.2-.06-2.4a8.16,8.16,0,0,0-.1-.88c0-.27-.07-.53-.12-.75l-.22-.7a.41.41,0,0,1,.28-.51.35.35,0,0,1,.47.31A.17.17,0,0,0,48.26,81.62Z"/>
          <path d="M50.77,82s-.19,1-.29,2-.09,2-.09,2h0s0-1-.1-2S50,82,50,82a.32.32,0,0,1,.34-.37c.24,0,.43.12.42.31Z"/>
          <path d="M52.85,82.69s0,.21,0,.53a5.32,5.32,0,0,1,0,.54c0,.19,0,.39,0,.59s-.05.4-.07.59-.06.36-.07.5c0,.3-.07.49-.07.49h0l0-.49a4,4,0,0,0,0-.5,5.67,5.67,0,0,0,0-.58,3.07,3.07,0,0,0-.12-.56,3.44,3.44,0,0,0-.15-.48l-.22-.43c-.07-.12,0-.29.26-.38s.43,0,.47.13Z"/>
          <path d="M54.84,82.8s0,.23-.06.59-.05.81-.08,1.26c-.09.92-.08,1.83-.08,1.83h0a17.34,17.34,0,0,0-.11-1.82,11.4,11.4,0,0,0-.27-1.22l-.15-.55c-.05-.16.08-.33.31-.38s.43,0,.44.23A.06.06,0,0,1,54.84,82.8Z"/>
          <path d="M64.1,77.25s0,.4,0,1c0,.3,0,.65,0,1s0,.77,0,1.16,0,.79-.06,1.16a9.33,9.33,0,0,1-.1,1c-.07.58-.11,1-.11,1h0s0-.39.09-1a6.19,6.19,0,0,0,0-1c0-.37,0-.76-.06-1.15a10.33,10.33,0,0,0-.14-1.15c-.06-.36-.11-.7-.18-1-.14-.57-.24-.95-.24-.95a.51.51,0,0,1,.26-.65c.22-.06.44.13.48.44A.28.28,0,0,1,64.1,77.25Z"/>
          <path d="M66.53,72l.15.65a4.26,4.26,0,0,1,.1.68,6.31,6.31,0,0,1,.07.76c0,.26,0,.51,0,.76a4.28,4.28,0,0,1,0,.65l0,.63h0s0-.25,0-.63a2.91,2.91,0,0,0,0-.65c0-.24-.08-.48-.12-.74a4.1,4.1,0,0,0-.23-.7,2.82,2.82,0,0,0-.26-.58l-.33-.52a.36.36,0,0,1,.16-.5.34.34,0,0,1,.51.13A.14.14,0,0,1,66.53,72Z"/>
          <path d="M69,71.48s.08.35.19.87a19.31,19.31,0,0,1,.3,1.93,9.36,9.36,0,0,1,.09,1c0,.33,0,.63,0,.9s0,.48,0,.63v.24h0s0-.09,0-.24a6,6,0,0,0,0-.63,7.71,7.71,0,0,0-.08-.89,7.45,7.45,0,0,0-.19-1,11.49,11.49,0,0,0-.63-1.79c-.22-.47-.39-.77-.39-.77a.45.45,0,0,1,.13-.62.41.41,0,0,1,.56.26A.29.29,0,0,1,69,71.48Z"/>
          <path d="M71.52,64.82a2.32,2.32,0,0,1,0,.23l.14.61c.13.5.33,1.17.53,1.84.1.33.2.67.28,1s.14.62.21.87.06.47.09.62l0,.24h0l0-.24c0-.14,0-.36-.11-.61s-.14-.55-.26-.85-.24-.63-.39-1c-.29-.62-.62-1.24-.86-1.71l-.29-.58-.1-.22a.4.4,0,1,1,.71-.31S71.52,64.79,71.52,64.82Z"/>
          <path d="M74.24,62.43s0,.29.07.73.17,1,.26,1.62c.05.29.08.58.11.86s0,.54,0,.76a2.81,2.81,0,0,1,0,.3c0,.09,0,.17,0,.24a1.78,1.78,0,0,1,0,.2h0a1.78,1.78,0,0,0,0-.2c0-.07,0-.15,0-.24a3,3,0,0,0,0-.3,5.76,5.76,0,0,0-.1-.75,5.38,5.38,0,0,0-.22-.83c-.18-.56-.41-1.1-.59-1.52s-.29-.7-.29-.7a.36.36,0,0,1,.23-.51.38.38,0,0,1,.5.27A.17.17,0,0,0,74.24,62.43Z"/>
          <path d="M75.4,60.42s.07.34.19.83c.06.24.09.54.15.84s.14.63.18,1,.08.66.12,1a6.62,6.62,0,0,1,.07.84l0,.82h0s0-.33-.07-.82A4.61,4.61,0,0,0,76,64c-.08-.3-.16-.62-.24-.94a8.13,8.13,0,0,0-.33-.91c-.12-.28-.21-.55-.33-.77l-.38-.72a.41.41,0,0,1,.15-.59.38.38,0,0,1,.54.24S75.39,60.4,75.4,60.42Z"/>
          <path d="M75.53,55.79l.13.28c.07.19.18.45.3.76.25.63.56,1.46.81,2.32l.18.64.15.62c.11.4.15.79.21,1.11s.07.61.1.8,0,.3,0,.3h0s0-.11,0-.3,0-.47-.11-.79-.14-.71-.27-1.1c-.07-.2-.13-.4-.2-.61l-.24-.61a14.54,14.54,0,0,0-1.11-2.14l-.43-.66-.18-.25c-.2-.27-.22-.6,0-.75s.48,0,.65.28Z"/>
          <path d="M76.74,52.26l.06.06a.89.89,0,0,1,.17.17c.12.16.28.4.49.68a4.3,4.3,0,0,1,.26.48,5.44,5.44,0,0,1,.28.54l.24.59a4.52,4.52,0,0,1,.21.62c.06.21.12.42.19.63s.09.42.13.62c.11.39.14.77.21,1.09s.06.6.09.79l0,.29h0l0-.29c0-.19,0-.46-.11-.78s-.13-.7-.26-1.08c-.06-.2-.12-.4-.19-.6s-.16-.4-.24-.6a3.88,3.88,0,0,0-.28-.58c-.1-.18-.21-.36-.3-.54s-.24-.31-.34-.46A4.8,4.8,0,0,0,77,53.5L76.48,53a.67.67,0,0,0-.17-.12l-.06,0a.55.55,0,0,1-.29-.67c.09-.22.41-.22.7,0A.3.3,0,0,1,76.74,52.26Z"/>
          <path d="M80.9,61.45s.06.29.14.73c0,.22.08.47.13.74s.09.57.1.86l0,.44c0,.14,0,.28,0,.42a4,4,0,0,1-.1.74,2.28,2.28,0,0,1-.17.49,1.52,1.52,0,0,1-.07.18h0a1.52,1.52,0,0,0,.07-.18,2.34,2.34,0,0,0,.15-.5,3.31,3.31,0,0,0,0-.73c0-.14,0-.27,0-.41l-.09-.42a6.08,6.08,0,0,0-.25-.79c-.11-.25-.2-.48-.3-.67l-.34-.63a.38.38,0,1,1,.69-.34A.25.25,0,0,1,80.9,61.45Z"/>
          <path d="M82.53,61.78s0,.27.12.69c0,.2,0,.44,0,.69s0,.26,0,.39,0,.26,0,.39,0,.53,0,.78,0,.48,0,.68c0,.39,0,.65,0,.65h0s0-.26,0-.65c0-.2,0-.43,0-.67s-.09-.5-.14-.76a2.34,2.34,0,0,0-.09-.38l-.12-.36c-.08-.23-.15-.45-.22-.62-.18-.34-.31-.56-.31-.56a.37.37,0,0,1,.2-.5.33.33,0,0,1,.5.17A.13.13,0,0,1,82.53,61.78Z"/>
          <path d="M84.27,61.83s.1.33.24.82a13.63,13.63,0,0,1,.39,1.82,8.91,8.91,0,0,1,.11,1c0,.31,0,.61,0,.86s0,.45,0,.6,0,.23,0,.23h0s0-.09,0-.23a6.58,6.58,0,0,0-.07-1.45,5.6,5.6,0,0,0-.21-.95A8.7,8.7,0,0,0,84,62.85c-.24-.43-.43-.7-.43-.7a.42.42,0,0,1,.09-.6.4.4,0,0,1,.57.2Z"/>
          <path d="M76.05,73.07v.71c0,.21,0,.45-.06.71s0,.53-.06.8c-.12,1.08-.14,2.15-.14,2.15h0s0-1.08-.05-2.15c0-.27-.06-.54-.1-.79s-.08-.47-.13-.66c-.12-.38-.21-.62-.21-.62a.38.38,0,0,1,.27-.47A.33.33,0,0,1,76,73S76.05,73.05,76.05,73.07Z"/>
          <path d="M79.2,73.17s0,.26.08.66a6.59,6.59,0,0,1,0,.67c0,.24,0,.49,0,.75,0,.5,0,1,0,1.38v.63h0s0-.25,0-.63a9.35,9.35,0,0,0-.14-1.37,6.72,6.72,0,0,0-.17-.71c-.08-.22-.12-.43-.2-.6l-.28-.54a.35.35,0,0,1,.22-.47.33.33,0,0,1,.49.17A.13.13,0,0,1,79.2,73.17Z"/>
          <path d="M82.12,73.43s0,.19,0,.47,0,.66,0,1,0,.72,0,1,0,.44,0,.44h0s0-.17,0-.44a4.34,4.34,0,0,0-.2-1,5.68,5.68,0,0,0-.38-.91c-.13-.23-.23-.38-.23-.38s0-.28.26-.36.42,0,.46.09A.06.06,0,0,1,82.12,73.43Z"/>
          <path d="M84.66,73.53s0,.2-.06.51c0,.15,0,.33,0,.52s0,.38,0,.58c-.08.79-.07,1.58-.07,1.58h0a14.16,14.16,0,0,0-.12-1.57,3.38,3.38,0,0,0-.11-.57c-.06-.17-.1-.34-.15-.48l-.15-.46c-.06-.14.08-.3.31-.35s.43,0,.44.19A0,0,0,0,1,84.66,73.53Z"/>
          <path d="M86.72,69.62s0,.11.1.31.12.48.2.82.14.74.23,1.17.14.88.15,1.34c0,.23,0,.46,0,.68s0,.45,0,.67c0,.42,0,.82-.06,1.16s-.1.62-.13.82,0,.31,0,.31h0s0-.11,0-.31.09-.48.11-.82a11,11,0,0,0,0-1.16c0-.22,0-.44-.05-.66s-.07-.44-.11-.67c-.06-.44-.21-.88-.3-1.28s-.27-.78-.4-1.09-.26-.55-.34-.73-.15-.27-.15-.27a.59.59,0,0,1,0-.77c.19-.13.47,0,.61.37A.49.49,0,0,1,86.72,69.62Z"/>
          <path d="M79.63,68.12l.08.17c0,.1.1.26.16.44a8.9,8.9,0,0,1,.3,1.36c.07.48.11,1,.15,1.33s.07.6.07.6h0s0-.24-.09-.6A6.91,6.91,0,0,0,80,70.13,4.39,4.39,0,0,0,79.39,69l-.27-.32L79,68.55c-.13-.1-.1-.32.07-.48a.33.33,0,0,1,.52,0Z"/>
          <path d="M83.82,69a.77.77,0,0,1,.06.14c0,.09.08.22.12.38a4.2,4.2,0,0,1,.17,1.13,3.87,3.87,0,0,1,0,.59c0,.18,0,.36,0,.5l-.07.49h0s0-.2.05-.49,0-.32,0-.5a4,4,0,0,0-.11-.56,2.55,2.55,0,0,0-.47-.92l-.22-.25-.1-.08c-.11-.08-.06-.27.11-.43s.39-.18.49,0A.08.08,0,0,1,83.82,69Z"/>
          <path d="M69.9,51.16s.08.4.23,1,.38,1.39.58,2.18c.1.4.19.8.26,1.18s.11.73.16,1,0,.56,0,.74,0,.28,0,.28h0s0-.1,0-.28a6.15,6.15,0,0,0-.06-.74,8.25,8.25,0,0,0-.22-1,9.28,9.28,0,0,0-.37-1.13c-.28-.76-.63-1.5-.89-2l-.45-.94c-.13-.29-.08-.6.13-.69s.47.06.57.36A.24.24,0,0,1,69.9,51.16Z"/>
          <path d="M71.94,44.05s.11.29.31.73.45,1,.67,1.63a8.16,8.16,0,0,1,.27.89,7.79,7.79,0,0,1,.15.8,1.82,1.82,0,0,1,0,.32c0,.1,0,.18,0,.25s0,.21,0,.21h0s0-.07,0-.21,0-.15,0-.25,0-.2,0-.32-.1-.5-.21-.78a5.1,5.1,0,0,0-.38-.83,10,10,0,0,0-1-1.44l-.5-.62a.41.41,0,0,1,.06-.59.4.4,0,0,1,.57.14Z"/>
          <path d="M78.17,43l.2.77a12.59,12.59,0,0,1,.34,1.71c0,.16,0,.32.05.47s0,.31,0,.45c0,.3,0,.57,0,.8a2.05,2.05,0,0,1-.07.31c0,.1,0,.18-.05.24l0,.21h0l0-.21a2.08,2.08,0,0,0,.06-.24,2.24,2.24,0,0,0,0-.31,5.29,5.29,0,0,0,0-.79c0-.14,0-.29-.06-.44s-.07-.3-.11-.45A7.3,7.3,0,0,0,77.87,44c-.23-.4-.4-.67-.4-.67a.38.38,0,0,1,.13-.56.37.37,0,0,1,.54.19S78.16,43,78.17,43Z"/>
          <path d="M81.45,51.48s0,.27.13.67l.14.69c0,.26.09.53.1.8l0,.41c0,.13,0,.26,0,.39a3.94,3.94,0,0,1-.1.68.79.79,0,0,1-.09.26,1.38,1.38,0,0,1-.08.2l-.06.17h0l.06-.17a1.5,1.5,0,0,0,.07-.2.72.72,0,0,0,.08-.26,3.56,3.56,0,0,0,.05-.68c0-.12,0-.25,0-.38l-.09-.39a5.7,5.7,0,0,0-.25-.73c-.11-.22-.21-.43-.31-.61-.19-.35-.33-.58-.33-.58a.34.34,0,0,1,.17-.5.36.36,0,0,1,.52.17A.14.14,0,0,0,81.45,51.48Z"/>
          <path d="M70,59.89s0,.17,0,.43,0,.6.06.94c0,.18,0,.35,0,.51s0,.3,0,.43,0,.42,0,.42h0s0-.17,0-.42a4.07,4.07,0,0,0-.07-.42,4.26,4.26,0,0,0-.15-.47,7.74,7.74,0,0,0-.39-.85l-.21-.4c-.07-.12,0-.27.28-.32s.43,0,.46.11Z"/>
          <path d="M67.21,45.15l.25.38c.07.12.14.27.21.41a3.81,3.81,0,0,1,.23.45,4.68,4.68,0,0,0,.2.45c.07.14.11.29.16.4l.17.38h0l-.19-.37a2.42,2.42,0,0,0-.21-.37c-.09-.12-.19-.26-.29-.38a1.87,1.87,0,0,0-.35-.34c-.12-.1-.22-.19-.32-.26l-.36-.17c-.11,0-.09-.23,0-.43s.32-.28.43-.18Z"/>
          <path d="M73.85,52.49s0,.21.06.51,0,.35,0,.54a3.83,3.83,0,0,1,0,.6c0,.2,0,.41,0,.6a3.77,3.77,0,0,1,0,.51c0,.3,0,.5,0,.5h0s0-.2,0-.5a2.26,2.26,0,0,0,0-.51c0-.18-.08-.38-.13-.57a3.62,3.62,0,0,0-.2-.55l-.22-.46-.26-.43c-.09-.14,0-.31.23-.4s.44,0,.48.11A.11.11,0,0,1,73.85,52.49Z"/>
          <path d="M76.78,44.77s0,.16.07.4,0,.26.06.41A3.4,3.4,0,0,1,77,46l.06.45a2.75,2.75,0,0,1,0,.39c0,.23,0,.38,0,.38h0l0-.38a1.84,1.84,0,0,0-.07-.37c0-.14-.11-.28-.17-.42a1.87,1.87,0,0,0-.22-.39c-.07-.11-.15-.22-.22-.31l-.25-.29c-.09-.08,0-.24.21-.35s.41-.13.46,0A.08.08,0,0,1,76.78,44.77Z"/>
          <path d="M73.93,34.92l.38.51a11.18,11.18,0,0,1,.75,1.16c.12.22.23.44.32.65s.16.42.23.58.1.32.13.42l.05.16h0l-.05-.16c0-.1-.07-.24-.15-.41a3.58,3.58,0,0,0-.28-.55,3.22,3.22,0,0,0-.41-.58,5.2,5.2,0,0,0-1-.89,5.37,5.37,0,0,0-.5-.31.33.33,0,0,1-.06-.5.36.36,0,0,1,.52-.12Z"/>
          <path d="M71.17,36.56a1,1,0,0,0,.1.15c.06.09.14.23.25.39s.19.37.29.57.19.44.26.68a6.34,6.34,0,0,1,.19.68c.06.21.09.42.13.59,0,.35.09.59.09.59h0s0-.24-.11-.58c-.05-.17-.1-.38-.18-.58a4,4,0,0,0-.3-.63,3.92,3.92,0,0,0-.38-.56,4.15,4.15,0,0,0-.42-.42l-.32-.25-.13-.08c-.15-.08-.16-.29,0-.48a.33.33,0,0,1,.51-.11Z"/>
          <path d="M67.79,38.78l.2.48a3.88,3.88,0,0,1,.14.5,4.58,4.58,0,0,1,.14.56l.09.56a2.75,2.75,0,0,1,0,.48c0,.29,0,.48,0,.48h0l-.05-.47a2.29,2.29,0,0,0-.1-.48c0-.17-.12-.34-.19-.52a2.78,2.78,0,0,0-.28-.47,2.38,2.38,0,0,0-.29-.37l-.34-.3c-.11-.09-.06-.28.12-.44s.38-.19.47,0A.05.05,0,0,1,67.79,38.78Z"/>
          <path d="M40.63,30.94l-.77.52c-.23.17-.47.39-.73.62a8,8,0,0,0-.8.75l-.75.82c-.24.26-.43.53-.61.75l-.57.75h0l.56-.76c.16-.23.34-.51.56-.79l.66-.89c.21-.32.47-.6.69-.88s.43-.55.61-.77c.4-.42.66-.71.66-.71a.41.41,0,1,1,.56.53Z"/>
          <path d="M41.91,32.08l-.52.37a7.76,7.76,0,0,0-1,.94,5,5,0,0,0-.46.59,4.21,4.21,0,0,0-.32.57c-.08.17-.12.33-.16.43l0,.17h0l0-.17c0-.1.07-.26.15-.44s.15-.39.27-.6a5.58,5.58,0,0,1,.37-.67c.28-.44.58-.87.81-1.19l.38-.54a.34.34,0,0,1,.52,0A.37.37,0,0,1,42,32,.1.1,0,0,1,41.91,32.08Z"/>
          <path d="M49.9,16.75a5.82,5.82,0,0,0-.63-.71,7.92,7.92,0,0,0-1.64-1.28,6.25,6.25,0,0,0-1-.46,4.07,4.07,0,0,0-1-.19,2.55,2.55,0,0,0-.7,0l-.26.06h0l.26-.06a3.46,3.46,0,0,1,.7,0,4.62,4.62,0,0,1,1,.14,7.72,7.72,0,0,1,1.09.36,12.69,12.69,0,0,1,2.72,1.61.47.47,0,0,1,.17.67.44.44,0,0,1-.64-.06Z"/>
          <path d="M51,14.88s-.08-.27-.21-.67c-.07-.2-.16-.43-.26-.68a8,8,0,0,0-.32-.75l-.39-.72a3.59,3.59,0,0,0-.42-.59c-.27-.32-.44-.54-.44-.54h0l.46.53a5.55,5.55,0,0,1,.46.55c.16.22.32.45.49.67s.32.47.48.68.29.43.42.6l.41.58a.36.36,0,0,1-.12.53A.36.36,0,0,1,51,15Z"/>
          <path d="M53.76,13.55a1.4,1.4,0,0,1,0-.21c0-.12,0-.3,0-.52,0-.43,0-1,.06-1.53l.11-1.49c0-.4,0-.67,0-.67h0V9.8A13.73,13.73,0,0,0,54,11.29a7.12,7.12,0,0,0,.27,1.44l.17.44c.05.11.09.15.08.15a.36.36,0,0,1-.19.49.35.35,0,0,1-.52-.19S53.76,13.57,53.76,13.55Z"/>
          <path d="M57.37,15.85l.35-.53.33-.55c.13-.2.24-.43.38-.64.54-.86,1-1.75,1-1.75h0s-.45.9-.81,1.83c-.09.23-.15.48-.22.7l-.17.63-.15.62a.33.33,0,0,1-.46.21.36.36,0,0,1-.26-.46S57.36,15.87,57.37,15.85Z"/>
          <path d="M60.86,16.41l.16-.2.45-.5c.18-.21.42-.44.66-.69a9.35,9.35,0,0,1,.81-.71c.15-.11.28-.23.44-.33l.44-.29c.28-.18.58-.3.82-.44s.46-.18.61-.24l.23-.09h0l-.23.09c-.15.07-.36.14-.6.26a7.48,7.48,0,0,0-.79.49l-.41.32c-.13.11-.25.25-.38.37a8.25,8.25,0,0,0-.68.8c-.18.28-.35.54-.49.78l-.3.57-.11.22a.43.43,0,0,1-.58.27.41.41,0,0,1-.11-.61Z"/>
          <path d="M64.53,17.24l.68-.3a14.13,14.13,0,0,1,1.51-.55,8.3,8.3,0,0,1,.82-.22,5.84,5.84,0,0,1,.72-.13c.22,0,.4,0,.52,0l.2,0h0l-.2,0a4.08,4.08,0,0,0-.51,0,6.17,6.17,0,0,0-.71.18,5.69,5.69,0,0,0-.77.32,7.63,7.63,0,0,0-1.31.85c-.33.27-.53.47-.53.47a.39.39,0,1,1-.48-.61Z"/>
          <path d="M56.1,13.86a1.93,1.93,0,0,1,0-.23c0-.14.08-.34.15-.59s.08-.24.12-.38.08-.28.14-.42a8.53,8.53,0,0,1,.41-.87,4.34,4.34,0,0,1,.23-.43l.25-.39a2.27,2.27,0,0,1,.26-.35l.23-.31.55-.58h0s-.22.23-.53.6l-.22.31a3.28,3.28,0,0,0-.22.37l-.21.41a4,4,0,0,0-.17.44,5.31,5.31,0,0,0-.23.89,3.41,3.41,0,0,0,0,.42c0,.14,0,.26,0,.38s0,.43,0,.56,0,.21,0,.21a.4.4,0,0,1-.36.46.38.38,0,0,1-.41-.42S56.1,13.88,56.1,13.86Z"/>
          <path d="M60.1,14.08s0-.1.09-.26l.34-.63a2.92,2.92,0,0,1,.25-.4l.29-.44a9.28,9.28,0,0,1,.72-.85c.12-.14.25-.28.38-.41l.39-.38c.25-.25.51-.45.72-.64s.4-.32.53-.42l.2-.16h0l-.2.16c-.13.11-.31.25-.52.44s-.45.41-.67.67l-.36.41c-.11.15-.21.3-.33.45a9.06,9.06,0,0,0-.56.92l-.19.46a2.31,2.31,0,0,0-.16.41c-.07.26-.12.47-.16.62l0,.25a.46.46,0,0,1-.47.45c-.23,0-.37-.26-.29-.56A.24.24,0,0,1,60.1,14.08Z"/>
          <path d="M47,19.58a.93.93,0,0,0-.19-.11l-.51-.26c-.22-.1-.48-.2-.76-.3a5.37,5.37,0,0,0-.92-.22l-.47-.08h-.47a4.15,4.15,0,0,0-.82.06,2.93,2.93,0,0,0-.57.16l-.21.06h0l.21-.07a5.77,5.77,0,0,1,.56-.17,5.89,5.89,0,0,1,.83-.12l.47,0,.49,0c.34,0,.66,0,1,.06l.85.13.6.13.23.06a.39.39,0,0,1,.32.51.4.4,0,0,1-.54.23Z"/>
          <path d="M61.94,19.13,62,19l.27-.36a11,11,0,0,1,.9-1c.34-.33.69-.64.94-.88l.42-.4h0s-.17.16-.4.41a8.3,8.3,0,0,0-.81,1,4.89,4.89,0,0,0-.57,1.11c-.05.16-.09.29-.11.39s0,.15,0,.15c0,.16-.21.25-.44.2a.33.33,0,0,1-.29-.43Z"/>
          <path d="M64.57,20.85a1.08,1.08,0,0,1,.2-.08l.54-.19A13.46,13.46,0,0,1,67,20.23c.29-.05.6-.08.88-.1s.54,0,.76,0,.41,0,.54,0h0c-.13,0-.31,0-.54,0a5.49,5.49,0,0,0-.75.08,6.53,6.53,0,0,0-.85.2,6.32,6.32,0,0,0-1.47.67l-.42.3L65,21.5a.38.38,0,0,1-.56-.06.37.37,0,0,1,.1-.56Z"/>
          <path d="M48.52,76s-.06.22-.16.55a5.56,5.56,0,0,0-.11.56,3.62,3.62,0,0,0-.07.67v.67a3.29,3.29,0,0,0,.07.58c.07.33.11.56.11.56h0l-.13-.56c0-.17-.11-.36-.13-.57S48,78,48,77.81s-.06-.46-.1-.68-.06-.42-.08-.6c0-.36,0-.59,0-.59,0-.19.14-.33.37-.31s.41.17.39.34A.07.07,0,0,1,48.52,76Z"/>
          <path d="M52.21,75.59,52,76a3.25,3.25,0,0,0-.12.43c0,.16-.08.34-.1.51a4,4,0,0,0,0,1l0,.43h0s0-.17-.07-.43-.09-.61-.16-1c0-.18,0-.35-.06-.52s-.06-.33-.07-.47l0-.47c0-.14.14-.24.38-.21s.4.15.39.28A.06.06,0,0,0,52.21,75.59Z"/>
          <path d="M58.56,80.73s0,.4,0,1,0,1.43,0,2.25a11.37,11.37,0,0,1-.07,1.19,9.07,9.07,0,0,1-.14,1c0,.15-.07.28-.09.4s-.06.22-.08.31-.07.27-.07.27h0s0-.1.07-.27,0-.19.07-.31a3.73,3.73,0,0,0,.08-.41,7.6,7.6,0,0,0,.09-1,8.06,8.06,0,0,0,0-1.19A20,20,0,0,0,58,81.8l-.22-1c-.07-.31.05-.6.29-.64s.44.16.46.47A.34.34,0,0,1,58.56,80.73Z"/>
          <path d="M60.76,83.29v.58a4.37,4.37,0,0,1-.06.59c0,.21,0,.43-.08.65-.14.86-.29,1.73-.29,1.73h0s0-.22.07-.54a7.67,7.67,0,0,0,0-1.2,6,6,0,0,0-.09-.63,2.31,2.31,0,0,0-.12-.53l-.2-.49c-.07-.14,0-.31.27-.4s.43,0,.46.18A.13.13,0,0,1,60.76,83.29Z"/>
          <path d="M66.86,81.88v.18c0,.11,0,.28,0,.47a8.49,8.49,0,0,1-.21,1.37,13.15,13.15,0,0,1-.37,1.29c-.06.17-.13.31-.17.41l0,.15h0l0-.15a3.73,3.73,0,0,0,.15-.42,5.31,5.31,0,0,0,.2-1.31,4.51,4.51,0,0,0-.14-1.29l-.12-.4a1.15,1.15,0,0,0-.07-.15c-.07-.15,0-.34.26-.42a.33.33,0,0,1,.48.2S66.86,81.86,66.86,81.88Z"/>
          <path d="M70,81.08s0,.18,0,.46,0,.65-.08,1a4.51,4.51,0,0,1-.07.53,4.25,4.25,0,0,1-.09.44,2.88,2.88,0,0,1-.1.31.7.7,0,0,1,0,.11h0a.82.82,0,0,1,0-.11,2.24,2.24,0,0,0,.08-.31,2.09,2.09,0,0,0,0-.45,3.15,3.15,0,0,0,0-.52,5.55,5.55,0,0,0-.26-.93c-.1-.25-.18-.42-.18-.42s.07-.27.29-.32.44,0,.46.15Z"/>
          <path d="M73,80.68l0,.2c0,.13-.06.32-.09.55a15.23,15.23,0,0,0-.08,1.76c0,.33,0,.65,0,1s-.06.59-.07.83a2.55,2.55,0,0,1-.07.32c0,.09,0,.18-.06.25s0,.21,0,.21h0s0-.08,0-.21,0-.16.06-.25a2.69,2.69,0,0,0,0-.32,7.36,7.36,0,0,0,0-.83c0-.3,0-.61-.09-.93-.09-.64-.21-1.28-.27-1.77,0-.25-.05-.46-.07-.61V80.6c0-.28.17-.48.41-.45a.4.4,0,0,1,.36.46A.25.25,0,0,1,73,80.68Z"/>
          <path d="M72.12,75.17l-.1.44c0,.13,0,.29-.09.45a4.35,4.35,0,0,0-.06.52,12.52,12.52,0,0,0,0,1.4h0a9.73,9.73,0,0,0-.24-1.39c-.05-.18-.06-.35-.1-.52s-.07-.32-.1-.45l-.12-.44c0-.14.11-.26.34-.27s.43.09.43.22A.06.06,0,0,1,72.12,75.17Z"/>
          <path d="M59.78,71.45l-.13.55c-.06.32-.16.75-.22,1.18q0,.33-.06.63a3.47,3.47,0,0,0,0,.56c0,.32,0,.54,0,.54h0s0-.22-.06-.54c0-.16-.05-.35-.06-.56s0-.42,0-.64c0-.43-.07-.87-.13-1.19s-.09-.54-.09-.54c0-.17.12-.31.35-.32s.42.11.42.28A.43.43,0,0,0,59.78,71.45Z"/>
          <path d="M63.12,69.81s0,.21-.07.53a4.79,4.79,0,0,0,0,.56c0,.2,0,.42,0,.64.08.88.22,1.74.22,1.74h0a12.71,12.71,0,0,0-.4-1.71c-.07-.21-.13-.42-.19-.62s-.13-.39-.17-.55l-.15-.56c0-.18.09-.34.32-.35s.44.1.45.26A.13.13,0,0,1,63.12,69.81Z"/>
          <path d="M67.61,66.08a14.71,14.71,0,0,0,.3,1.73,16.49,16.49,0,0,0,.52,1.68h0a15.85,15.85,0,0,0-.7-1.61,17.46,17.46,0,0,0-.85-1.58c-.09-.15,0-.34.22-.41s.45,0,.5.14A.43.43,0,0,1,67.61,66.08Z"/>
          <path d="M67.42,50.75l0,.59c0,.17,0,.38.06.6s0,.45.06.69,0,.46,0,.68,0,.43,0,.6c0,.35,0,.58,0,.58h0s0-.23,0-.58a5.12,5.12,0,0,0-.08-.59c0-.21-.11-.43-.17-.65a4.51,4.51,0,0,0-.22-.65c-.08-.2-.16-.38-.23-.54L66.68,51c-.08-.15,0-.35.24-.43a.36.36,0,0,1,.49.17S67.42,50.73,67.42,50.75Z"/>
          <path d="M62.41,38a16.4,16.4,0,0,0,0,1.77,17.23,17.23,0,0,0,.16,1.74h0a17.24,17.24,0,0,0-.88-3.4c-.07-.17.06-.33.29-.38s.44,0,.46.21Z"/>
          <path d="M66.13,35.74l.13.45c0,.14.06.3.11.47s.1.34.12.52.08.35.11.52a2.86,2.86,0,0,1,.08.45c.06.26.09.43.09.43h0l-.1-.43a3,3,0,0,0-.14-.43,5.11,5.11,0,0,0-.22-.48A3.23,3.23,0,0,0,66,36.8a3.75,3.75,0,0,0-.27-.36l-.3-.32c-.1-.1,0-.28.17-.41s.4-.14.47,0A.08.08,0,0,1,66.13,35.74Z"/>
          <path d="M72.37,29l.39.37a3.85,3.85,0,0,1,.33.42,3.43,3.43,0,0,1,.36.49l.29.51a2.21,2.21,0,0,1,.2.46c.12.28.19.46.19.46h0l-.2-.45a2,2,0,0,0-.26-.43c-.12-.14-.24-.29-.37-.43a2.48,2.48,0,0,0-.45-.35,1.8,1.8,0,0,0-.42-.24L72,29.67c-.14,0-.17-.23-.08-.45s.28-.33.42-.24Z"/>
          <path d="M77,34l.06.13a3.27,3.27,0,0,1,.14.34,4.56,4.56,0,0,1,.15.48,3.31,3.31,0,0,1,.08.55,2.46,2.46,0,0,1,0,.54c0,.17,0,.33-.06.46l-.12.44h0s0-.18.1-.44a2.35,2.35,0,0,0,0-.46,1.8,1.8,0,0,0-.11-.5,1.9,1.9,0,0,0-.23-.45,2,2,0,0,0-.28-.34l-.22-.19-.1-.06c-.11-.06-.07-.25.08-.43s.37-.23.47-.11Z"/>
          <path d="M77.34,33l.09.1.22.29a4.63,4.63,0,0,1,.51.92c.07.17.13.34.18.5s.08.32.12.45.09.43.09.43h0a4,4,0,0,0-.11-.43,4.12,4.12,0,0,0-.17-.42A3,3,0,0,0,78,34.4a2.29,2.29,0,0,0-.71-.61L77,33.66l-.11,0c-.12,0-.13-.22,0-.43s.29-.31.42-.22Z"/>
          <path d="M35,36.64l-.14,0h-.36a3.78,3.78,0,0,0-.51.08,3.34,3.34,0,0,0-.57.22,3.44,3.44,0,0,0-.53.34,5,5,0,0,0-.4.37c-.21.25-.33.42-.33.42h0l.32-.43c.11-.12.21-.27.36-.42a6.89,6.89,0,0,1,1-.83c.19-.09.36-.21.52-.27l.4-.17.16,0c.19-.05.35.09.37.32s-.1.43-.25.44Z"/>
          <path d="M79.36,36.36l.14.09c.08.07.19.16.33.26s.27.26.41.42a2.8,2.8,0,0,1,.37.53,1.14,1.14,0,0,1,.15.29l.11.3a1.37,1.37,0,0,1,0,.28c0,.09,0,.17,0,.25,0,.32,0,.53,0,.53h0s0-.21,0-.53l-.06-.24a.86.86,0,0,0-.09-.27L80.65,38a1.43,1.43,0,0,0-.19-.24A2,2,0,0,0,80,37.4a3.09,3.09,0,0,0-.46-.22l-.35-.1-.13,0c-.15,0-.22-.2-.16-.43s.24-.36.4-.29Z"/>
          <path d="M75.91,30.26l.14,0,.36.13a5.84,5.84,0,0,1,1,.48,3.23,3.23,0,0,1,.47.32,4.28,4.28,0,0,1,.37.32l.23.25.09.1h0l-.09-.1a2.68,2.68,0,0,0-.24-.24,3.46,3.46,0,0,0-.4-.27,2.5,2.5,0,0,0-.5-.21,2.64,2.64,0,0,0-1-.12L76,31l-.12,0c-.13,0-.25-.12-.26-.35s.1-.42.26-.41Z"/>
          <path d="M38.29,29.76l-.52-.09a4.26,4.26,0,0,0-.54,0c-.2,0-.41,0-.62,0l-.63.06a5.06,5.06,0,0,0-.53.1l-.52.12h0l.51-.14c.16,0,.33-.11.53-.16l.6-.17c.21-.07.42-.11.62-.16s.38-.12.54-.15l.55-.13c.16-.05.31.1.33.33s-.11.43-.26.43Z"/>
          <path d="M30.85,53a8,8,0,0,0-.85.21,7,7,0,0,0-1.77.75,4.77,4.77,0,0,0-.83.63,3.47,3.47,0,0,0-.57.69,2.74,2.74,0,0,0-.18.32,1.65,1.65,0,0,0-.11.26l-.08.23h0l.08-.23a1.49,1.49,0,0,1,.1-.26,3.37,3.37,0,0,1,.17-.32,5.16,5.16,0,0,1,1.31-1.47,11.74,11.74,0,0,1,1.67-1.11c.48-.26.82-.42.82-.42a.43.43,0,0,1,.62.17.4.4,0,0,1-.3.53Z"/>
          <path d="M27.52,62.07l-.19.06-.47.19c-.2.08-.41.22-.65.34s-.23.16-.35.24a3.85,3.85,0,0,0-.34.26,6.86,6.86,0,0,0-.61.59,6.44,6.44,0,0,0-.46.59c-.13.18-.21.35-.28.45l-.1.18h0l.1-.18c.06-.11.14-.27.26-.46s.25-.41.42-.62a8.13,8.13,0,0,1,.54-.69c.09-.11.2-.22.3-.32l.3-.32c.21-.18.39-.38.58-.52l.43-.35.18-.12a.37.37,0,0,1,.55.11.39.39,0,0,1-.14.55Z"/>
          <path d="M25.85,67.12l-.5.25a1.5,1.5,0,0,0-.23.15l-.24.19a2.64,2.64,0,0,0-.51.44l-.44.51a2.6,2.6,0,0,0-.32.5l-.28.51h0l.26-.52c.09-.15.15-.35.27-.53l.36-.59a5.81,5.81,0,0,1,.4-.57l.19-.26A3,3,0,0,1,25,67l.41-.45a.3.3,0,0,1,.49.06.38.38,0,0,1,0,.52Z"/>
          <path d="M29.78,67.38l-.29.28a5.49,5.49,0,0,0-.48.77c-.29.61-.52,1.24-.52,1.24h0a8.19,8.19,0,0,0,.34-1.3c.06-.35.13-.69.17-1s.14-.45.14-.45c0-.15.23-.17.42,0s.3.32.24.42A0,0,0,0,1,29.78,67.38Z"/>
          <path d="M34.08,71.66s-.12.27-.29.68a2.92,2.92,0,0,0-.1.35c0,.12-.06.25-.1.39a7.06,7.06,0,0,0-.17.87,15.48,15.48,0,0,0-.13,1.65c0,.45,0,.75,0,.75h0V75.6c0-.45,0-1.06,0-1.67,0-.3,0-.61,0-.89s0-.29,0-.42a2.35,2.35,0,0,1,0-.38c.05-.47.08-.78.08-.78a.36.36,0,0,1,.45-.35.41.41,0,0,1,.31.49S34.09,71.64,34.08,71.66Z"/>
          <path d="M40.84,72.17s-.05.21-.11.54a11,11,0,0,0-.15,1.19,15.7,15.7,0,0,0,.05,1.73h0a14.51,14.51,0,0,0-.24-1.72c0-.22-.06-.44-.1-.64s-.07-.39-.1-.55l-.12-.55c0-.17.11-.32.34-.33s.43.11.43.27Z"/>
          <path d="M43.18,76.8s-.07.1-.17.27a4.57,4.57,0,0,0-.24.64,4.37,4.37,0,0,0-.11,1h0a7.32,7.32,0,0,0-.08-1c0-.25-.07-.51-.1-.71l0-.35c0-.11.15-.16.38-.11s.4.16.38.25S43.18,76.79,43.18,76.8Z"/>
          <path d="M45.83,63.82l-.09.14c-.05.09-.11.22-.19.38s-.14.37-.21.58a4,4,0,0,0-.12.69,2.88,2.88,0,0,0,0,.72,3.26,3.26,0,0,0,.13.61,1.23,1.23,0,0,0,.09.23l.08.18a1,1,0,0,1,.07.15h0a1,1,0,0,0-.07-.15,1.5,1.5,0,0,0-.09-.18,1.22,1.22,0,0,1-.1-.23,4.76,4.76,0,0,1-.19-.6,5.41,5.41,0,0,1-.12-.72c0-.25,0-.51,0-.75s0-.46,0-.66,0-.36.06-.47,0-.18,0-.18a.33.33,0,0,1,.46-.23c.22.08.35.28.28.44A.08.08,0,0,1,45.83,63.82Z"/>
          <path d="M34.45,45l-.38.25a4.18,4.18,0,0,0-.73.69,3.12,3.12,0,0,0-.5.86,2.44,2.44,0,0,0-.09.33l0,.12h0s0,0,0-.12,0-.2.07-.33a6.21,6.21,0,0,1,.36-1c.16-.35.34-.69.48-.94l.25-.43c.07-.13.27-.11.44,0s.23.37.14.47Z"/>
          <path d="M45.34,35.06h-.15l-.38.08a3.4,3.4,0,0,0-.53.21,4.13,4.13,0,0,0-.55.41,3.18,3.18,0,0,0-.46.52,4.1,4.1,0,0,0-.34.51c-.17.31-.27.53-.27.53h0l.25-.54c.09-.16.17-.36.29-.54a4.38,4.38,0,0,1,.39-.6,6.47,6.47,0,0,1,.47-.57,4.51,4.51,0,0,1,.51-.42l.41-.26.17-.07a.31.31,0,0,1,.45.25c0,.23-.06.45-.21.48Z"/>
          <path d="M43.08,28.12l-.53-.1L42,27.94a4.05,4.05,0,0,0-.62-.07,14.88,14.88,0,0,0-1.68.05h0a16.63,16.63,0,0,0,1.68-.24l.61-.1.54-.1.53-.12c.17,0,.31.11.32.34s-.1.43-.26.43Z"/>
          <path d="M52,38.88A.81.81,0,0,1,52,39c0,.1,0,.23.05.4a5.89,5.89,0,0,1,0,1.17,6.82,6.82,0,0,1-.2,1.1c0,.15-.08.27-.1.36a.93.93,0,0,0,0,.13h0a1.31,1.31,0,0,1,0-.14,2.7,2.7,0,0,0,.08-.35,3.59,3.59,0,0,0,0-1.1,3.07,3.07,0,0,0-.29-1c-.07-.12-.13-.22-.18-.29a.23.23,0,0,0-.08-.09c-.09-.1,0-.28.18-.42s.42-.12.5,0Z"/>
          <path d="M54.82,38.36a3.83,3.83,0,0,0-.29.75,2.91,2.91,0,0,0-.09.74h0a3.22,3.22,0,0,0-.1-.74,4.15,4.15,0,0,0-.28-.75c0-.07.11-.13.34-.14s.43.05.43.12Z"/>
          <path d="M70.34,31.88s.16.14.38.37a4,4,0,0,1,.7.88,3.24,3.24,0,0,1,.26.53c.07.16.1.34.15.47.06.29.09.48.09.48h0a4.39,4.39,0,0,0-.11-.47,4.18,4.18,0,0,0-.2-.45,2,2,0,0,0-.34-.44,2.45,2.45,0,0,0-.85-.56,3.27,3.27,0,0,0-.45-.14c-.14,0-.18-.22-.09-.44s.28-.33.42-.25Z"/>
          <path d="M70.44,26l.17,0,.44-.06.61,0c.23,0,.46,0,.69,0A4.85,4.85,0,0,1,73,26c.21,0,.4.1.57.14l.39.13.14.05h0L74,26.24c-.1,0-.23-.08-.4-.12a4.44,4.44,0,0,0-.57-.07,2.92,2.92,0,0,0-.66,0,4.27,4.27,0,0,0-.64.14c-.2.06-.38.14-.53.2l-.34.2-.12.08c-.13.1-.32,0-.45-.18a.35.35,0,0,1,.11-.51Z"/>
          <path d="M73,27.91l.32.13c.09,0,.2.1.31.15a2.6,2.6,0,0,1,.34.16l.33.17c.1,0,.19.11.27.15l.26.16h0a2.19,2.19,0,0,0-.27-.14,1.24,1.24,0,0,0-.29-.1,2,2,0,0,0-.35-.06,1.45,1.45,0,0,0-.36,0,1.36,1.36,0,0,0-.3,0l-.29.09c-.08,0-.15-.12-.17-.35s.07-.42.17-.41Z"/>
          <path d="M42.52,25.66a1.73,1.73,0,0,0-.56-.28,5.15,5.15,0,0,0-1.49-.27,6.72,6.72,0,0,0-1.55.1,4.81,4.81,0,0,0-.68.18h0a6.8,6.8,0,0,1,.68-.2,12.11,12.11,0,0,1,1.54-.27,9.1,9.1,0,0,1,1.6-.08l.57.07.22.06c.28.09.39.44.2.58a.67.67,0,0,1-.28.14.22.22,0,0,1-.21,0Z"/>
          <path d="M36.4,32.5a2.13,2.13,0,0,0-.45,0,5.19,5.19,0,0,0-1,.24,5.39,5.39,0,0,0-.93.45,2.91,2.91,0,0,0-.27.21l-.1.08h0l.1-.08c.06,0,.15-.14.26-.22l.86-.61c.32-.21.65-.43.9-.58s.44-.26.44-.26a.25.25,0,0,1,.26,0,.31.31,0,0,1,.12.26.73.73,0,0,1,0,.31c0,.09,0,.13-.1.15Z"/>
          <path d="M49.56,35.9s-.1.14-.24.37a3.89,3.89,0,0,0-.18.4,2.09,2.09,0,0,0-.16.5,5,5,0,0,0-.09.51,2.35,2.35,0,0,0,0,.46c0,.27,0,.44,0,.44h0l-.05-.44c0-.13-.06-.29-.06-.46s0-.35,0-.53a4.86,4.86,0,0,1,0-.54c0-.18,0-.34,0-.49s0-.48,0-.48.19-.22.41-.14.37.24.32.36S49.56,35.88,49.56,35.9Z"/>
          <path d="M43.69,42.13l-.66.6-.63.66a7.34,7.34,0,0,0-.62.82c-.1.15-.19.3-.28.45l-.21.47a2.06,2.06,0,0,0-.15.46c0,.15-.07.29-.1.42a1.5,1.5,0,0,0,0,.36v.28c0,.16,0,.25,0,.25h0v-.25c0-.08,0-.17,0-.28A2.35,2.35,0,0,1,41,46c0-.13.06-.27.08-.42a1.91,1.91,0,0,1,.12-.47c.06-.16.11-.33.17-.5l.22-.49c.14-.34.35-.64.5-.94l.5-.79c.3-.46.51-.76.51-.76a.44.44,0,0,1,.61-.18.41.41,0,0,1,0,.62Z"/>
          <path class="cls-9" d="M57.8,39.55a2.86,2.86,0,0,0-2,1.17,31.94,31.94,0,0,0,0,10c1.13,6.41,2.16,4.4,2.16,4.4a31.68,31.68,0,0,0,3-5.13c.58-1.28.65-4.28.54-7.22C60.29,40.82,59.05,39.55,57.8,39.55Z"/>
          <path class="cls-7" d="M20.44,76a7.31,7.31,0,0,1-4.57-4,15.54,15.54,0,0,1-.78-11.47A12.1,12.1,0,0,1,17,57.47c1.26-1.64,2.17-2.81.88-5.26l.57-.3c1.47,2.81.35,4.26-1,5.94a11.85,11.85,0,0,0-1.79,2.91,14.87,14.87,0,0,0,.75,10.95,6.71,6.71,0,0,0,4.17,3.71Z"/>
          <path class="cls-7" d="M21.64,70c-2.13-1.17-9-5.51-7.54-12.11A17.57,17.57,0,0,1,15,55.13c.76-1.86,1.47-3.61.74-5.5l.6-.23c.81,2.13,0,4.08-.75,6a17.65,17.65,0,0,0-.9,2.62c-1.34,6.18,5.19,10.31,7.22,11.42Z"/>
          <path class="cls-7" d="M94.41,72.36c-1.87-4.17-.14-8.1,1.53-11.91.18-.4.35-.79.52-1.19,1.45-3.38.76-5.75-.47-9l.6-.23c1.24,3.28,2,5.88.46,9.47l-.52,1.2C94.91,64.39,93.24,68.19,95,72.1Z"/>
          <path class="cls-7" d="M13,75.29c-3.64-4.75-3.71-8.69-.25-14.07.56-.86,1.15-1.65,1.71-2.42,1.76-2.37,3.28-4.42,3.24-7.69h.64c0,3.49-1.62,5.72-3.37,8.08-.56.76-1.14,1.54-1.68,2.38-3.33,5.18-3.28,8.79.21,13.34Z"/>
          <path class="cls-7" d="M95,76.7c-.16-2.62,1-4.86,2-7,1.31-2.63,2.55-5.12,1.78-8.32a13.5,13.5,0,0,0-1.7-3.47c-1.09-1.8-2.22-3.67-2-5.55l.63.09c-.23,1.65.84,3.42,1.87,5.13a14,14,0,0,1,1.78,3.66c.82,3.42-.53,6.13-1.84,8.74-1.09,2.19-2.12,4.26-2,6.71Z"/>
          <path class="cls-7" d="M3.55,77.14c-3.93-8.23,2.36-12.52,9.14-16.2.34-.18.74-.39,1.17-.6,2.77-1.39,6.94-3.49,5.42-6.55l.57-.28c1.8,3.62-2.71,5.89-5.7,7.4-.43.21-.82.4-1.15.59C6.48,65,.44,69.13,4.13,76.86Z"/>
          <path class="cls-7" d="M100.38,70.47l-.56-.29c1.83-3.55,3.41-7.71,1.24-11.66a12.84,12.84,0,0,0-1.74-2.09c-1.68-1.79-3.59-3.83-2.85-5.61l.59.25c-.59,1.4,1.25,3.35,2.73,4.93a13.54,13.54,0,0,1,1.83,2.21C103.93,62.42,102.29,66.77,100.38,70.47Z"/>
          <path class="cls-7" d="M7.34,60.68c-.44-3.37,2.1-5,4.56-6.62,2.21-1.43,4.3-2.79,4-5.3l.64-.07c.33,2.9-2,4.43-4.3,5.9s-4.67,3-4.28,6Z"/>
          <path class="cls-7" d="M107.39,62l-.6-.18c1.16-3.93-2.25-5.47-5.27-6.84l-.92-.42c-2.15-1-3-2.4-4.11-4.41l.55-.31c1.07,2,1.85,3.21,3.83,4.14l.92.42C104.87,55.8,108.71,57.54,107.39,62Z"/>
        </g>
      </g>
    </g>
  </g>
</svg>
