<svg xmlns="http://www.w3.org/2000/svg" width="85" height="90" viewBox="0 0 85 90">
  <defs>
    <style>
      .cls-1 {
        isolation: isolate;
      }

      .cls-2 {
        fill: #f04646;
      }

      .cls-3 {
        fill: #0c989c;
      }

      .cls-4 {
        fill: #b3a1f0;
      }

      .cls-5 {
        fill: #ff6363;
      }

      .cls-10, .cls-6 {
        fill: #19b8bd;
      }

      .cls-7 {
        fill: #f0d907;
        mix-blend-mode: multiply;
      }

      .cls-8 {
        fill: #fff;
      }

      .cls-9 {
        fill: #e8e8e8;
      }

      .cls-10 {
        opacity: 0.4;
        mix-blend-mode: screen;
      }
    </style>
  </defs>
  <g class="cls-1">
    <g id="Ñëîé_1" data-name="Ñëîé 1">
      <g>
        <g>
          <path class="cls-2" d="M9.33,27.47c.23,5.6,9.74,6.1,12.32,5.61s4.48-5.43,4.24-11-5.12-11.11-7.7-10.62S9.09,21.86,9.33,27.47Z"/>
          <g>
            <path class="cls-3" d="M22.8,32.53c.84-5.89-1.57-13.42-6.59-19.73l.51-.49c4.91,6.2,7.35,13.57,6.76,19.57A3.77,3.77,0,0,1,22.8,32.53Z"/>
            <path class="cls-3" d="M12.06,18.66l.36-.64c5.41,4.07,9,9.54,10,14.78a2.51,2.51,0,0,1-.67.26C19.4,29.51,15,26.78,9.47,25.58c0-.24.09-.48.14-.72,5.09,1.1,9.28,3.49,11.83,6.65A25.33,25.33,0,0,0,12.06,18.66Z"/>
          </g>
          <path class="cls-3" d="M16.68,11.76a.79.79,0,0,1-.12,1,.52.52,0,0,1-.82,0,.78.78,0,0,1,.12-1A.53.53,0,0,1,16.68,11.76Z"/>
          <path class="cls-3" d="M12.67,17.69a.82.82,0,0,1,.09,1c-.2.31-.65.48-.89.22a.82.82,0,0,1-.1-1C12,17.61,12.42,17.44,12.67,17.69Z"/>
          <path class="cls-4" d="M10.08,24.64a1,1,0,0,1,.06,1.2.7.7,0,0,1-1,.21A1,1,0,0,1,9,24.84.69.69,0,0,1,10.08,24.64Z"/>
        </g>
        <g>
          <path class="cls-5" d="M7.05,44.57c5,4.43,15.6-3.43,18-6.07s.26-8.38-4.7-12.81S5.47,21,3.11,23.61,2.09,40.14,7.05,44.57Z"/>
          <g>
            <path class="cls-6" d="M25.78,37.05c-4-5.61-12.95-9.73-23.65-10.58,0-.3.08-.58.14-.85,10.49.85,19.3,4.83,23.7,10.29A4.69,4.69,0,0,1,25.78,37.05Z"/>
            <path class="cls-6" d="M2.6,34.92c-.06-.28-.11-.56-.16-.84,9.23-1.35,17.69.05,23.13,3.55a4.06,4.06,0,0,1-.5.79c-5.48-.91-12.51.66-19.45,4.47-.16-.23-.31-.47-.46-.72,6.4-3.52,12.91-5.18,18.3-4.79C18.22,34.71,10.73,33.73,2.6,34.92Z"/>
          </g>
          <path class="cls-6" d="M1.77,25.2a.81.81,0,0,1,.69.91.84.84,0,0,1-.91.7.8.8,0,0,1-.69-.91A.83.83,0,0,1,1.77,25.2Z"/>
          <path class="cls-6" d="M2.43,33.59a.89.89,0,0,1,1,.77.87.87,0,0,1-.76,1,.89.89,0,0,1-1-.77A.87.87,0,0,1,2.43,33.59Z"/>
          <path class="cls-6" d="M5.48,41.57a1,1,0,0,1,1.08,1,1,1,0,1,1-1.08-1Z"/>
        </g>
        <g>
          <path class="cls-6" d="M60.13,46.65l-3.49-8.49s-1,9.34-1,10.06S60.13,46.65,60.13,46.65Z"/>
          <path class="cls-2" d="M35.48,46.52,38,44.58c.83-.62,1.86-1.38,3.11-2.2A23,23,0,0,1,45.73,40a14.35,14.35,0,0,1,3-.77l.82-.07.42,0h1.37l.74.11a18.53,18.53,0,0,1,3.29,1l.71.27.7.24c.23.06.47.15.68.19l.34.08.16,0h.12l.41,0,.2,0h.14a4.23,4.23,0,0,0,.6,0,4.14,4.14,0,0,0,.68-.1,6.62,6.62,0,0,0,.71-.17c.48-.13,1-.31,1.52-.5l.81-.29.11,0,.17-.06.2-.06.42-.12a9.51,9.51,0,0,1,4-.19,32.57,32.57,0,0,1,3.52.82,12.07,12.07,0,0,0,3.16.48,6.16,6.16,0,0,0,.75-.05l.38-.06H76l.21-.06.41-.12a1.9,1.9,0,0,0,.38-.12c.2-.11.4-.18.61-.29a8.68,8.68,0,0,0,3.61-4.73A14.4,14.4,0,0,0,82,29.62l0-.35,0-.17,0-.18c0-.24-.07-.5-.12-.71a11.38,11.38,0,0,0-.32-1.31,6.49,6.49,0,0,0-1.16-2.2,4.12,4.12,0,0,0-1.81-1.26,5.42,5.42,0,0,0-2.06-.24,11.08,11.08,0,0,0-3.42.88,19.72,19.72,0,0,0-2.09,1l-.72.42-.3-.46s.24-.17.71-.47a21.91,21.91,0,0,1,2.11-1.16,11.7,11.7,0,0,1,3.64-1.11,6.36,6.36,0,0,1,2.42.18A5.12,5.12,0,0,1,81.13,24a10.14,10.14,0,0,1,2.22,5.51A15.94,15.94,0,0,1,82.78,36a12.48,12.48,0,0,1-1.5,3.24A8.71,8.71,0,0,1,78.59,42c-.29.17-.62.33-.94.48a2.46,2.46,0,0,1-.44.17l-.4.14-.21.07-.1,0h-.09l-.12,0-.49.1a7.94,7.94,0,0,1-1,.11,13.92,13.92,0,0,1-3.76-.38,33.07,33.07,0,0,0-3.31-.61,7.13,7.13,0,0,0-2.88.25l-.41.14-.2.07h0s-.09,0,0,0l0,0-.1,0-.79.32c-.53.22-1.08.45-1.68.64-.29.1-.59.19-.91.27a9.59,9.59,0,0,1-1,.18,5.93,5.93,0,0,1-1.06.08h-.48l-.41,0h-.3l-.23,0-.46-.09a6.09,6.09,0,0,1-.89-.21c-.3-.07-.56-.16-.83-.24l-.78-.25a17.56,17.56,0,0,0-2.63-.72L51,42.43l-.53,0h-.31l-.29,0c-.2,0-.4,0-.59.08a10.59,10.59,0,0,0-2.24.69,19.26,19.26,0,0,0-3.77,2.2c-1.09.79-2,1.55-2.79,2.19L38,49.71Z"/>
          <path class="cls-6" d="M49.38,48.15,50,40.23s3.17,7.42,3.37,8S49.38,48.15,49.38,48.15Z"/>
          <path class="cls-6" d="M57.28,33.86c-.3,1.44,2.3,6.37,2.3,6.37l2.58-6.39Z"/>
          <path class="cls-6" d="M61.59,31.79c-.3,1.43,2.29,6.37,2.29,6.37s2.82-3.83,1-6.33C64.4,31.16,61.59,31.79,61.59,31.79Z"/>
          <path class="cls-6" d="M48.94,16.17c-9.45-1.5-18.27.81-24.21,10.36a36.93,36.93,0,0,0-5.18,14.15c-.76,5.2-.41,10.68-1.78,15.75C15.65,64.19,4.1,71.1,7.55,80.49c1.61,4.37,6.24,4.15,9.6,4.13a117,117,0,0,1,12.13.56c7.92.75,16.14-.51,24-1.12,4.33-.33,8.69-.58,13-1.1,3.44-.41,6.87-1.08,3.37-5.09-3.11-3.57-8-6.94-8.36-12.65-.3-4.76,3.11-8.67,2.81-13.39C63.4,39.73,46.27,50,41.6,44.37c-2.74-3.29,3.23-5.64,5.1-6.16,4.56-1.28,9.31-.86,13.93-1.59,3.66-.59,6-.61,4.87-5.43a20.74,20.74,0,0,0-3.17-7.74C59,18.85,53.8,16.94,48.94,16.17Z"/>
          <path class="cls-3" d="M48.94,16.17c-9.45-1.5-18.27.81-24.21,10.36a36.93,36.93,0,0,0-5.18,14.15c-.76,5.2-.41,10.68-1.78,15.75C15.65,64.19,4.1,71.1,7.55,80.49c1.61,4.37,6.24,4.15,9.6,4.13a117,117,0,0,1,12.13.56c7.92.75,16.14-.51,24-1.12,4.33-.33,8.69-.58,13-1.1,3.44-.41,6.87-1.08,3.37-5.09-3.11-3.57-8-6.94-8.36-12.65-.3-4.76,3.11-8.67,2.81-13.39C63.4,39.73,46.27,50,41.6,44.37c-2.74-3.29,3.23-5.64,5.1-6.16,4.56-1.28,9.31-.86,13.93-1.59,3.66-.59,6-.61,4.87-5.43a20.74,20.74,0,0,0-3.17-7.74C59,18.85,53.8,16.94,48.94,16.17Z"/>
          <g>
            <path class="cls-7" d="M81.52,28.64a6.8,6.8,0,0,1-9.92.41,7.79,7.79,0,0,1-.76-.88,7.56,7.56,0,0,1,.23-9.52,6.82,6.82,0,0,1,9.93-.4A7.61,7.61,0,0,1,81.52,28.64Z"/>
            <path class="cls-2" d="M81.52,28.64a6.8,6.8,0,0,1-9.92.41,7.79,7.79,0,0,1-.76-.88,7.56,7.56,0,0,1,.23-9.52,6.82,6.82,0,0,1,9.93-.4A7.61,7.61,0,0,1,81.52,28.64Z"/>
            <g>
              <g>
                <path class="cls-8" d="M72.42,28.11a5.62,5.62,0,0,0,8.2-.33,6.29,6.29,0,0,0-.44-8.59,5.62,5.62,0,0,0-8.2.33A6.29,6.29,0,0,0,72.42,28.11Z"/>
                <path class="cls-9" d="M71.46,26.89a5.58,5.58,0,0,0,7.91-.56A6.25,6.25,0,0,0,79.9,19l.28.22a6.29,6.29,0,0,1,.44,8.59,5.62,5.62,0,0,1-8.2.33A6.14,6.14,0,0,1,71.46,26.89Z"/>
              </g>
              <g>
                <path d="M72.18,26.06a2.8,2.8,0,0,0,4.08-.16,3.14,3.14,0,0,0-.21-4.29,2.81,2.81,0,0,0-4.09.17A3.13,3.13,0,0,0,72.18,26.06Z"/>
                <path class="cls-8" d="M73.54,23.29a1.11,1.11,0,0,0,1.63-.06,1.25,1.25,0,0,0-.08-1.71,1.12,1.12,0,0,0-1.63.06A1.25,1.25,0,0,0,73.54,23.29Z"/>
              </g>
            </g>
          </g>
          <g>
            <path class="cls-7" d="M28.71,28.28a2.45,2.45,0,0,1-2.43-2.48,1.84,1.84,0,0,1,0-.39,2.45,2.45,0,1,1,2.39,2.87Z"/>
            <path class="cls-6" d="M28.71,28.28a2.45,2.45,0,0,1-2.43-2.48,1.84,1.84,0,0,1,0-.39,2.45,2.45,0,1,1,2.39,2.87Z"/>
            <g>
              <g>
                <path class="cls-8" d="M26.7,25.8a2,2,0,1,0,2.06-2A2,2,0,0,0,26.7,25.8Z"/>
                <path class="cls-9" d="M26.78,25.28a2,2,0,0,0,4,.45s0,.08,0,.12a2,2,0,0,1-4.07-.05A3,3,0,0,1,26.78,25.28Z"/>
              </g>
              <g>
                <path d="M27.16,25.29a1,1,0,1,0,1-1A1,1,0,0,0,27.16,25.29Z"/>
                <path class="cls-8" d="M28.18,25a.4.4,0,1,0,.41-.4A.4.4,0,0,0,28.18,25Z"/>
              </g>
            </g>
          </g>
          <g>
            <path class="cls-7" d="M37.28,26a2.46,2.46,0,0,1-2.43-2.49,1.84,1.84,0,0,1,0-.39,2.44,2.44,0,0,1,2.45-2A2.46,2.46,0,0,1,37.28,26Z"/>
            <path class="cls-6" d="M37.28,26a2.46,2.46,0,0,1-2.43-2.49,1.84,1.84,0,0,1,0-.39,2.44,2.44,0,0,1,2.45-2A2.46,2.46,0,0,1,37.28,26Z"/>
            <g>
              <g>
                <path class="cls-8" d="M35.28,23.48a2,2,0,1,0,2-2A2,2,0,0,0,35.28,23.48Z"/>
                <path class="cls-9" d="M35.36,23a2,2,0,0,0,4,.44s0,.08,0,.12a2,2,0,1,1-4.06-.05A1.7,1.7,0,0,1,35.36,23Z"/>
              </g>
              <g>
                <path d="M35.73,23a1,1,0,0,0,2,0,1,1,0,0,0-1-1A1,1,0,0,0,35.73,23Z"/>
                <path class="cls-8" d="M36.75,22.71a.4.4,0,0,0,.4.41.41.41,0,1,0-.4-.41Z"/>
              </g>
            </g>
          </g>
          <g>
            <path class="cls-7" d="M44.88,31.13a2.46,2.46,0,0,1-2.43-2.48,2.87,2.87,0,0,1,0-.39,2.46,2.46,0,1,1,2.39,2.87Z"/>
            <path class="cls-6" d="M44.88,31.13a2.46,2.46,0,0,1-2.43-2.48,2.87,2.87,0,0,1,0-.39,2.46,2.46,0,1,1,2.39,2.87Z"/>
            <g>
              <g>
                <path class="cls-8" d="M42.88,28.65a2,2,0,1,0,2.06-2A2,2,0,0,0,42.88,28.65Z"/>
                <path class="cls-9" d="M43,28.14a2,2,0,0,0,4,.44s0,.08,0,.12a2,2,0,1,1-4.06-.05A2.09,2.09,0,0,1,43,28.14Z"/>
              </g>
              <g>
                <path d="M43.34,28.14a1,1,0,1,0,1-1A1,1,0,0,0,43.34,28.14Z"/>
                <path class="cls-8" d="M44.35,27.88a.41.41,0,0,0,.4.41.41.41,0,1,0,0-.81A.41.41,0,0,0,44.35,27.88Z"/>
              </g>
            </g>
          </g>
          <g>
            <path class="cls-7" d="M53.31,27a2.46,2.46,0,0,1-2.43-2.49,1.91,1.91,0,0,1,0-.39,2.44,2.44,0,0,1,2.44-2,2.46,2.46,0,1,1,0,4.92Z"/>
            <path class="cls-6" d="M53.31,27a2.46,2.46,0,0,1-2.43-2.49,1.91,1.91,0,0,1,0-.39,2.44,2.44,0,0,1,2.44-2,2.46,2.46,0,1,1,0,4.92Z"/>
            <g>
              <g>
                <path class="cls-8" d="M51.31,24.51a2,2,0,1,0,2-2A2,2,0,0,0,51.31,24.51Z"/>
                <path class="cls-9" d="M51.39,24a2,2,0,0,0,4,.44s0,.08,0,.13a2,2,0,0,1-4.06,0A1.77,1.77,0,0,1,51.39,24Z"/>
              </g>
              <g>
                <path d="M51.76,24a1,1,0,1,0,1-1A1,1,0,0,0,51.76,24Z"/>
                <path class="cls-8" d="M52.78,23.74a.41.41,0,0,0,.81,0,.4.4,0,0,0-.4-.41A.4.4,0,0,0,52.78,23.74Z"/>
              </g>
            </g>
          </g>
          <g>
            <path class="cls-7" d="M60.69,28.67a2.46,2.46,0,0,1-2.43-2.48,2.87,2.87,0,0,1,0-.39,2.46,2.46,0,1,1,2.39,2.87Z"/>
            <path class="cls-6" d="M60.69,28.67a2.46,2.46,0,0,1-2.43-2.48,2.87,2.87,0,0,1,0-.39,2.46,2.46,0,1,1,2.39,2.87Z"/>
            <g>
              <g>
                <path class="cls-8" d="M58.69,26.19a2,2,0,1,0,2.06-2A2,2,0,0,0,58.69,26.19Z"/>
                <path class="cls-9" d="M58.77,25.68a2,2,0,0,0,4,.44s0,.08,0,.12a2,2,0,1,1-4.06,0A2.09,2.09,0,0,1,58.77,25.68Z"/>
              </g>
              <g>
                <path d="M59.15,25.68a1,1,0,1,0,1-1A1,1,0,0,0,59.15,25.68Z"/>
                <path class="cls-8" d="M60.16,25.42a.41.41,0,0,0,.4.41.4.4,0,0,0,.41-.4.4.4,0,0,0-.4-.41A.42.42,0,0,0,60.16,25.42Z"/>
              </g>
            </g>
          </g>
          <path class="cls-2" d="M43.7,18c-.46,0-.42.7,0,.7S44.15,18,43.7,18Z"/>
          <path class="cls-2" d="M45.4,21.46c-.69,0-.83,1.07-.13,1.07S46.1,21.46,45.4,21.46Z"/>
          <path class="cls-2" d="M50.94,18.21a.89.89,0,0,0-1.11-.05l-.31.35a.81.81,0,0,0,0,.81l.22.27a.91.91,0,0,0,1.18-1.38Z"/>
          <path class="cls-2" d="M45.83,18.45a.61.61,0,0,0-.64.54.6.6,0,0,0,.53.65.6.6,0,0,0,.11-1.19Z"/>
          <path class="cls-2" d="M41.74,19.45c-.62,0-.5,1,.11,1S42.35,19.45,41.74,19.45Z"/>
          <path class="cls-2" d="M48.46,22.65c-.87,0-.93,1.35-.06,1.35S49.33,22.65,48.46,22.65Z"/>
          <path class="cls-2" d="M43,21.37a.81.81,0,0,0-.78.23.79.79,0,0,0-.19.8c.05.09.09.18.13.27a.75.75,0,0,0,1.3,0l.06-.12A.83.83,0,0,0,43,21.37Z"/>
          <path class="cls-2" d="M32.37,21a.71.71,0,0,0,0,1.42A.71.71,0,0,0,32.37,21Z"/>
          <path class="cls-2" d="M34.25,26.51a.79.79,0,0,0-.77.81.8.8,0,1,0,.77-.81Z"/>
          <path class="cls-2" d="M41.19,24.45a.79.79,0,0,0,0,1.58A.79.79,0,0,0,41.19,24.45Z"/>
          <path class="cls-2" d="M38.28,18.52a.68.68,0,1,0-.05,1.35.69.69,0,0,0,.7-.65A.68.68,0,0,0,38.28,18.52Z"/>
          <path class="cls-2" d="M48.43,25.08a.75.75,0,0,0,0,1.5A.75.75,0,0,0,48.43,25.08Z"/>
          <path class="cls-2" d="M57.05,26.41a1,1,0,0,0-.34.08.88.88,0,0,0-.59.87.9.9,0,0,0,.69.79,1,1,0,0,0,.38,0,.9.9,0,0,0,.82-1A.93.93,0,0,0,57.05,26.41Z"/>
          <path class="cls-2" d="M63.39,28.6a.84.84,0,0,0-.57.79.79.79,0,0,0,.38.66s0,0,0,0l0,0a1,1,0,0,0,.35.07h0a.77.77,0,0,0,.8-.6C64.53,29,64,28.33,63.39,28.6Z"/>
          <path class="cls-2" d="M24.53,29.61a.79.79,0,0,0-.77.79.78.78,0,0,0,1.56,0A.79.79,0,0,0,24.53,29.61Z"/>
          <path class="cls-2" d="M56.44,19.9a.63.63,0,0,0-.66.57.62.62,0,1,0,.66-.57Z"/>
          <path class="cls-2" d="M58.26,22.11c-.62,0-.5.95.11.95S58.87,22.11,58.26,22.11Z"/>
          <path class="cls-2" d="M60.49,21.78a.42.42,0,0,0-.25.12h0a.27.27,0,0,0,0,.45h0a.36.36,0,1,0,.24-.61Z"/>
          <path class="cls-2" d="M52.92,20.15a.79.79,0,1,0,.8.77A.79.79,0,0,0,52.92,20.15Z"/>
          <path class="cls-2" d="M52.26,18.23h.07a.33.33,0,0,0-.17,0c.26-.06,0,1,.39.6a.34.34,0,0,0,.1-.27A.38.38,0,0,0,52.26,18.23Z"/>
          <path class="cls-2" d="M54.27,18.54c-.65,0-.52,1,.12,1S54.91,18.54,54.27,18.54Z"/>
          <path class="cls-2" d="M52.89,18.11a.52.52,0,0,0-1,0,.68.68,0,0,0,0,.4.52.52,0,0,0,1,0A.78.78,0,0,0,52.89,18.11Z"/>
          <path class="cls-2" d="M50.59,20.94a.48.48,0,0,0-.42.52.49.49,0,0,0,.53.42.47.47,0,0,0-.11-.94Z"/>
          <path class="cls-2" d="M47.47,20a.27.27,0,0,0-.33.33.27.27,0,0,0,.45.12A.27.27,0,0,0,47.47,20Z"/>
          <path class="cls-2" d="M28.86,29.2c-.67,0-.81,1-.14,1S29.53,29.2,28.86,29.2Z"/>
          <path class="cls-2" d="M31.69,29.2c-.5,0-.45.77,0,.77S32.19,29.2,31.69,29.2Z"/>
          <path class="cls-2" d="M35.17,30c-.76,0-.87,1.19-.1,1.19S36,30,35.17,30Z"/>
          <path class="cls-2" d="M38.5,27.59a.64.64,0,0,0-.67.59.63.63,0,0,0,1.26.09A.64.64,0,0,0,38.5,27.59Z"/>
          <path class="cls-2" d="M41,30.63H40.9a.31.31,0,0,0,0,.62H41C41.39,31.28,41.38,30.61,41,30.63Z"/>
          <path class="cls-2" d="M35.4,19.24c-.24,0-.26.39,0,.39S35.65,19.24,35.4,19.24Z"/>
          <path class="cls-2" d="M32.87,24.08c-.43,0-.4.65,0,.65S33.28,24.08,32.87,24.08Z"/>
          <path class="cls-2" d="M28.84,22.62v0c0,.47.71.43.71,0v0C29.55,22.12,28.84,22.16,28.84,22.62Z"/>
          <path class="cls-2" d="M25.92,27a.29.29,0,0,0,0,.58A.29.29,0,0,0,25.92,27Z"/>
          <path class="cls-2" d="M27.74,30.94c-.06-.5-.83-.55-.89,0v0c-.07.67,1,.68.9,0Z"/>
          <path class="cls-2" d="M30.89,30.36a.32.32,0,0,0,0,.63A.32.32,0,0,0,30.89,30.36Z"/>
          <path class="cls-2" d="M29.84,31.81c-.56,0-.48.86.08.86S30.39,31.81,29.84,31.81Z"/>
          <path class="cls-2" d="M32.48,26.2l0,0c-.31-.16-.29.42,0,.28l0,0C32.54,26.4,32.58,26.25,32.48,26.2Z"/>
          <path class="cls-2" d="M32.89,31c-.16,0-.18.24,0,.24S33,31,32.89,31Z"/>
          <path class="cls-2" d="M36.89,28.82a.29.29,0,0,0,0,.57A.29.29,0,0,0,36.89,28.82Z"/>
          <path class="cls-2" d="M36.08,27.32a.22.22,0,0,0,0,.44A.22.22,0,0,0,36.08,27.32Z"/>
          <path class="cls-2" d="M39,26.32c-.52,0-.45.8.06.8S39.56,26.32,39,26.32Z"/>
          <path class="cls-2" d="M42.35,27.18c-.2,0-.22.32,0,.32S42.56,27.18,42.35,27.18Z"/>
          <path class="cls-2" d="M40.59,28.72c-.58,0-.48.91.1.91S41.17,28.72,40.59,28.72Z"/>
          <path class="cls-2" d="M38.39,30.55l0,0a.39.39,0,1,0,0,.67h0A.37.37,0,0,0,38.39,30.55Z"/>
          <path class="cls-2" d="M44.32,32.2a.19.19,0,0,1,0-.07.41.41,0,0,0-.59-.2.39.39,0,0,0,0,.67l.06,0C44.07,32.74,44.46,32.52,44.32,32.2Z"/>
          <path class="cls-2" d="M46.15,33a.31.31,0,0,0,0,.62A.31.31,0,0,0,46.15,33Z"/>
          <path class="cls-2" d="M48.28,30.74s0,0,0,0v0a.16.16,0,0,0,0-.12c0-.24-.4-.16-.43.06v.07a.17.17,0,0,0,0,.14h0l0,0a.19.19,0,0,0,.22,0h0l0,0,0-.05h0a.21.21,0,0,0,0-.07Z"/>
          <path class="cls-2" d="M49.1,31.35a.49.49,0,0,0-.43.54.5.5,0,0,0,.54.42.48.48,0,0,0,.42-.54A.49.49,0,0,0,49.1,31.35Z"/>
          <path class="cls-2" d="M51.61,28a.25.25,0,0,0,0,.5A.25.25,0,0,0,51.61,28Z"/>
          <path class="cls-2" d="M45.89,25.36c-.17,0-.19.27,0,.27S46.07,25.36,45.89,25.36Z"/>
          <path class="cls-2" d="M47.12,24.23c-.14,0-.16.22,0,.22S47.26,24.23,47.12,24.23Z"/>
          <path class="cls-2" d="M45.58,23.47c-.51,0-.45.79.06.79S46.09,23.47,45.58,23.47Z"/>
          <path class="cls-2" d="M44,24.8h0c-.4-.14-.39.6,0,.47h0A.24.24,0,0,0,44,24.8Z"/>
          <path class="cls-2" d="M44.3,20s0,0,0,0a.17.17,0,0,0-.1.06h0a.27.27,0,0,0-.08.18.29.29,0,0,0,.07.18.14.14,0,0,0,.09.05.21.21,0,0,0,.12,0C44.4,20.14,44.37,20,44.3,20Z"/>
          <path class="cls-2" d="M40.17,20.91c-.3.16-.06.59.24.47S40.48,20.73,40.17,20.91Z"/>
          <path class="cls-2" d="M44.18,19.78a.27.27,0,0,0,0,.54A.27.27,0,0,0,44.18,19.78Z"/>
          <path class="cls-2" d="M55.3,28.68s0,0,0-.06a.42.42,0,0,0-.81-.1s0,0,0,0v0s0,.05,0,.07,0,0,0,0v.07h0a.39.39,0,0,0,.17.31.41.41,0,0,0,.56,0v0a.36.36,0,0,0,.07-.1s0,0,0-.06,0,0,0,0h0s0,0,0,0S55.3,28.7,55.3,28.68Z"/>
          <g>
            <path class="cls-2" d="M53.14,31.05l0,0h0A.08.08,0,0,1,53.14,31.05Z"/>
            <path class="cls-2" d="M53.29,30.4a.34.34,0,0,0-.17.62.28.28,0,0,0,.39,0l0,0A.34.34,0,0,0,53.29,30.4Z"/>
          </g>
          <path class="cls-2" d="M56.71,30.78a.31.31,0,0,0,0,.61A.31.31,0,0,0,56.71,30.78Z"/>
          <path class="cls-2" d="M59.13,29.77c-.55,0-.48.85.07.85S59.68,29.77,59.13,29.77Z"/>
          <path class="cls-2" d="M60.12,30.73c-.63,0-.5,1,.13,1S60.75,30.73,60.12,30.73Z"/>
          <path class="cls-2" d="M62,30c-.64,0-.51,1,.13,1S62.6,30,62,30Z"/>
          <path class="cls-2" d="M63.55,26.84c-.56,0-.48.86.08.86S64.11,26.84,63.55,26.84Z"/>
          <path class="cls-2" d="M50.11,26.89a.52.52,0,0,0,0,1A.52.52,0,0,0,50.11,26.89Z"/>
          <path class="cls-2" d="M48.49,28.34l-.05.06a.43.43,0,0,0,.61.6l.05,0C49.53,28.59,48.85,27.92,48.49,28.34Z"/>
          <path class="cls-2" d="M50,28.76a.35.35,0,0,0,0,.69A.35.35,0,0,0,50,28.76Z"/>
          <path class="cls-2" d="M50.86,30.08a.53.53,0,0,0,0,1.05A.53.53,0,0,0,50.86,30.08Z"/>
          <path class="cls-2" d="M50.38,24.91a.18.18,0,0,0,0,.36A.18.18,0,0,0,50.38,24.91Z"/>
          <path class="cls-2" d="M50.38,23.14a.25.25,0,0,0,0,.49A.25.25,0,0,0,50.38,23.14Z"/>
          <path class="cls-2" d="M48.27,19.82a.39.39,0,0,0-.18.3c0,.14.09.19.16.28a.12.12,0,0,0,.17,0c-.08,0-.08,0,0,0l.14-.06C48.9,20.15,48.58,19.61,48.27,19.82Z"/>
          <path class="cls-2" d="M43.84,19.91a.31.31,0,0,0,0,.62A.31.31,0,0,0,43.84,19.91Z"/>
          <path class="cls-2" d="M44.18,19.75a.5.5,0,0,0-.46.11.46.46,0,0,0-.43.46,1,1,0,0,0,.19.59.51.51,0,0,0,.86,0,1.37,1.37,0,0,0,.2-.52A.53.53,0,0,0,44.18,19.75Z"/>
          <path class="cls-2" d="M57.39,24a.21.21,0,0,0,0,.42A.21.21,0,1,0,57.39,24Z"/>
          <path class="cls-2" d="M56.29,25.91l0,0c-.21-.16-.5.06-.5.29a.34.34,0,0,0,.5.29l0,0A.32.32,0,0,0,56.29,25.91Z"/>
          <path class="cls-2" d="M54,27.27a.21.21,0,0,0,0,.41A.21.21,0,0,0,54,27.27Z"/>
          <path class="cls-2" d="M52.36,27.49c-.13-.28-.57,0-.42.24l.07.09a.21.21,0,0,0,.28,0A.3.3,0,0,0,52.36,27.49Z"/>
          <path class="cls-2" d="M55.31,21.35l0,0a.31.31,0,0,0-.52-.14.31.31,0,0,0,.14.52l0,0A.3.3,0,0,0,55.31,21.35Z"/>
          <path class="cls-2" d="M56.74,22.26a.18.18,0,0,0-.2,0,.21.21,0,0,0-.09.23s0,0,0,.06a.18.18,0,0,0,.35,0s0,0,0-.06A.23.23,0,0,0,56.74,22.26Z"/>
          <path class="cls-2" d="M58.14,20.63a.3.3,0,0,0-.15.56l0,0a.23.23,0,0,0,.25,0l0,0A.3.3,0,0,0,58.14,20.63Z"/>
          <path class="cls-2" d="M57.87,25a.39.39,0,0,0,0,.78A.39.39,0,0,0,57.87,25Z"/>
          <path class="cls-2" d="M56.92,29.29a.43.43,0,0,0,0,.86A.43.43,0,0,0,56.92,29.29Z"/>
          <path class="cls-2" d="M54.67,31.29a.41.41,0,0,0,0,.81A.41.41,0,0,0,54.67,31.29Z"/>
          <path class="cls-2" d="M52.08,32.89a.17.17,0,0,0,0,.33A.17.17,0,0,0,52.08,32.89Z"/>
          <path class="cls-2" d="M57.34,33.1l-.06,0a.45.45,0,1,0,0,.79l.06,0A.43.43,0,0,0,57.34,33.1Z"/>
          <path class="cls-2" d="M62.16,33a.45.45,0,0,0,0,.89A.45.45,0,0,0,62.16,33Z"/>
          <path class="cls-2" d="M64.89,32.25a.47.47,0,0,0,0,.93A.47.47,0,0,0,64.89,32.25Z"/>
          <path class="cls-2" d="M60.19,33.3h0a.24.24,0,0,0,0,.47h0C60.49,33.8,60.49,33.26,60.19,33.3Z"/>
          <path class="cls-2" d="M60.66,29.48a.24.24,0,0,0,0,.48A.24.24,0,0,0,60.66,29.48Z"/>
          <path class="cls-2" d="M62.43,28.46a.31.31,0,0,0,0,.61A.31.31,0,0,0,62.43,28.46Z"/>
          <path class="cls-2" d="M59.23,23a.21.21,0,0,0,0,.42A.21.21,0,0,0,59.23,23Z"/>
          <path class="cls-2" d="M34,20.46a.48.48,0,0,0,0,.95A.48.48,0,0,0,34,20.46Z"/>
          <path class="cls-2" d="M34.1,23.2a.32.32,0,0,0,0,.64A.32.32,0,0,0,34.1,23.2Z"/>
          <path class="cls-2" d="M34.37,25.33a.3.3,0,0,0,0,.6A.3.3,0,0,0,34.37,25.33Z"/>
          <path class="cls-2" d="M31.44,27.26a.42.42,0,0,0,0,.84A.42.42,0,0,0,31.44,27.26Z"/>
          <path class="cls-2" d="M32.38,31.69h-.06a.57.57,0,0,0,0,1.08h.06a.57.57,0,1,0,0-1.1Z"/>
          <path class="cls-2" d="M35.19,32.56h0a.38.38,0,0,0,0,.72h0C35.81,33.44,35.81,32.4,35.19,32.56Z"/>
          <path class="cls-2" d="M33.69,29.09a.23.23,0,0,0,0,.45A.23.23,0,0,0,33.69,29.09Z"/>
          <path class="cls-2" d="M31,33.88l-.06,0a.35.35,0,0,0,.08.64l0,0a.38.38,0,0,0,.42-.17v0A.36.36,0,0,0,31,33.88Z"/>
          <path class="cls-2" d="M28.2,34.37l0,0a.11.11,0,0,0,0,.15l0,0a.16.16,0,0,0,.27-.11A.16.16,0,0,0,28.2,34.37Z"/>
          <path class="cls-2" d="M25.25,33.39a.35.35,0,0,0,0,.7A.35.35,0,0,0,25.25,33.39Z"/>
          <path class="cls-2" d="M24.68,35.58h0c-.47-.14-.47.7,0,.56h0A.28.28,0,0,0,24.68,35.58Z"/>
          <path class="cls-2" d="M40.12,33.09a.24.24,0,0,0,0-.23.26.26,0,0,0-.47.13.23.23,0,0,0,.29.23.16.16,0,0,0,.17-.08l0,0h0Z"/>
          <path class="cls-2" d="M42,32.55a.3.3,0,0,0,0,.6A.3.3,0,0,0,42,32.55Z"/>
          <path class="cls-2" d="M42.82,35a.28.28,0,0,0,0,.55A.28.28,0,0,0,42.82,35Z"/>
          <path class="cls-2" d="M45.22,34.86h0a.18.18,0,1,0,0,.36h0C45.39,35.18,45.39,34.88,45.22,34.86Z"/>
          <path class="cls-2" d="M49.78,34.37c-.17.28.3.49.41.18A.23.23,0,0,0,49.78,34.37Z"/>
          <path class="cls-2" d="M48.13,34.56a.41.41,0,0,0,0,.81A.41.41,0,0,0,48.13,34.56Z"/>
          <path class="cls-2" d="M54.19,34.89a.28.28,0,0,0,0,.55A.28.28,0,0,0,54.19,34.89Z"/>
          <path class="cls-2" d="M57,35.3a.21.21,0,0,0,0,.42A.21.21,0,0,0,57,35.3Z"/>
          <path class="cls-2" d="M32.6,36.9a.45.45,0,0,0,0,.89A.45.45,0,0,0,32.6,36.9Z"/>
          <path class="cls-2" d="M36.28,34.59a.31.31,0,0,0,0,.61A.31.31,0,0,0,36.28,34.59Z"/>
          <path class="cls-2" d="M37.51,36.22a.38.38,0,0,0,0,.76A.38.38,0,0,0,37.51,36.22Z"/>
          <path class="cls-2" d="M33.76,34.48a.35.35,0,0,0,0,.7A.35.35,0,0,0,33.76,34.48Z"/>
          <path class="cls-2" d="M28.24,36.07a.32.32,0,0,0,0,.64A.32.32,0,0,0,28.24,36.07Z"/>
          <path class="cls-2" d="M22.26,34.39h-.09a.09.09,0,1,0,0,.18h.09a.07.07,0,0,0,.09-.09A.08.08,0,0,0,22.26,34.39Z"/>
          <path class="cls-2" d="M22.66,36.7a.24.24,0,0,0,0,.48A.24.24,0,0,0,22.66,36.7Z"/>
          <path class="cls-2" d="M26.88,37.83a.41.41,0,0,0,0,.81A.41.41,0,0,0,26.88,37.83Z"/>
          <path class="cls-2" d="M30.56,39a.18.18,0,0,0,0,.35A.18.18,0,0,0,30.56,39Z"/>
          <path class="cls-2" d="M30.31,37.64a.32.32,0,0,0-.15-.19.28.28,0,1,0,0,.49A.24.24,0,0,0,30.31,37.64Z"/>
          <path class="cls-2" d="M30.22,35.61s0,.07,0,.07S30.26,35.61,30.22,35.61Z"/>
          <path class="cls-2" d="M30.15,35.07a.14.14,0,0,0-.27,0,0,0,0,0,0,0,0c0,.18.3.18.28,0Z"/>
          <path class="cls-2" d="M24.7,38.47a.17.17,0,0,0,0,.34A.17.17,0,1,0,24.7,38.47Z"/>
          <path class="cls-2" d="M35.39,38.39a.25.25,0,0,0,0,.5A.25.25,0,0,0,35.39,38.39Z"/>
          <path class="cls-2" d="M34.86,36.24h0c-.27-.06-.27.39,0,.33h0A.16.16,0,0,0,34.86,36.24Z"/>
          <path class="cls-2" d="M40.06,36.7h0c-.41-.15-.41.64,0,.49h0A.25.25,0,0,0,40.06,36.7Z"/>
          <path class="cls-2" d="M39.28,34.73a.3.3,0,0,0,0,.6A.3.3,0,0,0,39.28,34.73Z"/>
          <path class="cls-2" d="M37.37,33a.26.26,0,0,0,0,.51A.26.26,0,0,0,37.37,33Z"/>
          <path class="cls-2" d="M44.25,36.94a.27.27,0,0,0,0,.54A.27.27,0,0,0,44.25,36.94Z"/>
          <path class="cls-2" d="M42.82,38.19h-.07a.19.19,0,0,0-.16.28l0,.06a.16.16,0,0,0,.26,0A.17.17,0,0,0,42.82,38.19Z"/>
          <path class="cls-2" d="M47.92,36.76h-.06a.19.19,0,1,0,0,.36h.06a.14.14,0,0,0,.13-.17A.15.15,0,0,0,47.92,36.76Z"/>
          <path class="cls-2" d="M40.64,17a.3.3,0,0,0,0,.6A.3.3,0,0,0,40.64,17Z"/>
          <path class="cls-2" d="M43.23,16.39a.46.46,0,0,0,0,.91A.46.46,0,0,0,43.23,16.39Z"/>
          <path class="cls-2" d="M47.34,16.92a.27.27,0,1,0-.52.14A.27.27,0,0,0,47.34,16.92Z"/>
          <path class="cls-2" d="M49.45,16.87l-.05,0c-.16-.11-.16.27,0,.15l.05,0A.06.06,0,0,0,49.45,16.87Z"/>
          <path class="cls-2" d="M47.59,18.08c-.29.3.26.7.44.34A.28.28,0,0,0,47.59,18.08Z"/>
          <path class="cls-2" d="M42.18,18.15v0a.16.16,0,1,0,0,.16v0A.13.13,0,0,0,42.18,18.15Z"/>
          <path class="cls-2" d="M40.37,18.73a.1.1,0,1,0,0,.19A.1.1,0,0,0,40.37,18.73Z"/>
          <path class="cls-2" d="M38.73,16.74a.25.25,0,0,0,0,.49A.25.25,0,0,0,38.73,16.74Z"/>
          <path class="cls-2" d="M35.39,17.69a.39.39,0,0,0,0,.77A.39.39,0,0,0,35.39,17.69Z"/>
          <path class="cls-2" d="M33.14,19.23h-.07a.23.23,0,1,0,0,.44h.07A.22.22,0,0,0,33.14,19.23Z"/>
          <path class="cls-2" d="M31.32,20.1h0a.14.14,0,0,0-.11,0,.15.15,0,0,0-.09.17.14.14,0,0,0,.09.17.14.14,0,0,0,.11,0h0A.16.16,0,0,0,31.32,20.1Z"/>
          <path class="cls-2" d="M31,22.68l0,0a.07.07,0,0,0,.13,0l0,0C31.24,22.51,30.84,22.51,31,22.68Z"/>
          <path class="cls-2" d="M31.51,23.67a.26.26,0,0,0,0,.52A.26.26,0,0,0,31.51,23.67Z"/>
          <path class="cls-2" d="M59.3,35a.18.18,0,0,0,0,.36A.18.18,0,0,0,59.3,35Z"/>
          <path class="cls-2" d="M58.29,32.57l0-.06a.3.3,0,0,0-.37,0,.2.2,0,0,0-.11.11.3.3,0,0,0,0,.37l.06,0A.3.3,0,0,0,58.29,32.57Z"/>
          <path class="cls-2" d="M61.41,34.69a.34.34,0,0,0,0,.68A.34.34,0,0,0,61.41,34.69Z"/>
          <path class="cls-2" d="M62.84,34.22a.41.41,0,0,0,0,.81A.41.41,0,0,0,62.84,34.22Z"/>
          <path class="cls-2" d="M63.52,31.51a.26.26,0,0,0,0,.51A.26.26,0,0,0,63.52,31.51Z"/>
          <path class="cls-2" d="M64.73,34.63a0,0,0,0,0,0,0,.3.3,0,0,0-.57,0,0,0,0,0,0,0,0C64,35.12,64.88,35.12,64.73,34.63Z"/>
          <path class="cls-3" d="M57.26,51.85c1.46-.32,2.06-1,1.28.82-.65,1.47-1.75,3.25-.37,4.65a2.71,2.71,0,0,1,1.77-1.69,11.37,11.37,0,0,0,.91,5.58,3.36,3.36,0,0,1,1-2.13c.71.76.68,2.55,1.19,3.56a11.45,11.45,0,0,1,2.32-5.21,2.07,2.07,0,0,0,.58,1.9c1.26-2.38,1.39-4.4-.37-6.6.46.34.92.77,1.37,1.11.48-2.15-2.17-3.23-3.38-4.4a5.88,5.88,0,0,0,1.7-.1,4.58,4.58,0,0,0-4.5-1,6.58,6.58,0,0,0-2.26,1.52C58.3,50.11,57.35,51.82,57.26,51.85Z"/>
          <path class="cls-3" d="M32,47.35c-1.63-.28-2.29-.9-1.45.86.69,1.46,1.89,3.22.31,4.67-.19-.86-1.12-1.37-1.94-1.65a10.55,10.55,0,0,1-1.14,5.63,3.06,3.06,0,0,0-1.09-2.11c-.81.78-.82,2.59-1.42,3.61a10.32,10.32,0,0,0-2.47-5.17,2,2,0,0,1-.7,1.93c-1.36-2.36-1.46-4.39.56-6.65-.53.35-1,.8-1.56,1.16-.49-2.15,2.49-3.31,3.87-4.52a6.92,6.92,0,0,1-1.89-.06A5.69,5.69,0,0,1,28.1,44a6.87,6.87,0,0,1,2.5,1.46C30.84,45.64,31.86,47.33,32,47.35Z"/>
          <path class="cls-6" d="M31.79,46.51c-1.5-.19-2.1-.69-1.36.74.61,1.18,1.68,2.6.17,3.83-.16-.69-1-1.1-1.77-1.31a8.05,8.05,0,0,1-1.19,4.66,2.3,2.3,0,0,0-1-1.71c-.77.66-.82,2.14-1.4,3a7.66,7.66,0,0,0-2.19-4.19,1.65,1.65,0,0,1-.69,1.6c-1.21-1.91-1.25-3.57.67-5.48-.49.3-1,.68-1.47,1-.41-1.75,2.4-2.79,3.71-3.81a7.39,7.39,0,0,1-1.76,0,6,6,0,0,1,4.73-1A6.4,6.4,0,0,1,30.57,45C30.79,45.12,31.69,46.5,31.79,46.51Z"/>
          <path class="cls-3" d="M49.27,61.05c-1.63-.2-2.33-.79-1.4.93.77,1.42,2.06,3.12.56,4.65a2.74,2.74,0,0,0-2-1.55,10.54,10.54,0,0,1-.84,5.69,3,3,0,0,0-1.2-2c-.77.82-.67,2.62-1.22,3.67a10.34,10.34,0,0,0-2.75-5,2,2,0,0,1-.59,2C38.32,67,38.11,65,40,62.65c-.5.39-1,.86-1.49,1.24-.6-2.12,2.32-3.44,3.63-4.72a6.8,6.8,0,0,1-1.9,0,5.69,5.69,0,0,1,5-1.36,7,7,0,0,1,2.57,1.33C48.06,59.39,49.16,61,49.27,61.05Z"/>
          <path class="cls-3" d="M22.89,70.64c-1.51-.65-2-1.41-1.61.5.34,1.58,1.08,3.57-.8,4.61A2.71,2.71,0,0,0,19,73.69a10.69,10.69,0,0,1-2.43,5.21A3.08,3.08,0,0,0,16,76.59c-1,.57-1.4,2.32-2.22,3.18a10.27,10.27,0,0,0-1.2-5.61,2,2,0,0,1-1.12,1.71c-.77-2.61-.39-4.61,2.1-6.33-.59.22-1.2.53-1.78.76,0-2.2,3.2-2.64,4.82-3.49a7,7,0,0,1-1.83-.49,5.68,5.68,0,0,1,5.17.12,7,7,0,0,1,2.09,2C22.2,68.71,22.79,70.6,22.89,70.64Z"/>
          <path class="cls-3" d="M54,76.19c1.4-.66,1.86-1.43,1.5.49-.29,1.58-1,3.57.79,4.6a2.7,2.7,0,0,1,1.38-2.07A11,11,0,0,0,60,84.41a3.21,3.21,0,0,1,.5-2.31c.91.56,1.33,2.31,2.11,3.16a11,11,0,0,1,1-5.61,2.08,2.08,0,0,0,1.07,1.7c.69-2.62.32-4.61-2-6.32.55.22,1.12.53,1.66.75,0-2.2-3-2.62-4.53-3.46a5.74,5.74,0,0,0,1.7-.51,5,5,0,0,0-4.82.16,6.6,6.6,0,0,0-1.92,2C54.58,74.25,54.05,76.14,54,76.19Z"/>
          <path class="cls-3" d="M36.37,75.49c-1.65.07-2.43-.4-1.23,1.14,1,1.28,2.52,2.75,1.28,4.51a2.71,2.71,0,0,0-2.25-1.21,10.58,10.58,0,0,1,.09,5.75,3.09,3.09,0,0,0-1.52-1.84c-.62.94-.25,2.7-.62,3.83a10.25,10.25,0,0,0-3.51-4.53,2,2,0,0,1-.27,2c-1.83-2-2.36-4-.86-6.61-.44.46-.85,1-1.28,1.45-.93-2,1.74-3.76,2.83-5.23a7.29,7.29,0,0,1-1.87.35A5.7,5.7,0,0,1,31.88,73a6.77,6.77,0,0,1,2.74.9C34.91,74.05,36.26,75.49,36.37,75.49Z"/>
          <path class="cls-6" d="M57.35,51.39c1.3-.29,1.85-.86,1.14.74-.58,1.33-1.57,2.94-.33,4.21a2.45,2.45,0,0,1,1.58-1.54,10.26,10.26,0,0,0,.81,5,3.05,3.05,0,0,1,.91-1.93c.63.69.6,2.3,1.06,3.21a10.41,10.41,0,0,1,2.08-4.7,1.85,1.85,0,0,0,.52,1.71c1.13-2.15,1.24-4-.32-6,.41.3.81.69,1.22,1,.43-1.94-1.93-2.92-3-4a5,5,0,0,0,1.51-.09,4,4,0,0,0-4-.86,5.66,5.66,0,0,0-2,1.37C58.28,49.83,57.44,51.38,57.35,51.39Z"/>
          <path class="cls-6" d="M49.13,60.51c-1.5-.16-2.13-.68-1.29.84.69,1.24,1.86,2.73.47,4.1-.21-.74-1.08-1.14-1.84-1.35a9.2,9.2,0,0,1-.82,5,2.6,2.6,0,0,0-1.08-1.81c-.71.74-.64,2.33-1.15,3.27A8.8,8.8,0,0,0,41,66.17a1.79,1.79,0,0,1-.56,1.74c-1.33-2-1.5-3.79.25-5.9-.47.34-.92.76-1.38,1.11-.53-1.87,2.15-3.06,3.36-4.2a6.79,6.79,0,0,1-1.73,0,5.4,5.4,0,0,1,4.58-1.24,6.41,6.41,0,0,1,2.34,1.15C48,59.06,49,60.5,49.13,60.51Z"/>
          <path class="cls-6" d="M22.92,69.63c-1.22-.52-1.62-1.12-1.29.38.27,1.24.87,2.8-.64,3.62,0-.69-.62-1.25-1.21-1.62a8.22,8.22,0,0,1-2,4.08,2.35,2.35,0,0,0-.45-1.81c-.79.45-1.13,1.82-1.79,2.49a7.94,7.94,0,0,0-1-4.4,1.58,1.58,0,0,1-.91,1.34,3.89,3.89,0,0,1,1.69-5c-.48.18-1,.42-1.43.59,0-1.72,2.57-2.06,3.88-2.72a5.64,5.64,0,0,1-1.47-.39,4.7,4.7,0,0,1,4.17.1,5.74,5.74,0,0,1,1.68,1.57C22.37,68.11,22.84,69.59,22.92,69.63Z"/>
          <path class="cls-6" d="M53.93,75.43c1.22-.56,1.62-1.2,1.31.4-.26,1.33-.85,3,.69,3.86A2.29,2.29,0,0,1,57.13,78a9,9,0,0,0,2,4.36,2.65,2.65,0,0,1,.44-1.94c.8.47,1.16,1.94,1.84,2.65a8.8,8.8,0,0,1,.93-4.71,1.71,1.71,0,0,0,.93,1.43c.6-2.2.28-3.87-1.76-5.3.48.19,1,.44,1.46.63,0-1.85-2.63-2.19-4-2.89a5.52,5.52,0,0,0,1.49-.43,4.56,4.56,0,0,0-4.22.13,5.79,5.79,0,0,0-1.68,1.7C54.47,73.8,54,75.39,53.93,75.43Z"/>
          <path class="cls-6" d="M36,74.72c-1.46.1-2.13-.27-1.12,1,.83,1,2.15,2.22,1,3.71a2.28,2.28,0,0,0-2-.94,8.3,8.3,0,0,1-.08,4.78,2.39,2.39,0,0,0-1.28-1.49C32,82.57,32.33,84,32,85a7.86,7.86,0,0,0-3-3.68,1.67,1.67,0,0,1-.29,1.7c-1.56-1.64-2-3.26-.59-5.49-.4.39-.77.85-1.16,1.24-.77-1.63,1.63-3.17,2.63-4.43a6.65,6.65,0,0,1-1.65.34,5.47,5.47,0,0,1,4.2-1.91,6.08,6.08,0,0,1,2.39.68C34.78,73.56,35.93,74.73,36,74.72Z"/>
          <path class="cls-6" d="M83.58,14.06a5.23,5.23,0,0,0-1.94,3.28s0,.07,0,.11a5.41,5.41,0,0,1-.53-1.08,5.83,5.83,0,0,1,.59-4.12c.23-.4-.35-.72-.61-.35a6.76,6.76,0,0,0-1.38,3.7,4.61,4.61,0,0,1-.42-.83c-.35-.93-.87-2.08-.5-3.07.12-.31-.36-.49-.52-.22A4.29,4.29,0,0,0,78,15.12c0,.1.06.21.1.32a6.38,6.38,0,0,1-.95-1.1,5.49,5.49,0,0,1-1.1-3.26c0-.28-.41-.33-.47-.07a6.88,6.88,0,0,0,.27,3.65,2.44,2.44,0,0,1-.29-.27A5.48,5.48,0,0,1,74,11.18a.34.34,0,0,0-.68,0,5.24,5.24,0,0,0,.87,3.71l.28.38a7.78,7.78,0,0,1-.82-.36,5.46,5.46,0,0,1-2.45-2.62.34.34,0,0,0-.66.19,5.18,5.18,0,0,0,1.87,3.23,5.37,5.37,0,0,1-.7-.11,5.43,5.43,0,0,1-3-1.89.34.34,0,0,0-.58.35,5.16,5.16,0,0,0,2.7,2.68c1,.44,2.55.91,3.43,0a1.87,1.87,0,0,0,1.57-.1.43.43,0,0,0,.12-.11,1.72,1.72,0,0,0,1.2.17.51.51,0,0,0,.2-.12,2.17,2.17,0,0,0,1.23.32.41.41,0,0,0,.27-.1,1.75,1.75,0,0,0,1.12.75H80A2.16,2.16,0,0,0,81.56,19a2.05,2.05,0,0,0,.9,1.67.42.42,0,0,0,.61-.25A9.94,9.94,0,0,0,83,18a5.44,5.44,0,0,1,1.09-3.42A.34.34,0,0,0,83.58,14.06Z"/>
          <path class="cls-3" d="M48.74,17.37c-.32-.39-2.18-.23-2.85-.41a3.06,3.06,0,0,1-2.43-1.87c.59-.08,1.23-.09,1.79-.12a4.22,4.22,0,0,1-1.74-5.41c.64.65,1.47.81,2.14,1.36-1.42-2.92.91-7.33,3.81-8.28-.75.44-.78,1.27-.84,2,1.26-.46,2.31-1.56,3.72-1.94A8.41,8.41,0,0,1,57,2.6c-1.15,1-3,1.33-3.72,2.91,2.13-.35,4-1,6,.39a6.25,6.25,0,0,0-3.3,2c1.3-.25,3.76-.26,4.36,1.22-1.21.39-2.7.15-3.41,1.51,1.36.17,3.51.93,3.88,2.46-.54.22-1.38-.3-1.94-.41a3,3,0,0,0-2.48.2,3.77,3.77,0,0,1,1.53,1.56c-1.27-.43-4.16-1.14-5.08.44a4.25,4.25,0,0,1,2.61,1.6,4.05,4.05,0,0,0-3.4.32c.78.08,1.57,1,1.19,1.72a6.82,6.82,0,0,0-2.52-.43c-.64,0-1.75.19-1.91-.59Z"/>
          <path class="cls-6" d="M48.27,17.18c-.24-.28-1.62-.16-2.12-.29a2.28,2.28,0,0,1-1.8-1.4c.44-.06.91-.06,1.33-.08a3.14,3.14,0,0,1-1.29-4c.47.48,1.09.61,1.58,1-1-2.17.68-5.44,2.84-6.14-.56.33-.59.94-.63,1.51.94-.35,1.71-1.17,2.76-1.44a6.22,6.22,0,0,1,3.42-.1c-.85.72-2.21,1-2.76,2.16,1.59-.27,3-.78,4.45.29a4.58,4.58,0,0,0-2.45,1.48c1-.18,2.79-.2,3.24.91-.9.29-2,.11-2.53,1.11,1,.13,2.6.7,2.88,1.83-.41.16-1-.22-1.44-.3a2.22,2.22,0,0,0-1.84.14A2.89,2.89,0,0,1,55.05,15c-.95-.32-3.09-.84-3.78.33a3.2,3.2,0,0,1,1.94,1.18,3,3,0,0,0-2.52.25c.58.05,1.16.74.88,1.27a5,5,0,0,0-1.87-.32c-.47,0-1.3.14-1.42-.44Z"/>
          <path class="cls-6" d="M75.16,21.52a22.24,22.24,0,0,1,8.44,1.53,5.55,5.55,0,0,0,.06-.82,7.12,7.12,0,0,0-14.2-.06A24.31,24.31,0,0,1,75.16,21.52Z"/>
          <path class="cls-10" d="M75.41,21.11a18.38,18.38,0,0,1,6.92,1.26c0-.22,0-.44,0-.67a5.82,5.82,0,0,0-11.62-.05A20,20,0,0,1,75.41,21.11Z"/>
          <path class="cls-6" d="M33.56,56.14c0-.11-.14-.18-.19-.08a8,8,0,0,0-.91,2.39,24.49,24.49,0,0,0,0,3.83c0,.1.17.11.17,0a30.06,30.06,0,0,1,0-3.15A13.15,13.15,0,0,1,33.56,56.14Z"/>
          <path class="cls-6" d="M35.19,57.6a.17.17,0,0,0-.3-.13,5.31,5.31,0,0,0-.17,5.5s.13,0,.12,0a17.42,17.42,0,0,1-.19-2.5A16.24,16.24,0,0,1,35.19,57.6Z"/>
          <path class="cls-6" d="M38,54.41a.31.31,0,0,0-.52-.22,4.33,4.33,0,0,0-.18,4.62.15.15,0,0,0,.28-.11,10.14,10.14,0,0,1,.25-2C37.84,55.92,37.93,55.17,38,54.41Z"/>
          <path class="cls-6" d="M35.46,52a.19.19,0,0,0-.26-.06,3,3,0,0,0-1.11,3s0,0,.06,0a10.4,10.4,0,0,1,.79-1.65C35.13,52.9,35.79,52.43,35.46,52Z"/>
          <path class="cls-6" d="M25.86,60.61A2.82,2.82,0,0,0,25,63.33a.21.21,0,0,0,.42,0A4,4,0,0,1,25.75,62a5.68,5.68,0,0,0,.49-1.1C26.27,60.7,26.06,60.48,25.86,60.61Z"/>
          <path class="cls-6" d="M20.65,60.84a.31.31,0,0,0-.45-.27,3.22,3.22,0,0,0-.84,3.66.24.24,0,0,0,.41,0,4.46,4.46,0,0,0,.49-1.55A5.94,5.94,0,0,0,20.65,60.84Z"/>
          <path class="cls-6" d="M20.09,56.73c-.54,0-.86.53-1,1s-.17,1,.2,1.22h.09c.29-.18.38-.58.54-.87a2.64,2.64,0,0,0,.51-1A.31.31,0,0,0,20.09,56.73Z"/>
          <path class="cls-6" d="M27.13,68.18c0-1,.48-1.94.12-2.85a.36.36,0,0,0-.6-.16c-.88.75-.9,2.33-.77,3.4a3.81,3.81,0,0,0,1.33,2.64c.13.1.3-.06.26-.2A12.81,12.81,0,0,1,27.13,68.18Z"/>
          <path class="cls-6" d="M41.82,74.11a.33.33,0,0,0-.46,0c-.63.52-.79,1.83-.89,2.6s-.32,1.84.54,2a.21.21,0,0,0,.26-.15c.08-.31.27-.63.37-.93s.2-.88.3-1.3C42.12,75.66,42.43,74.69,41.82,74.11Z"/>
          <path class="cls-6" d="M44.94,72.17a.29.29,0,0,0-.49.2,19.13,19.13,0,0,0,.28,3.36,8,8,0,0,0,.46,2.79.23.23,0,0,0,.4,0C46.36,76.86,46.44,73.46,44.94,72.17Z"/>
          <path class="cls-6" d="M50,74.65c-.07-.64-.57-1.79-1.4-1.45-.57.23-.23,1.44-.15,1.87a12.83,12.83,0,0,0,1.11,4,.22.22,0,0,0,.4-.1c0-.74.26-1.47.27-2.23A15.49,15.49,0,0,0,50,74.65Z"/>
          <path class="cls-6" d="M52,69.27c-.06-.71-.17-1.9-1.06-2a.32.32,0,0,0-.34.14c-.39.58-.11,1.46,0,2.1s.49,1.45.67,2.22a.39.39,0,0,0,.75,0A9.8,9.8,0,0,0,52,69.27Z"/>
          <path class="cls-6" d="M55.16,61.07c-.36-.89-.82-2.7-2-2.6a.27.27,0,0,0-.25.34A14.21,14.21,0,0,0,54,61.54c.63,1.45,1.3,2.92,1.82,4.41,0,0,0,0,0,0A8.41,8.41,0,0,0,55.16,61.07Z"/>
          <path class="cls-6" d="M49,53.77a.26.26,0,0,0-.32.32c.21.85.92,1.5,1.15,2.37.08.31.61.25.57-.08C50.3,55.44,50,54.08,49,53.77Z"/>
          <path class="cls-6" d="M54.6,52.68a1.35,1.35,0,0,0-.44-1,.17.17,0,0,0-.28.08A2.49,2.49,0,0,0,54,52.92c.14.42.19.87.31,1.3s.54.17.48-.14A8.3,8.3,0,0,1,54.6,52.68Z"/>
          <path class="cls-6" d="M59.16,64.35a.31.31,0,0,0-.54,0,4.09,4.09,0,0,0-.13,2.06,12,12,0,0,0,.36,2.6.18.18,0,0,0,.35,0,10.18,10.18,0,0,0,.31-2.28A3.93,3.93,0,0,0,59.16,64.35Z"/>
          <path class="cls-6" d="M41.35,83.11a3.85,3.85,0,0,0-.09-.76c0-.49.13-1-.11-1.46a.26.26,0,0,0-.34-.09c-1.12.79-.19,2.4.5,3.13,0,0,0,0,0,0A2.33,2.33,0,0,1,41.35,83.11Z"/>
          <path class="cls-6" d="M45.24,82.15c0-.71.64-1.38-.08-1.93a.33.33,0,0,0-.32,0c-.78.34-.91,1.44-.84,2.17,0,.39.16.78.24,1.17s.41.55.61.9a.32.32,0,0,0,.6-.16,5.49,5.49,0,0,0-.14-.89C45.27,83,45.27,82.56,45.24,82.15Z"/>
          <path class="cls-6" d="M48,82.79a1.68,1.68,0,0,0-.41-1.56.2.2,0,0,0-.21,0A1.68,1.68,0,0,0,47,82.79a2.21,2.21,0,0,0,.61,1.42.24.24,0,0,0,.37,0C48.22,83.77,48,83.23,48,82.79Z"/>
          <path class="cls-6" d="M24.37,77.75c0-.33-.38-.42-.59-.25a2.83,2.83,0,0,0-1,2.44A2.68,2.68,0,0,0,23.72,82a.08.08,0,0,0,.09,0c.43-.39.17-1.24.14-1.76A18.61,18.61,0,0,1,24.37,77.75Z"/>
          <path class="cls-6" d="M31.33,68.08c-.51-.23-.89.28-1.11.69A2.31,2.31,0,0,0,30,70.2a.23.23,0,0,0,.44,0c.18-.7,1-1.16,1.07-1.87A.29.29,0,0,0,31.33,68.08Z"/>
          <path class="cls-6" d="M34.39,69.23c0-.47-.12-1.62-.8-1.62S33,68.58,33,69a3.82,3.82,0,0,0,.47,2.19.39.39,0,0,0,.55,0A2.92,2.92,0,0,0,34.39,69.23Z"/>
          <path class="cls-6" d="M37.85,69.84A3.39,3.39,0,0,0,37,67.7a.49.49,0,0,0-.81.22,11.09,11.09,0,0,0,.23,2.86c0,.58.05,1.3.75,1.44a.53.53,0,0,0,.65-.64,1.59,1.59,0,0,1,.09-.6A4,4,0,0,0,37.85,69.84Z"/>
          <path class="cls-6" d="M30.61,58.13A.3.3,0,0,0,30.1,58c-.85.8-.72,2.3-.6,3.36.05.36.08,1.12.55,1.17a.12.12,0,0,0,.09-.21,10.21,10.21,0,0,1,.26-1.53A10.86,10.86,0,0,0,30.61,58.13Z"/>
          <path class="cls-6" d="M18.68,80.7a.45.45,0,0,0-.82-.1,4.22,4.22,0,0,0-.1,2.85.24.24,0,0,0,.46,0c.09-.44.19-.87.27-1.3A3.27,3.27,0,0,0,18.68,80.7Z"/>
          <path class="cls-6" d="M14.91,81.1a.37.37,0,0,0-.43-.18c-.47.09-.66.6-.69,1a4.21,4.21,0,0,0,.06.79c.05.28.27.45.37.72s.42.25.47,0a8.2,8.2,0,0,0,.15-1.2C14.85,81.83,15.09,81.5,14.91,81.1Z"/>
          <path class="cls-6" d="M10.75,76.93a4.24,4.24,0,0,0-1,2,4.91,4.91,0,0,0-.17,1.13c0,.47.17.5.38.88a.18.18,0,0,0,.33,0c0-.08,0-.34,0-.41.16-.33.26-.69.39-1a7.57,7.57,0,0,0,.72-2.28A.42.42,0,0,0,10.75,76.93Z"/>
          <path class="cls-6" d="M42.3,51.87a.26.26,0,0,0-.41.05,2.88,2.88,0,0,0-.31,1.85A6,6,0,0,0,42,56c.17.42.86.41.85-.12C42.78,54.68,43.37,52.74,42.3,51.87Z"/>
          <path class="cls-6" d="M38.89,48.11c-.71.28-.69,1.38-.52,2a4.22,4.22,0,0,0,.84,1.82,0,0,0,0,0,0,0,4.31,4.31,0,0,1,.14-.85,7,7,0,0,0,0-1.29C39.39,49.55,39.69,47.8,38.89,48.11Z"/>
          <path class="cls-6" d="M35.69,46.49c-.62.09-1,.89-1.27,1.41a1.88,1.88,0,0,0,.24,2,.16.16,0,0,0,.22,0,1.76,1.76,0,0,0,.38-.79,3.32,3.32,0,0,1,.44-1.07A2.26,2.26,0,0,0,36.1,47C36.12,46.8,35.91,46.47,35.69,46.49Z"/>
          <path class="cls-6" d="M22.71,42.21c-1.8.13-3.06,2.74-2.84,4.36,0,.09.15.08.18,0a5.81,5.81,0,0,1,1.18-2c.55-.64,1.32-1.09,1.83-1.75A.41.41,0,0,0,22.71,42.21Z"/>
          <path class="cls-6" d="M19.49,50.88a6.05,6.05,0,0,0-3.28,2.39c-.47.61-1.71,2.17-1,3h0a4.21,4.21,0,0,0,.64-.92,12.22,12.22,0,0,1,1.37-1.71c.74-.87,1.91-1.42,2.52-2.37A.27.27,0,0,0,19.49,50.88Z"/>
          <path class="cls-6" d="M19.49,48.43c-1.22-.24-2.38,1.26-3,2.07a.16.16,0,1,0,.22.22,12.89,12.89,0,0,1,1.49-1,8.35,8.35,0,0,0,1.44-.87A.22.22,0,0,0,19.49,48.43Z"/>
          <path class="cls-6" d="M19.3,43.29a3.36,3.36,0,0,0-1.78.89c-.62.46-.88,1.28-1.52,1.66A.06.06,0,0,0,16,46a3.73,3.73,0,0,0,1.55-.78c.66-.39,1.6-.79,1.93-1.52A.24.24,0,0,0,19.3,43.29Z"/>
          <path class="cls-6" d="M21.67,39.31c-.83-2-4.37.85-4.89,1.85a0,0,0,0,0,0,0,11.67,11.67,0,0,0,2.25-.88,9.78,9.78,0,0,1,2.41-.55A.32.32,0,0,0,21.67,39.31Z"/>
          <path class="cls-6" d="M17.29,60.76C16.66,59.55,15,60,14,60.45c-.62.27-2.15.95-1.87,1.86a.13.13,0,0,0,.15.08,17.78,17.78,0,0,0,2-.62,14.33,14.33,0,0,1,2.83-.42A.4.4,0,0,0,17.29,60.76Z"/>
          <path class="cls-6" d="M13.92,64a1.93,1.93,0,0,0-1.67-.31c-.69.12-1.19.78-1.69,1.22-.28.24.08.64.38.49a4.88,4.88,0,0,1,1.67-.65,2.37,2.37,0,0,0,1.31-.33A.25.25,0,0,0,13.92,64Z"/>
          <path class="cls-6" d="M11.28,70.76c-1.66-.74-3.6.6-4.85,1.63-.35.29-2.6,2.78-2.08,3.15l.05,0a.17.17,0,0,0,.17,0c1.06-.75,1.74-1.85,2.82-2.61a39.62,39.62,0,0,1,3.89-1.87A.21.21,0,0,0,11.28,70.76Z"/>
          <path class="cls-6" d="M8.82,77.09c-.86-.86-2.15.56-2.64,1.21s-1.59,2.23-.89,3a.18.18,0,0,0,.24,0,5.86,5.86,0,0,0,.8-1c.29-.37.56-.75.83-1.13a4.46,4.46,0,0,1,.94-.9c.34-.26.67-.32.82-.76A.37.37,0,0,0,8.82,77.09Z"/>
          <path class="cls-6" d="M64.58,70.11c-.39-.11-.53-.5-.74-.8s-.47-.73-.72-1.09c-.4-.59-.84-1.34-1.61-1.44a.21.21,0,0,0-.21.21,2,2,0,0,0,.54,1.07l1,1.33c.43.59.93,1.25,1.72,1A.17.17,0,0,0,64.58,70.11Z"/>
          <path class="cls-6" d="M73.3,79.18c-1.25-2.34-4.36-3.55-6.93-3.33a.2.2,0,0,0-.14.33c.77.75,1.91.86,2.88,1.22a8.1,8.1,0,0,1,2.12,1.16,16.79,16.79,0,0,1,1.61,1,.25.25,0,0,0,.43,0s0,0,0-.05A.31.31,0,0,0,73.3,79.18Z"/>
          <path class="cls-6" d="M68.08,79.84c-.21-.43-.48-.94-1-1a.25.25,0,0,0-.31.17,1.72,1.72,0,0,0,.45,1.35,2.81,2.81,0,0,0,1.08,1.11.2.2,0,0,0,.25-.18A3.24,3.24,0,0,0,68.08,79.84Z"/>
          <path class="cls-6" d="M55.05,82.88c.08-.64-.36-1.25-.54-1.83A2,2,0,0,0,53,79.46a.24.24,0,0,0-.25.25c.08.67.65,1.17.87,1.8a8.3,8.3,0,0,0,1,1.58.21.21,0,0,0,.28.07l.11,0A.15.15,0,0,0,55.05,82.88Z"/>
          <path class="cls-6" d="M53.1,75.75a1.9,1.9,0,0,0-.52-1.47c-.12-.1-.28,0-.33.13a2.65,2.65,0,0,0,.06,1.45c.06.33.38.55.46.9a.23.23,0,0,0,.45-.06A7,7,0,0,0,53.1,75.75Z"/>
          <path class="cls-6" d="M53.45,64.27a4.87,4.87,0,0,0-1.49-2,.29.29,0,0,0-.43.24c0,.78.57,1.37,1,2,.51.78,1,1.6,1.42,2.42.08.15.3,0,.26-.11A11.9,11.9,0,0,0,53.45,64.27Z"/>
          <path class="cls-6" d="M58.06,59.13a4.11,4.11,0,0,0-1-2.23.38.38,0,0,0-.63.16,4,4,0,0,0,.43,2.15,3,3,0,0,0,.93,1.46.11.11,0,0,0,.14,0C58.33,60.27,58.15,59.62,58.06,59.13Z"/>
          <path class="cls-6" d="M46.18,56.35s0,0,0,0A0,0,0,0,0,46.18,56.35Z"/>
          <path class="cls-6" d="M47.4,50.83a.32.32,0,0,0-.58-.25c-1.2,1.61-1.81,4.05-.79,5.88a.17.17,0,0,0,.31-.13,7.07,7.07,0,0,1,.14-2.67C46.65,52.65,47.25,51.82,47.4,50.83Z"/>
          <path class="cls-6" d="M50.46,50.81a.23.23,0,0,0-.33-.13c-.8.6-.5,1.72-.42,2.55a.14.14,0,0,0,.27,0,9.59,9.59,0,0,1,.24-1.3C50.31,51.55,50.56,51.22,50.46,50.81Z"/>
          <path class="cls-6" d="M52.33,53.28a.24.24,0,0,0-.36.15,6.1,6.1,0,0,0,0,1.42,10.36,10.36,0,0,0,.27,1.83.16.16,0,0,0,.3,0C52.61,55.8,53.36,53.88,52.33,53.28Z"/>
          <path class="cls-6" d="M56.51,69.82a1.74,1.74,0,0,1,0-.85,1.29,1.29,0,0,0-.2-1,.19.19,0,0,0-.26,0,1.49,1.49,0,0,0-.17,1.26,1.42,1.42,0,0,0,.48.79A.12.12,0,0,0,56.51,69.82Z"/>
          <path class="cls-6" d="M25.81,72.64a.51.51,0,0,0-.92-.12,2.05,2.05,0,0,0-.09,2.34.38.38,0,0,0,.54,0,2,2,0,0,0,.39-1A2.22,2.22,0,0,0,25.81,72.64Z"/>
          <path class="cls-6" d="M30,65.72c-.64.43-.61,1.11-.54,1.8a.2.2,0,0,0,.4,0,11.43,11.43,0,0,1,.3-1.67C30.18,65.76,30.08,65.67,30,65.72Z"/>
          <path class="cls-6" d="M24.23,65c-.51.14-.67.61-.92,1a1.33,1.33,0,0,0-.18,1.3.11.11,0,0,0,.21,0,3.6,3.6,0,0,1,.62-.93,3,3,0,0,0,.52-1.15A.21.21,0,0,0,24.23,65Z"/>
          <path class="cls-6" d="M22.94,62.77c-.47-.27-.9.32-1.13.65a2.1,2.1,0,0,0-.43,1.52c0,.16.25.13.3,0a4.59,4.59,0,0,1,.76-1.15c.2-.28.58-.49.59-.86A.16.16,0,0,0,22.94,62.77Z"/>
          <path class="cls-6" d="M24.27,57.89c-.54-.27-1.1.25-1.46.61s-.57.79-.37,1.11a.16.16,0,0,0,.26,0l.64-.61a4.42,4.42,0,0,1,.47-.39,1.54,1.54,0,0,0,.54-.44A.24.24,0,0,0,24.27,57.89Z"/>
          <path class="cls-6" d="M12.77,68c-.15-.87-1.47-1.06-2.18-.94a2.21,2.21,0,0,0-1.06.43c-.1.09-.21.18-.21.32s.07.12,0,.15a.12.12,0,0,0,0,.23.3.3,0,0,0,.29,0c.25-.13.44-.06.73-.08a2.92,2.92,0,0,1,1.14,0c.39.1.69.31,1.09.2A.3.3,0,0,0,12.77,68Z"/>
          <path class="cls-6" d="M23.44,85.49c-.24-.36-.08-.8-.15-1.2s0-1-.33-1.29a.18.18,0,0,0-.24,0c-.4.36-.24,1-.14,1.49a2.3,2.3,0,0,0,.49,1.29C23.25,86,23.59,85.72,23.44,85.49Z"/>
          <path class="cls-6" d="M26,83.84a1.15,1.15,0,0,0-.31-.86.17.17,0,0,0-.2,0c-.23.19-.16.57-.09.82a3.59,3.59,0,0,0,.12.47c.06.16.18.28.24.43s.19.12.21,0A5.15,5.15,0,0,0,26,83.84Z"/>
          <path class="cls-6" d="M29.43,41.79a.81.81,0,0,0-.6.11,1.38,1.38,0,0,0-.47.52,1.33,1.33,0,0,0-.16,1.27.32.32,0,0,0,.51.07c-.16.16.12-.06.13-.07a1.74,1.74,0,0,0,.18-.22c0-.08.15-.26.21-.38.15-.29.34-.65.43-.89A.34.34,0,0,0,29.43,41.79Z"/>
          <path class="cls-6" d="M32.49,42.8a1.22,1.22,0,0,0-.73.71,2,2,0,0,0-.11,1.26.24.24,0,0,0,.47,0c.08-.28.19-.58.29-.86a5.2,5.2,0,0,0,.34-.85A.21.21,0,0,0,32.49,42.8Z"/>
          <path class="cls-6" d="M36.13,41a.25.25,0,0,0-.42.1,6.37,6.37,0,0,0-.19,1.51A2.14,2.14,0,0,0,36,44.14c.07.12.31.08.29-.08C36.12,43.11,37,41.78,36.13,41Z"/>
          <path class="cls-6" d="M38.89,45.32a1.86,1.86,0,0,0-.59-1.61.25.25,0,0,0-.24,0c-.54.39-.38,1-.33,1.61a1.56,1.56,0,0,0,.57,1.34.27.27,0,0,0,.34,0,.56.56,0,0,0,.19-.57A5.46,5.46,0,0,1,38.89,45.32Z"/>
          <path class="cls-6" d="M42.37,47.55a1.13,1.13,0,0,0-.62-1.14.31.31,0,0,0-.32,0,1.28,1.28,0,0,0-.36,1,4,4,0,0,0,.21,1.89.51.51,0,0,0,.88,0A4.33,4.33,0,0,0,42.37,47.55Z"/>
          <path class="cls-6" d="M45.62,47.34a.23.23,0,0,0-.22-.17.17.17,0,0,0-.12,0,.23.23,0,0,0-.11.2,4.53,4.53,0,0,0,.08.89c0,.12.22.87.09.93a.09.09,0,0,0,0,.17C46.12,49.51,45.73,47.66,45.62,47.34Z"/>
          <path class="cls-6" d="M50.87,49a4.22,4.22,0,0,1-.21-.69.49.49,0,0,0-.37-.34c-.44-.12-.52.58-.55.84s.26.64.33.91.17.56.26.85a.18.18,0,0,0,.35,0A2.32,2.32,0,0,0,50.87,49Z"/>
          <path class="cls-6" d="M55,48.18a.14.14,0,0,0-.24,0c-.15.28,0,.46,0,.75a13.65,13.65,0,0,0,.14,1.42.12.12,0,0,0,.24,0C55.17,49.61,55.43,48.82,55,48.18Z"/>
          <path class="cls-6" d="M53.21,49.17a.35.35,0,0,0-.44-.34,1.82,1.82,0,0,0-.41,3,.22.22,0,0,0,.22,0c.41-.31.31-.69.32-1.14S53.28,49.71,53.21,49.17Z"/>
          <path class="cls-6" d="M58.06,47.29a.63.63,0,0,0-1.21,0A2.18,2.18,0,0,0,57,48.6c.06.14.29.49.49.4C58.1,48.76,58.14,47.81,58.06,47.29Z"/>
        </g>
      </g>
    </g>
  </g>
</svg>
