<svg xmlns="http://www.w3.org/2000/svg" width="95" height="90" viewBox="0 0 95 90">
  <defs>
    <style>
      .cls-1 {
        isolation: isolate;
      }

      .cls-2 {
        fill: #d0d2f5;
      }

      .cls-3 {
        fill: #d60051;
      }

      .cls-4, .cls-5 {
        fill: #f0d907;
      }

      .cls-4 {
        mix-blend-mode: multiply;
      }

      .cls-6 {
        fill: #fff;
      }

      .cls-7 {
        fill: #e8e8e8;
      }

      .cls-8 {
        fill: #820098;
      }

      .cls-9 {
        fill: #faffb2;
      }

      .cls-10 {
        fill: #361308;
      }
    </style>
  </defs>
  <g class="cls-1">
    <g id="Ñëîé_1" data-name="Ñëîé 1">
      <g>
        <path class="cls-2" d="M89.4,24.43a20.62,20.62,0,0,1,4,1.67c-.16,4.35-2.45,9.87-7,11.59a7.73,7.73,0,0,1,2.46,1.81,10.68,10.68,0,0,1-11.27,2.94,17.41,17.41,0,0,1-9.5-7c-2.85-4.63,2.41-9,6.53-10.67A21.09,21.09,0,0,1,89.4,24.43Z"/>
        <path class="cls-2" d="M23.13,3.54a19.3,19.3,0,0,0-3.95-1.32C16.58,5.38,14.8,10.71,17,14.75a7.43,7.43,0,0,0-2.9-.26,10.2,10.2,0,0,0,6.31,9.1,16.8,16.8,0,0,0,11.26,1c4.95-1.49,3.85-7.85,1.93-11.6A20.33,20.33,0,0,0,23.13,3.54Z"/>
        <g>
          <g>
            <path class="cls-3" d="M66.61,53.27c-1.49-.58-3.93-2.58-3.92-4.43h0a15.11,15.11,0,0,0,5.92-14.57C67.35,26.49,61.87,20,53.94,18.8c-8.69-1.33-19,1.69-24.68,8.54C23.69,34,21.08,42.2,22.51,50.39s6.67,16.11,15,19.3a43.73,43.73,0,0,0,24.82,1.45c8.89-2.2,18-8.11,22.16-16.42a42.7,42.7,0,0,0,2.31-5.86C81.19,53.38,73.74,56,66.61,53.27Z"/>
            <g>
              <path class="cls-4" d="M48.06,46.6a8.19,8.19,0,0,1-8.18-8.18,8,8,0,0,1,.12-1.3,8.17,8.17,0,1,1,8.06,9.48Z"/>
              <path class="cls-5" d="M48.06,46.6a8.19,8.19,0,0,1-8.18-8.18,8,8,0,0,1,.12-1.3,8.17,8.17,0,1,1,8.06,9.48Z"/>
              <g>
                <g>
                  <path class="cls-6" d="M41.3,38.42a6.76,6.76,0,1,0,6.76-6.76A6.76,6.76,0,0,0,41.3,38.42Z"/>
                  <path class="cls-7" d="M41.55,36.69A6.72,6.72,0,0,0,54.77,38c0,.14,0,.27,0,.41a6.76,6.76,0,1,1-13.51,0A6.63,6.63,0,0,1,41.55,36.69Z"/>
                </g>
                <g>
                  <path d="M45.54,39.67a3.37,3.37,0,1,0-.29-4.75A3.36,3.36,0,0,0,45.54,39.67Z"/>
                  <path class="cls-6" d="M47.11,36.56a1.34,1.34,0,1,0-.11-1.9A1.34,1.34,0,0,0,47.11,36.56Z"/>
                </g>
              </g>
            </g>
            <path class="cls-8" d="M33.39,37.91s0,.18-.1.5A11.22,11.22,0,0,0,33,39.79c0,.29-.11.6-.13.94s0,.73-.07,1.12,0,.82,0,1.26.07.91.17,1.38A12,12,0,0,0,33.33,46a13.33,13.33,0,0,0,.5,1.51,15.61,15.61,0,0,0,1.61,3.07,16.33,16.33,0,0,0,2.48,2.81,19,19,0,0,0,3.15,2.3,20,20,0,0,0,3.58,1.57A17.19,17.19,0,0,0,52,57.9c.28,0,.56-.07.83-.12l.81-.17c.53-.1,1-.28,1.51-.41l.35-.11L55.8,57l.66-.27a10.12,10.12,0,0,0,1.19-.55,18.33,18.33,0,0,0,1.87-1.06c.51-.32.88-.61,1.15-.79l.4-.29.28.32-.36.34c-.25.22-.59.58-1.06,1l-.81.63a9.17,9.17,0,0,1-1,.69,12.07,12.07,0,0,1-1.19.71l-.67.34-.35.18-.37.15a14.15,14.15,0,0,1-1.59.58l-.85.26-.91.19a16.52,16.52,0,0,1-3.91.33,19.63,19.63,0,0,1-4.17-.61,20.2,20.2,0,0,1-4.06-1.61A20,20,0,0,1,36.44,55a18.92,18.92,0,0,1-2.85-3.17,15.51,15.51,0,0,1-1.88-3.57,14,14,0,0,1-.5-1.81c-.05-.3-.13-.59-.15-.89s0-.58-.07-.86a5.61,5.61,0,0,1,0-.82l0-.79c.06-.51.14-1,.22-1.43s.24-.84.35-1.21.29-.7.41-1a5.14,5.14,0,0,1,.39-.75c.12-.2.23-.38.32-.51l.28-.43Z"/>
            <g>
              <path class="cls-9" d="M34.2,52.62c-.21-.26-.41-.53-.61-.8a13.51,13.51,0,0,1-.78-1.24l-.39.28a2.23,2.23,0,0,0-.51.6,2.38,2.38,0,0,0-.26.66,3.5,3.5,0,0,0-.11.78,1.6,1.6,0,0,0,.49.17,2.74,2.74,0,0,0,1.32-.1C33.66,52.86,33.94,52.74,34.2,52.62Z"/>
              <path class="cls-9" d="M48.28,59.7A16.72,16.72,0,0,1,46,59.47,10.56,10.56,0,0,0,45.89,61a2.36,2.36,0,0,0,.56,1.36,3.21,3.21,0,0,0,.37.41l.17.14a2.41,2.41,0,0,0,1.13-1.41,8,8,0,0,0,.38-1.8Z"/>
              <path class="cls-9" d="M53.1,59.18l-.91.19c-.31.07-.62.12-.95.17a9.64,9.64,0,0,0,.46,1.63,2.31,2.31,0,0,0,.95,1.12,3.43,3.43,0,0,0,.7.35A2.39,2.39,0,0,0,54,60.93,8.28,8.28,0,0,0,53.73,59Z"/>
              <path class="cls-9" d="M61.67,56.79a8.44,8.44,0,0,0-1.12-1.71l-.62.56-.81.63a6.41,6.41,0,0,1-.57.41A9.46,9.46,0,0,0,59.75,58a2.49,2.49,0,0,0,1.37.59,3,3,0,0,0,.75,0A2.32,2.32,0,0,0,61.67,56.79Z"/>
              <path class="cls-9" d="M58.48,56.73l-.36.23a12.07,12.07,0,0,1-1.19.71l-.67.34a10.31,10.31,0,0,0,1,1.46,1.72,1.72,0,0,0,.6.51,2.48,2.48,0,0,0,.65.25,3,3,0,0,0,.76.1,1.47,1.47,0,0,0,.17-.48,2.58,2.58,0,0,0-.11-1.3A8.38,8.38,0,0,0,58.48,56.73Z"/>
              <path class="cls-9" d="M31.28,41.48c.1-.37.21-.72.31-1s.29-.7.41-1a.3.3,0,0,0,0-.08,2.46,2.46,0,0,0-1.23.28,4.55,4.55,0,0,0-.49.29l-.17.15A2.32,2.32,0,0,0,31.28,41.48Z"/>
              <path class="cls-9" d="M44.11,59.09l-.76-.23a9.14,9.14,0,0,0-.26,1.38,2.33,2.33,0,0,0,.34,1.43,3.69,3.69,0,0,0,.3.46,1.28,1.28,0,0,0,.15.16,2.36,2.36,0,0,0,1.33-1.21,8.3,8.3,0,0,0,.63-1.63C45.26,59.35,44.68,59.23,44.11,59.09Z"/>
              <path class="cls-9" d="M40.05,57.48c-.54-.29-1.06-.61-1.57-.95a10.36,10.36,0,0,0-.51,1A2.31,2.31,0,0,0,37.88,59a4.38,4.38,0,0,0,.16.53,1.6,1.6,0,0,0,.09.2,2.34,2.34,0,0,0,1.62-.78,7.68,7.68,0,0,0,.94-1.15Z"/>
              <path class="cls-9" d="M31.21,46.44c-.05-.3-.13-.59-.15-.89l0-.38a2.28,2.28,0,0,0-1.18.83,3,3,0,0,0-.39.69,2.17,2.17,0,0,0,1.63.78l.38,0A8,8,0,0,1,31.21,46.44Z"/>
              <path class="cls-9" d="M30.85,44.47l.13,0c0-.22,0-.43,0-.64l0-.79c0-.3.08-.59.12-.86a2.36,2.36,0,0,0-1.16.54,2.15,2.15,0,0,0-.54.58A2.26,2.26,0,0,0,30.85,44.47Z"/>
              <path class="cls-9" d="M34.41,52.87a5.13,5.13,0,0,0-.51.53,2.16,2.16,0,0,0-.54,1.36,3.27,3.27,0,0,0,0,.78,1.36,1.36,0,0,0,.51.08,2.74,2.74,0,0,0,1.27-.32,8.94,8.94,0,0,0,1-.6A18.36,18.36,0,0,1,34.41,52.87Z"/>
              <path class="cls-9" d="M38.31,56.42A18.49,18.49,0,0,1,36.44,55l-.13-.12c-.18.24-.37.49-.54.76a2.35,2.35,0,0,0-.31,1.43,3.26,3.26,0,0,0,.14.76,2.39,2.39,0,0,0,1.72-.52A8,8,0,0,0,38.31,56.42Z"/>
            </g>
            <path class="cls-10" d="M23.29,40.86a19.66,19.66,0,0,0-4-2.9c-.79-.49-1.56-1-2.35-1.5s-1.82-.81-2.22-1.51c0,0-.1-.06-.13,0-.54.79.84,1.58,1.34,2C18,38.58,20.44,40,22.4,41.83,23,42.41,23.86,41.47,23.29,40.86Z"/>
            <path class="cls-10" d="M61.26,83.59c-1-1.06-2.47-1.6-3.51-2.63S55.93,79.2,55,78.38a1.75,1.75,0,0,0-1.86-.45,2.18,2.18,0,0,0-.58.47c-1.28.48-6.1,1.31-8.77-1.68a4.57,4.57,0,0,1-.58-.72,20,20,0,0,1-1.6-3.29c-.79-1.95-1.46-3.89-2.33-5.8-.08-.19-.36-.07-.32.12.2,1,.44,2.25.74,3.5-.33-.63-.68-1.26-1-1.9a.15.15,0,0,0-.27.1c.08.43.18.9.3,1.39a31.58,31.58,0,0,1-2.1-4.86.06.06,0,0,0-.11,0c-.28,3.37,2.35,7.31,4.19,10,4.25,6.07,9.19,7,11.41,6.28a18.68,18.68,0,0,0,2.36,3.19,26,26,0,0,0,4,3,.76.76,0,0,0,1.07-1c-.23-.33-.46-.68-.7-1a.64.64,0,0,0,.5-.69,1.53,1.53,0,0,0-.43-.91L59,84l1.17.86C60.91,85.45,62,84.28,61.26,83.59Z"/>
            <path class="cls-10" d="M56.31,72.88s0,0,0,0S56.34,72.88,56.31,72.88Z"/>
            <path class="cls-10" d="M73.91,79.47A41,41,0,0,1,70,77c-.71-.55-1.36-1.19-2.1-1.67a.08.08,0,0,0,0,0,2.26,2.26,0,0,0-1-1,1.72,1.72,0,0,0-.87-.11,1.81,1.81,0,0,0-.63.36.9.9,0,0,0-.18.15.17.17,0,0,0-.06.06l0,0a.46.46,0,0,0-.15.2,5.27,5.27,0,0,1-2.21.64,12.37,12.37,0,0,1-3-1.75,19.36,19.36,0,0,1-3.62-4.62.17.17,0,0,0-.32.12,7.34,7.34,0,0,0,.7,1.88l-.16-.07a.13.13,0,0,0-.12,0,1.68,1.68,0,0,1-.2-.48.05.05,0,0,0-.1,0,2.44,2.44,0,0,0,0,.67c-1.4-1.39-2.55-3-3.82-4.52-.16-.18-.49.06-.34.26.65.89,1.08,1.93,1.74,2.84.31.42.62.83.94,1.23a15.47,15.47,0,0,1-1.49-1.62c-.17-.2-.42,0-.33.25.84,2,7,6.9,7.87,7.23,1.42,1,4.18.45,5.13-.16a17,17,0,0,0,2.08,3.61.59.59,0,0,0,1.11-.21c.12.12.23.25.34.37a2,2,0,0,0,.39.31,13.55,13.55,0,0,0,1.15,1,.62.62,0,0,0,1-.67,2.34,2.34,0,0,0-.84-1l-.12-.09a4.82,4.82,0,0,0,2.05.83h.13a1.1,1.1,0,0,0,.33-.06l0,0C74.23,81.51,74.83,80,73.91,79.47Z"/>
            <path class="cls-10" d="M38.23,24.23c-.95-.77-.88-2.18-1.24-3.23a27.82,27.82,0,0,0-1.25-3.17,14.76,14.76,0,0,0-3.28-4.29C30,11.18,25.91,8.37,22.37,10a.36.36,0,0,0,.17.7,12,12,0,0,1,6,1.36,17.77,17.77,0,0,1,4.87,4.15,17.93,17.93,0,0,1,2.7,5.21c.48,1.27.64,2.41,1.8,3.2C38.17,24.76,38.44,24.4,38.23,24.23Z"/>
            <path class="cls-10" d="M41.86,21.46c-2.19-2.13-2.36-5.2-3.1-8A15.93,15.93,0,0,1,39.35,4a.23.23,0,0,0-.28-.28c-2.37.8-2,5.1-2,7.05,0,2.16,1.09,4.42,1.61,6.49a8.32,8.32,0,0,0,2.88,4.55C41.75,22,42.08,21.67,41.86,21.46Z"/>
            <path class="cls-10" d="M52.09,5.69c-2.92.6-5.2,3.2-6.54,5.73-1.76,3.32-1.89,7.21-1.68,10.84a.16.16,0,0,0,.32,0,33.3,33.3,0,0,1,1.86-9.2,11.55,11.55,0,0,1,2.64-4c1.07-1.1,2.53-1.66,3.66-2.67C52.6,6.14,52.5,5.61,52.09,5.69Z"/>
            <path class="cls-10" d="M55.94,8.69c-.11-1.43-.73-1.83-2-2.12a.35.35,0,0,0-.34.55,4.53,4.53,0,0,1,1.11,2.81,35,35,0,0,1-.47,5.87c-.45,2.94-2,5.63-2.39,8.54a.33.33,0,0,0,.65.12c.36-1.58,1.4-3.21,1.94-4.78a27.34,27.34,0,0,0,1.37-5.85A26,26,0,0,0,55.94,8.69Z"/>
            <path class="cls-10" d="M68,8.18c-2.81-1-6.32,2.15-7.77,4.3-2.23,3.3-2.86,7.35-2.94,11.28a.21.21,0,0,0,.41,0,23.31,23.31,0,0,1,2.94-9.54,12.22,12.22,0,0,1,3.27-3.67A21.47,21.47,0,0,1,68,8.61C68.24,8.51,68.15,8.24,68,8.18Z"/>
            <path class="cls-10" d="M78.09,14.9c-2.85-1.73-7.84-.16-10.71,1a17.87,17.87,0,0,0-4.32,2.69,16.69,16.69,0,0,0-2.53,2.65c-.66.82-1,1.82-1.71,2.6-.16.16,0,.46.24.32a21.33,21.33,0,0,0,2.62-2.83,19.14,19.14,0,0,1,5-3.71,21,21,0,0,1,11.21-2A.37.37,0,0,0,78.09,14.9Z"/>
            <path class="cls-10" d="M79.55,23.55c-2.85-1.94-6.5-1.62-9.75-1.09-1.63.27-5.87.63-6.31,2.74a.17.17,0,0,0,.3.14c1.3-1.58,5.15-1.66,7-1.93a24,24,0,0,1,8.57.58A.24.24,0,0,0,79.55,23.55Z"/>
            <path class="cls-10" d="M34.79,28.74c-1-1.14-1.66-2.75-2.65-4a15.8,15.8,0,0,0-4.22-3.26,16.09,16.09,0,0,0-5.49-1.82c-1-.2-2.4-.58-3,.51a.35.35,0,0,0,.27.5,18.44,18.44,0,0,1,7.64,2c3.05,1.59,4.73,4.15,7.2,6.36A.2.2,0,0,0,34.79,28.74Z"/>
            <path class="cls-10" d="M30.33,17.44c-1-1-4.77-4.16-5.95-1.91a.28.28,0,0,0,.26.41c2.46-.42,4.83,2.51,6.3,4.08a44.44,44.44,0,0,1,4.8,6.41.22.22,0,0,0,.4-.17C35.57,22.52,32.88,20,30.33,17.44Z"/>
            <path class="cls-10" d="M50.89,11.81a.25.25,0,0,0-.46-.11c-2,2.7-2.14,6.87-1.24,10a.18.18,0,0,0,.35-.09,13.28,13.28,0,0,1,.48-6C50.37,14.32,51,13.12,50.89,11.81Z"/>
            <path class="cls-10" d="M67.47,11.11a5.52,5.52,0,0,0-3,2c-1.1,1.11-2.17,2.15-3.22,3.3-1.49,1.64-3.26,4.69-2.74,7a.22.22,0,0,0,.41,0,24.81,24.81,0,0,1,3.7-6.8c1.38-2,3.81-3,5.09-5.07A.29.29,0,0,0,67.47,11.11Z"/>
            <path class="cls-10" d="M77.07,25.89c-2-1.56-5.49-.67-7.8-.33-1.94.29-5.36.9-6.57,2.65-.23.35.19.85.54.55,1.62-1.34,4.27-1.85,6.3-2.11a34.79,34.79,0,0,1,7.35-.26C77.14,26.41,77.25,26,77.07,25.89Z"/>
            <path class="cls-10" d="M77,32.72c-2.72-4.68-9.5-3.26-13.55-1.86a.16.16,0,0,0-.1.22.33.33,0,0,0,.12.16,0,0,0,0,0,0,0s2.13.07,1.65,0A15.43,15.43,0,0,0,68,30.9a10.46,10.46,0,0,1,5.21.49c1.17.49,2.15,1.3,3.28,1.86C76.85,33.42,77.11,33,77,32.72Z"/>
            <path class="cls-10" d="M32.19,32.77C29.42,31,21.86,24.21,18.84,29c-.17.26.17.48.4.37,4.29-2.15,9,1.76,12.75,3.76C32.21,33.2,32.4,32.9,32.19,32.77Z"/>
            <path class="cls-10" d="M31.13,29.55c-.54-.36-.82-1.13-1.23-1.63a13.55,13.55,0,0,0-1.54-1.49c-.63-.54-1.3-1-1.9-1.56a1.48,1.48,0,0,0-1.2-.5c-.16,0-.32.21-.2.37a21.82,21.82,0,0,0,3.24,3c.88.79,1.53,1.82,2.67,2.22C31.21,30,31.33,29.67,31.13,29.55Z"/>
            <path class="cls-10" d="M37.39,36.13c-.44,0-.38.69.07.69S37.83,36.13,37.39,36.13Z"/>
            <path class="cls-10" d="M37.66,38.83a.49.49,0,0,0-.52.44.48.48,0,1,0,.52-.44Z"/>
            <path class="cls-10" d="M37.06,41.14a.54.54,0,0,0-.56.51v.08a.53.53,0,0,0,.51.55.52.52,0,0,0,.55-.5V41.7A.55.55,0,0,0,37.06,41.14Z"/>
            <path class="cls-10" d="M38.65,43.14v0A.63.63,0,0,0,38,42.5a.64.64,0,0,0-.33.1h0a.57.57,0,0,0-.21.2h0a.3.3,0,0,1,0,.08l0,.1s0,0,0,0a.76.76,0,0,0,0,.15v.08a.64.64,0,0,0,1.2.29v0A.53.53,0,0,0,38.65,43.14Z"/>
            <path class="cls-10" d="M39.94,44.92c-.85,0-.78,1.3.06,1.3S40.78,44.92,39.94,44.92Z"/>
            <path class="cls-10" d="M39.27,48.11h-.05a.49.49,0,1,0,.06,1h0a.49.49,0,0,0,.39-.44A.51.51,0,0,0,39.27,48.11Z"/>
            <path class="cls-10" d="M43.15,48.1c-.52,0-.63.81-.11.81S43.67,48.1,43.15,48.1Z"/>
            <path class="cls-10" d="M43.93,49.16a.4.4,0,0,0-.16.27.49.49,0,0,0,0,.12v.07a.39.39,0,0,0,.78,0C44.65,49.06,44.16,49,43.93,49.16Z"/>
            <path class="cls-10" d="M45,51.09h0a.33.33,0,0,0-.14-.17l0,0-.12,0h-.05c-.57-.08-.57.87,0,.78h0A.39.39,0,0,0,45,51.09Z"/>
            <path class="cls-10" d="M48.89,49.63a.54.54,0,0,0-.56.51.54.54,0,1,0,.56-.51Z"/>
            <path class="cls-10" d="M48,51.94H47.9c-.55,0-.47.89.05.94h.1a.49.49,0,1,0-.06-1Z"/>
            <path class="cls-10" d="M47.24,48.63a.43.43,0,0,0-.7-.27l0,0a.37.37,0,0,0-.07.52.43.43,0,0,0,.22.2.44.44,0,0,0,.59-.48Z"/>
            <path class="cls-10" d="M51.09,47.6A.59.59,0,1,0,51,48.77a.61.61,0,0,0,.65-.52A.59.59,0,0,0,51.09,47.6Z"/>
            <path class="cls-10" d="M51.93,50.38a.52.52,0,0,0-.29-.4.54.54,0,0,0-.59.14.48.48,0,0,0-.11.38.43.43,0,0,0,.19.33h0a.45.45,0,0,0,.36.11h0A.52.52,0,0,0,51.93,50.38Z"/>
            <path class="cls-10" d="M51.6,51.21c-1.19,0-1.07,1.84.11,1.84S52.78,51.21,51.6,51.21Z"/>
            <path class="cls-10" d="M54.14,48.08a.56.56,0,0,0-.61.47.54.54,0,0,0,.46.61.57.57,0,0,0,.62-.46A.55.55,0,0,0,54.14,48.08Z"/>
            <path class="cls-10" d="M55.06,49.75A.73.73,0,1,0,55,51.2a.73.73,0,1,0,.05-1.45Z"/>
            <path class="cls-10" d="M39.83,48.75a1,1,0,0,0-1.15-.9,1,1,0,0,0-.9,1.15,1.07,1.07,0,0,0,1.16.9A1,1,0,0,0,39.83,48.75Z"/>
            <path class="cls-10" d="M40.82,50.5a.51.51,0,0,0-.45.56.53.53,0,0,0,.57.45.51.51,0,0,0,.44-.56A.52.52,0,0,0,40.82,50.5Z"/>
            <path class="cls-10" d="M41.75,51.91v0a.57.57,0,0,0,1.13,0,0,0,0,0,0,0,0C43,51.06,41.63,51.06,41.75,51.91Z"/>
            <path class="cls-10" d="M55.77,45a.69.69,0,1,0,.64.73A.68.68,0,0,0,55.77,45Z"/>
            <path class="cls-10" d="M57,46.28c-1.26,0-1.07,1.93.17,1.93S58.26,46.28,57,46.28Z"/>
            <path class="cls-10" d="M58.78,42.58a.67.67,0,0,0-.7.61.66.66,0,0,0,.6.7.67.67,0,0,0,.71-.61A.67.67,0,0,0,58.78,42.58Z"/>
            <path class="cls-10" d="M57.56,43.79s-.05-.09-.07-.14a.38.38,0,0,0-.66,0l0,.06a.42.42,0,0,0,.28.59C57.36,44.38,57.7,44.08,57.56,43.79Z"/>
            <path class="cls-10" d="M58.64,39.36a.51.51,0,0,0-.17,0,.42.42,0,0,0,0,.77.53.53,0,0,0,.2.05h.07a.37.37,0,0,0,.3-.14h0A.43.43,0,0,0,58.64,39.36Z"/>
            <path class="cls-10" d="M59.52,44.82c-.55,0-.49.84.06.84S60.06,44.82,59.52,44.82Z"/>
            <path class="cls-10" d="M37.17,44.54a.85.85,0,0,0-.82.84.91.91,0,0,0,.13.46.82.82,0,0,0,1.4,0,.89.89,0,0,0,.13-.48A.83.83,0,0,0,37.17,44.54Z"/>
            <path class="cls-10" d="M43,47.45h0a.79.79,0,1,0,0,1.58h0a.8.8,0,1,0,0-1.59Z"/>
            <path class="cls-10" d="M39.93,43a.32.32,0,0,0,0,.64A.32.32,0,0,0,39.93,43Z"/>
            <path class="cls-10" d="M41.69,45.09a.52.52,0,0,0-.46.6.54.54,0,0,0,.59.46.53.53,0,0,0,.46-.6A.54.54,0,0,0,41.69,45.09Z"/>
            <path class="cls-10" d="M44.74,52.92c-1.25,0-1.07,1.93.17,1.93S46,52.92,44.74,52.92Z"/>
            <path class="cls-10" d="M46.59,50a.78.78,0,0,0,0,1.55A.78.78,0,0,0,46.59,50Z"/>
            <path class="cls-10" d="M49.23,53.27l-.06,0a.74.74,0,1,0,1,1,.13.13,0,0,1,0-.05A.73.73,0,0,0,49.23,53.27Z"/>
            <path class="cls-10" d="M39.13,68.84a24.42,24.42,0,0,1-.68-3,.79.79,0,0,0-.54-.55.72.72,0,0,0-.59.07.81.81,0,0,0-.37.87,16.88,16.88,0,0,0,.58,2.72c.33.92.92,2.67,1.91,3.14a.27.27,0,0,0,.39-.15C40.19,70.83,39.43,69.82,39.13,68.84Z"/>
            <path class="cls-10" d="M39.79,69.16c-.24-1-.31-2.59-1.22-3.29a.2.2,0,0,0-.26,0c-1,1-.14,2.82.24,4,.21.64.36,2,1.23,2.06a.07.07,0,0,0,.06,0A3.84,3.84,0,0,0,39.79,69.16Z"/>
            <path class="cls-10" d="M39.46,66.25c-.22-.7-1.47-.72-1.4.13a14.67,14.67,0,0,0,.4,2.46c.18.65.22,1.29.84,1.65,0,0,.05,0,.06,0A6.73,6.73,0,0,0,39.46,66.25Z"/>
            <path class="cls-10" d="M38.27,67.58a11.77,11.77,0,0,0-.92-2.33c-.13-.17-.45-.24-.56,0A4.12,4.12,0,0,0,37.08,68a2.47,2.47,0,0,0,1.3,1.69.29.29,0,0,0,.36-.21A3.42,3.42,0,0,0,38.27,67.58Z"/>
            <path class="cls-10" d="M39.85,67.59a11.8,11.8,0,0,1-.22-1.45A1.82,1.82,0,0,0,39,65c-.38-.23-.67-.13-1-.2a.67.67,0,0,0-1,.33,1.31,1.31,0,0,0,.45,1.61s0,0,0,0a6.42,6.42,0,0,1,.19-.83l.15,0s.36,0,.34,0a1.65,1.65,0,0,1,.13.7c.09.82,0,2.06,1.06,2.28a.46.46,0,0,0,.44-.16A1.22,1.22,0,0,0,39.85,67.59Z"/>
            <path class="cls-10" d="M40.72,70.74a1,1,0,0,0,0-.16s0,0,0-.07h0l-.09-.34c-.21-.82-.43-1.62-.58-2.44s-.27-2.72-1-3.18-2.27-.44-2.37.64c0,.29.34,1.64.87,1.39a.61.61,0,0,0,.28-.47c.1-.9.3-.23.36.35a19.13,19.13,0,0,0,1,4.5.85.85,0,0,0,1.48.22c0,.14,0,.16.08-.15,0,0,0,0,0-.06v0h0a.52.52,0,0,0,0-.18Z"/>
            <path class="cls-10" d="M58,73.09a23.93,23.93,0,0,0-1.4-2.94c-.45-1-.9-2.07-1.36-3.11A1.84,1.84,0,0,0,51.86,67c-.55,1.18.46,3.08,1.3,3.91a23.7,23.7,0,0,0,2,1.93l.74.53a4.15,4.15,0,0,0,.68.71A.9.9,0,0,0,58,73.09Z"/>
            <path class="cls-10" d="M92.94,29.06a.76.76,0,0,0-.88-.59,13.57,13.57,0,0,0-3.67.77.46.46,0,0,0-.23.28,7.12,7.12,0,0,0-2.5.33c-.51.22-1.16.48-1.82.79.08-.07.15-.15.23-.21.27-.25.57-.5.89-.77a10.34,10.34,0,0,0,2.17-1.93.63.63,0,0,0,0-.76c-.69-1.22-1.77-2.2-2.45-3.42a.52.52,0,0,0-.95.13c-.06.35-.24.8,0,1.11A18.32,18.32,0,0,0,85.5,27a.5.5,0,0,1,.2.44,7.72,7.72,0,0,0-1.88,2.12l-.41.42a1.31,1.31,0,0,0-.29-1.19c-.45-.57-.69-1.37-1.28-1.84S80,25.82,79.63,25a.64.64,0,0,0-1.17,0,2.27,2.27,0,0,0,.14,1.83c.32.75,1.38.64,1.91,1.15a3.93,3.93,0,0,1,1.37,2.38c0,.12-.07.24-.11.36l-.1-.1a.49.49,0,0,0-.38-.41c-.24,0-.4-.15-.64-.2-.42-.08-.83,0-1.26-.11a8.6,8.6,0,0,0-1.5-.46,4.83,4.83,0,0,1-.67,0l-.53-.16a.68.68,0,0,0-.53,1.26,5,5,0,0,0,1.19.35c.54.15,1.07.29,1.6.47a6.86,6.86,0,0,0,1.34.31c.5.05.44.37.56.78a.77.77,0,0,0,.1.18.62.62,0,0,0,.25.53v.08c-2.59,3.76-5.32,7.43-8.07,11.09-.9,1.21-1.89,2.34-2.79,3.54a17.43,17.43,0,0,1-1.87,2.41l-.13.07c-1,.33-6.77-.85-8.07-1.44-.77,1.18.07,2.86,1.11,3.69a5.86,5.86,0,0,0,3.36,1.16c2.18.16,4.78,0,6.6-1.35.18-.13.35-.28.52-.43a5.93,5.93,0,0,0,.87-1.17c1.33-2.36,2.73-4.67,4-7,1.85-3.36,3.68-6.73,5.73-10,.43-.07.78-.19,1.14-.28,1.69.13,3.62,1.14,5,1.29a.69.69,0,0,0,.72-.93c-.34-1.18-1.66-1.51-2.78-1.56a18.4,18.4,0,0,1-2.1-.35A7.28,7.28,0,0,1,87.21,31a19.69,19.69,0,0,0,5.16-.86.75.75,0,0,0,.59-.87C93,29.21,93,29.13,92.94,29.06Z"/>
            <path class="cls-10" d="M24.12,44.39l.31-.08a4,4,0,0,0,2.46-4.55,3,3,0,0,0-.81-.11c-3.82-.91-9.69-1.61-10.63-5.74a28.71,28.71,0,0,0-1.89-5.41,10.61,10.61,0,0,0-2.06-2.8.47.47,0,0,0,.06-.09,9.49,9.49,0,0,0,2.68-2,2.18,2.18,0,0,0,.49-.84c.56-.6.25-1.27.2-2.34s-1.48-.78-1.48.16a6,6,0,0,1-.1,1.4c-.56.4-1.18.76-1.74,1.16a10,10,0,0,0-.28-1.57,2.15,2.15,0,0,0-.4-.8c0-.05.36-.53.39-.65a11.45,11.45,0,0,0,.35-1.4,1.1,1.1,0,0,0,0-1.17.61.61,0,0,0-1.13.32c0,.17,0,.36,0,.56-.23.32-.74.85-.83,1a1.62,1.62,0,0,0-.32,1.46,19.7,19.7,0,0,1,.58,2.51,7,7,0,0,0-1.75-1.08c-.76-.28-1.92.24-2.3-.76A19.66,19.66,0,0,1,4.53,18c-.14-.85-1.47-.79-1.36.08s.37,1.86.57,2.82a5.82,5.82,0,0,0,1.13,2.44,4.24,4.24,0,0,0,2.27.6,4.49,4.49,0,0,1,1.44.42,29.18,29.18,0,0,0-3.86,0c-1.76,0-2.55.61-3.12,2.3a.59.59,0,0,0,.41.72c1.05.38,1.5-.38,2.13-1.12s1.8-.53,2.78-.51a15,15,0,0,1,2.68.06h.06c.18,1.4,1.32,2.77,1.79,4.06a27.8,27.8,0,0,1,1.43,4,12.09,12.09,0,0,0,1,2.58,9.22,9.22,0,0,0,4.19,4.09,18.07,18.07,0,0,1,4.46,3,.59.59,0,0,0,.1.17C23,44.11,23.44,44.51,24.12,44.39Z"/>
          </g>
          <path class="cls-10" d="M52.62,26.92,53,27a4,4,0,0,1,1.18.5,7,7,0,0,1,1.27,1.05c.2.22.42.43.61.68a6.76,6.76,0,0,1,.55.74,6.52,6.52,0,0,1,.48.8,7.17,7.17,0,0,1,.36.81,7.26,7.26,0,0,1,.26.79,5.47,5.47,0,0,1,.14.73c0,.22,0,.44,0,.62a3.48,3.48,0,0,1,0,.47c0,.26,0,.4,0,.4a.09.09,0,0,1-.1.09.09.09,0,0,1-.09-.07h0l-.11-.38a2.43,2.43,0,0,0-.13-.42,4.22,4.22,0,0,0-.22-.52,5.57,5.57,0,0,0-.31-.58,4.17,4.17,0,0,0-.4-.6,6.64,6.64,0,0,0-.48-.6c-.19-.18-.36-.38-.56-.56s-.39-.35-.59-.51-.42-.29-.61-.43a12.42,12.42,0,0,0-1.13-.62c-.17-.09-.31-.15-.44-.23L52.43,29l-.36-.17h0a1,1,0,0,1-.32-1.39A1,1,0,0,1,52.62,26.92Z"/>
        </g>
      </g>
    </g>
  </g>
</svg>
