<svg xmlns="http://www.w3.org/2000/svg" width="100" height="85" viewBox="0 0 100 85">
  <defs>
    <style>
      .cls-1 {
        isolation: isolate;
      }

      .cls-2 {
        fill: #8fffd2;
      }

      .cls-3 {
        fill: #7ee0b9;
      }

      .cls-4 {
        fill: #1f5914;
      }

      .cls-5 {
        fill: #207410;
      }

      .cls-6 {
        fill: #004700;
      }

      .cls-7 {
        fill: #fff;
      }

      .cls-8 {
        fill: #213e00;
      }

      .cls-10, .cls-9 {
        fill: #f0d907;
      }

      .cls-9 {
        mix-blend-mode: multiply;
      }

      .cls-11 {
        fill: #e8e8e8;
      }
    </style>
  </defs>
  <g class="cls-1">
    <g id="Ñëîé_1" data-name="Ñëîé 1">
      <g>
        <g>
          <path class="cls-2" d="M32.88,29.91l-.45.49C27.8,27.07,21.37,24.86,15.81,26c-6.52,1.38-11,7.52-14.32,13.19C2.43,38.15,4.36,37,5.8,37.69c2.27,1,1.25,3.48,1.13,5.41.57-2.12,3.88-3,5.65-2.35,2.07.71,3,3.27,3.82,5.11,1-4.77,7.33-4.38,8,.43,2.16-4.37,4.91-3.37,8.71-3.87C33.23,38.33,32.42,33.62,32.88,29.91Z"/>
          <g>
            <path class="cls-3" d="M24.1,45.26a4.71,4.71,0,0,1,.26,1A10.26,10.26,0,0,1,25,45.23a29.14,29.14,0,0,1,7.8-13.9c0-.41,0-.81.1-1.2C28.85,33.6,25.73,38.93,24.1,45.26Z"/>
            <path class="cls-3" d="M16.25,45.51C17.91,37.37,22.93,30.65,29,28.34l-1-.49c-5.76,2.54-10.48,8.79-12.34,16.38C15.89,44.67,16.08,45.1,16.25,45.51Z"/>
            <path class="cls-3" d="M25.56,26.87c-.51-.17-1-.32-1.55-.46A26.53,26.53,0,0,0,7.25,40.49c0,.86-.27,1.78-.32,2.61a2.47,2.47,0,0,1,.52-1A25.67,25.67,0,0,1,25.56,26.87Z"/>
          </g>
        </g>
        <g>
          <path class="cls-2" d="M32.88,29.91l-.45.49C27.8,27.07,21.37,24.86,15.81,26c-6.52,1.38-11,7.52-14.32,13.19C2.43,38.15,4.36,37,5.8,37.69c2.27,1,1.25,3.48,1.13,5.41.57-2.12,3.88-3,5.65-2.35,2.07.71,3,3.27,3.82,5.11,1-4.77,7.33-4.38,8,.43,2.16-4.37,4.91-3.37,8.71-3.87C33.23,38.33,32.42,33.62,32.88,29.91Z"/>
          <g>
            <path class="cls-3" d="M24.1,45.26a4.71,4.71,0,0,1,.26,1A10.26,10.26,0,0,1,25,45.23a29.14,29.14,0,0,1,7.8-13.9c0-.41,0-.81.1-1.2C28.85,33.6,25.73,38.93,24.1,45.26Z"/>
            <path class="cls-3" d="M16.25,45.51C17.91,37.37,22.93,30.65,29,28.34l-1-.49c-5.76,2.54-10.48,8.79-12.34,16.38C15.89,44.67,16.08,45.1,16.25,45.51Z"/>
            <path class="cls-3" d="M25.56,26.87c-.51-.17-1-.32-1.55-.46A26.53,26.53,0,0,0,7.25,40.49c0,.86-.27,1.78-.32,2.61a2.47,2.47,0,0,1,.52-1A25.67,25.67,0,0,1,25.56,26.87Z"/>
          </g>
        </g>
        <g>
          <path class="cls-2" d="M65.08,30.3l.48.48c4.93-3.32,11.78-5.54,17.7-4.36C90.2,27.79,95,33.93,98.51,39.61c-1-1.07-3.06-2.2-4.58-1.54-2.42,1-1.34,3.48-1.21,5.42-.6-2.12-4.13-3-6-2.36-2.2.72-3.23,3.28-4.07,5.12a4.3,4.3,0,0,0-8.47.43c-2.3-4.37-5.24-3.38-9.28-3.88C64.71,38.71,65.57,34,65.08,30.3Z"/>
          <g>
            <path class="cls-3" d="M74.43,45.64a4.66,4.66,0,0,0-.27,1,9.27,9.27,0,0,0-.65-1.06,28.84,28.84,0,0,0-8.31-13.9c0-.41,0-.81-.1-1.2A29.31,29.31,0,0,1,74.43,45.64Z"/>
            <path class="cls-3" d="M82.79,45.9C81,37.76,75.68,31,69.18,28.72c.35-.17.71-.33,1.07-.48C76.38,30.77,81.41,37,83.39,44.62,83.17,45.06,83,45.49,82.79,45.9Z"/>
            <path class="cls-3" d="M72.88,27.25c.54-.17,1.09-.32,1.65-.46A27.94,27.94,0,0,1,92.38,40.87c.06.87.29,1.79.34,2.62a2.51,2.51,0,0,0-.55-1C89,35,81.79,29.22,72.88,27.25Z"/>
          </g>
        </g>
        <g>
          <path class="cls-2" d="M65.08,30.3l.48.48c4.93-3.32,11.78-5.54,17.7-4.36C90.2,27.79,95,33.93,98.51,39.61c-1-1.07-3.06-2.2-4.58-1.54-2.42,1-1.34,3.48-1.21,5.42-.6-2.12-4.13-3-6-2.36-2.2.72-3.23,3.28-4.07,5.12a4.3,4.3,0,0,0-8.47.43c-2.3-4.37-5.24-3.38-9.28-3.88C64.71,38.71,65.57,34,65.08,30.3Z"/>
          <g>
            <path class="cls-3" d="M74.43,45.64a4.66,4.66,0,0,0-.27,1,9.27,9.27,0,0,0-.65-1.06,28.84,28.84,0,0,0-8.31-13.9c0-.41,0-.81-.1-1.2A29.31,29.31,0,0,1,74.43,45.64Z"/>
            <path class="cls-3" d="M82.79,45.9C81,37.76,75.68,31,69.18,28.72c.35-.17.71-.33,1.07-.48C76.38,30.77,81.41,37,83.39,44.62,83.17,45.06,83,45.49,82.79,45.9Z"/>
            <path class="cls-3" d="M72.88,27.25c.54-.17,1.09-.32,1.65-.46A27.94,27.94,0,0,1,92.38,40.87c.06.87.29,1.79.34,2.62a2.51,2.51,0,0,0-.55-1C89,35,81.79,29.22,72.88,27.25Z"/>
          </g>
        </g>
        <g>
          <path class="cls-4" d="M44.9,22.72c-.64-.47-.36-.34-1.23-.44-.22,0-.44-.06-.65-.11L42.9,22a.81.81,0,0,0-1.14-.18,5.16,5.16,0,0,1-3.14-3.35c-.26-.78-.21-2-.67-2.67a26.49,26.49,0,0,1-2-3.39,24.9,24.9,0,0,0-2.54-4.92c-1.37-1.93-3.38-2.95-5.47-4C24.44,1.78,19.29,2,15.57,3c-3.41.87-7.91,3-9.34,6.37a1,1,0,0,0,.44,1.11c1.12.71,2.51.05,3.74,0,2-.15,3.65.43,4.29,2.63.16.54.37,1.8,1,2.08,2.31,1,4.51.65,6.34,2.77a45.87,45.87,0,0,1,4.22,6.62c2.16,3.64,7.62,3.47,11,2,1.17-.5,7-1.36,6-3.85a7.69,7.69,0,0,1,1.55.21A.08.08,0,0,0,44.9,22.72Z"/>
          <g>
            <path class="cls-5" d="M24.65,14.62c-1.38.21-3.63.57-4.71,1.77a5.47,5.47,0,0,1,1.2.66,12.48,12.48,0,0,1,3.59-2C25,15,24.92,14.57,24.65,14.62Z"/>
            <path class="cls-5" d="M26.7,17.44a.25.25,0,0,0-.1-.48,6,6,0,0,0-1.42.08c-.6.24-1.18.51-1.78.77a5.87,5.87,0,0,0-1,.53c.25.32.51.66.75,1A15.53,15.53,0,0,1,26.7,17.44Z"/>
            <path class="cls-5" d="M17.84,15.23a5.94,5.94,0,0,1,1.71-1.18,18.6,18.6,0,0,1,3.37-1.75c.12,0,.14-.22,0-.23-2.05-.19-6,.93-6.67,3.26.39.14.78.25,1.17.35Z"/>
            <path class="cls-5" d="M11.25,8.55A23.51,23.51,0,0,1,14,7c.21-.09.1-.46-.13-.39-2.2.73-4.6,1.66-5.66,3.88a.34.34,0,0,0,0,.28,4.58,4.58,0,0,0,.62-.08C9.65,10,10.33,9.15,11.25,8.55Z"/>
            <path class="cls-5" d="M17,12a12.32,12.32,0,0,1,3.12-1.84A.16.16,0,0,0,20,9.81c-1.83.08-4.52,1.13-5.41,2.93,0,.1.07.19.09.29s.11.39.17.64A18.5,18.5,0,0,0,17,12Z"/>
            <path class="cls-5" d="M14.26,9.54A10.44,10.44,0,0,1,17.2,8.1c.18-.06.08-.34-.1-.31-1.86.31-4.1,1-5.14,2.67a3.78,3.78,0,0,1,1,.3A10.35,10.35,0,0,1,14.26,9.54Z"/>
          </g>
        </g>
        <g>
          <path class="cls-4" d="M91.09,8c-1.79-.44-3.62-.51-5.4-.94S82,5.92,80.17,5.53c-1.56-.34-2.9-1-4.5-.85A15.9,15.9,0,0,0,70,6.23C66.27,8,64.62,12.85,63,16.48c-.67,1.51-1.26,4.18-2.5,5.42a1.08,1.08,0,0,0-1.14.82,39.17,39.17,0,0,1-3.81,2.4c-.16.08-.07.34.09.34A11.3,11.3,0,0,0,60.13,24c2.42,2.35,5.44,4.26,8.75,4,4.43-.36,5.5-6.91,10.15-5.69,2.74.71,4.74-1.37,5.51-3.89a7.11,7.11,0,0,0,.13-2.11c0-1.86,2.26-3.17,3.61-3.9s2.6-1.23,3.48-2.63A1.24,1.24,0,0,0,91.09,8Z"/>
          <g>
            <path class="cls-5" d="M78.68,14.63c-.29-.1-.47.33-.25.54a24.26,24.26,0,0,0,2.81,2.27,30.16,30.16,0,0,0,2.85,2.13,7.51,7.51,0,0,0,.45-1.14.9.9,0,0,0,0-.16C83.28,16.41,80.52,15.24,78.68,14.63Z"/>
            <path class="cls-5" d="M79.67,12.24a.05.05,0,0,0,0,.08c.4,1,1.59,1.46,2.42,2s1.72,1.42,2.62,2.09v-.06a2.41,2.41,0,0,1,.23-1.06,5.42,5.42,0,0,0-1.85-1.74C82.15,12.92,80.73,12,79.67,12.24Z"/>
            <path class="cls-5" d="M76.21,19.24c-.68-.3-1.31-.29-2-.53-.24-.09-.38.31-.15.43a37.55,37.55,0,0,1,4.52,3.08l.44.1a4.42,4.42,0,0,0,1.28.13c0-1.1-1.3-1.67-2.1-2.21A13.33,13.33,0,0,0,76.21,19.24Z"/>
            <path class="cls-5" d="M88,8.33c.73.84,1.51,2.19,2.57,2.73a4.82,4.82,0,0,0,.76-.74C90.85,9.16,89.23,8.38,88.22,8,88,7.93,87.92,8.19,88,8.33Z"/>
            <path class="cls-5" d="M89.35,11.86C88.58,10,86,9.34,84.51,8.27c-.17-.12-.38.11-.27.28a6.26,6.26,0,0,0,2,2,16.9,16.9,0,0,1,2,1.92l.07,0Z"/>
            <path class="cls-5" d="M86.86,13.26a4,4,0,0,0-1.4-1.66c-1.06-.9-2.49-.92-3.52-1.81a.15.15,0,0,0-.21.22A10.72,10.72,0,0,0,84,11.88c.72.51,1.38,1.47,2.18,1.87A7.63,7.63,0,0,1,86.86,13.26Z"/>
            <path class="cls-5" d="M76.86,16.8c-.21-.08-.3.23-.14.34,1.08.75,2.13,1.49,3.22,2.2s1.77,1.48,2.69,2.16a5,5,0,0,0,.6-.61C82.17,18.51,79,17.64,76.86,16.8Z"/>
          </g>
        </g>
        <path class="cls-5" d="M34.79,23.76c-5,6.64-3.35,15.26-2.17,22.92,1,6.64,5,18.68-2,22.85-3.49,2.06-18.6.9-14.72,8.59,4.14,8.18,16.43,2.51,22,.24,8.64-3.52,14.83-1,23,2.17,3.26,1.27,18.76,6.27,19.61-1C81.17,74,67.32,71,65.33,65.74c-2.67-7.09,2.43-18.36,2.23-26.08-.23-8.58-2.68-17-10.19-21.32C50.47,14.39,39.73,17.24,34.79,23.76Z"/>
        <path class="cls-4" d="M32.9,65.69c-.75-.88-1.38-1.45-1.28-2.34l.42.44c.55.43,1.53-.17,1.3-.86a4,4,0,0,0-1.88-2.17c0-.16,0-.32,0-.48s0-.23,0-.36a7,7,0,0,0,.06-1.3,44.27,44.27,0,0,0-.24-6c-.36-3.35-.92-6.64-.5-10.09.39-3.19,2-4.93,3.57-6.68,0,0,0-.15,0-.17a1.05,1.05,0,0,0-.9,0,4.33,4.33,0,0,0,.46-1.13s0-.09,0-.08a1.92,1.92,0,0,0-.8.35.55.55,0,0,0-.37-.32,7.15,7.15,0,0,0,.58-1.25c0-.06,0-.12,0-.12a1.93,1.93,0,0,0-.69.26c.18-.26.35-.52.53-.77,0-.07,0-.19-.06-.13a13.82,13.82,0,0,0-4,8.1,27,27,0,0,0,0,6c.19,2.57.32,5.26.65,7.77A35.18,35.18,0,0,1,30,59.46c-.48,1.37-1.09,2.72-1.63,4-.71,1.74.84,3.37,1.73,4.58a2,2,0,0,0,3.21,0A2.32,2.32,0,0,0,32.9,65.69Z"/>
        <path class="cls-4" d="M62.59,66.32c1-.82,1.85-1.34,1.83-2.24l-.57.41c-.71.39-1.86-.29-1.5-1a4.55,4.55,0,0,1,2.53-2c0-.17,0-.33,0-.48s0-.24,0-.36A5.78,5.78,0,0,1,65,59.37a37.3,37.3,0,0,1,.91-6c.78-3.31,1.81-6.55,1.65-10-.16-3.21-1.92-5.07-3.7-6.93a.12.12,0,0,1,0-.18,1.55,1.55,0,0,1,1.1.07,3.81,3.81,0,0,1-.44-1.16.07.07,0,0,1,.06-.09,2.63,2.63,0,0,1,.93.42.73.73,0,0,1,.49-.29,6.94,6.94,0,0,1-.58-1.3.08.08,0,0,1,.08-.11,2.83,2.83,0,0,1,.81.31l-.56-.81c-.06-.07,0-.18.09-.12a12.56,12.56,0,0,1,4.06,8.39,22.24,22.24,0,0,1-.56,5.95c-.49,2.54-.93,5.21-1.59,7.69a28.49,28.49,0,0,0-1,5.1c.45,1.41,1.06,2.8,1.59,4.14.7,1.8-1.38,3.3-2.59,4.43-1,.89-3.26.91-3.95-.27A2,2,0,0,1,62.59,66.32Z"/>
        <path class="cls-6" d="M38.69,40.43l.17-.29a5.27,5.27,0,0,1,.61-.82,7.49,7.49,0,0,1,3-2,10.33,10.33,0,0,1,2.36-.57,10.82,10.82,0,0,1,2.72,0,9.24,9.24,0,0,1,2.84.85,13.9,13.9,0,0,1,1.25.66l.66.38.61.42a15.75,15.75,0,0,1,4,4.11,20.48,20.48,0,0,1,1.31,2.26c.18.38.33.75.49,1.1s.28.7.41,1c.23.67.43,1.3.58,1.85s.25,1,.35,1.45c.16.81.24,1.27.24,1.27a.29.29,0,0,1-.55.15h0l-.45-1.19c-.16-.37-.32-.83-.56-1.34s-.47-1.08-.77-1.7l-.49-.94c-.18-.31-.36-.64-.56-1a18.51,18.51,0,0,0-1.36-2,17.59,17.59,0,0,0-1.69-1.89,15.92,15.92,0,0,0-2-1.63l-.54-.36L50.72,40c-.34-.21-.79-.4-1.19-.6a8.41,8.41,0,0,0-2.28-.72A10.51,10.51,0,0,0,45,38.51a9.26,9.26,0,0,0-2,.26A8.07,8.07,0,0,0,40.08,40a8.23,8.23,0,0,0-.69.55l-.24.23a.29.29,0,0,1-.41,0A.27.27,0,0,1,38.69,40.43Z"/>
        <path class="cls-7" d="M55.13,41a17.54,17.54,0,0,1,1.53,1.86,42.34,42.34,0,0,0,.06-4.45c-.22-3.83.18-3.59-1.4-1.14a10.26,10.26,0,0,0-1.09,2.88C54.54,40.43,54.84,40.71,55.13,41Z"/>
        <path class="cls-8" d="M41.07,49.84v0a.5.5,0,0,0-.61-.36h-.07a.62.62,0,0,0-.23.07,1.28,1.28,0,0,0-.25.15,1.7,1.7,0,0,0-.23-.34.6.6,0,0,0-.84,0A1.4,1.4,0,0,0,39,51.27a1.08,1.08,0,0,0,1.37.13C40.9,51.07,41.37,50.42,41.07,49.84Z"/>
        <path class="cls-8" d="M46.43,49.71a.67.67,0,0,0-1-.15l-.23.18a.69.69,0,0,0-.45-.19.47.47,0,0,0-.5.1l-.09.1a.56.56,0,0,0-.08.64.46.46,0,0,1,0,.09v0a1.69,1.69,0,0,0,.14.45,1,1,0,0,0,1,.54,1.77,1.77,0,0,0,.92-.6A1,1,0,0,0,46.43,49.71Z"/>
        <path class="cls-8" d="M50.6,50.69a.6.6,0,0,0-.46-.54,1.13,1.13,0,0,0-1,.34,1.22,1.22,0,0,0-.87-.31.3.3,0,0,0-.24.35,1.88,1.88,0,0,0,0,.88c0,.09,0,.25.09.42a.92.92,0,0,0,1,.63,1.71,1.71,0,0,0,1-.7c.1-.16.22-.31.31-.48s.15-.4.07-.2A.76.76,0,0,0,50.6,50.69Z"/>
        <path class="cls-8" d="M55.38,51.53a.63.63,0,0,0-1-.47,4,4,0,0,0-.29.28l-.08,0a.77.77,0,0,0-.72,0,.68.68,0,0,0-.12.12v0l0,0a.05.05,0,0,0,0,0,.66.66,0,0,0-.09.19v.06a.75.75,0,0,0,0,.21.53.53,0,0,0,0,.17c0,.1.1.21.13.3l0,.08c0,.1.06.11,0,0a.77.77,0,0,0,.69.65A1.45,1.45,0,0,0,55.38,51.53Z"/>
        <path class="cls-8" d="M46.37,44.67a.48.48,0,0,0-.56-.22,1.77,1.77,0,0,0-.81.67l-.13.15h0c-.13,0-.42-.21-.56-.15-.39.17-.29.59-.17.92a.7.7,0,0,0,.25.52,1,1,0,0,0,1.15,0,2.51,2.51,0,0,0,.63-.63A1.1,1.1,0,0,0,46.37,44.67Z"/>
        <path class="cls-8" d="M51.8,45.4a.57.57,0,0,0-.83-.3,1.24,1.24,0,0,0-.44.44.84.84,0,0,0-.68,0,.33.33,0,0,0-.18.36,3.08,3.08,0,0,0,.11.74,2.72,2.72,0,0,0,.27.42.74.74,0,0,0,.69.28,1.42,1.42,0,0,0,1-.78A1.38,1.38,0,0,0,51.8,45.4Z"/>
        <path class="cls-8" d="M43.87,55.91c0-.08,0-.13,0-.16a1.35,1.35,0,0,0-.11-.32.56.56,0,0,0-.77-.17h0l-.06-.07L42.7,55l0,0c-.21-.1-.24-.12-.1-.07a.75.75,0,0,0-.26-.21l-.13,0a.59.59,0,0,0-.55,0,.54.54,0,0,0-.24.31.38.38,0,0,0,0,.15,1.1,1.1,0,0,0,0,.62.67.67,0,0,0,.17.32c-.12-.13,0,0,0,.12a2,2,0,0,0,.81,1A.86.86,0,0,0,43.62,57a1.73,1.73,0,0,0,.26-.73C43.88,56.13,43.87,56,43.87,55.91Z"/>
        <path class="cls-8" d="M48,57.17c.26-.46.35-1.17-.22-1.42-.07,0-.42,0-.42.11l-.26.14a1.11,1.11,0,0,0-.25-.17s-.44-.18-.21-.06a.51.51,0,0,0-.69.19,1.34,1.34,0,0,0,0,1.14,1.32,1.32,0,0,0,1,.78,1,1,0,0,0,.71-.25,1,1,0,0,0,.27-.38S48,57,48,57.17Z"/>
        <path class="cls-8" d="M51.76,55.82a2.93,2.93,0,0,0-.48.34l0,0a.57.57,0,0,0-.72,0s0,0-.11.08l0,0-.06.1h0a1.69,1.69,0,0,0-.12.44.94.94,0,0,0,.06.52.92.92,0,0,0,.61.9,1,1,0,0,0,1-.28c.11-.11.21-.23.31-.35s.27-.31.09-.12a1.76,1.76,0,0,0,.51-.73A.71.71,0,0,0,51.76,55.82Z"/>
        <path class="cls-8" d="M55.08,56.89c-.2,0-.25.29,0,.31S55.28,56.91,55.08,56.89Z"/>
        <path class="cls-8" d="M56.1,56a.73.73,0,0,0-1-.14,1,1,0,0,0-.32.49h-.06a.37.37,0,0,0-.28.41,1.4,1.4,0,0,0,0,.68.8.8,0,0,0,.68.64C56,58.21,56.67,56.73,56.1,56Z"/>
        <path class="cls-8" d="M47,61.58a.9.9,0,0,0-.88-.82c-.28,0-.41.18-.52.39l-.06,0-.11,0c.07.06.06.06,0,0a.52.52,0,0,0-.19-.11l-.33-.13h0a.29.29,0,0,0-.38.07,1.07,1.07,0,0,0,.09,1.22,5,5,0,0,0,.39.52,1.7,1.7,0,0,0,1,.51.84.84,0,0,0,.89-.77c0,.12.06-.12.05-.12A1.18,1.18,0,0,0,47,61.58Z"/>
        <path class="cls-8" d="M50.52,61a.56.56,0,0,0-.46-.53.86.86,0,0,0-.39,0,1,1,0,0,0-.25.06h0a.94.94,0,0,0-.34.25,2.82,2.82,0,0,0-.21.38.59.59,0,0,0-.49.63.42.42,0,0,0,0,.15.63.63,0,0,0,.13.51.81.81,0,0,0,.86.5c.47-.06.69-.5.86-.88a4.43,4.43,0,0,0,.2-.45s.1-.2,0,0A.87.87,0,0,0,50.52,61Z"/>
        <path class="cls-8" d="M54,60.65a.68.68,0,0,0-.86-.21s0,0-.16.08h0a.34.34,0,0,0-.12.12.51.51,0,0,0-.09.16.6.6,0,0,0-.23,0h0a.54.54,0,0,0-.38.52c0-.13,0,.11,0,.14l0,.21a1.07,1.07,0,0,0,.4.93,1,1,0,0,0,1.24,0,1.35,1.35,0,0,0,.45-.88A1.49,1.49,0,0,0,54,60.65Z"/>
        <path class="cls-8" d="M43.78,28.75c-.26,0-.32.38-.06.4S44,28.77,43.78,28.75Z"/>
        <path class="cls-8" d="M46.91,28.86l-.12-.05c-.24-.11-.3.34,0,.27h0v0a.05.05,0,0,0,.1,0L47,29A.11.11,0,0,0,46.91,28.86Z"/>
        <path class="cls-8" d="M46.3,27.05c-.56-.05-.57.82,0,.87S46.85,27.1,46.3,27.05Z"/>
        <path class="cls-8" d="M45.74,30.43a.26.26,0,0,0-.05.52A.26.26,0,0,0,45.74,30.43Z"/>
        <path class="cls-8" d="M49,30.35c-.63-.05-.61.93,0,1S49.58,30.41,49,30.35Z"/>
        <path class="cls-8" d="M48.14,28.24l-.14,0a.55.55,0,1,0-.1,1.1H48A.55.55,0,0,0,48.14,28.24Z"/>
        <path class="cls-8" d="M46.37,32.05c-.69-.06-.64,1,0,1.08S47.05,32.12,46.37,32.05Z"/>
        <path class="cls-8" d="M42.68,30.78c-.61-.05-.6.91,0,1S43.29,30.84,42.68,30.78Z"/>
        <path class="cls-8" d="M39.64,31.5c-.6-.05-.59.89,0,1S40.25,31.56,39.64,31.5Z"/>
        <path class="cls-8" d="M49.46,32.09c-.82-.08-1.05,1.2-.22,1.27S50.3,32.16,49.46,32.09Z"/>
        <path class="cls-8" d="M52.68,33.77a.73.73,0,0,0-.06-.39h0l0,0a.05.05,0,0,1,0,0A.63.63,0,0,0,52.2,33l-.15,0h0a.75.75,0,0,0-.81.82.73.73,0,0,0,.63.63.71.71,0,0,0,.2,0h0a.61.61,0,0,0,.34-.14h0A.55.55,0,0,0,52.68,33.77Z"/>
        <path class="cls-8" d="M52.81,29.76c-.75-.07-1,1.09-.24,1.16S53.56,29.83,52.81,29.76Z"/>
        <path class="cls-8" d="M51.25,29.8a.56.56,0,0,0-.65.42.54.54,0,0,0,.41.65.55.55,0,0,0,.24-1.07Z"/>
        <path class="cls-8" d="M54.63,31.91c-.57-.05-.57.84,0,.9S55.2,32,54.63,31.91Z"/>
        <path class="cls-8" d="M57.62,31h0A.33.33,0,1,0,57,31a.57.57,0,0,0,0,.13.31.31,0,0,0,.35.25.38.38,0,0,0,.24-.17A.18.18,0,0,0,57.62,31Z"/>
        <path class="cls-8" d="M52.73,31.49a.27.27,0,0,0-.06.54A.27.27,0,0,0,52.73,31.49Z"/>
        <path class="cls-8" d="M51,31.71a.32.32,0,0,0-.2.57h0a.25.25,0,0,0,.25,0l0,0A.31.31,0,0,0,51,31.71Z"/>
        <path class="cls-8" d="M45.52,32.94c-.18,0-.23.26-.05.28S45.7,33,45.52,32.94Z"/>
        <path class="cls-8" d="M43,32.64c-.81-.07-1,1.18-.22,1.25S43.86,32.72,43,32.64Z"/>
        <path class="cls-8" d="M44.66,33.1a.75.75,0,0,0-.17,1.49A.75.75,0,0,0,44.66,33.1Z"/>
        <path class="cls-8" d="M44.51,31a.47.47,0,0,0-.46.47.48.48,0,0,0,.47.47.47.47,0,0,0,.46-.47A.48.48,0,0,0,44.51,31Z"/>
        <path class="cls-8" d="M47.49,34.11c-.54,0-.55.8,0,.85S48,34.16,47.49,34.11Z"/>
        <path class="cls-8" d="M49.34,35.14c-.27,0-.41.2-.51.43a.37.37,0,0,0,.09.4h0a.53.53,0,0,0,1-.32A.54.54,0,0,0,49.34,35.14Z"/>
        <path class="cls-8" d="M53.48,35.23c-.53,0-.55.79,0,.84S54,35.28,53.48,35.23Z"/>
        <path class="cls-8" d="M56.12,33.81c-.68-.07-.63,1,.05,1.06S56.8,33.87,56.12,33.81Z"/>
        <path class="cls-8" d="M42.08,34.58a.42.42,0,0,0-.49-.1.51.51,0,0,0-.16.09h0l-.08.05s-.06,0,0,0h0a.27.27,0,0,0-.08.1v-.05a.37.37,0,0,0,0,.51.53.53,0,0,0,.42.26.62.62,0,0,0,.45-.23A.46.46,0,0,0,42.08,34.58Z"/>
        <path class="cls-4" d="M34.55,33.37a.42.42,0,0,0-.7-.11.5.5,0,0,0-.14.32.45.45,0,0,0,.45.44l.38-.21A.49.49,0,0,0,34.55,33.37Z"/>
        <path class="cls-4" d="M34.14,32.2h0c0,.16.27.23.33,0h0C34.6,32,34.09,31.92,34.14,32.2Z"/>
        <path class="cls-4" d="M32.82,34.39c-.51,0-.53.75,0,.8S33.33,34.44,32.82,34.39Z"/>
        <path class="cls-4" d="M34.72,34.68c-.49,0-.52.72,0,.77S35.22,34.72,34.72,34.68Z"/>
        <path class="cls-4" d="M35.26,34.2a.36.36,0,0,0,0,.71C35.68,35,35.72,34.24,35.26,34.2Z"/>
        <path class="cls-4" d="M35.23,33.37c-.22,0-.28.33,0,.35S35.46,33.39,35.23,33.37Z"/>
        <path class="cls-4" d="M33.52,31.79c-.25,0-.31.37-.06.39S33.77,31.81,33.52,31.79Z"/>
        <path class="cls-4" d="M34.24,30.27c-.53-.05-.55.78,0,.83S34.77,30.32,34.24,30.27Z"/>
        <path class="cls-4" d="M35.14,31.86c-.14,0-.19.21,0,.22S35.29,31.87,35.14,31.86Z"/>
        <path class="cls-4" d="M35.59,32.35c-.49,0-.52.71,0,.76S36.08,32.4,35.59,32.35Z"/>
        <path class="cls-4" d="M36.09,33.92h0a.29.29,0,0,0,.58.06v0A.29.29,0,0,0,36.09,33.92Z"/>
        <path class="cls-4" d="M34.27,37.05c-.53,0-.55.78,0,.83S34.8,37.1,34.27,37.05Z"/>
        <path class="cls-4" d="M33,38.1a.29.29,0,0,0-.05.58A.29.29,0,0,0,33,38.1Z"/>
        <path class="cls-4" d="M32.75,39.45c-.29,0-.34.42-.06.44S33,39.47,32.75,39.45Z"/>
        <path class="cls-4" d="M33.29,40c-.47,0-.51.69,0,.74S33.76,40.07,33.29,40Z"/>
        <path class="cls-4" d="M33.66,38.89l0,0,0,0h-.08a.05.05,0,0,0-.05,0l0,0s0,0,0,0,0,0,0,.06l0,0,.05,0a0,0,0,0,0,0,0h.05l0,0h0A.1.1,0,0,0,33.66,38.89Z"/>
        <path class="cls-4" d="M34.55,38.25a.28.28,0,0,0-.06.56A.28.28,0,0,0,34.55,38.25Z"/>
        <path class="cls-4" d="M35.25,36c-.16,0-.2.23,0,.24S35.41,36.05,35.25,36Z"/>
        <path class="cls-4" d="M36.13,36.61a.28.28,0,0,0-.05.55A.28.28,0,0,0,36.13,36.61Z"/>
        <path class="cls-4" d="M32.33,31.45a.3.3,0,0,0,0,.59A.3.3,0,0,0,32.33,31.45Z"/>
        <path class="cls-4" d="M31.88,32.48c-.69-.06-.64,1,0,1.06S32.55,32.54,31.88,32.48Z"/>
        <path class="cls-4" d="M64.68,33.51a.29.29,0,0,0-.05.57A.29.29,0,0,0,64.68,33.51Z"/>
        <path class="cls-4" d="M65.23,32.12a.24.24,0,0,0-.06.48C65.48,32.63,65.54,32.14,65.23,32.12Z"/>
        <path class="cls-4" d="M66.3,32.68c-.25,0-.31.36-.06.38S66.55,32.7,66.3,32.68Z"/>
        <path class="cls-4" d="M65.34,34.06c-.16,0-.21.24,0,.26S65.51,34.08,65.34,34.06Z"/>
        <path class="cls-4" d="M65.66,32.85a.26.26,0,0,0-.06.51C65.93,33.39,66,32.87,65.66,32.85Z"/>
        <path class="cls-4" d="M64.29,32.54a.31.31,0,0,0-.05.62A.31.31,0,0,0,64.29,32.54Z"/>
        <path class="cls-4" d="M63.56,34.94a.29.29,0,0,0-.06.57A.29.29,0,0,0,63.56,34.94Z"/>
        <path class="cls-4" d="M64.9,34.74s0,0,0,.06S64.93,34.75,64.9,34.74Z"/>
        <path class="cls-4" d="M64.44,34.42a.23.23,0,0,0-.06.45C64.68,34.9,64.74,34.44,64.44,34.42Z"/>
        <path class="cls-4" d="M63.65,34s-.07.07,0,.07S63.7,34,63.65,34Z"/>
        <path class="cls-4" d="M63.09,36.62c-.48,0-.51.72,0,.76S63.58,36.67,63.09,36.62Z"/>
        <path class="cls-4" d="M64.5,38l0,0c-.36-.16-.4.51,0,.43h0A.21.21,0,0,0,64.5,38Z"/>
        <path class="cls-4" d="M63.72,33.68a.26.26,0,0,0-.06.51A.26.26,0,0,0,63.72,33.68Z"/>
        <path class="cls-4" d="M65.57,39v0c-.07-.44-.69-.39-.81,0v0C64.53,39.63,65.68,39.78,65.57,39Z"/>
        <path class="cls-4" d="M65.93,39.69c-.38-.11-.78.43-.43.72l.09.07a.4.4,0,0,0,.42,0h0A.44.44,0,0,0,65.93,39.69Z"/>
        <path class="cls-4" d="M66.55,42.08a.26.26,0,0,0-.16.09l0,0a.3.3,0,0,0,0,.35l0,0a.31.31,0,1,0,.15-.5Z"/>
        <path class="cls-4" d="M64.92,41.8c-.16,0-.21.24,0,.25S65.09,41.82,64.92,41.8Z"/>
        <path class="cls-4" d="M64.52,40.14a.31.31,0,0,0,0,.61A.31.31,0,0,0,64.52,40.14Z"/>
        <path class="cls-4" d="M62.41,34a.21.21,0,0,0-.19.33l0,0a.16.16,0,0,0,.23,0l0,0A.21.21,0,0,0,62.41,34Z"/>
        <path class="cls-4" d="M63.83,32.07c-.21,0-.26.3,0,.32S64,32.09,63.83,32.07Z"/>
        <path class="cls-4" d="M65.48,31.13a.26.26,0,0,0,0,.52A.26.26,0,0,0,65.48,31.13Z"/>
        <path class="cls-4" d="M62.29,35.25a.27.27,0,0,0-.24.44v0a.28.28,0,0,0,.38,0h0A.28.28,0,0,0,62.29,35.25Z"/>
        <path class="cls-4" d="M63.37,38.15c-.47,0-.51.69,0,.74S63.84,38.19,63.37,38.15Z"/>
        <path class="cls-4" d="M66.58,40.83c-.54,0-.56.8,0,.85S67.13,40.88,66.58,40.83Z"/>
        <path class="cls-4" d="M65.7,43.22c-.56,0-.57.82,0,.87S66.25,43.27,65.7,43.22Z"/>
        <path class="cls-4" d="M65.54,46a.18.18,0,0,0,0,.16.79.79,0,0,0,0,.09.24.24,0,0,0,.37,0h0C66.17,46,65.71,45.68,65.54,46Z"/>
        <path class="cls-4" d="M65.9,42.06h0a.32.32,0,0,0-.43,0h0a.32.32,0,1,0,.45,0Z"/>
        <path class="cls-4" d="M64.71,41c-.29,0-.35.42-.06.44A.22.22,0,0,0,64.71,41Z"/>
        <path class="cls-4" d="M63.83,41.43a.31.31,0,0,0,0,.62A.31.31,0,0,0,63.83,41.43Z"/>
        <path class="cls-4" d="M64.71,42.87c-.32,0-.58.44-.31.67l.09.08a.36.36,0,0,0,.45,0l0,0A.4.4,0,0,0,64.71,42.87Z"/>
        <path class="cls-4" d="M66.73,43.67c-.31,0-.37.46,0,.48A.24.24,0,0,0,66.73,43.67Z"/>
        <path class="cls-4" d="M33,41.71a.48.48,0,0,0,0,.95.48.48,0,0,0,.47-.48A.49.49,0,0,0,33,41.71Z"/>
        <path class="cls-4" d="M33,43.8a.32.32,0,0,0-.05.63A.32.32,0,0,0,33,43.8Z"/>
        <path class="cls-4" d="M34,43.18a.27.27,0,0,0-.06.53A.27.27,0,0,0,34,43.18Z"/>
        <path class="cls-4" d="M34.88,41.35c-.25,0-.31.37-.05.39A.2.2,0,0,0,34.88,41.35Z"/>
        <path class="cls-4" d="M32.25,40.46c-.24,0-.3.35,0,.37S32.49,40.48,32.25,40.46Z"/>
        <path class="cls-4" d="M34.94,39.26l-.06-.06a.2.2,0,1,0,0,.32l.06,0A.14.14,0,0,0,34.94,39.26Z"/>
        <path class="cls-4" d="M34.43,40c-.66-.06-.62,1,0,1S35.08,40,34.43,40Z"/>
        <path class="cls-4" d="M33.63,44.92a.32.32,0,0,0-.05.63A.32.32,0,0,0,33.63,44.92Z"/>
        <path class="cls-4" d="M33.11,46.76v.05a.19.19,0,0,0,.36,0l0,0C33.62,46.48,33.06,46.44,33.11,46.76Z"/>
        <path class="cls-8" d="M60.89,10.32c-1.79-1.92-6.6,0-8.3,1.16a18.84,18.84,0,0,0-1.89,1.45,9.55,9.55,0,0,1,.93-2.22c1.8-3.14,5.52-4.64,7.31-7.75.1-.17-.18-.32-.31-.18a21.51,21.51,0,0,1-4.47,3.27,13.58,13.58,0,0,0-3.49,3.3,11.38,11.38,0,0,0-2.31-7.71s-.12,0-.09,0a14.58,14.58,0,0,1,1.37,6.7A18.44,18.44,0,0,1,49,12.22c-1-4.7-4-9.52-9.25-9.94-.07,0-.07.09,0,.11,4,1.23,5.5,4.16,7,7.48A18.53,18.53,0,0,1,48,15.06c.06.37.09.66.15.91a5.84,5.84,0,0,0-.39.94.64.64,0,0,0-.1-.13.43.43,0,0,0,0-.11c0-3.4-4-7.07-6.83-8.92-1.8-1.16-6.36-.87-7.77.8-.1.12.07.24.18.15a6.4,6.4,0,0,1,2.4-.39c2.59-.22,4.5.08,6.4,2a22.64,22.64,0,0,1,2.5,3.14,8,8,0,0,0-1.41-.77c-1.8-.79-5.76-1.72-7.2.06-.13.16.1.39.28.26,1.8-1.27,5.92.34,7.51,1.35s2.34,2.93,3.85,4.1a3.54,3.54,0,0,0,.24.93.35.35,0,0,0,.56.05,7.32,7.32,0,0,0,1.09-1.92l.16.09a.36.36,0,0,0,.47-.29c0-.44,0-.88.08-1.31v0a11.35,11.35,0,0,1,4-3.63,11.67,11.67,0,0,1,4.15-1.32,5.51,5.51,0,0,0,2.51-.62A.07.07,0,0,0,60.89,10.32Z"/>
        <g>
          <path class="cls-9" d="M54.52,29.12a7.54,7.54,0,0,1-6.82-8.2,6.44,6.44,0,0,1,.22-1.19,7.54,7.54,0,1,1,6.6,9.39Z"/>
          <path class="cls-10" d="M54.52,29.12a7.54,7.54,0,0,1-6.82-8.2,6.44,6.44,0,0,1,.22-1.19,7.54,7.54,0,1,1,6.6,9.39Z"/>
          <g>
            <g>
              <path class="cls-7" d="M49,21a6.24,6.24,0,1,0,6.78-5.65A6.25,6.25,0,0,0,49,21Z"/>
              <path class="cls-11" d="M49.38,19.47a6.21,6.21,0,0,0,12,2.33,2.41,2.41,0,0,1,0,.38,6.24,6.24,0,1,1-12-2.71Z"/>
            </g>
            <g>
              <path d="M50.53,19.57a3.11,3.11,0,1,0,3.38-2.81A3.1,3.1,0,0,0,50.53,19.57Z"/>
              <path class="cls-7" d="M53.7,19a1.24,1.24,0,1,0,2.47.23A1.24,1.24,0,1,0,53.7,19Z"/>
            </g>
          </g>
        </g>
        <g>
          <path class="cls-9" d="M42.1,27.29a6,6,0,0,1-5.37-6.47,4.45,4.45,0,0,1,.18-.93,5.89,5.89,0,0,1,6.28-4.45A6,6,0,0,1,42.1,27.29Z"/>
          <path class="cls-10" d="M42.1,27.29a6,6,0,0,1-5.37-6.47,4.45,4.45,0,0,1,.18-.93,5.89,5.89,0,0,1,6.28-4.45A6,6,0,0,1,42.1,27.29Z"/>
          <g>
            <g>
              <path class="cls-7" d="M37.76,20.92a4.91,4.91,0,1,0,5.34-4.45A4.91,4.91,0,0,0,37.76,20.92Z"/>
              <path class="cls-11" d="M38.05,19.68a4.89,4.89,0,0,0,9.49,1.84,2.81,2.81,0,0,1,0,.29,4.91,4.91,0,1,1-9.78-.89A5,5,0,0,1,38.05,19.68Z"/>
            </g>
            <g>
              <path d="M39,19.76a2.45,2.45,0,1,0,2.66-2.21A2.46,2.46,0,0,0,39,19.76Z"/>
              <path class="cls-7" d="M41.46,19.34a1,1,0,0,0,.88,1.07,1,1,0,1,0,.18-1.95A1,1,0,0,0,41.46,19.34Z"/>
            </g>
          </g>
        </g>
      </g>
    </g>
  </g>
</svg>
