<svg width="0" height="0" class="hidden">
  <symbol xmlns="http://www.w3.org/2000/svg" viewBox="0 0 14 8" id="show-more">
    <path  d="M6.67 5.255l4.95-4.95a1 1 0 111.413 1.414L7.376 7.376a1 1 0 01-1.414 0L.305 1.72A1 1 0 111.72.305l4.95 4.95z" ></path>
  </symbol>
  <symbol xmlns="http://www.w3.org/2000/svg" viewBox="0 0 17 10" id="arrow">
      <path d="M15.07 5.77H1.78c-.66 0-1.2-.31-1.2-.68v-.15c0-.37.54-.68 1.2-.68h13.29c.66 0 1.2.31 1.2.68v.15c0 .37-.54.68-1.2.68zM10.84.52l5.03 4.97"></path>
      <path d="M15 5.65l-4.31-4.21a.62.62 0 01.09-.86l.11-.11a.62.62 0 01.86-.1L16 4.57a.64.64 0 01-.09.87l-.11.1a.62.62 0 01-.8.11zm.87-1.1l-5.03 4.97"></path>
      <path d="M11.75 9.67L16 5.47a.64.64 0 00-.09-.87l-.11-.1a.62.62 0 00-.8-.11L10.69 8.6a.62.62 0 00.09.86l.11.11a.62.62 0 00.86.1z"></path>
    </symbol>
</svg>